  0
SECTION
  2
HEADER
  9
$ACADVER
  1
AC1032
  9
$ACADMAINTVER
 90
      197
  9
$DWGCODEPAGE
  3
ANSI_1252
  9
$LASTSAVEDBY
  1
ASUS
  9
$REQUIREDVERSIONS
160
                 0
  9
$INSBASE
 10
0.0
 20
0.0
 30
0.0
  9
$EXTMIN
 10
22.49239171648357
 20
-0.0000000000000409
 30
0.0
  9
$EXTMAX
 10
32.09239171648255
 20
21.59999999999783
 30
0.0
  9
$LIMMIN
 10
0.0
 20
0.0
  9
$LIMMAX
 10
12.0
 20
9.0
  9
$ORTHOMODE
 70
     0
  9
$REGENMODE
 70
     1
  9
$FILLMODE
 70
     1
  9
$QTEXTMODE
 70
     0
  9
$MIRRTEXT
 70
     1
  9
$LTSCALE
 40
1.0
  9
$ATTMODE
 70
     1
  9
$TEXTSIZE
 40
0.2
  9
$TRACEWID
 40
0.05
  9
$TEXTSTYLE
  7
Standard
  9
$CLAYER
  8
0
  9
$CELTYPE
  6
ByLayer
  9
$CECOLOR
 62
   256
  9
$CELTSCALE
 40
1.0
  9
$DISPSILH
 70
     0
  9
$DIMSCALE
 40
1.0
  9
$DIMASZ
 40
0.18
  9
$DIMEXO
 40
0.0625
  9
$DIMDLI
 40
0.38
  9
$DIMRND
 40
0.0
  9
$DIMDLE
 40
0.0
  9
$DIMEXE
 40
0.18
  9
$DIMTP
 40
0.0
  9
$DIMTM
 40
0.0
  9
$DIMTXT
 40
0.18
  9
$DIMCEN
 40
0.09
  9
$DIMTSZ
 40
0.0
  9
$DIMTOL
 70
     0
  9
$DIMLIM
 70
     0
  9
$DIMTIH
 70
     1
  9
$DIMTOH
 70
     1
  9
$DIMSE1
 70
     0
  9
$DIMSE2
 70
     0
  9
$DIMTAD
 70
     0
  9
$DIMZIN
 70
     0
  9
$DIMBLK
  1

  9
$DIMASO
 70
     1
  9
$DIMSHO
 70
     1
  9
$DIMPOST
  1

  9
$DIMAPOST
  1

  9
$DIMALT
 70
     0
  9
$DIMALTD
 70
     2
  9
$DIMALTF
 40
25.4
  9
$DIMLFAC
 40
1.0
  9
$DIMTOFL
 70
     0
  9
$DIMTVP
 40
0.0
  9
$DIMTIX
 70
     0
  9
$DIMSOXD
 70
     0
  9
$DIMSAH
 70
     0
  9
$DIMBLK1
  1

  9
$DIMBLK2
  1

  9
$DIMSTYLE
  2
Standard
  9
$DIMCLRD
 70
     0
  9
$DIMCLRE
 70
     0
  9
$DIMCLRT
 70
     0
  9
$DIMTFAC
 40
1.0
  9
$DIMGAP
 40
0.09
  9
$DIMJUST
 70
     0
  9
$DIMSD1
 70
     0
  9
$DIMSD2
 70
     0
  9
$DIMTOLJ
 70
     1
  9
$DIMTZIN
 70
     0
  9
$DIMALTZ
 70
     0
  9
$DIMALTTZ
 70
     0
  9
$DIMUPT
 70
     0
  9
$DIMDEC
 70
     4
  9
$DIMTDEC
 70
     4
  9
$DIMALTU
 70
     2
  9
$DIMALTTD
 70
     2
  9
$DIMTXSTY
  7
Standard
  9
$DIMAUNIT
 70
     0
  9
$DIMADEC
 70
     0
  9
$DIMALTRND
 40
0.0
  9
$DIMAZIN
 70
     0
  9
$DIMDSEP
 70
    46
  9
$DIMATFIT
 70
     3
  9
$DIMFRAC
 70
     0
  9
$DIMLDRBLK
  1

  9
$DIMLUNIT
 70
     2
  9
$DIMLWD
 70
    -2
  9
$DIMLWE
 70
    -2
  9
$DIMTMOVE
 70
     0
  9
$DIMFXL
 40
1.0
  9
$DIMFXLON
 70
     0
  9
$DIMJOGANG
 40
0.7853981633974483
  9
$DIMTFILL
 70
     0
  9
$DIMTFILLCLR
 70
     0
  9
$DIMARCSYM
 70
     0
  9
$DIMLTYPE
  6

  9
$DIMLTEX1
  6

  9
$DIMLTEX2
  6

  9
$DIMTXTDIRECTION
 70
     0
  9
$LUNITS
 70
     2
  9
$LUPREC
 70
     4
  9
$SKETCHINC
 40
0.1
  9
$FILLETRAD
 40
0.5
  9
$AUNITS
 70
     0
  9
$AUPREC
 70
     0
  9
$MENU
  1
.
  9
$ELEVATION
 40
0.0
  9
$PELEVATION
 40
0.0
  9
$THICKNESS
 40
0.0
  9
$LIMCHECK
 70
     0
  9
$CHAMFERA
 40
0.0
  9
$CHAMFERB
 40
0.0
  9
$CHAMFERC
 40
0.0
  9
$CHAMFERD
 40
0.0
  9
$SKPOLY
 70
     0
  9
$TDCREATE
 40
2460319.074710648
  9
$TDUCREATE
 40
2460319.283045521
  9
$TDUPDATE
 40
2460323.081678240
  9
$TDUUPDATE
 40
2460323.290011574
  9
$TDINDWG
 40
0.0008912153
  9
$TDUSRTIMER
 40
0.0008912153
  9
$USRTIMER
 70
     1
  9
$ANGBASE
 50
0.0
  9
$ANGDIR
 70
     0
  9
$PDMODE
 70
     0
  9
$PDSIZE
 40
0.0
  9
$PLINEWID
 40
0.0
  9
$SPLFRAME
 70
     0
  9
$SPLINETYPE
 70
     6
  9
$SPLINESEGS
 70
     8
  9
$HANDSEED
  5
588
  9
$SURFTAB1
 70
     6
  9
$SURFTAB2
 70
     6
  9
$SURFTYPE
 70
     6
  9
$SURFU
 70
     6
  9
$SURFV
 70
     6
  9
$UCSBASE
  2

  9
$UCSNAME
  2

  9
$UCSORG
 10
0.0
 20
0.0
 30
0.0
  9
$UCSXDIR
 10
1.0
 20
0.0
 30
0.0
  9
$UCSYDIR
 10
0.0
 20
1.0
 30
0.0
  9
$UCSORTHOREF
  2

  9
$UCSORTHOVIEW
 70
     0
  9
$UCSORGTOP
 10
0.0
 20
0.0
 30
0.0
  9
$UCSORGBOTTOM
 10
0.0
 20
0.0
 30
0.0
  9
$UCSORGLEFT
 10
0.0
 20
0.0
 30
0.0
  9
$UCSORGRIGHT
 10
0.0
 20
0.0
 30
0.0
  9
$UCSORGFRONT
 10
0.0
 20
0.0
 30
0.0
  9
$UCSORGBACK
 10
0.0
 20
0.0
 30
0.0
  9
$PUCSBASE
  2

  9
$PUCSNAME
  2

  9
$PUCSORG
 10
0.0
 20
0.0
 30
0.0
  9
$PUCSXDIR
 10
1.0
 20
0.0
 30
0.0
  9
$PUCSYDIR
 10
0.0
 20
1.0
 30
0.0
  9
$PUCSORTHOREF
  2

  9
$PUCSORTHOVIEW
 70
     0
  9
$PUCSORGTOP
 10
0.0
 20
0.0
 30
0.0
  9
$PUCSORGBOTTOM
 10
0.0
 20
0.0
 30
0.0
  9
$PUCSORGLEFT
 10
0.0
 20
0.0
 30
0.0
  9
$PUCSORGRIGHT
 10
0.0
 20
0.0
 30
0.0
  9
$PUCSORGFRONT
 10
0.0
 20
0.0
 30
0.0
  9
$PUCSORGBACK
 10
0.0
 20
0.0
 30
0.0
  9
$USERI1
 70
     0
  9
$USERI2
 70
     0
  9
$USERI3
 70
     0
  9
$USERI4
 70
     0
  9
$USERI5
 70
     0
  9
$USERR1
 40
0.0
  9
$USERR2
 40
0.0
  9
$USERR3
 40
0.0
  9
$USERR4
 40
0.0
  9
$USERR5
 40
0.0
  9
$WORLDVIEW
 70
     1
  9
$SHADEDGE
 70
     3
  9
$SHADEDIF
 70
    70
  9
$TILEMODE
 70
     1
  9
$MAXACTVP
 70
    64
  9
$PINSBASE
 10
0.0
 20
0.0
 30
0.0
  9
$PLIMCHECK
 70
     0
  9
$PEXTMIN
 10
1.000000000000000E+20
 20
1.000000000000000E+20
 30
1.000000000000000E+20
  9
$PEXTMAX
 10
-1.000000000000000E+20
 20
-1.000000000000000E+20
 30
-1.000000000000000E+20
  9
$PLIMMIN
 10
0.0
 20
0.0
  9
$PLIMMAX
 10
12.0
 20
9.0
  9
$UNITMODE
 70
     0
  9
$VISRETAIN
 70
     1
  9
$PLINEGEN
 70
     0
  9
$PSLTSCALE
 70
     1
  9
$TREEDEPTH
 70
  3020
  9
$CMLSTYLE
  2
Standard
  9
$CMLJUST
 70
     0
  9
$CMLSCALE
 40
1.0
  9
$PROXYGRAPHICS
 70
     1
  9
$MEASUREMENT
 70
     1
  9
$CELWEIGHT
370
    -1
  9
$ENDCAPS
280
     0
  9
$JOINSTYLE
280
     0
  9
$LWDISPLAY
290
     0
  9
$INSUNITS
 70
     5
  9
$HYPERLINKBASE
  1

  9
$STYLESHEET
  1

  9
$XEDIT
290
     1
  9
$CEPSNTYPE
380
     0
  9
$PSTYLEMODE
290
     1
  9
$FINGERPRINTGUID
  2
{a9093e5e-dd96-4c5a-b5a4-2b80c182fb83}
  9
$VERSIONGUID
  2
{D3AC5FEB-9CA2-8349-B782-E931C8AB8666}
  9
$EXTNAMES
290
     1
  9
$PSVPSCALE
 40
0.0
  9
$OLESTARTUP
290
     0
  9
$SORTENTS
280
   127
  9
$INDEXCTL
280
     0
  9
$HIDETEXT
280
     1
  9
$XCLIPFRAME
280
     2
  9
$HALOGAP
280
     0
  9
$OBSCOLOR
 70
   257
  9
$OBSLTYPE
280
     0
  9
$INTERSECTIONDISPLAY
280
     0
  9
$INTERSECTIONCOLOR
 70
   257
  9
$DIMASSOC
280
     2
  9
$PROJECTNAME
  1

  9
$CAMERADISPLAY
290
     0
  9
$LENSLENGTH
 40
50.0
  9
$CAMERAHEIGHT
 40
0.0
  9
$STEPSPERSEC
 40
2.0
  9
$STEPSIZE
 40
6.0
  9
$3DDWFPREC
 40
2.0
  9
$PSOLWIDTH
 40
0.25
  9
$PSOLHEIGHT
 40
4.0
  9
$LOFTANG1
 40
1.570796326794896
  9
$LOFTANG2
 40
1.570796326794896
  9
$LOFTMAG1
 40
0.0
  9
$LOFTMAG2
 40
0.0
  9
$LOFTPARAM
 70
     7
  9
$LOFTNORMALS
280
     1
  9
$LATITUDE
 40
37.795
  9
$LONGITUDE
 40
-122.394
  9
$NORTHDIRECTION
 40
0.0
  9
$TIMEZONE
 70
 -8000
  9
$LIGHTGLYPHDISPLAY
280
     1
  9
$TILEMODELIGHTSYNCH
280
     1
  9
$CMATERIAL
347
44
  9
$SOLIDHIST
280
     0
  9
$SHOWHIST
280
     1
  9
$DWFFRAME
280
     2
  9
$DGNFRAME
280
     2
  9
$REALWORLDSCALE
290
     1
  9
$INTERFERECOLOR
 62
   256
  9
$INTERFEREOBJVS
345
33
  9
$INTERFEREVPVS
346
30
  9
$CSHADOW
280
     0
  9
$SHADOWPLANELOCATION
 40
0.0
  0
ENDSEC
  0
SECTION
  2
CLASSES
  0
CLASS
  1
ACDBDICTIONARYWDFLT
  2
AcDbDictionaryWithDefault
  3
ObjectDBX Classes
 90
        0
 91
        1
280
     0
281
     0
  0
CLASS
  1
VISUALSTYLE
  2
AcDbVisualStyle
  3
ObjectDBX Classes
 90
     4095
 91
       24
280
     0
281
     0
  0
CLASS
  1
MATERIAL
  2
AcDbMaterial
  3
ObjectDBX Classes
 90
     1153
 91
        3
280
     0
281
     0
  0
CLASS
  1
SCALE
  2
AcDbScale
  3
ObjectDBX Classes
 90
     1153
 91
       33
280
     0
281
     0
  0
CLASS
  1
TABLESTYLE
  2
AcDbTableStyle
  3
ObjectDBX Classes
 90
     4095
 91
        1
280
     0
281
     0
  0
CLASS
  1
MLEADERSTYLE
  2
AcDbMLeaderStyle
  3
ACDB_MLEADERSTYLE_CLASS
 90
     4095
 91
        1
280
     0
281
     0
  0
CLASS
  1
SUN
  2
AcDbSun
  3
SCENEOE
 90
     1153
 91
        1
280
     0
281
     0
  0
CLASS
  1
DICTIONARYVAR
  2
AcDbDictionaryVar
  3
ObjectDBX Classes
 90
        0
 91
        5
280
     0
281
     0
  0
CLASS
  1
ACDBSECTIONVIEWSTYLE
  2
AcDbSectionViewStyle
  3
ObjectDBX Classes
 90
     1025
 91
        1
280
     0
281
     0
  0
CLASS
  1
ACDBDETAILVIEWSTYLE
  2
AcDbDetailViewStyle
  3
ObjectDBX Classes
 90
     1025
 91
        1
280
     0
281
     0
  0
CLASS
  1
SORTENTSTABLE
  2
AcDbSortentsTable
  3
ObjectDBX Classes
 90
        0
 91
        0
280
     0
281
     0
  0
CLASS
  1
CELLSTYLEMAP
  2
AcDbCellStyleMap
  3
ObjectDBX Classes
 90
     1152
 91
        1
280
     0
281
     0
  0
ENDSEC
  0
SECTION
  2
TABLES
  0
TABLE
  2
VPORT
  5
8
330
0
100
AcDbSymbolTable
 70
     1
  0
VPORT
  5
29
330
8
100
AcDbSymbolTableRecord
100
AcDbViewportTableRecord
  2
*Active
 70
     0
 10
0.0
 20
0.0
 11
1.0
 21
1.0
 12
18.99062842345121
 22
5.522616548609114
 13
0.0
 23
0.0
 14
0.5
 24
0.5
 15
0.5
 25
0.5
 16
0.0
 26
0.0
 36
1.0
 17
0.0
 27
0.0
 37
-1000.0
 40
88.89215814549039
 41
1.891975308641975
 42
50.0
 43
5106.823260155533
 44
15239.85945721394
 50
0.0
 51
0.0
 71
     0
 72
   100
 73
     1
 74
     3
 75
     0
 76
     0
 77
     0
 78
     0
281
     0
 65
     1
110
0.0
120
0.0
130
0.0
111
1.0
121
0.0
131
0.0
112
0.0
122
1.0
132
0.0
 79
     0
146
0.0
348
2F
 60
     3
 61
     5
292
     1
282
     1
141
0.0
142
0.0
361
6D
1001
ACAD_NAV_VCDISPLAY
1070
     3
  0
ENDTAB
  0
TABLE
  2
LTYPE
  5
5
330
0
100
AcDbSymbolTable
 70
     1
  0
LTYPE
  5
14
330
5
100
AcDbSymbolTableRecord
100
AcDbLinetypeTableRecord
  2
ByBlock
 70
     0
  3

 72
    65
 73
     0
 40
0.0
  0
LTYPE
  5
15
330
5
100
AcDbSymbolTableRecord
100
AcDbLinetypeTableRecord
  2
ByLayer
 70
     0
  3

 72
    65
 73
     0
 40
0.0
  0
LTYPE
  5
16
330
5
100
AcDbSymbolTableRecord
100
AcDbLinetypeTableRecord
  2
Continuous
 70
     0
  3
Solid line
 72
    65
 73
     0
 40
0.0
  0
ENDTAB
  0
TABLE
  2
LAYER
  5
2
102
{ACAD_XDICTIONARY
360
573
102
}
330
0
100
AcDbSymbolTable
 70
     4
  0
LAYER
  5
10
330
2
100
AcDbSymbolTableRecord
100
AcDbLayerTableRecord
  2
0
 70
     0
 62
     7
  6
Continuous
370
    -3
390
F
347
46
348
0
  0
LAYER
  5
6E
330
2
100
AcDbSymbolTableRecord
100
AcDbLayerTableRecord
  2
ProfileEdges
 70
     0
 62
     7
  6
Continuous
370
    -3
390
F
347
46
348
0
  0
LAYER
  5
6F
330
2
100
AcDbSymbolTableRecord
100
AcDbLayerTableRecord
  2
SectionCutEdges
 70
     0
 62
     7
  6
Continuous
370
    -3
390
F
347
46
348
0
  0
LAYER
  5
56F
330
2
100
AcDbSymbolTableRecord
100
AcDbLayerTableRecord
  2
ZMURETES
 70
     0
 62
   152
  6
Continuous
370
     9
390
F
347
46
348
0
1001
AcAecLayerStandard
1000

1000

1001
AcCmTransparency
1071
        0
  0
ENDTAB
  0
TABLE
  2
STYLE
  5
3
330
0
100
AcDbSymbolTable
 70
     1
  0
STYLE
  5
11
330
3
100
AcDbSymbolTableRecord
100
AcDbTextStyleTableRecord
  2
Standard
 70
     0
 40
0.0
 41
1.0
 50
0.0
 71
     0
 42
0.2
  3
txt
  4

  0
ENDTAB
  0
TABLE
  2
VIEW
  5
6
330
0
100
AcDbSymbolTable
 70
     0
  0
ENDTAB
  0
TABLE
  2
UCS
  5
7
330
0
100
AcDbSymbolTable
 70
     0
  0
ENDTAB
  0
TABLE
  2
APPID
  5
9
330
0
100
AcDbSymbolTable
 70
     5
  0
APPID
  5
12
330
9
100
AcDbSymbolTableRecord
100
AcDbRegAppTableRecord
  2
ACAD
 70
     0
  0
APPID
  5
56C
330
9
100
AcDbSymbolTableRecord
100
AcDbRegAppTableRecord
  2
ACAD_NAV_VCDISPLAY
 70
     0
  0
APPID
  5
570
330
9
100
AcDbSymbolTableRecord
100
AcDbRegAppTableRecord
  2
AcAecLayerStandard
 70
     0
  0
APPID
  5
571
330
9
100
AcDbSymbolTableRecord
100
AcDbRegAppTableRecord
  2
AcCmTransparency
 70
     0
  0
APPID
  5
572
330
9
100
AcDbSymbolTableRecord
100
AcDbRegAppTableRecord
  2
DCO15
 70
     0
  0
ENDTAB
  0
TABLE
  2
DIMSTYLE
  5
A
330
0
100
AcDbSymbolTable
 70
     1
100
AcDbDimStyleTable
 71
     0
  0
DIMSTYLE
105
27
330
A
100
AcDbSymbolTableRecord
100
AcDbDimStyleTableRecord
  2
Standard
 70
     0
340
11
  0
ENDTAB
  0
TABLE
  2
BLOCK_RECORD
  5
1
330
0
100
AcDbSymbolTable
 70
     2
  0
BLOCK_RECORD
  5
1F
330
1
100
AcDbSymbolTableRecord
100
AcDbBlockTableRecord
  2
*Model_Space
340
22
 70
     0
280
     1
281
     0
  0
BLOCK_RECORD
  5
1B
330
1
100
AcDbSymbolTableRecord
100
AcDbBlockTableRecord
  2
*Paper_Space
340
1E
 70
     0
280
     1
281
     0
  0
BLOCK_RECORD
  5
23
330
1
100
AcDbSymbolTableRecord
100
AcDbBlockTableRecord
  2
*Paper_Space0
340
26
 70
     0
280
     1
281
     0
  0
BLOCK_RECORD
  5
2F3
330
1
100
AcDbSymbolTableRecord
100
AcDbBlockTableRecord
  2
Fachada derecho
340
0
310
28000000280000002800000001002000000000000019000001000000010000000000000000000000FFFFFFFFFFFFFFFFFFFFFFFFFFFFFFFFFFFFFFFFFFFFFFFFFFFFFFFFFFFFFFFFFFFFFFFFFFFFFFFFFFFFFFFFFFFFFFFFFFFFFFFFFFFFFFFFFFFFFFFFFFFFFFFFFFFFFFFFFFFFFFFFFFFFFFFFFFFFFFFFFFFFFFFFFFFFFF
310
FFFFFFFFFFFFFFFFFFFFFFFFFFFFFFFFFFFFFFFFFFFFFFFFFFFFFFFFFFFFFFFFFFFFFFFFFFFFFFFFFFFFFFFFFFFFFFFFFFFFFFFFFFFFFFFFFFFFFFFFFFFFFFFFFFFFFFFFFFFFFFFFFFFFFFFFFFFFFFFFFFFFFFFFFFFFFFFFFFFFFFFFFFFFFFFFFFFFFFFFFFFFFFFFFFFFFFFFFFFFFFFFFFFFFFFFFFFFFFFFFFFFFFFFFFFFFF
310
FFFFFFFFFFFFFFFFFFFFFFFFFFFFFFFFFFFFFFFFFFFFFFFFFFFFFFFFFFFFFFFFFFFFFFFFFFFFFFFFFFFFFFFFFFFFFFFFFFFFFFFFFFFFFFFFFFFFFFFFFFFFFFFFFFFFFFFFFFFFFFFFFFFFFFFFFFFFFFFFFFFFFFFFFFFFFFFFFFFFFFFFFFFFFFFFFFFFFFFFFFFFFFFFFFFFFFFFFFFFFFFFFFFFFFFFFFFFFFFFFFFFFFFFFFFFFF
310
FFFFFFFFFFFFFFFFFFFFFFFFFFFFFFFFFFFFFFFFFFFFFFFFFFFFFFFFFFFFFFFFFFFFFFFFFFFFFFFFFFFFFFFFFFFFFFFFFFFFFFFFFFFFFFFFFFFFFFFFFFFFFFFFFFFFFFFFFFFFFFFFFFFFFFFFFFFFFFFFFFFFFFFFFFFFFFFFFFFFFFFFFFFFFFFFFFFFFFFFFFFFFFFFFFFFFFFFFFFFFFFFFFFFFFFFFFFFFFFFFFFFFFFFFFFFFF
310
FFFFFFFFFFFFFFFFFFFFFFFFFFFFFFFFFFFFFFFFFFFFFFFFFFFFFFFFFFFFFFFFFFFFFFFFFFFFFFFFFFFFFFFFFFFFFFFFFFFFFFFFFFFFFFFFFFFFFFFFFFFFFFFFFFFFFFFFFFFFFFFFFFFFFFFFFFFFFFFFFFFFFFFFFFFFFFFFFFFFFFFFFFFFFFFFFFFFFFFFFFFFFFFFFFFFFFFFFFFFFFFFFFFFFFFFFFFFFFFFFFFFFFFFFFFFFF
310
FFFFFFFFFFFFFFFFFFFFFFFFFFFFFFFFFFFFFFFFFFFFFFFFFFFFFFFFFFFFFFFFFFFFFFFFFFFFFFFFFFFFFFFFFFFFFFFFFFFFFFFFFFFFFFFFFFFFFFFFFFFFFFFFFFFFFFFFFFFFFFFFFFFFFFFFFFFFFFFFFFFFFFFFFFFFFFFFFFFFFFFFFFFFFFFFFFFFFFFFFFFFFFFFFFFFFFFFFFFFFFFFFFFFFFFFFFFFFFFFFFFFFFFFFFFFFF
310
FFFFFFFFFFFFFFFFFFFFFFFFFFFFFFFFFFFFFFFFFFFFFFFFFFFFFFFFFFFFFFFFFFFFFFFFFFFFFFFFFFFFFFFFFFFFFFFFFFFFFFFFFFFFFFFFFFFFFFFFFFFFFFFFFFFFFFFFFFFFFFFFFFFFFFFFFFFFFFFFFFFFFFFFFFFFFFFFFFFFFFFFFFFFFFFFFFFFFFFFFFFFFFFFFFFFFFFFFFFFFFFFFFFFFFFFFFFFFFFFFFFFFFFFFFFFFF
310
FFFFFFFFFFFFFFFFFFFFFFFFFFFFFFFFFFFFFFFFFFFFFFFFFFFFFFFFFFFFFFFFFFFFFFFFFFFFFFFFFFFFFFFFFFFFFFFFFFFFFFFFFFFFFFFFFFFFFFFFFFFFFFFFFFFFFFFFFFFFFFFFFFFFFFFFFFFFFFFFFFFFFFFFFFFFFFFFFFFFFFFFFFFFFFFFFFFFFFFFFFFFFFFFFFFFFFFFFFFFFFFFFFFFFFFFFFFFFFFFFFFFFFFFFFFFFF
310
FFFFFFFFFFFFFFFFFFFFFFFFFFFFFFFFFFFFFFFFFFFFFFFFFFFFFFFFFFFFFFFFFFFFFFFFFFFFFFFFFFFFFFFFFFFFFFFFFFFFFFFFFFFFFFFFFFFFFFFFFFFFFFFFFFFFFFFFFFFFFFFFFFFFFFFFFFFFFFFFFFFFFFFFFFFFFFFFFFFFFFFFFFFFFFFFFFFFFFFFFFFFFFFFFFFFFFFFFFFFFFFFFFFFFFFFFFFFFFFFFFFFFFFFFFFFFF
310
FFFFFFFFFFFFFFFFFFFFFFFFFFFFFFFFFFFFFFFFFFFFFFFFFFFFFFFFFFFFFFFFFFFFFFFFFFFFFFFFFFFFFFFFFFFFFFFFFFFFFFFFFFFFFFFFFFFFFFFFFFFFFFFFFFFFFFFFFFFFFFFFFFFFFFFFFFFFFFFFFFFFFFFFFFFFFFFFFFFFFFFFFFFFFFFFFFFFFFFFFFFFFFFFFFFFFFFFFFFFFFFFFFFFFFFFFFFFFFFFFFFFFFFFFFFFFF
310
FFFFFFFFFFFFFFFFFFFFFFFFFFFFFFFFFFFFFFFFFFFFFFFFFFFFFFFFFFFFFFFFFFFFFFFFFFFFFFFFFFFFFFFFFFFFFFFFFFFFFFFFFFFFFFFFFFFFFFFFFFFFFFFFFFFFFFFFFFFFFFFFFFFFFFFFFFFFFFFFFFFFFFFFFFFFFFFFFFFFFFFFFFFFFFFFFFFFFFFFFFFFFFFFFFFFFFFFFFFFFFFFFFFFFFFFFFFFFFFFFFFFFFFFFFFFFF
310
FFFFFFFFFFFFFFFFFFFFFFFFFFFFFFFFFFFFFFFFFFFFFFFFFFFFFFFFFFFFFFFFFFFFFFFFFFFFFFFFFFFFFFFFFFFFFFFFFFFFFFFFFFFFFFFFFFFFFFFFFFFFFFFFFFFFFFFFFFFFFFFFFFFFFFFFFFFFFFFFFFFFFFFFFFFFFFFFFFFFFFFFFFFFFFFFFFFFFFFFFFFFFFFFFFFFFFFFFFFFFFFFFFFFFFFFFFFFFFFFFFFFFFFFFFFFFF
310
FFFFFFFFFFFFFFFFFFFFFFFFFFFFFFFFFFFFFFFFFFFFFFFFFFFFFFFFFFFFFFFFFFFFFFFFFFFFFFFFFFFFFFFFFFFFFFFFFFFFFFFFFFFFFFFFFFFFFFFFFFFFFFFFFFFFFFFFFFFFFFFFFFFFFFFFFFFFFFFFFFFFFFFFFFFFFFFFFFFFFFFFFFFFFFFFFFFFFFFFFFFFFFFFFFFFFFFFFFFFFFFFFFFFFFFFFFFFFFFFFFFFFFFFFFFFFF
310
FFFFFFFFFFFFFFFFFFFFFFFFFFFFFFFFFFFFFFFFFFFFFFFFFFFFFFFFFFFFFFFFFFFFFFFFFFFFFFFFFFFFFFFFFFFFFFFFFFFFFFFFFFFFFFFFFFFFFFFFFFFFFFFFFFFFFFFFFFFFFFFFFFFFFFFFFFFFFFFFFFFFFFFFFFFFFFFFFFFFFFFFFFFFFFFFFFFFFFFFFFFFFFFFFFFFFFFFFFFFFFFFFFFFFFFFFFFFFFFFFFFFFFFFFFFFFF
310
FFFFFFFFFFFFFFFFFFFFFFFFFFFFFFFFFFFFFFFFFFFFFFFFFFFFFFFFFFFFFFFFFFFFFFFFFFFFFFFFFFFFFFFFFFFFFFFFFFFFFFFFFFFFFFFFFFFFFFFFFFFFFFFFFFFFFFFFFFFFFFFFFFFFFFFFFFFFFFFFFFFFFFFFFFFFFFFFFFFFFFFFFFFFFFFFFFFFFFFFFFFFFFFFFFFFFFFFFFFFFFFFFFFFFFFFFFFFFFFFFFFFFFFFFFFFFF
310
FFFFFFFFFFFFFFFFFFFFFFFFFFFFFFFFFFFFFFFFFFFFFFFFFFFFFFFFFFFFFFFFFFFFFFFFFFFFFFFFFFFFFFFFFFFFFFFFFFFFFFFFFFFFFFFFFFFFFFFFFFFFFFFFFFFFFFFFFFFFFF000000FFFFFFFFFFFFFFFFFFFFFFFFFFFFFFFFFF000000FF000000FF000000FF000000FF000000FF000000FF000000FF000000FF000000FF
310
000000FF000000FF000000FF000000FF000000FF000000FF000000FF000000FF000000FF000000FF000000FF000000FF000000FF000000FF000000FF000000FF000000FF000000FF000000FF000000FFFFFFFFFFFFFFFFFFFFFFFFFFFFFFFFFFFFFFFFFFFFFFFFFF000000FFFFFFFFFFFFFFFFFFFFFFFFFFFFFFFFFF000000
310
FF000000FF000000FF000000FFFFFFFFFF000000FFFFFFFFFF000000FFFFFFFFFFFFFFFFFF000000FF000000FF000000FFFFFFFFFFFFFFFFFFFFFFFFFFFFFFFFFF000000FF000000FF000000FFFFFFFFFFFFFFFFFFFFFFFFFFFFFFFFFFFFFFFFFFFFFFFFFF000000FF000000FF000000FFFFFFFFFFFFFFFFFFFFFFFFFFFFFF
310
FFFFFFFFFFFFFFFFFFFF000000FFFFFFFFFFFFFFFFFFFFFFFFFFFFFFFFFF000000FF000000FF000000FF000000FFFFFFFFFF000000FFFFFFFFFF000000FFFFFFFFFFFFFFFFFF000000FF000000FF000000FFFFFFFFFFFFFFFFFFFFFFFFFFFFFFFFFF000000FF000000FF000000FFFFFFFFFFFFFFFFFF000000FFFFFFFFFFFF
310
FFFFFFFFFFFFFF000000FF000000FF000000FFFFFFFFFFFFFFFFFFFFFFFFFFFFFFFFFFFFFFFFFFFFFFFFFF000000FFFFFFFFFFFFFFFFFFFFFFFFFFFFFFFFFF000000FF000000FF000000FF000000FFFFFFFFFF000000FFFFFFFFFF000000FFFFFFFFFFFFFFFFFF000000FF000000FF000000FFFFFFFFFFFFFFFFFFFFFFFFFF
310
FFFFFFFF000000FF000000FF000000FFFFFFFFFFFFFFFFFF000000FFFFFFFFFFFFFFFFFFFFFFFFFF000000FF000000FF000000FFFFFFFFFFFFFFFFFFFFFFFFFFFFFFFFFFFFFFFFFFFFFFFFFF000000FFFFFFFFFFFFFFFFFFFFFFFFFFFFFFFFFF000000FF000000FF000000FF000000FFFFFFFFFF000000FFFFFFFFFF000000
310
FFFFFFFFFFFFFFFFFF000000FF000000FF000000FFFFFFFFFFFFFFFFFFFFFFFFFFFFFFFFFF000000FF000000FF000000FFFFFFFFFFFFFFFFFF000000FFFFFFFFFFFFFFFFFFFFFFFFFF000000FF000000FF000000FFFFFFFFFFFFFFFFFFFFFFFFFFFFFFFFFF000000FF000000FF000000FF000000FF000000FF000000FF0000
310
00FF000000FF000000FF000000FF000000FF000000FF000000FF000000FF000000FF000000FF000000FF000000FF000000FF000000FF000000FF000000FF000000FF000000FF000000FF000000FF000000FF000000FF000000FF000000FF000000FF000000FF000000FF000000FF000000FF000000FFFFFFFFFFFFFFFFFFFF
310
FFFFFFFFFFFFFF000000FFFFFFFFFFFFFFFFFFFFFFFFFFFFFFFFFFFFFFFFFFFFFFFFFFFFFFFFFFFFFFFFFFFFFFFFFFFFFFFFFFFFFFFFFFFFFFFFFFFFFFFFFFFFFFFFFFFFFFFFFFFFFFFFFFFFFFFFFFFFFFFFFFFFFFFFFFFFFFFFFFFFFFFFFFFFFFFFFFFFFFFFFFFFFFFFFFFFFFFFFFFFFFFFFFFFFFFFFFFFFFFFFFFFFFFFFF
310
FFFFFFFFFFFFFFFFFFFFFFFFFFFFFFFFFFFFFFFF000000FFFFFFFFFFFFFFFFFFFFFFFFFFFFFFFFFF000000FFFFFFFFFF000000FF000000FF000000FF000000FF000000FF000000FF000000FF000000FF000000FF000000FF000000FF000000FF000000FF000000FF000000FF000000FF000000FF000000FF000000FF000000
310
FF000000FF000000FF000000FF000000FF000000FF000000FF000000FF000000FF000000FF000000FF000000FF000000FFFFFFFFFF000000FFFFFFFFFFFFFFFFFFFFFFFFFFFFFFFFFF000000FFFFFFFFFF000000FF000000FF000000FF000000FF000000FF000000FF000000FF000000FF000000FF000000FF000000FF0000
310
00FF000000FF000000FF000000FF000000FF000000FF000000FF000000FF000000FF000000FF000000FF000000FF000000FF000000FFFFFFFFFFFFFFFFFFFFFFFFFFFFFFFFFFFFFFFFFF000000FF000000FFFFFFFFFF000000FFFFFFFFFFFFFFFFFFFFFFFFFFFFFFFFFF000000FFFFFFFFFF000000FF000000FF000000FF00
310
0000FF000000FF000000FF000000FF000000FF000000FF000000FF000000FF000000FF000000FF000000FF000000FF000000FF000000FF000000FF000000FF000000FF000000FF000000FF000000FF000000FF000000FF000000FF000000FF000000FF000000FF000000FF000000FF000000FFFFFFFFFF000000FFFFFFFFFF
310
FFFFFFFFFFFFFFFFFFFFFFFF000000FFFFFFFFFFFFFFFFFFFFFFFFFFFFFFFFFFFFFFFFFFFFFFFFFFFFFFFFFFFFFFFFFFFFFFFFFFFFFFFFFFFFFFFFFFFFFFFFFFFFFFFFFFFFFFFFFFFFFFFFFFFFFFFFFFFFFFFFFFFFFFFFFFFFFFFFFFFFFFFFFFFFFFFFFFFFFFFFFFFFFFFFFFFFFFFFFFFFFFFFFFFFFFFFFFFFFFFFFFFFFFFF
310
FFFFFFFFFFFFFFFFFFFFFFFFFFFFFFFFFFFFFFFFFFFFFFFFFF000000FFFFFFFFFFFFFFFFFFFFFFFFFFFFFFFFFF000000FF000000FF000000FF000000FF000000FF000000FF000000FF000000FF000000FF000000FF000000FF000000FF000000FF000000FF000000FF000000FF000000FF000000FF000000FF000000FF0000
310
00FF000000FF000000FF000000FF000000FF000000FF000000FF000000FF000000FF000000FF000000FF000000FF000000FF000000FF000000FF000000FFFFFFFFFFFFFFFFFFFFFFFFFFFFFFFFFFFFFFFFFF000000FFFFFFFFFFFFFFFFFFFFFFFFFFFFFFFFFFFFFFFFFFFFFFFFFF000000FF000000FF000000FFFFFFFFFFFF
310
FFFFFF000000FFFFFFFFFFFFFFFFFFFFFFFFFF000000FF000000FF000000FFFFFFFFFFFFFFFFFFFFFFFFFFFFFFFFFFFFFFFFFFFFFFFFFFFFFFFFFFFFFFFFFFFFFFFFFFFFFFFFFFFFFFFFFFFFFFFFFFFFFFFFFFFFFFFFFFFFFFFFFFFFFFFFFFFFFFFFFFFFFFFFFFFFFFFFFFFFFFFFFFFFFFFFFF000000FFFFFFFFFFFFFFFFFF
310
FFFFFFFFFFFFFFFFFFFFFFFFFFFFFFFF000000FF000000FF000000FFFFFFFFFFFFFFFFFF000000FFFFFFFFFFFFFFFFFFFFFFFFFF000000FF000000FF000000FFFFFFFFFFFFFFFFFFFFFFFFFFFFFFFFFFFFFFFFFFFFFFFFFFFFFFFFFFFFFFFFFFFFFFFFFFFFFFFFFFFFFFFFFFFFFFFFFFFFFFFFFFFFFFFFFFFFFFFFFFFFFFFF
310
FFFFFFFFFFFFFFFFFFFFFFFFFFFFFFFFFFFFFFFFFF000000FFFFFFFFFFFFFFFFFFFFFFFFFFFFFFFFFFFFFFFFFFFFFFFFFF000000FF000000FF000000FFFFFFFFFFFFFFFFFF000000FFFFFFFFFFFFFFFFFFFFFFFFFF000000FF000000FF000000FFFFFFFFFFFFFFFFFFFFFFFFFFFFFFFFFFFFFFFFFFFFFFFFFFFFFFFFFFFFFF
310
FFFFFFFFFFFFFFFFFFFFFFFFFFFFFFFFFFFFFFFFFFFFFFFFFFFFFFFFFFFFFFFFFFFFFFFFFFFFFFFFFFFFFFFFFFFFFFFFFFFFFFFFFFFF000000FF000000FF000000FF000000FF000000FF000000FF000000FF000000FF000000FF000000FF000000FF000000FF000000FF000000FF000000FF000000FF000000FF000000FF00
310
0000FFFFFFFFFFFFFFFFFFFFFFFFFFFFFFFFFFFFFFFFFFFFFFFFFFFFFFFFFFFFFFFFFFFFFFFFFFFFFFFFFFFFFFFFFFFFFFFFFFFFFFFFFFFFFFFFFFFFFFFFFFFFFFFFFFFFFFFFFFFFFFFFFFFFFFFFFFFFFFFFFFFFFFFFFFFFFFFFFFFFFFFFFFFFFFFFFFFFFFFFFFFFFFFFFFFFFFFFFFFFFFFFFFFFFFFFFFFFFFFFFFFFFFFFFF
310
FFFFFFFFFFFFFFFFFFFFFFFFFFFFFFFFFFFFFFFFFFFFFFFFFFFFFFFFFFFFFFFFFFFFFFFFFFFFFFFFFFFFFFFFFFFFFFFFFFFFFFFFFFFFFFFFFFFFFFFFFFFFFFFFFFFFFFFFFFFFFFFFFFFFFFFFFFFFFFFFFFFFFFFFFFFFFFFFFFFFFFFFFFFFFFFFFFFFFFFFFFFFFFFFFFFFFFFFFFFFFFFFFFFFFFFFFFFFFFFFFFFFFFFFFFFFFF
310
FFFFFFFFFFFFFFFFFFFFFFFFFFFFFFFFFFFFFFFFFFFFFFFFFFFFFFFFFFFFFFFFFFFFFFFFFFFFFFFFFFFFFFFFFFFFFFFFFFFFFFFFFFFFFFFFFFFFFFFFFFFFFFFFFFFFFFFFFFFFFFFFFFFFFFFFFFFFFFFFFFFFFFFFFFFFFFFFFFFFFFFFFFFFFFFFFFFFFFFFFFFFFFFFFFFFFFFFFFFFFFFFFFFFFFFFFFFFFFFFFFFFFFFFFFFFFF
310
FFFFFFFFFFFFFFFFFFFFFFFFFFFFFFFFFFFFFFFFFFFFFFFFFFFFFFFFFFFFFFFFFFFFFFFFFFFFFFFFFFFFFFFFFFFFFFFFFFFFFFFFFFFFFFFFFFFFFFFFFFFFFFFFFFFFFFFFFFFFFFFFFFFFFFFFFFFFFFFFFFFFFFFFFFFFFFFFFFFFFFFFFFFFFFFFFFFFFFFFFFFFFFFFFFFFFFFFFFFFFFFFFFFFFFFFFFFFFFFFFFFFFFFFFFFFFF
310
FFFFFFFFFFFFFFFFFFFFFFFFFFFFFFFFFFFFFFFFFFFFFFFFFFFFFFFFFFFFFFFFFFFFFFFFFFFFFFFFFFFFFFFFFFFFFFFFFFFFFFFFFFFFFFFFFFFFFFFFFFFFFFFFFFFFFFFFFFFFFFFFFFFFFFFFFFFFFFFFFFFFFFFFFFFFFFFFFFFFFFFFFFFFFFFFFFFFFFFFFFFFFFFFFFFFFFFFFFFFFFFFFFFFFFFFFFFFFFFFFFFFFFFFFFFFFF
310
FFFFFFFFFFFFFFFFFFFFFFFFFFFFFFFFFFFFFFFFFFFFFFFFFFFFFFFFFFFFFFFFFFFFFFFFFFFFFFFFFFFFFFFFFFFFFFFFFFFFFFFFFFFFFFFFFFFFFFFFFFFFFFFFFFFFFFFFFFFFFFFFFFFFFFFFFFFFFFFFFFFFFFFFFFFFFFFFFFFFFFFFFFFFFFFFFFFFFFFFFFFFFFFFFFFFFFFFFFFFFFFFFFFFFFFFFFFFFFFFFFFFFFFFFFFFFF
310
FFFFFFFFFFFFFFFFFFFFFFFFFFFFFFFFFFFFFFFFFFFFFFFFFFFFFFFFFFFFFFFFFFFFFFFFFFFFFFFFFFFFFFFFFFFFFFFFFFFFFFFFFFFFFFFFFFFFFFFFFFFFFFFFFFFFFFFFFFFFFFFFFFFFFFFFFFFFFFFFFFFFFFFFFFFFFFFFFFFFFFFFFFFFFFFFFFFFFFFFFFFFFFFFFFFFFFFFFFFFFFFFFFFFFFFFFFFFFFFFFFFFFFFFFFFFFF
310
FFFFFFFFFFFFFFFFFFFFFFFFFFFFFFFFFFFFFFFFFFFFFFFFFFFFFFFFFFFFFFFFFFFFFFFFFFFFFFFFFFFFFFFFFFFFFFFFFFFFFFFFFFFFFFFFFFFFFFFFFFFFFFFFFFFFFFFFFFFFFFFFFFFFFFFFFFFFFFFFFFFFFFFFFFFFFFFFFFFFFFFFFFFFFFFFFFFFFFFFFFFFFFFFFFFFFFFFFFFFFFFFFFFFFFFFFFFFFFFFFFFFFFFFFFFFFF
310
FFFFFFFFFFFFFFFFFFFFFFFFFFFFFFFFFFFFFFFFFFFFFFFFFFFFFFFFFFFFFFFFFFFFFFFFFFFFFFFFFFFFFFFFFFFFFFFFFFFFFFFFFFFFFFFFFFFFFFFFFFFFFFFFFFFFFFFFFFFFFFFFFFFFFFFFFFFFFFFFFFFFFFFFFFFFFFFFFFFFFFFFFFFFFFFFFFFFFFFFFFFFFFFFFFFFFFFFFFFFFFFFFFFFFFFFFFFFFFFFFFFFFFFFFFFFFF
310
FFFFFFFFFFFFFFFFFFFFFFFFFFFFFFFFFFFFFFFFFFFFFFFFFFFFFFFFFFFFFFFFFFFFFFFFFFFFFFFFFFFFFFFFFFFFFFFFFFFFFFFFFFFFFFFFFFFFFFFFFFFFFFFFFFFFFFFFFFFFFFFFFFFFFFFFFFFFFFFFFFFFFFFFFFFFFFFFFFFFFFFFFFFFFFFFFFFFFFFFFFFFFFFFFFFFFFFFFFFFFFFFFFFFFFFFFFFFFFFFFFFFFFFFFFFFFF
310
FFFFFFFFFFFFFFFFFFFFFFFFFFFFFFFFFFFFFFFFFFFFFFFFFFFFFFFFFFFFFFFFFFFFFFFFFFFFFFFFFFFFFFFFFFFFFFFFFFFFFFFFFFFFFFFFFFFFFFFFFFFFFFFFFFFFFFFFFFFFFFFFFFFFFFFFFFFFFFFFFFFFFFFFFFFFFFFFFFFFFFFFFFFFFFFFFFFFFFFFFFFFFFFFFFFFFFFFFFFFFFFFFFFFFFFFFFFFFFFFFFFFFFFFFFFFFF
310
FFFFFFFFFFFFFFFFFFFFFFFFFFFFFFFFFFFFFFFFFFFFFFFFFFFFFFFFFFFFFFFFFFFFFFFFFFFFFFFFFFFFFFFFFFFFFFFFFFFFFFFFFFFFFFFFFFFFFFFFFFFFFFFFFFFFFFFFFFFFFFFFFFFFFFFFFFFFFFFFFFFFFFFFFFFFFFFFFFFFFFFFFFFFFFFFFFFFFFFFFFFFFFFFFFFFFFFFFFFFFFFFFFFFFFFFFFFFFFFFFFFFFFFFFFFFFF
310
FFFFFFFFFFFFFFFFFFFFFFFFFFFFFFFFFFFFFFFFFFFFFFFFFFFFFFFFFFFFFFFFFFFFFFFFFFFFFFFFFFFFFFFFFFFFFFFFFFFFFFFFFFFFFFFFFFFFFFFFFFFFFFFFFFFFFFFFFFFFFFFFFFFFFFFFFFFFFFFFFFFFFFFFFFFFFFFFFFFFFFFFFFFFFFFFFFFFFFFFFFFFFFFFFFFFFFFFFFFFFFFFFFFFFFFFFFFFFFFFFFFFFFFFFFFFFF
310
FFFFFFFFFFFFFFFFFFFFFFFFFFFFFFFFFFFFFFFFFFFFFFFFFFFFFFFFFFFFFFFFFFFFFFFFFFFFFFFFFFFFFFFFFFFFFFFFFFFFFFFFFFFFFFFFFFFFFFFFFFFFFFFFFFFFFFFFFFFFFFFFFFFFFFFFFFFFFFFFFFFFFFFFFFFFFFFFFFFFFFFFFFFFFFFFFFFFFFFFFFFFFFFFFFFFFFFFFFFFFFFFFFFFFFFFFFFFFFFFFFFFFFFFFFFFFF
310
FFFFFFFFFFFFFFFFFFFFFFFFFFFFFFFFFFFFFFFFFFFFFFFFFFFFFFFFFFFFFFFFFFFFFFFFFFFFFFFFFFFFFFFFFFFFFFFFFFFFFFFFFFFFFFFFFFFFFFFFFFFFFFFFFFFFFFFFFFFFFFFFFFFFFFFFFFFFFFFFFFFFFFFFFFFFFFFFFFFFFFFFFFFFFFFFFFFFFFFFFFFFFFFFFFFFFFFFFFFFFFFFFFFFFFFFFFFFFFFFFFFFFFFFFFFFFF
310
FFFFFFFFFFFFFFFFFFFFFFFFFFFFFFFFFFFFFFFFFFFFFFFFFFFFFFFFFFFFFFFFFFFFFFFFFFFFFFFFFFFFFFFFFFFFFFFFFFFFFFFFFFFFFFFFFFFFFFFFFFFFFFFFFFFFFFFFFFFFFFFFFFFFFFFFFFFFFFFFFFFFFFFFFFFFFFFFFFFF
102
{BLKREFS
331
57D
102
}
 70
     5
280
     1
281
     0
  0
ENDTAB
  0
ENDSEC
  0
SECTION
  2
BLOCKS
  0
BLOCK
  5
20
330
1F
100
AcDbEntity
  8
0
100
AcDbBlockBegin
  2
*Model_Space
 70
     0
 10
0.0
 20
0.0
 30
0.0
  3
*Model_Space
  1

  0
ENDBLK
  5
21
330
1F
100
AcDbEntity
  8
0
100
AcDbBlockEnd
  0
BLOCK
  5
1C
330
1B
100
AcDbEntity
 67
     1
  8
0
100
AcDbBlockBegin
  2
*Paper_Space
 70
     0
 10
0.0
 20
0.0
 30
0.0
  3
*Paper_Space
  1

  0
ENDBLK
  5
1D
330
1B
100
AcDbEntity
 67
     1
  8
0
100
AcDbBlockEnd
  0
BLOCK
  5
24
330
23
100
AcDbEntity
 67
     1
  8
0
100
AcDbBlockBegin
  2
*Paper_Space0
 70
     0
 10
0.0
 20
0.0
 30
0.0
  3
*Paper_Space0
  1

  0
ENDBLK
  5
25
330
23
100
AcDbEntity
 67
     1
  8
0
100
AcDbBlockEnd
  0
BLOCK
  5
2F4
330
2F3
100
AcDbEntity
  8
0
100
AcDbBlockBegin
  2
Fachada derecho
 70
     0
 10
0.0
 20
0.0
 30
0.0
  3
Fachada derecho
  1

  0
LINE
  5
2F6
330
2F3
100
AcDbEntity
  8
0
100
AcDbLine
 10
973.9432581059913
 20
-449.9876330190868
 30
0.0
 11
973.9432581059913
 21
-159.9956028512308
 31
0.0
  0
LINE
  5
2F7
330
2F3
100
AcDbEntity
  8
0
100
AcDbLine
 10
946.0039761087845
 20
-449.9876330190868
 30
0.0
 11
946.0039761087845
 21
-159.9956028512308
 31
0.0
  0
LINE
  5
2F8
330
2F3
100
AcDbEntity
  8
0
100
AcDbLine
 10
493.9564495522927
 20
-449.9876330190868
 30
0.0
 11
493.9564495522927
 21
-159.9956028512308
 31
0.0
  0
LINE
  5
2F9
330
2F3
100
AcDbEntity
  8
0
100
AcDbLine
 10
466.0171675550859
 20
-449.9876330190868
 30
0.0
 11
466.0171675550859
 21
-159.9956028512308
 31
0.0
  0
LINE
  5
2FA
330
2F3
100
AcDbEntity
  8
0
100
AcDbLine
 10
-946.0039761088042
 20
-449.9876330190868
 30
0.0
 11
-946.0039761088042
 21
-179.9950532076346
 31
0.0
  0
LINE
  5
2FB
330
2F3
100
AcDbEntity
  8
0
100
AcDbLine
 10
-973.9432581060111
 20
-449.9876330190868
 30
0.0
 11
-973.9432581060093
 21
-159.9956028512308
 31
0.0
  0
LINE
  5
2FC
330
2F3
100
AcDbEntity
  8
0
100
AcDbLine
 10
1053.971033782502
 20
-449.9876330190868
 30
0.0
 11
1048.971171193402
 21
-449.9876330190868
 31
0.0
  0
LINE
  5
2FD
330
2F3
100
AcDbEntity
  8
0
100
AcDbLine
 10
1048.971171193402
 20
-449.9876330190868
 30
0.0
 11
1048.971171193402
 21
-239.9934042768463
 31
0.0
  0
LINE
  5
2FE
330
2F3
100
AcDbEntity
  8
0
100
AcDbLine
 10
1048.971171193402
 20
-239.9934042768463
 30
0.0
 11
978.9730949459888
 21
-239.9934042768463
 31
0.0
  0
LINE
  5
2FF
330
2F3
100
AcDbEntity
  8
0
100
AcDbLine
 10
978.9730949459888
 20
-239.9934042768463
 30
0.0
 11
978.9730949459888
 21
-449.9876330190868
 31
0.0
  0
LINE
  5
300
330
2F3
100
AcDbEntity
  8
0
100
AcDbLine
 10
978.9730949459888
 20
-449.9876330190868
 30
0.0
 11
973.9732323568878
 21
-449.9876330190868
 31
0.0
  0
LINE
  5
301
330
2F3
100
AcDbEntity
  8
0
100
AcDbLine
 10
973.9732323568876
 20
-234.9935416877453
 30
0.0
 11
1053.971033782502
 21
-234.9935416877453
 31
0.0
  0
LINE
  5
302
330
2F3
100
AcDbEntity
  8
0
100
AcDbLine
 10
1053.971033782502
 20
-234.9935416877453
 30
0.0
 11
1053.971033782502
 21
-449.9876330190868
 31
0.0
  0
LINE
  5
303
330
2F3
100
AcDbEntity
  8
0
100
AcDbLine
 10
1048.971171193402
 20
-449.9876330190868
 30
0.0
 11
978.9730949459888
 21
-449.9876330190868
 31
0.0
  0
LINE
  5
304
330
2F3
100
AcDbEntity
  8
0
100
AcDbLine
 10
699.9807624741373
 20
-239.9934042768463
 30
0.0
 11
714.9803502414404
 21
-239.9934042768463
 31
0.0
  0
LINE
  5
305
330
2F3
100
AcDbEntity
  8
0
100
AcDbLine
 10
714.9803502414404
 20
-239.9934042768463
 30
0.0
 11
714.9803502414404
 21
-256.6596129071829
 31
0.0
  0
LINE
  5
306
330
2F3
100
AcDbEntity
  8
0
100
AcDbLine
 10
714.9803502414404
 20
-259.6595304606434
 30
0.0
 11
714.9803502414404
 21
-276.32573909098
 31
0.0
  0
LINE
  5
307
330
2F3
100
AcDbEntity
  8
0
100
AcDbLine
 10
714.9803502414404
 20
-279.3256566444406
 30
0.0
 11
714.9803502414404
 21
-295.9918652747772
 31
0.0
  0
LINE
  5
308
330
2F3
100
AcDbEntity
  8
0
100
AcDbLine
 10
714.9803502414404
 20
-298.9917828282377
 30
0.0
 11
714.9803502414404
 21
-315.6579914585742
 31
0.0
  0
LINE
  5
309
330
2F3
100
AcDbEntity
  8
0
100
AcDbLine
 10
714.9803502414404
 20
-318.6579090120348
 30
0.0
 11
714.9803502414404
 21
-335.3241176423714
 31
0.0
  0
LINE
  5
30A
330
2F3
100
AcDbEntity
  8
0
100
AcDbLine
 10
714.9803502414404
 20
-338.3240351958319
 30
0.0
 11
714.9803502414404
 21
-354.9902438261685
 31
0.0
  0
LINE
  5
30B
330
2F3
100
AcDbEntity
  8
0
100
AcDbLine
 10
714.9803502414404
 20
-354.9902438261685
 30
0.0
 11
699.9807624741373
 21
-354.9902438261685
 31
0.0
  0
LINE
  5
30C
330
2F3
100
AcDbEntity
  8
0
100
AcDbLine
 10
699.9807624741373
 20
-354.9902438261685
 30
0.0
 11
699.9807624741373
 21
-338.3240351958319
 31
0.0
  0
LINE
  5
30D
330
2F3
100
AcDbEntity
  8
0
100
AcDbLine
 10
699.9807624741373
 20
-335.3241176423714
 30
0.0
 11
699.9807624741373
 21
-318.6579090120348
 31
0.0
  0
LINE
  5
30E
330
2F3
100
AcDbEntity
  8
0
100
AcDbLine
 10
699.9807624741373
 20
-315.6579914585742
 30
0.0
 11
699.9807624741373
 21
-298.9917828282377
 31
0.0
  0
LINE
  5
30F
330
2F3
100
AcDbEntity
  8
0
100
AcDbLine
 10
699.9807624741373
 20
-295.9918652747772
 30
0.0
 11
699.9807624741373
 21
-279.3256566444406
 31
0.0
  0
LINE
  5
310
330
2F3
100
AcDbEntity
  8
0
100
AcDbLine
 10
699.9807624741373
 20
-276.32573909098
 30
0.0
 11
699.9807624741373
 21
-259.6595304606434
 31
0.0
  0
LINE
  5
311
330
2F3
100
AcDbEntity
  8
0
100
AcDbLine
 10
699.9807624741373
 20
-256.6596129071829
 30
0.0
 11
699.9807624741373
 21
-239.9934042768463
 31
0.0
  0
LINE
  5
312
330
2F3
100
AcDbEntity
  8
0
100
AcDbLine
 10
694.9808998850364
 20
-234.9935416877453
 30
0.0
 11
719.9802128305409
 21
-234.9935416877453
 31
0.0
  0
LINE
  5
313
330
2F3
100
AcDbEntity
  8
0
100
AcDbLine
 10
694.9808998850364
 20
-359.9901064152695
 30
0.0
 11
694.9808998850364
 21
-234.9935416877453
 31
0.0
  0
LINE
  5
314
330
2F3
100
AcDbEntity
  8
0
100
AcDbLine
 10
719.9802128305409
 20
-359.9901064152695
 30
0.0
 11
694.9808998850364
 21
-359.9901064152695
 31
0.0
  0
LINE
  5
315
330
2F3
100
AcDbEntity
  8
0
100
AcDbLine
 10
719.9802128305409
 20
-234.9935416877453
 30
0.0
 11
719.9802128305409
 21
-359.9901064152695
 31
0.0
  0
LINE
  5
316
330
2F3
100
AcDbEntity
  8
0
100
AcDbLine
 10
699.9807624741373
 20
-315.6579914585742
 30
0.0
 11
714.9803502414404
 21
-315.6579914585742
 31
0.0
  0
LINE
  5
317
330
2F3
100
AcDbEntity
  8
0
100
AcDbLine
 10
714.9803502414404
 20
-298.9917828282377
 30
0.0
 11
699.9807624741373
 21
-298.9917828282377
 31
0.0
  0
LINE
  5
318
330
2F3
100
AcDbEntity
  8
0
100
AcDbLine
 10
699.9807624741373
 20
-276.32573909098
 30
0.0
 11
714.9803502414404
 21
-276.32573909098
 31
0.0
  0
LINE
  5
319
330
2F3
100
AcDbEntity
  8
0
100
AcDbLine
 10
714.9803502414404
 20
-259.6595304606434
 30
0.0
 11
699.9807624741373
 21
-259.6595304606434
 31
0.0
  0
LINE
  5
31A
330
2F3
100
AcDbEntity
  8
0
100
AcDbLine
 10
699.9807624741373
 20
-295.9918652747772
 30
0.0
 11
714.9803502414404
 21
-295.9918652747772
 31
0.0
  0
LINE
  5
31B
330
2F3
100
AcDbEntity
  8
0
100
AcDbLine
 10
714.9803502414404
 20
-279.3256566444406
 30
0.0
 11
699.9807624741373
 21
-279.3256566444406
 31
0.0
  0
LINE
  5
31C
330
2F3
100
AcDbEntity
  8
0
100
AcDbLine
 10
699.9807624741373
 20
-335.3241176423714
 30
0.0
 11
714.9803502414404
 21
-335.3241176423714
 31
0.0
  0
LINE
  5
31D
330
2F3
100
AcDbEntity
  8
0
100
AcDbLine
 10
714.9803502414404
 20
-318.6579090120348
 30
0.0
 11
699.9807624741373
 21
-318.6579090120348
 31
0.0
  0
LINE
  5
31E
330
2F3
100
AcDbEntity
  8
0
100
AcDbLine
 10
714.9803502414404
 20
-338.3240351958319
 30
0.0
 11
699.9807624741373
 21
-338.3240351958319
 31
0.0
  0
LINE
  5
31F
330
2F3
100
AcDbEntity
  8
0
100
AcDbLine
 10
699.9807624741373
 20
-256.6596129071829
 30
0.0
 11
714.9803502414404
 21
-256.6596129071829
 31
0.0
  0
LINE
  5
320
330
2F3
100
AcDbEntity
  8
0
100
AcDbLine
 10
-435.6337436306
 20
-159.9956028512308
 30
0.0
 11
-435.6337436306
 21
-449.9876330190868
 31
0.0
  0
LINE
  5
321
330
2F3
100
AcDbEntity
  8
0
100
AcDbLine
 10
-946.0039761088042
 20
-179.9950532076346
 30
0.0
 11
-619.9829610485324
 21
-179.9950532076347
 31
0.0
  0
LINE
  5
322
330
2F3
100
AcDbEntity
  8
0
100
AcDbLine
 10
466.0171675550859
 20
-449.9876330190868
 30
0.0
 11
418.6382375455094
 21
-449.9876330190868
 31
0.0
  0
LINE
  5
323
330
2F3
100
AcDbEntity
  8
0
100
AcDbLine
 10
1079.970319245822
 20
-449.9876330190868
 30
0.0
 11
1053.971033782502
 21
-449.9876330190868
 31
0.0
  0
LINE
  5
324
330
2F3
100
AcDbEntity
  8
0
100
AcDbLine
 10
973.9732323568876
 20
-234.9935416877453
 30
0.0
 11
973.9732323568876
 21
-159.9956028512308
 31
0.0
  0
LINE
  5
325
330
2F3
100
AcDbEntity
  8
0
100
AcDbLine
 10
-442.7046171141084
 20
-169.9953280294327
 30
0.0
 11
-442.7534698962708
 21
-169.9953280294327
 31
0.0
  0
LINE
  5
326
330
2F3
100
AcDbEntity
  8
0
100
AcDbLine
 10
-442.7534698962714
 20
-439.9879078408848
 30
0.0
 11
-442.7046171141084
 21
-439.9879078408848
 31
0.0
  0
LINE
  5
327
330
2F3
100
AcDbEntity
  8
0
100
AcDbLine
 10
-442.7534698962711
 20
-159.9956028512308
 30
0.0
 11
-442.7046171141084
 21
-159.9956028512308
 31
0.0
  0
LINE
  5
328
330
2F3
100
AcDbEntity
  8
0
100
AcDbLine
 10
-442.7046171141084
 20
-449.9876330190868
 30
0.0
 11
-442.7534698962714
 21
-449.9876330190868
 31
0.0
  0
LINE
  5
329
330
2F3
100
AcDbEntity
  8
0
100
AcDbLine
 10
-466.0171675550992
 20
-169.9953280294328
 30
0.0
 11
-457.7362715362602
 21
-169.9953280294328
 31
0.0
  0
LINE
  5
32A
330
2F3
100
AcDbEntity
  8
0
100
AcDbLine
 10
-453.3786813818402
 20
-169.9953280294328
 30
0.0
 11
-444.4859695177395
 21
-169.9953280294328
 31
0.0
  0
LINE
  5
32B
330
2F3
100
AcDbEntity
  8
0
100
AcDbLine
 10
-569.6233894197795
 20
-439.9879078408848
 30
0.0
 11
-569.6233894197794
 21
-349.9903812370675
 31
0.0
  0
LINE
  5
32C
330
2F3
100
AcDbEntity
  8
0
100
AcDbLine
 10
-569.6233894197794
 20
-344.9905186479667
 30
0.0
 11
-569.623389419779
 21
-179.9950532076347
 31
0.0
  0
LINE
  5
32D
330
2F3
100
AcDbEntity
  8
0
100
AcDbLine
 10
-540.1505371368986
 20
-439.9879078408848
 30
0.0
 11
-540.1505371368982
 21
-349.9903812370675
 31
0.0
  0
LINE
  5
32E
330
2F3
100
AcDbEntity
  8
0
100
AcDbLine
 10
-540.1505371368982
 20
-344.9905186479667
 30
0.0
 11
-540.1505371368974
 21
-179.9950532076347
 31
0.0
  0
LINE
  5
32F
330
2F3
100
AcDbEntity
  8
0
100
AcDbLine
 10
-454.3384376610837
 20
-169.9953280294328
 30
0.0
 11
-453.3786813818402
 21
-169.9953280294328
 31
0.0
  0
LINE
  5
330
330
2F3
100
AcDbEntity
  8
0
100
AcDbLine
 10
-457.7362715362602
 20
-169.9953280294328
 30
0.0
 11
-454.3384376610837
 21
-169.9953280294328
 31
0.0
  0
LINE
  5
331
330
2F3
100
AcDbEntity
  8
0
100
AcDbLine
 10
-454.3384376610837
 20
-169.9953280294328
 30
0.0
 11
-454.3384376610837
 21
-439.9879078408848
 31
0.0
  0
LINE
  5
332
330
2F3
100
AcDbEntity
  8
0
100
AcDbLine
 10
-504.1239706959695
 20
-179.9950532076347
 30
0.0
 11
-504.1239706959695
 21
-439.9879078408848
 31
0.0
  0
LINE
  5
333
330
2F3
100
AcDbEntity
  8
0
100
AcDbLine
 10
-515.631310962691
 20
-179.9950532076347
 30
0.0
 11
-515.631310962691
 21
-439.9879078408848
 31
0.0
  0
LINE
  5
334
330
2F3
100
AcDbEntity
  8
0
100
AcDbLine
 10
-526.7472979210825
 20
-179.9950532076347
 30
0.0
 11
-526.7472979210825
 21
-439.9879078408848
 31
0.0
  0
LINE
  5
335
330
2F3
100
AcDbEntity
  8
0
100
AcDbLine
 10
-537.4645150191386
 20
-179.9950532076347
 30
0.0
 11
-537.4645150191386
 21
-439.9879078408848
 31
0.0
  0
LINE
  5
336
330
2F3
100
AcDbEntity
  8
0
100
AcDbLine
 10
-547.7758117628663
 20
-179.9950532076347
 30
0.0
 11
-547.7758117628663
 21
-439.9879078408848
 31
0.0
  0
LINE
  5
337
330
2F3
100
AcDbEntity
  8
0
100
AcDbLine
 10
-557.6743084870741
 20
-179.9950532076347
 30
0.0
 11
-557.6743084870741
 21
-439.9879078408848
 31
0.0
  0
LINE
  5
338
330
2F3
100
AcDbEntity
  8
0
100
AcDbLine
 10
-567.1534009454627
 20
-179.9950532076347
 30
0.0
 11
-567.1534009454627
 21
-439.9879078408848
 31
0.0
  0
LINE
  5
339
330
2F3
100
AcDbEntity
  8
0
100
AcDbLine
 10
-576.2067647169565
 20
-179.9950532076347
 30
0.0
 11
-576.2067647169565
 21
-439.9879078408848
 31
0.0
  0
LINE
  5
33A
330
2F3
100
AcDbEntity
  8
0
100
AcDbLine
 10
-584.8283594253403
 20
-179.9950532076347
 30
0.0
 11
-584.8283594253403
 21
-439.9879078408848
 31
0.0
  0
LINE
  5
33B
330
2F3
100
AcDbEntity
  8
0
100
AcDbLine
 10
-593.0124327693769
 20
-179.9950532076347
 30
0.0
 11
-593.0124327693769
 21
-439.9879078408848
 31
0.0
  0
LINE
  5
33C
330
2F3
100
AcDbEntity
  8
0
100
AcDbLine
 10
-600.753524360726
 20
-179.9950532076347
 30
0.0
 11
-600.753524360726
 21
-439.9879078408848
 31
0.0
  0
LINE
  5
33D
330
2F3
100
AcDbEntity
  8
0
100
AcDbLine
 10
-608.0464693670982
 20
-179.9950532076347
 30
0.0
 11
-608.0464693670982
 21
-439.9879078408848
 31
0.0
  0
LINE
  5
33E
330
2F3
100
AcDbEntity
  8
0
100
AcDbLine
 10
-616.5250237217232
 20
-439.9879078408848
 30
0.0
 11
-616.5250237217232
 21
-349.9903812370675
 31
0.0
  0
LINE
  5
33F
330
2F3
100
AcDbEntity
  8
0
100
AcDbLine
 10
-616.5250237217232
 20
-344.9905186479667
 30
0.0
 11
-616.5250237217232
 21
-179.9950532076347
 31
0.0
  0
LINE
  5
340
330
2F3
100
AcDbEntity
  8
0
100
AcDbLine
 10
-614.8864019582156
 20
-179.9950532076347
 30
0.0
 11
-614.8864019582156
 21
-439.9879078408848
 31
0.0
  0
LINE
  5
341
330
2F3
100
AcDbEntity
  8
0
100
AcDbLine
 10
-466.0171675551045
 20
-159.9956028512308
 30
0.0
 11
-442.7534698962711
 21
-159.9956028512308
 31
0.0
  0
LINE
  5
342
330
2F3
100
AcDbEntity
  8
0
100
AcDbLine
 10
-442.7534698962708
 20
-169.9953280294327
 30
0.0
 11
-442.7534698962711
 21
-159.9956028512308
 31
0.0
  0
LINE
  5
343
330
2F3
100
AcDbEntity
  8
0
100
AcDbLine
 10
-609.8065487696235
 20
-349.9903812370675
 30
0.0
 11
-614.6636375959304
 21
-349.9903812370675
 31
0.0
  0
LINE
  5
344
330
2F3
100
AcDbEntity
  8
0
100
AcDbLine
 10
-578.4401331920374
 20
-349.9903812370675
 30
0.0
 11
-584.3368621408941
 21
-349.9903812370675
 31
0.0
  0
LINE
  5
345
330
2F3
100
AcDbEntity
  8
0
100
AcDbLine
 10
-550.3487810868158
 20
-349.9903812370675
 30
0.0
 11
-557.19614190388
 21
-349.9903812370675
 31
0.0
  0
LINE
  5
346
330
2F3
100
AcDbEntity
  8
0
100
AcDbLine
 10
-518.5284379125733
 20
-349.9903812370675
 30
0.0
 11
-526.2889499646038
 21
-349.9903812370675
 31
0.0
  0
LINE
  5
347
330
2F3
100
AcDbEntity
  8
0
100
AcDbLine
 10
-529.5382103810012
 20
-349.9903812370675
 30
0.0
 11
-537.2365168124306
 21
-349.9903812370675
 31
0.0
  0
LINE
  5
348
330
2F3
100
AcDbEntity
  8
0
100
AcDbLine
 10
-457.7362715362602
 20
-349.9903812370675
 30
0.0
 11
-466.0171675550992
 21
-349.9903812370675
 31
0.0
  0
LINE
  5
349
330
2F3
100
AcDbEntity
  8
0
100
AcDbLine
 10
-614.6636375959304
 20
-344.9905186479667
 30
0.0
 11
-609.8065487696235
 21
-344.9905186479667
 31
0.0
  0
LINE
  5
34A
330
2F3
100
AcDbEntity
  8
0
100
AcDbLine
 10
-584.3368621408941
 20
-344.9905186479667
 30
0.0
 11
-578.4401331920374
 21
-344.9905186479667
 31
0.0
  0
LINE
  5
34B
330
2F3
100
AcDbEntity
  8
0
100
AcDbLine
 10
-557.19614190388
 20
-344.9905186479667
 30
0.0
 11
-550.3487810868158
 21
-344.9905186479667
 31
0.0
  0
LINE
  5
34C
330
2F3
100
AcDbEntity
  8
0
100
AcDbLine
 10
-537.2365168124306
 20
-344.9905186479667
 30
0.0
 11
-529.5382103810012
 21
-344.9905186479667
 31
0.0
  0
LINE
  5
34D
330
2F3
100
AcDbEntity
  8
0
100
AcDbLine
 10
-526.2889499646038
 20
-344.9905186479667
 30
0.0
 11
-518.5284379125733
 21
-344.9905186479667
 31
0.0
  0
LINE
  5
34E
330
2F3
100
AcDbEntity
  8
0
100
AcDbLine
 10
-466.0171675550992
 20
-344.9905186479667
 30
0.0
 11
-457.7362715362602
 21
-344.9905186479667
 31
0.0
  0
LINE
  5
34F
330
2F3
100
AcDbEntity
  8
0
100
AcDbLine
 10
-595.0385044148714
 20
-439.9879078408848
 30
0.0
 11
-595.0385044148713
 21
-349.9903812370675
 31
0.0
  0
LINE
  5
350
330
2F3
100
AcDbEntity
  8
0
100
AcDbLine
 10
-595.0385044148713
 20
-344.9905186479667
 30
0.0
 11
-595.0385044148712
 21
-179.9950532076347
 31
0.0
  0
LINE
  5
351
330
2F3
100
AcDbEntity
  8
0
100
AcDbLine
 10
454.6372481870336
 20
-456.9874406438281
 30
0.0
 11
454.6372481870336
 21
-459.9873581972887
 31
0.0
  0
LINE
  5
352
330
2F3
100
AcDbEntity
  8
0
100
AcDbLine
 10
-440.8628810218563
 20
-459.9873581972887
 30
0.0
 11
-440.8628810218563
 21
-456.9874406438282
 31
0.0
  0
LINE
  5
353
330
2F3
100
AcDbEntity
  8
0
100
AcDbLine
 10
70.93213091557199
 20
-162.9955204046914
 30
0.0
 11
70.93213091557199
 21
-456.9874406438282
 31
0.0
  0
LINE
  5
354
330
2F3
100
AcDbEntity
  8
0
100
AcDbLine
 10
-199.3372623205731
 20
-162.9955204046914
 30
0.0
 11
-199.3372623205731
 21
-456.9874406438282
 31
0.0
  0
LINE
  5
355
330
2F3
100
AcDbEntity
  8
0
100
AcDbLine
 10
-316.1544111723275
 20
-162.9955204046914
 30
0.0
 11
-316.1544111723275
 21
-456.9874406438282
 31
0.0
  0
LINE
  5
356
330
2F3
100
AcDbEntity
  8
0
100
AcDbLine
 10
454.6372481870336
 20
-162.9955204046914
 30
0.0
 11
454.6372481870336
 21
-159.9956028512308
 31
0.0
  0
LINE
  5
357
330
2F3
100
AcDbEntity
  8
0
100
AcDbLine
 10
13.9696409985942
 20
-162.9955204046914
 30
0.0
 11
70.93213091557199
 21
-162.9955204046914
 31
0.0
  0
LINE
  5
358
330
2F3
100
AcDbEntity
  8
0
100
AcDbLine
 10
-440.8628810218563
 20
-159.9956028512308
 30
0.0
 11
-440.8628810218563
 21
-162.9955204046914
 31
0.0
  0
LINE
  5
359
330
2F3
100
AcDbEntity
  8
0
100
AcDbLine
 10
-629.982686226734
 20
-479.9868085536926
 30
0.0
 11
-619.9829610485203
 21
-479.9868085536926
 31
0.0
  0
LINE
  5
35A
330
2F3
100
AcDbEntity
  8
0
100
AcDbLine
 10
973.9732323568739
 20
-479.9868085536926
 30
0.0
 11
1079.97031924582
 21
-479.9868085536926
 31
0.0
  0
LINE
  5
35B
330
2F3
100
AcDbEntity
  8
0
100
AcDbLine
 10
-435.559003678711
 20
-449.9876330190868
 30
0.0
 11
-422.9108513802684
 21
-449.9876330190868
 31
0.0
  0
LINE
  5
35C
330
2F3
100
AcDbEntity
  8
0
100
AcDbLine
 10
-629.982686226734
 20
-449.9876330190868
 30
0.0
 11
-619.9829610485324
 21
-449.9876330190868
 31
0.0
  0
LINE
  5
35D
330
2F3
100
AcDbEntity
  8
0
100
AcDbLine
 10
-619.9829610485203
 20
-479.9868085536926
 30
0.0
 11
-619.9829610485324
 21
-449.9876330190868
 31
0.0
  0
LINE
  5
35E
330
2F3
100
AcDbEntity
  8
0
100
AcDbLine
 10
-629.982686226734
 20
-479.9868085536926
 30
0.0
 11
-629.982686226734
 21
-449.9876330190868
 31
0.0
  0
LINE
  5
35F
330
2F3
100
AcDbEntity
  8
0
100
AcDbLine
 10
1079.97031924582
 20
-479.9868085536926
 30
0.0
 11
1079.970319245822
 21
-449.9876330190868
 31
0.0
  0
LINE
  5
360
330
2F3
100
AcDbEntity
  8
0
100
AcDbLine
 10
973.9732323568739
 20
-479.9868085536926
 30
0.0
 11
973.9732323568878
 21
-449.9876330190868
 31
0.0
  0
LINE
  5
361
330
2F3
100
AcDbEntity
  8
0
100
AcDbLine
 10
-435.559003678711
 20
-459.9873581972889
 30
0.0
 11
-435.559003678711
 21
-479.9868085536926
 31
0.0
  0
LINE
  5
362
330
2F3
100
AcDbEntity
  8
0
100
AcDbLine
 10
418.6382375455068
 20
-459.9873581972889
 30
0.0
 11
418.6382375455072
 21
-479.9868085536926
 31
0.0
  0
LINE
  5
363
330
2F3
100
AcDbEntity
  8
0
100
AcDbLine
 10
-619.9829610485324
 20
-448.9876605012667
 30
0.0
 11
-629.9826862267346
 21
-448.9876605012667
 31
0.0
  0
LINE
  5
364
330
2F3
100
AcDbEntity
  8
0
100
AcDbLine
 10
-422.9108513802674
 20
-448.9876605012667
 30
0.0
 11
-435.5590036787112
 21
-448.9876605012667
 31
0.0
  0
LINE
  5
365
330
2F3
100
AcDbEntity
  8
0
100
AcDbLine
 10
-442.7534698962714
 20
-448.9876605012667
 30
0.0
 11
-442.7046171141084
 21
-448.9876605012667
 31
0.0
  0
LINE
  5
366
330
2F3
100
AcDbEntity
  8
0
100
AcDbLine
 10
-261.817307961006
 20
269.9470297499107
 30
0.0
 11
-261.398508409162
 21
269.9470297499107
 31
0.0
  0
LINE
  5
367
330
2F3
100
AcDbEntity
  8
0
100
AcDbLine
 10
-387.9893369142302
 20
-42.99881826626823
 30
0.0
 11
-387.9893369142302
 21
62.99826862267228
 31
0.0
  0
LINE
  5
368
330
2F3
100
AcDbEntity
  8
0
100
AcDbLine
 10
-307.9915354886147
 20
62.99826862267228
 30
0.0
 11
-307.9915354886147
 21
-42.99881826626821
 31
0.0
  0
LINE
  5
369
330
2F3
100
AcDbEntity
  8
0
100
AcDbLine
 10
-382.9894743251291
 20
-42.99881826626821
 30
0.0
 11
-382.9894743251291
 21
62.99826862267228
 31
0.0
  0
LINE
  5
36A
330
2F3
100
AcDbEntity
  8
0
100
AcDbLine
 10
-312.991398077716
 20
62.99826862267228
 30
0.0
 11
-312.991398077716
 21
-42.99881826626823
 31
0.0
  0
LINE
  5
36B
330
2F3
100
AcDbEntity
  8
0
100
AcDbLine
 10
945.974001857923
 20
62.99826862267228
 30
0.0
 11
945.974001857923
 21
-42.99881826626821
 31
0.0
  0
LINE
  5
36C
330
2F3
100
AcDbEntity
  8
0
100
AcDbLine
 10
-441.9878528765146
 20
-42.99881826626823
 30
0.0
 11
-441.9878528765146
 21
62.99826862267228
 31
0.0
  0
LINE
  5
36D
330
2F3
100
AcDbEntity
  8
0
100
AcDbLine
 10
-465.9971930293898
 20
62.99826862267228
 30
0.0
 11
-465.9971930293898
 21
-42.99881826626821
 31
0.0
  0
LINE
  5
36E
330
2F3
100
AcDbEntity
  8
0
100
AcDbLine
 10
-915.9748263233055
 20
-37.99895567716726
 30
0.0
 11
-940.9741392688093
 21
-37.99895567716726
 31
0.0
  0
LINE
  5
36F
330
2F3
100
AcDbEntity
  8
0
100
AcDbLine
 10
-945.9740018579104
 20
62.99826862267225
 30
0.0
 11
-945.9740018579104
 21
-42.99881826626824
 31
0.0
  0
LINE
  5
370
330
2F3
100
AcDbEntity
  8
0
100
AcDbLine
 10
-945.9740018579104
 20
-42.99881826626824
 30
0.0
 11
-493.986423803177
 21
-42.99881826626824
 31
0.0
  0
LINE
  5
371
330
2F3
100
AcDbEntity
  8
0
100
AcDbLine
 10
-493.986423803177
 20
-42.99881826626824
 30
0.0
 11
-493.986423803177
 21
62.99826862267225
 31
0.0
  0
LINE
  5
372
330
2F3
100
AcDbEntity
  8
0
100
AcDbLine
 10
-493.986423803177
 20
62.99826862267225
 30
0.0
 11
-945.9740018579104
 21
62.99826862267225
 31
0.0
  0
LINE
  5
373
330
2F3
100
AcDbEntity
  8
0
100
AcDbLine
 10
-910.9749637342044
 20
-37.99895567716726
 30
0.0
 11
-910.9749637342044
 21
57.99840603357127
 31
0.0
  0
LINE
  5
374
330
2F3
100
AcDbEntity
  8
0
100
AcDbLine
 10
-528.9854619268883
 20
57.99840603357127
 30
0.0
 11
-528.9854619268883
 21
-37.99895567716726
 31
0.0
  0
LINE
  5
375
330
2F3
100
AcDbEntity
  8
0
100
AcDbLine
 10
-523.9855993377873
 20
57.99840603357127
 30
0.0
 11
-498.986286392278
 21
57.99840603357127
 31
0.0
  0
LINE
  5
376
330
2F3
100
AcDbEntity
  8
0
100
AcDbLine
 10
-498.986286392278
 20
57.99840603357127
 30
0.0
 11
-498.986286392278
 21
-37.99895567716726
 31
0.0
  0
LINE
  5
377
330
2F3
100
AcDbEntity
  8
0
100
AcDbLine
 10
-498.986286392278
 20
-37.99895567716726
 30
0.0
 11
-523.9855993377873
 21
-37.99895567716726
 31
0.0
  0
LINE
  5
378
330
2F3
100
AcDbEntity
  8
0
100
AcDbLine
 10
-523.9855993377873
 20
-37.99895567716726
 30
0.0
 11
-523.9855993377873
 21
57.99840603357127
 31
0.0
  0
LINE
  5
379
330
2F3
100
AcDbEntity
  8
0
100
AcDbLine
 10
-915.9748263233055
 20
57.99840603357127
 30
0.0
 11
-940.9741392688093
 21
57.99840603357127
 31
0.0
  0
LINE
  5
37A
330
2F3
100
AcDbEntity
  8
0
100
AcDbLine
 10
-915.9748263233055
 20
57.99840603357127
 30
0.0
 11
-915.9748263233055
 21
-37.99895567716726
 31
0.0
  0
LINE
  5
37B
330
2F3
100
AcDbEntity
  8
0
100
AcDbLine
 10
-940.9741392688093
 20
-37.99895567716726
 30
0.0
 11
-940.9741392688093
 21
57.99840603357127
 31
0.0
  0
LINE
  5
37C
330
2F3
100
AcDbEntity
  8
0
100
AcDbLine
 10
-785.3117506614661
 20
52.99854344447028
 30
0.0
 11
-785.3117506614661
 21
-32.99909308806628
 31
0.0
  0
LINE
  5
37D
330
2F3
100
AcDbEntity
  8
0
100
AcDbLine
 10
-905.9751011451036
 20
52.99854344447028
 30
0.0
 11
-785.3117506614661
 21
52.99854344447028
 31
0.0
  0
LINE
  5
37E
330
2F3
100
AcDbEntity
  8
0
100
AcDbLine
 10
-905.9751011451036
 20
-32.99909308806628
 30
0.0
 11
-905.9751011451036
 21
52.99854344447028
 31
0.0
  0
LINE
  5
37F
330
2F3
100
AcDbEntity
  8
0
100
AcDbLine
 10
-785.3117506614661
 20
-32.99909308806628
 30
0.0
 11
-905.9751011451036
 21
-32.99909308806628
 31
0.0
  0
LINE
  5
380
330
2F3
100
AcDbEntity
  8
0
100
AcDbLine
 10
-654.6486749996266
 20
-32.99909308806628
 30
0.0
 11
-654.6486749996266
 21
52.99854344447028
 31
0.0
  0
LINE
  5
381
330
2F3
100
AcDbEntity
  8
0
100
AcDbLine
 10
-785.3117506614659
 20
-37.99895567716726
 30
0.0
 11
-528.9854619268883
 21
-37.99895567716726
 31
0.0
  0
LINE
  5
382
330
2F3
100
AcDbEntity
  8
0
100
AcDbLine
 10
-528.9854619268883
 20
57.99840603357127
 30
0.0
 11
-785.3117506614659
 21
57.99840603357127
 31
0.0
  0
LINE
  5
383
330
2F3
100
AcDbEntity
  8
0
100
AcDbLine
 10
-654.6486749996266
 20
52.99854344447028
 30
0.0
 11
-533.9853245159893
 21
52.99854344447028
 31
0.0
  0
LINE
  5
384
330
2F3
100
AcDbEntity
  8
0
100
AcDbLine
 10
-533.9853245159893
 20
52.99854344447028
 30
0.0
 11
-533.9853245159893
 21
-32.99909308806628
 31
0.0
  0
LINE
  5
385
330
2F3
100
AcDbEntity
  8
0
100
AcDbLine
 10
-533.9853245159893
 20
-32.99909308806628
 30
0.0
 11
-654.6486749996266
 21
-32.99909308806628
 31
0.0
  0
LINE
  5
386
330
2F3
100
AcDbEntity
  8
0
100
AcDbLine
 10
-659.6485375887278
 20
52.99854344447028
 30
0.0
 11
-659.6485375887278
 21
-32.99909308806628
 31
0.0
  0
LINE
  5
387
330
2F3
100
AcDbEntity
  8
0
100
AcDbLine
 10
-659.6485375887278
 20
-32.99909308806628
 30
0.0
 11
-780.311888072365
 21
-32.99909308806628
 31
0.0
  0
LINE
  5
388
330
2F3
100
AcDbEntity
  8
0
100
AcDbLine
 10
-780.311888072365
 20
-32.99909308806628
 30
0.0
 11
-780.311888072365
 21
52.99854344447028
 31
0.0
  0
LINE
  5
389
330
2F3
100
AcDbEntity
  8
0
100
AcDbLine
 10
-780.311888072365
 20
52.99854344447028
 30
0.0
 11
-659.6485375887278
 21
52.99854344447028
 31
0.0
  0
LINE
  5
38A
330
2F3
100
AcDbEntity
  8
0
100
AcDbLine
 10
493.956449552293
 20
-42.99881826626823
 30
0.0
 11
493.956449552293
 21
62.99826862267228
 31
0.0
  0
LINE
  5
38B
330
2F3
100
AcDbEntity
  8
0
100
AcDbLine
 10
466.0171675550862
 20
-42.99881826626823
 30
0.0
 11
466.0171675550862
 21
62.99826862267228
 31
0.0
  0
LINE
  5
38C
330
2F3
100
AcDbEntity
  8
0
100
AcDbLine
 10
937.849227922735
 20
62.99826862267228
 30
0.0
 11
937.849227922735
 21
-42.99881826626823
 31
0.0
  0
LINE
  5
38D
330
2F3
100
AcDbEntity
  8
0
100
AcDbLine
 10
860.3513577916697
 20
-42.99881826626823
 30
0.0
 11
860.3513577916697
 21
62.99826862267228
 31
0.0
  0
LINE
  5
38E
330
2F3
100
AcDbEntity
  8
0
100
AcDbLine
 10
935.3492966281843
 20
62.99826862267228
 30
0.0
 11
935.3492966281843
 21
-42.99881826626821
 31
0.0
  0
LINE
  5
38F
330
2F3
100
AcDbEntity
  8
0
100
AcDbLine
 10
-279.9923049896554
 20
62.99826862267228
 30
0.0
 11
-279.9923049896554
 21
-42.99881826626821
 31
0.0
  0
LINE
  5
390
330
2F3
100
AcDbEntity
  8
0
100
AcDbLine
 10
857.8514264971191
 20
-42.99881826626821
 30
0.0
 11
857.8514264971191
 21
62.99826862267228
 31
0.0
  0
LINE
  5
391
330
2F3
100
AcDbEntity
  8
0
100
AcDbLine
 10
-451.9875780547025
 20
-42.99881826626821
 30
0.0
 11
-451.9875780547023
 21
62.99826862267228
 31
0.0
  0
LINE
  5
392
330
2F3
100
AcDbEntity
  8
0
100
AcDbLine
 10
398.1140614292849
 20
205.9943386709602
 30
0.0
 11
340.9856220276325
 21
205.9943386709602
 31
0.0
  0
LINE
  5
393
330
2F3
100
AcDbEntity
  8
0
100
AcDbLine
 10
204.989359604092
 20
205.9943386709602
 30
0.0
 11
80.46781343364051
 21
205.9943386709602
 31
0.0
  0
LINE
  5
394
330
2F3
100
AcDbEntity
  8
0
100
AcDbLine
 10
464.9872207863875
 20
13.99961524948094
 30
0.0
 11
464.487234527487
 21
13.90297338304802
 31
0.0
  0
LINE
  5
395
330
2F3
100
AcDbEntity
  8
0
100
AcDbLine
 10
464.487234527487
 20
13.90297338304802
 30
0.0
 11
464.487234527487
 21
13.99961524948284
 31
0.0
  0
LINE
  5
396
330
2F3
100
AcDbEntity
  8
0
100
AcDbLine
 10
145.9959876017703
 20
62.99826862267228
 30
0.0
 11
145.9959876017703
 21
32.34005079780184
 31
0.0
  0
LINE
  5
397
330
2F3
100
AcDbEntity
  8
0
100
AcDbLine
 10
173.9952181007357
 20
37.75198259894408
 30
0.0
 11
173.9952181007357
 21
62.99826862267228
 31
0.0
  0
LINE
  5
398
330
2F3
100
AcDbEntity
  8
0
100
AcDbLine
 10
464.487234527487
 20
13.99961524948284
 30
0.0
 11
464.9872207863874
 21
14.09571516906022
 31
0.0
  0
LINE
  5
399
330
2F3
100
AcDbEntity
  8
0
100
AcDbLine
 10
173.9952181007427
 20
-42.99881826626821
 30
0.0
 11
173.9952181007427
 21
-42.24595101557155
 31
0.0
  0
LINE
  5
39A
330
2F3
100
AcDbEntity
  8
0
100
AcDbLine
 10
173.9952181007427
 20
-42.24595101557155
 30
0.0
 11
464.487234527487
 21
13.90297338304802
 31
0.0
  0
LINE
  5
39B
330
2F3
100
AcDbEntity
  8
0
100
AcDbLine
 10
-274.9924424005604
 20
-42.9988182662682
 30
0.0
 11
-274.9924424005613
 21
-33.21043476614807
 31
0.0
  0
LINE
  5
39C
330
2F3
100
AcDbEntity
  8
0
100
AcDbLine
 10
-274.9924424005616
 20
-30.21051721268752
 30
0.0
 11
-274.9924424005633
 21
-11.32214743163924
 31
0.0
  0
LINE
  5
39D
330
2F3
100
AcDbEntity
  8
0
100
AcDbLine
 10
-274.9924424005635
 20
-8.322229878178694
 30
0.0
 11
-274.9924424005653
 21
10.56613990286944
 31
0.0
  0
LINE
  5
39E
330
2F3
100
AcDbEntity
  8
0
100
AcDbLine
 10
-274.9924424005655
 20
13.56605745632998
 30
0.0
 11
-274.9924424005673
 21
32.45442723737804
 31
0.0
  0
LINE
  5
39F
330
2F3
100
AcDbEntity
  8
0
100
AcDbLine
 10
-274.9924424005675
 20
35.45434479083866
 30
0.0
 11
-274.9924424005693
 21
54.34271457188686
 31
0.0
  0
LINE
  5
3A0
330
2F3
100
AcDbEntity
  8
0
100
AcDbLine
 10
-274.9924424005696
 20
57.34263212534741
 30
0.0
 11
-274.9924424005701
 21
62.99826862267228
 31
0.0
  0
LINE
  5
3A1
330
2F3
100
AcDbEntity
  8
0
100
AcDbLine
 10
140.9961250126695
 20
62.99826862267228
 30
0.0
 11
140.9961250126695
 21
57.34263212534741
 31
0.0
  0
LINE
  5
3A2
330
2F3
100
AcDbEntity
  8
0
100
AcDbLine
 10
140.9961250126695
 20
54.34271457188686
 30
0.0
 11
140.9961250126695
 21
35.45434479083866
 31
0.0
  0
LINE
  5
3A3
330
2F3
100
AcDbEntity
  8
0
100
AcDbLine
 10
140.9961250126695
 20
32.45442723737804
 30
0.0
 11
140.9961250126695
 21
31.37363440474077
 31
0.0
  0
LINE
  5
3A4
330
2F3
100
AcDbEntity
  8
0
100
AcDbLine
 10
-274.9924424005613
 20
-33.21043476614807
 30
0.0
 11
-193.1367328506133
 21
-33.21043476614807
 31
0.0
  0
LINE
  5
3A5
330
2F3
100
AcDbEntity
  8
0
100
AcDbLine
 10
-63.4982548815844
 20
62.99826862267228
 30
0.0
 11
-63.4982548815844
 21
57.34263212534741
 31
0.0
  0
LINE
  5
3A6
330
2F3
100
AcDbEntity
  8
0
100
AcDbLine
 10
-70.49806250632575
 20
-8.322229878178694
 30
0.0
 11
-70.49806250632575
 21
10.56613990286944
 31
0.0
  0
LINE
  5
3A7
330
2F3
100
AcDbEntity
  8
0
100
AcDbLine
 10
-177.6163260636123
 20
-30.21051721268752
 30
0.0
 11
-274.9924424005616
 21
-30.21051721268752
 31
0.0
  0
LINE
  5
3A8
330
2F3
100
AcDbEntity
  8
0
100
AcDbLine
 10
140.9961250126695
 20
32.45442723737804
 30
0.0
 11
13.96964099859433
 21
32.45442723737804
 31
0.0
  0
LINE
  5
3A9
330
2F3
100
AcDbEntity
  8
0
100
AcDbLine
 10
-13.96964099861244
 20
32.45442723737804
 30
0.0
 11
-63.4982548815844
 21
32.45442723737804
 31
0.0
  0
LINE
  5
3AA
330
2F3
100
AcDbEntity
  8
0
100
AcDbLine
 10
-274.9924424005655
 20
13.56605745632998
 30
0.0
 11
-70.49806250632575
 21
13.56605745632991
 31
0.0
  0
LINE
  5
3AB
330
2F3
100
AcDbEntity
  8
0
100
AcDbLine
 10
-63.4982548815844
 20
32.45442723737804
 30
0.0
 11
-63.4982548815844
 21
13.56605745632991
 31
0.0
  0
LINE
  5
3AC
330
2F3
100
AcDbEntity
  8
0
100
AcDbLine
 10
140.9961250126695
 20
54.34271457188686
 30
0.0
 11
13.96964099859433
 21
54.34271457188686
 31
0.0
  0
LINE
  5
3AD
330
2F3
100
AcDbEntity
  8
0
100
AcDbLine
 10
-13.96964099861244
 20
54.34271457188686
 30
0.0
 11
-63.4982548815844
 21
54.34271457188686
 31
0.0
  0
LINE
  5
3AE
330
2F3
100
AcDbEntity
  8
0
100
AcDbLine
 10
-70.49806250632575
 20
35.45434479083866
 30
0.0
 11
-70.49806250632575
 21
54.34271457188686
 31
0.0
  0
LINE
  5
3AF
330
2F3
100
AcDbEntity
  8
0
100
AcDbLine
 10
-274.9924424005675
 20
35.45434479083866
 30
0.0
 11
-70.49806250632575
 21
35.45434479083866
 31
0.0
  0
LINE
  5
3B0
330
2F3
100
AcDbEntity
  8
0
100
AcDbLine
 10
-63.4982548815844
 20
54.34271457188686
 30
0.0
 11
-63.4982548815844
 21
35.45434479083866
 31
0.0
  0
LINE
  5
3B1
330
2F3
100
AcDbEntity
  8
0
100
AcDbLine
 10
-63.4982548815844
 20
10.56613990286944
 30
0.0
 11
-63.4982548815844
 21
-8.152796071463573
 31
0.0
  0
LINE
  5
3B2
330
2F3
100
AcDbEntity
  8
0
100
AcDbLine
 10
-70.49806250632575
 20
13.56605745632991
 30
0.0
 11
-70.49806250632575
 21
32.45442723737804
 31
0.0
  0
LINE
  5
3B3
330
2F3
100
AcDbEntity
  8
0
100
AcDbLine
 10
-274.9924424005696
 20
57.34263212534741
 30
0.0
 11
-70.49806250632575
 21
57.34263212534741
 31
0.0
  0
LINE
  5
3B4
330
2F3
100
AcDbEntity
  8
0
100
AcDbLine
 10
-63.4982548815844
 20
57.34263212534741
 30
0.0
 11
-13.96964099861243
 21
57.34263212534741
 31
0.0
  0
LINE
  5
3B5
330
2F3
100
AcDbEntity
  8
0
100
AcDbLine
 10
13.96964099859435
 20
57.34263212534741
 30
0.0
 11
140.9961250126695
 21
57.34263212534741
 31
0.0
  0
LINE
  5
3B6
330
2F3
100
AcDbEntity
  8
0
100
AcDbLine
 10
-70.49806250632575
 20
57.34263212534741
 30
0.0
 11
-70.49806250632575
 21
62.99826862267228
 31
0.0
  0
LINE
  5
3B7
330
2F3
100
AcDbEntity
  8
0
100
AcDbLine
 10
-70.49806250632575
 20
10.56613990286944
 30
0.0
 11
-274.9924424005653
 21
10.56613990286944
 31
0.0
  0
LINE
  5
3B8
330
2F3
100
AcDbEntity
  8
0
100
AcDbLine
 10
-79.89524629360452
 20
-11.32214743163924
 30
0.0
 11
-274.9924424005633
 21
-11.32214743163924
 31
0.0
  0
LINE
  5
3B9
330
2F3
100
AcDbEntity
  8
0
100
AcDbLine
 10
33.34624026340341
 20
10.56613990286944
 30
0.0
 11
13.96964099859433
 21
10.56613990286944
 31
0.0
  0
LINE
  5
3BA
330
2F3
100
AcDbEntity
  8
0
100
AcDbLine
 10
-13.96964099861244
 20
10.56613990286944
 30
0.0
 11
-63.4982548815844
 21
10.56613990286944
 31
0.0
  0
LINE
  5
3BB
330
2F3
100
AcDbEntity
  8
0
100
AcDbLine
 10
-70.49806250632575
 20
54.34271457188686
 30
0.0
 11
-274.9924424005693
 21
54.34271457188686
 31
0.0
  0
LINE
  5
3BC
330
2F3
100
AcDbEntity
  8
0
100
AcDbLine
 10
-70.49806250632575
 20
32.45442723737804
 30
0.0
 11
-274.9924424005673
 21
32.45442723737804
 31
0.0
  0
LINE
  5
3BD
330
2F3
100
AcDbEntity
  8
0
100
AcDbLine
 10
-274.9924424005635
 20
-8.322229878178694
 30
0.0
 11
-70.49806250632575
 21
-8.322229878178694
 31
0.0
  0
LINE
  5
3BE
330
2F3
100
AcDbEntity
  8
0
100
AcDbLine
 10
-63.4982548815844
 20
13.56605745632991
 30
0.0
 11
-13.96964099861243
 21
13.56605745632993
 31
0.0
  0
LINE
  5
3BF
330
2F3
100
AcDbEntity
  8
0
100
AcDbLine
 10
13.96964099859435
 20
13.56605745632994
 30
0.0
 11
48.86664705040423
 21
13.56605745632995
 31
0.0
  0
LINE
  5
3C0
330
2F3
100
AcDbEntity
  8
0
100
AcDbLine
 10
-63.4982548815844
 20
35.45434479083866
 30
0.0
 11
-13.96964099861243
 21
35.45434479083866
 31
0.0
  0
LINE
  5
3C1
330
2F3
100
AcDbEntity
  8
0
100
AcDbLine
 10
13.96964099859435
 20
35.45434479083866
 30
0.0
 11
140.9961250126695
 21
35.45434479083866
 31
0.0
  0
LINE
  5
3C2
330
2F3
100
AcDbEntity
  8
0
100
AcDbLine
 10
178.9950806898367
 20
54.34271457188686
 30
0.0
 11
178.9950806898367
 21
38.71839899200521
 31
0.0
  0
LINE
  5
3C3
330
2F3
100
AcDbEntity
  8
0
100
AcDbLine
 10
178.9950806898367
 20
62.99826862267228
 30
0.0
 11
178.9950806898367
 21
57.34263212534741
 31
0.0
  0
LINE
  5
3C4
330
2F3
100
AcDbEntity
  8
0
100
AcDbLine
 10
464.9872207863875
 20
13.99961524948094
 30
0.0
 11
464.9872207863976
 21
-42.99881826626823
 31
0.0
  0
LINE
  5
3C5
330
2F3
100
AcDbEntity
  8
0
100
AcDbLine
 10
315.9913156311993
 20
-42.99881826626821
 30
0.0
 11
315.9913156311993
 21
-30.44360776474819
 31
0.0
  0
LINE
  5
3C6
330
2F3
100
AcDbEntity
  8
0
100
AcDbLine
 10
315.9913156311993
 20
-30.44360776474819
 30
0.0
 11
261.4018710944998
 21
-30.44360776474819
 31
0.0
  0
LINE
  5
3C7
330
2F3
100
AcDbEntity
  8
0
100
AcDbLine
 10
196.4462472012226
 20
-42.99881826626821
 30
0.0
 11
261.4018710944998
 21
-30.44360776474819
 31
0.0
  0
LINE
  5
3C8
330
2F3
100
AcDbEntity
  8
0
100
AcDbLine
 10
315.9913156311993
 20
-27.44369021128757
 30
0.0
 11
315.9913156311993
 21
-19.89206617005265
 31
0.0
  0
LINE
  5
3C9
330
2F3
100
AcDbEntity
  8
0
100
AcDbLine
 10
276.9222414052834
 20
-27.44369021128757
 30
0.0
 11
315.9913156311993
 21
-19.89206617005265
 31
0.0
  0
LINE
  5
3CA
330
2F3
100
AcDbEntity
  8
0
100
AcDbLine
 10
315.9913156311993
 20
-27.44369021128757
 30
0.0
 11
276.9222414052834
 21
-27.44369021128757
 31
0.0
  0
LINE
  5
3CB
330
2F3
100
AcDbEntity
  8
0
100
AcDbLine
 10
322.9911232559408
 20
-18.53908003996527
 30
0.0
 11
322.9911232559408
 21
-27.44369021128757
 31
0.0
  0
LINE
  5
3CC
330
2F3
100
AcDbEntity
  8
0
100
AcDbLine
 10
459.9873581972963
 20
-27.44369021128757
 30
0.0
 11
322.9911232559408
 21
-27.44369021128757
 31
0.0
  0
LINE
  5
3CD
330
2F3
100
AcDbEntity
  8
0
100
AcDbLine
 10
459.9873581972963
 20
-27.44369021128757
 30
0.0
 11
459.9873581972963
 21
-8.555320430239291
 31
0.0
  0
LINE
  5
3CE
330
2F3
100
AcDbEntity
  8
0
100
AcDbLine
 10
374.6430915102161
 20
-8.555320430239291
 30
0.0
 11
459.9873581972963
 21
-8.555320430239291
 31
0.0
  0
LINE
  5
3CF
330
2F3
100
AcDbEntity
  8
0
100
AcDbLine
 10
322.9911232559408
 20
-18.53908003996527
 30
0.0
 11
374.6430915102161
 21
-8.555320430239291
 31
0.0
  0
LINE
  5
3D0
330
2F3
100
AcDbEntity
  8
0
100
AcDbLine
 10
459.9873581972963
 20
-30.44360776474819
 30
0.0
 11
322.9911232559408
 21
-30.44360776474819
 31
0.0
  0
LINE
  5
3D1
330
2F3
100
AcDbEntity
  8
0
100
AcDbLine
 10
322.9911232559408
 20
-30.44360776474819
 30
0.0
 11
322.9911232559408
 21
-42.99881826626821
 31
0.0
  0
LINE
  5
3D2
330
2F3
100
AcDbEntity
  8
0
100
AcDbLine
 10
459.9873581972963
 20
-42.99881826626821
 30
0.0
 11
459.9873581972963
 21
-30.44360776474819
 31
0.0
  0
LINE
  5
3D3
330
2F3
100
AcDbEntity
  8
0
100
AcDbLine
 10
459.9873581972963
 20
-5.555402876778742
 30
0.0
 11
390.163461820999
 21
-5.555402876778742
 31
0.0
  0
LINE
  5
3D4
330
2F3
100
AcDbEntity
  8
0
100
AcDbLine
 10
459.9873581972963
 20
-5.555402876778742
 30
0.0
 11
459.9873581972963
 21
7.940791363170142
 31
0.0
  0
LINE
  5
3D5
330
2F3
100
AcDbEntity
  8
0
100
AcDbLine
 10
390.163461820999
 20
-5.555402876778742
 30
0.0
 11
459.9873581972963
 21
7.940791363170142
 31
0.0
  0
LINE
  5
3D6
330
2F3
100
AcDbEntity
  8
0
100
AcDbLine
 10
-597.3230849563921
 20
469.9870833754908
 30
0.0
 11
-597.3230849563921
 21
479.9868085536927
 31
0.0
  0
LINE
  5
3D7
330
2F3
100
AcDbEntity
  8
0
100
AcDbLine
 10
-999.9484926503342
 20
469.9870833754908
 30
0.0
 11
-999.9484926503342
 21
479.9868085536927
 31
0.0
  0
LINE
  5
3D8
330
2F3
100
AcDbEntity
  8
0
100
AcDbLine
 10
-999.9484926503349
 20
205.9943386709602
 30
0.0
 11
-999.9484926503342
 21
469.9870833754908
 31
0.0
  0
LINE
  5
3D9
330
2F3
100
AcDbEntity
  8
0
100
AcDbLine
 10
-597.3043387643352
 20
469.9870833754908
 30
0.0
 11
-597.3230849563921
 21
469.9870833754908
 31
0.0
  0
LINE
  5
3DA
330
2F3
100
AcDbEntity
  8
0
100
AcDbLine
 10
-465.9871933042265
 20
205.9943386709602
 30
0.0
 11
-465.9871933043127
 21
479.9868085536927
 31
0.0
  0
LINE
  5
3DB
330
2F3
100
AcDbEntity
  8
0
100
AcDbLine
 10
80.46781343364051
 20
205.9943386709602
 30
0.0
 11
80.46781343364065
 21
479.9868085536927
 31
0.0
  0
LINE
  5
3DC
330
2F3
100
AcDbEntity
  8
0
100
AcDbLine
 10
-531.9853794803552
 20
239.9934042768464
 30
0.0
 11
-531.9853794803552
 21
205.9943386709597
 31
0.0
  0
LINE
  5
3DD
330
2F3
100
AcDbEntity
  8
0
100
AcDbLine
 10
-597.3043387643352
 20
289.9920301678559
 30
0.0
 11
-531.9853794803557
 21
289.9920301678559
 31
0.0
  0
LINE
  5
3DE
330
2F3
100
AcDbEntity
  8
0
100
AcDbLine
 10
-30.01705502128138
 20
479.9868085536927
 30
0.0
 11
-29.99917553460663
 21
479.9868085536927
 31
0.0
  0
LINE
  5
3DF
330
2F3
100
AcDbEntity
  8
0
100
AcDbLine
 10
-279.9565460161789
 20
479.9868085536927
 30
0.0
 11
-465.9871933043127
 21
479.9868085536927
 31
0.0
  0
LINE
  5
3E0
330
2F3
100
AcDbEntity
  8
0
100
AcDbLine
 10
-261.8173059215223
 20
463.9872482685695
 30
0.0
 11
-261.3985063770519
 21
463.9872482685695
 31
0.0
  0
LINE
  5
3E1
330
2F3
100
AcDbEntity
  8
0
100
AcDbLine
 10
-30.01705502128138
 20
463.9872482685695
 30
0.0
 11
-30.13891123303235
 21
463.9872482685695
 31
0.0
  0
LINE
  5
3E2
330
2F3
100
AcDbEntity
  8
0
100
AcDbLine
 10
-29.99917553460663
 20
479.9868085536927
 30
0.0
 11
-29.9991724829327
 21
463.9872482685695
 31
0.0
  0
LINE
  5
3E3
330
2F3
100
AcDbEntity
  8
0
100
AcDbLine
 10
-29.9991724829327
 20
463.9872482685695
 30
0.0
 11
-29.9991724829327
 21
205.9943386709602
 31
0.0
  0
LINE
  5
3E4
330
2F3
100
AcDbEntity
  8
0
100
AcDbLine
 10
-30.01705502128138
 20
463.9872482685695
 30
0.0
 11
-30.01705502128167
 21
205.9943386709602
 31
0.0
  0
LINE
  5
3E5
330
2F3
100
AcDbEntity
  8
0
100
AcDbLine
 10
-30.01705502128138
 20
463.9872482685695
 30
0.0
 11
-29.9991724829327
 21
463.9872482685695
 31
0.0
  0
LINE
  5
3E6
330
2F3
100
AcDbEntity
  8
0
100
AcDbLine
 10
-30.01705502128138
 20
479.9868085536927
 30
0.0
 11
-30.01705502128138
 21
463.9872482685695
 31
0.0
  0
LINE
  5
3E7
330
2F3
100
AcDbEntity
  8
0
100
AcDbLine
 10
398.1140614292849
 20
205.9943386709602
 30
0.0
 11
398.1140614292848
 21
229.9936790986444
 31
0.0
  0
LINE
  5
3E8
330
2F3
100
AcDbEntity
  8
0
100
AcDbLine
 10
483.1117254440012
 20
229.9936790986444
 30
0.0
 11
483.1117254440011
 21
205.9943386709602
 31
0.0
  0
LINE
  5
3E9
330
2F3
100
AcDbEntity
  8
0
100
AcDbLine
 10
1.124971854669321
 20
229.9936790986444
 30
0.0
 11
1.124971854668013
 21
205.9943386709602
 31
0.0
  0
LINE
  5
3EA
330
2F3
100
AcDbEntity
  8
0
100
AcDbLine
 10
340.9856220276325
 20
205.9943386709602
 30
0.0
 11
340.9856220276326
 21
229.9936790986444
 31
0.0
  0
LINE
  5
3EB
330
2F3
100
AcDbEntity
  8
0
100
AcDbLine
 10
204.989359604092
 20
205.9943386709602
 30
0.0
 11
204.9893596040921
 21
229.9936790986444
 31
0.0
  0
LINE
  5
3EC
330
2F3
100
AcDbEntity
  8
0
100
AcDbLine
 10
-493.9864238031919
 20
205.9943386709602
 30
0.0
 11
-493.9864238031921
 21
239.9934042768464
 31
0.0
  0
LINE
  5
3ED
330
2F3
100
AcDbEntity
  8
0
100
AcDbLine
 10
13.9696409985942
 20
-449.9876330190868
 30
0.0
 11
13.9696409985942
 21
-162.9955204046914
 31
0.0
  0
LINE
  5
3EE
330
2F3
100
AcDbEntity
  8
0
100
AcDbLine
 10
13.9696409985942
 20
-162.9955204046914
 30
0.0
 11
13.9696409985942
 21
-159.9956028512308
 31
0.0
  0
LINE
  5
3EF
330
2F3
100
AcDbEntity
  8
0
100
AcDbLine
 10
-13.96964099861257
 20
-449.9876330190868
 30
0.0
 11
-13.96964099861257
 21
-162.9955204046914
 31
0.0
  0
LINE
  5
3F0
330
2F3
100
AcDbEntity
  8
0
100
AcDbLine
 10
-13.96964099861257
 20
-162.9955204046914
 30
0.0
 11
-13.96964099861257
 21
-159.9956028512308
 31
0.0
  0
LINE
  5
3F1
330
2F3
100
AcDbEntity
  8
0
100
AcDbLine
 10
-466.0171675551045
 20
-449.9876330190868
 30
0.0
 11
-466.0171675550992
 21
-448.9876605012667
 31
0.0
  0
LINE
  5
3F2
330
2F3
100
AcDbEntity
  8
0
100
AcDbLine
 10
-493.9564495523113
 20
-449.9876330190868
 30
0.0
 11
-493.9564495523113
 21
-448.9876605012667
 31
0.0
  0
LINE
  5
3F3
330
2F3
100
AcDbEntity
  8
0
100
AcDbLine
 10
-946.0039761088042
 20
-179.9950532076346
 30
0.0
 11
-946.0039761088026
 21
-159.9956028512308
 31
0.0
  0
LINE
  5
3F4
330
2F3
100
AcDbEntity
  8
0
100
AcDbLine
 10
-442.7046171141084
 20
-449.9876330190868
 30
0.0
 11
-442.7046171141084
 21
-448.9876605012667
 31
0.0
  0
LINE
  5
3F5
330
2F3
100
AcDbEntity
  8
0
100
AcDbLine
 10
-435.6337436306
 20
-449.9876330190868
 30
0.0
 11
-435.559003678711
 21
-449.9876330190868
 31
0.0
  0
LINE
  5
3F6
330
2F3
100
AcDbEntity
  8
0
100
AcDbLine
 10
418.6382375455094
 20
-162.9955204046914
 30
0.0
 11
418.6382375455094
 21
-159.9956028512308
 31
0.0
  0
LINE
  5
3F7
330
2F3
100
AcDbEntity
  8
0
100
AcDbLine
 10
-444.4859695177395
 20
-169.9953280294328
 30
0.0
 11
-442.7534698962708
 21
-169.9953280294327
 31
0.0
  0
LINE
  5
3F8
330
2F3
100
AcDbEntity
  8
0
100
AcDbLine
 10
-444.4859695177395
 20
-439.9879078408848
 30
0.0
 11
-444.4859695177395
 21
-349.9903812370675
 31
0.0
  0
LINE
  5
3F9
330
2F3
100
AcDbEntity
  8
0
100
AcDbLine
 10
-457.7362715362602
 20
-439.9879078408848
 30
0.0
 11
-457.7362715362602
 21
-349.9903812370675
 31
0.0
  0
LINE
  5
3FA
330
2F3
100
AcDbEntity
  8
0
100
AcDbLine
 10
-495.3366422737965
 20
-439.9879078408848
 30
0.0
 11
-495.3366422737965
 21
-349.9903812370675
 31
0.0
  0
LINE
  5
3FB
330
2F3
100
AcDbEntity
  8
0
100
AcDbLine
 10
-507.1253791817041
 20
-439.9879078408848
 30
0.0
 11
-507.1253791817041
 21
-349.9903812370675
 31
0.0
  0
LINE
  5
3FC
330
2F3
100
AcDbEntity
  8
0
100
AcDbLine
 10
-518.5284379125733
 20
-439.9879078408848
 30
0.0
 11
-518.5284379125733
 21
-349.9903812370675
 31
0.0
  0
LINE
  5
3FD
330
2F3
100
AcDbEntity
  8
0
100
AcDbLine
 10
-529.5382103810012
 20
-439.9879078408848
 30
0.0
 11
-529.5382103810012
 21
-349.9903812370675
 31
0.0
  0
LINE
  5
3FE
330
2F3
100
AcDbEntity
  8
0
100
AcDbLine
 10
-540.1473509009603
 20
-439.9879078408848
 30
0.0
 11
-540.1505371368982
 21
-349.9903812370675
 31
0.0
  0
LINE
  5
3FF
330
2F3
100
AcDbEntity
  8
0
100
AcDbLine
 10
-550.3487810868158
 20
-439.9879078408848
 30
0.0
 11
-550.3487810868158
 21
-349.9903812370675
 31
0.0
  0
LINE
  5
400
330
2F3
100
AcDbEntity
  8
0
100
AcDbLine
 10
-560.1356945760023
 20
-439.9879078408848
 30
0.0
 11
-560.1356945760023
 21
-349.9903812370675
 31
0.0
  0
LINE
  5
401
330
2F3
100
AcDbEntity
  8
0
100
AcDbLine
 10
-569.5015615702084
 20
-439.9879078408848
 30
0.0
 11
-569.5015615702084
 21
-349.9903812370675
 31
0.0
  0
LINE
  5
402
330
2F3
100
AcDbEntity
  8
0
100
AcDbLine
 10
-578.4401331920374
 20
-439.9879078408848
 30
0.0
 11
-578.4401331920374
 21
-349.9903812370675
 31
0.0
  0
LINE
  5
403
330
2F3
100
AcDbEntity
  8
0
100
AcDbLine
 10
-586.9454456542397
 20
-439.9879078408848
 30
0.0
 11
-586.9454456542397
 21
-349.9903812370675
 31
0.0
  0
LINE
  5
404
330
2F3
100
AcDbEntity
  8
0
100
AcDbLine
 10
-595.0118242387321
 20
-439.9879078408848
 30
0.0
 11
-595.0118242387321
 21
-349.9903812370675
 31
0.0
  0
LINE
  5
405
330
2F3
100
AcDbEntity
  8
0
100
AcDbLine
 10
-602.633887082753
 20
-439.9879078408848
 30
0.0
 11
-602.633887082753
 21
-349.9903812370675
 31
0.0
  0
LINE
  5
406
330
2F3
100
AcDbEntity
  8
0
100
AcDbLine
 10
-609.8065487696235
 20
-439.9879078408848
 30
0.0
 11
-609.8065487696235
 21
-349.9903812370675
 31
0.0
  0
LINE
  5
407
330
2F3
100
AcDbEntity
  8
0
100
AcDbLine
 10
-442.7534698962714
 20
-449.9876330190868
 30
0.0
 11
-442.7534698962714
 21
-448.9876605012667
 31
0.0
  0
LINE
  5
408
330
2F3
100
AcDbEntity
  8
0
100
AcDbLine
 10
-442.7534698962714
 20
-448.9876605012667
 30
0.0
 11
-442.7534698962714
 21
-439.9879078408848
 31
0.0
  0
LINE
  5
409
330
2F3
100
AcDbEntity
  8
0
100
AcDbLine
 10
-602.633887082753
 20
-349.9903812370675
 30
0.0
 11
-606.6077447447571
 21
-349.9903812370675
 31
0.0
  0
LINE
  5
40A
330
2F3
100
AcDbEntity
  8
0
100
AcDbLine
 10
-606.6077447447571
 20
-349.9903812370675
 30
0.0
 11
-607.5488924131243
 21
-349.9903812370675
 31
0.0
  0
LINE
  5
40B
330
2F3
100
AcDbEntity
  8
0
100
AcDbLine
 10
-616.3744860142088
 20
-349.9903812370675
 30
0.0
 11
-616.5250237217232
 21
-349.9903812370675
 31
0.0
  0
LINE
  5
40C
330
2F3
100
AcDbEntity
  8
0
100
AcDbLine
 10
-616.5250237217232
 20
-349.9903812370675
 30
0.0
 11
-616.9150341385755
 21
-349.9903812370675
 31
0.0
  0
LINE
  5
40D
330
2F3
100
AcDbEntity
  8
0
100
AcDbLine
 10
-574.9837690399155
 20
-349.9903812370675
 30
0.0
 11
-575.90621727816
 21
-349.9903812370675
 31
0.0
  0
LINE
  5
40E
330
2F3
100
AcDbEntity
  8
0
100
AcDbLine
 10
-586.9454456542397
 20
-349.9903812370675
 30
0.0
 11
-591.8758463990159
 21
-349.9903812370675
 31
0.0
  0
LINE
  5
40F
330
2F3
100
AcDbEntity
  8
0
100
AcDbLine
 10
-591.8758463990159
 20
-349.9903812370675
 30
0.0
 11
-592.7734561888571
 21
-349.9903812370675
 31
0.0
  0
LINE
  5
410
330
2F3
100
AcDbEntity
  8
0
100
AcDbLine
 10
-595.0118242387321
 20
-349.9903812370675
 30
0.0
 11
-595.0385044148713
 21
-349.9903812370675
 31
0.0
  0
LINE
  5
411
330
2F3
100
AcDbEntity
  8
0
100
AcDbLine
 10
-560.1356945760023
 20
-349.9903812370675
 30
0.0
 11
-566.0613357933748
 21
-349.9903812370675
 31
0.0
  0
LINE
  5
412
330
2F3
100
AcDbEntity
  8
0
100
AcDbLine
 10
-566.0613357933748
 20
-349.9903812370675
 30
0.0
 11
-566.9144634925472
 21
-349.9903812370675
 31
0.0
  0
LINE
  5
413
330
2F3
100
AcDbEntity
  8
0
100
AcDbLine
 10
-569.5015615702084
 20
-349.9903812370675
 30
0.0
 11
-569.6233894197794
 21
-349.9903812370675
 31
0.0
  0
LINE
  5
414
330
2F3
100
AcDbEntity
  8
0
100
AcDbLine
 10
-540.1473509009603
 20
-349.9903812370675
 30
0.0
 11
-540.1505371368982
 21
-349.9903812370675
 31
0.0
  0
LINE
  5
415
330
2F3
100
AcDbEntity
  8
0
100
AcDbLine
 10
-495.3366422737965
 20
-349.9903812370675
 30
0.0
 11
-503.163275362619
 21
-349.9903812370675
 31
0.0
  0
LINE
  5
416
330
2F3
100
AcDbEntity
  8
0
100
AcDbLine
 10
-503.163275362619
 20
-349.9903812370675
 30
0.0
 11
-503.9128658968255
 21
-349.9903812370675
 31
0.0
  0
LINE
  5
417
330
2F3
100
AcDbEntity
  8
0
100
AcDbLine
 10
-444.4859695177395
 20
-349.9903812370675
 30
0.0
 11
-453.3786813818402
 21
-349.9903812370675
 31
0.0
  0
LINE
  5
418
330
2F3
100
AcDbEntity
  8
0
100
AcDbLine
 10
-453.3786813818402
 20
-349.9903812370675
 30
0.0
 11
-454.0866844651861
 21
-349.9903812370675
 31
0.0
  0
LINE
  5
419
330
2F3
100
AcDbEntity
  8
0
100
AcDbLine
 10
-616.9150341385755
 20
-344.9905186479667
 30
0.0
 11
-616.5250237217232
 21
-344.9905186479667
 31
0.0
  0
LINE
  5
41A
330
2F3
100
AcDbEntity
  8
0
100
AcDbLine
 10
-616.5250237217232
 20
-344.9905186479667
 30
0.0
 11
-616.3744860142088
 21
-344.9905186479667
 31
0.0
  0
LINE
  5
41B
330
2F3
100
AcDbEntity
  8
0
100
AcDbLine
 10
-607.5488924131243
 20
-344.9905186479667
 30
0.0
 11
-606.6077447447571
 21
-344.9905186479667
 31
0.0
  0
LINE
  5
41C
330
2F3
100
AcDbEntity
  8
0
100
AcDbLine
 10
-606.6077447447571
 20
-344.9905186479667
 30
0.0
 11
-602.633887082753
 21
-344.9905186479667
 31
0.0
  0
LINE
  5
41D
330
2F3
100
AcDbEntity
  8
0
100
AcDbLine
 10
-595.0385044148713
 20
-344.9905186479667
 30
0.0
 11
-595.0118242387321
 21
-344.9905186479667
 31
0.0
  0
LINE
  5
41E
330
2F3
100
AcDbEntity
  8
0
100
AcDbLine
 10
-592.7734561888571
 20
-344.9905186479667
 30
0.0
 11
-591.8758463990159
 21
-344.9905186479667
 31
0.0
  0
LINE
  5
41F
330
2F3
100
AcDbEntity
  8
0
100
AcDbLine
 10
-591.8758463990159
 20
-344.9905186479667
 30
0.0
 11
-586.9454456542397
 21
-344.9905186479667
 31
0.0
  0
LINE
  5
420
330
2F3
100
AcDbEntity
  8
0
100
AcDbLine
 10
-575.90621727816
 20
-344.9905186479667
 30
0.0
 11
-574.9837690399155
 21
-344.9905186479667
 31
0.0
  0
LINE
  5
421
330
2F3
100
AcDbEntity
  8
0
100
AcDbLine
 10
-569.6233894197794
 20
-344.9905186479667
 30
0.0
 11
-569.5015615702084
 21
-344.9905186479667
 31
0.0
  0
LINE
  5
422
330
2F3
100
AcDbEntity
  8
0
100
AcDbLine
 10
-566.9144634925472
 20
-344.9905186479667
 30
0.0
 11
-566.0613357933748
 21
-344.9905186479667
 31
0.0
  0
LINE
  5
423
330
2F3
100
AcDbEntity
  8
0
100
AcDbLine
 10
-566.0613357933748
 20
-344.9905186479667
 30
0.0
 11
-560.1356945760023
 21
-344.9905186479667
 31
0.0
  0
LINE
  5
424
330
2F3
100
AcDbEntity
  8
0
100
AcDbLine
 10
-540.1505371368982
 20
-344.9905186479667
 30
0.0
 11
-540.1473509009603
 21
-344.9905186479667
 31
0.0
  0
LINE
  5
425
330
2F3
100
AcDbEntity
  8
0
100
AcDbLine
 10
-503.9128658968255
 20
-344.9905186479667
 30
0.0
 11
-503.163275362619
 21
-344.9905186479667
 31
0.0
  0
LINE
  5
426
330
2F3
100
AcDbEntity
  8
0
100
AcDbLine
 10
-503.163275362619
 20
-344.9905186479667
 30
0.0
 11
-495.3366422737965
 21
-344.9905186479667
 31
0.0
  0
LINE
  5
427
330
2F3
100
AcDbEntity
  8
0
100
AcDbLine
 10
-454.0866844651861
 20
-344.9905186479667
 30
0.0
 11
-453.3786813818402
 21
-344.9905186479667
 31
0.0
  0
LINE
  5
428
330
2F3
100
AcDbEntity
  8
0
100
AcDbLine
 10
-453.3786813818402
 20
-344.9905186479667
 30
0.0
 11
-444.4859695177395
 21
-344.9905186479667
 31
0.0
  0
LINE
  5
429
330
2F3
100
AcDbEntity
  8
0
100
AcDbLine
 10
-440.662274510098
 20
-459.9873581972887
 30
0.0
 11
-440.6697306566831
 21
-459.9873581972887
 31
0.0
  0
LINE
  5
42A
330
2F3
100
AcDbEntity
  8
0
100
AcDbLine
 10
454.6372481870336
 20
-459.9873581972887
 30
0.0
 11
418.6382375455068
 21
-459.9873581972889
 31
0.0
  0
LINE
  5
42B
330
2F3
100
AcDbEntity
  8
0
100
AcDbLine
 10
418.6382375455089
 20
-456.9874406438281
 30
0.0
 11
454.6372481870336
 21
-456.9874406438281
 31
0.0
  0
LINE
  5
42C
330
2F3
100
AcDbEntity
  8
0
100
AcDbLine
 10
418.6382375455094
 20
-162.9955204046914
 30
0.0
 11
454.6372481870336
 21
-162.9955204046914
 31
0.0
  0
LINE
  5
42D
330
2F3
100
AcDbEntity
  8
0
100
AcDbLine
 10
-619.9829610485324
 20
-179.9950532076347
 30
0.0
 11
-619.9829610485324
 21
-448.9876605012667
 31
0.0
  0
LINE
  5
42E
330
2F3
100
AcDbEntity
  8
0
100
AcDbLine
 10
-619.9829610485324
 20
-448.9876605012667
 30
0.0
 11
-619.9829610485324
 21
-449.9876330190868
 31
0.0
  0
LINE
  5
42F
330
2F3
100
AcDbEntity
  8
0
100
AcDbLine
 10
-435.559003678711
 20
-459.9873581972889
 30
0.0
 11
-435.559003678711
 21
-449.9876330190868
 31
0.0
  0
LINE
  5
430
330
2F3
100
AcDbEntity
  8
0
100
AcDbLine
 10
-910.9749637342044
 20
57.99840603357127
 30
0.0
 11
-785.3117506614659
 21
57.99840603357127
 31
0.0
  0
LINE
  5
431
330
2F3
100
AcDbEntity
  8
0
100
AcDbLine
 10
-785.3117506614659
 20
-37.99895567716726
 30
0.0
 11
-910.9749637342044
 21
-37.99895567716726
 31
0.0
  0
LINE
  5
432
330
2F3
100
AcDbEntity
  8
0
100
AcDbLine
 10
-785.3117506614659
 20
57.99840603357127
 30
0.0
 11
-785.3117506614661
 21
52.99854344447028
 31
0.0
  0
LINE
  5
433
330
2F3
100
AcDbEntity
  8
0
100
AcDbLine
 10
-493.986423803177
 20
62.99826862267225
 30
0.0
 11
-465.9971930293898
 21
62.99826862267228
 31
0.0
  0
LINE
  5
434
330
2F3
100
AcDbEntity
  8
0
100
AcDbLine
 10
-493.9864238031919
 20
205.9943386709602
 30
0.0
 11
-531.9853794803552
 21
205.9943386709597
 31
0.0
  0
LINE
  5
435
330
2F3
100
AcDbEntity
  8
0
100
AcDbLine
 10
33.34624026340341
 20
10.56613990286944
 30
0.0
 11
13.96964099859443
 21
6.820864340275507
 31
0.0
  0
LINE
  5
436
330
2F3
100
AcDbEntity
  8
0
100
AcDbLine
 10
-193.1367328506133
 20
-33.21043476614807
 30
0.0
 11
-243.7780224866522
 21
-42.99881826626821
 31
0.0
  0
LINE
  5
437
330
2F3
100
AcDbEntity
  8
0
100
AcDbLine
 10
-597.3043387643352
 20
205.9943386709602
 30
0.0
 11
-597.3043387643352
 21
239.9934042768464
 31
0.0
  0
LINE
  5
438
330
2F3
100
AcDbEntity
  8
0
100
AcDbLine
 10
-261.9570406954205
 20
479.9868085536927
 30
0.0
 11
-279.9565460161789
 21
479.9868085536927
 31
0.0
  0
LINE
  5
439
330
2F3
100
AcDbEntity
  8
0
100
AcDbLine
 10
52.52853143643387
 20
205.9943386709602
 30
0.0
 11
52.52853143643387
 21
229.9936790986444
 31
0.0
  0
LINE
  5
43A
330
2F3
100
AcDbEntity
  8
0
100
AcDbLine
 10
52.52853143643387
 20
229.9936790986444
 30
0.0
 11
52.52853143643387
 21
479.9868085536927
 31
0.0
  0
LINE
  5
43B
330
2F3
100
AcDbEntity
  8
0
100
AcDbLine
 10
-466.0171675550992
 20
-448.9876605012667
 30
0.0
 11
-466.0171675550992
 21
-439.9879078408848
 31
0.0
  0
LINE
  5
43C
330
2F3
100
AcDbEntity
  8
0
100
AcDbLine
 10
-493.9564495523113
 20
-448.9876605012667
 30
0.0
 11
-493.9564495523113
 21
-439.9879078408848
 31
0.0
  0
LINE
  5
43D
330
2F3
100
AcDbEntity
  8
0
100
AcDbLine
 10
-442.7046171141084
 20
-448.9876605012667
 30
0.0
 11
-442.7046171141084
 21
-439.9879078408848
 31
0.0
  0
LINE
  5
43E
330
2F3
100
AcDbEntity
  8
0
100
AcDbLine
 10
-444.4859695177395
 20
-349.9903812370675
 30
0.0
 11
-444.4859695177395
 21
-344.9905186479667
 31
0.0
  0
LINE
  5
43F
330
2F3
100
AcDbEntity
  8
0
100
AcDbLine
 10
-444.4859695177395
 20
-344.9905186479667
 30
0.0
 11
-444.4859695177395
 21
-169.9953280294328
 31
0.0
  0
LINE
  5
440
330
2F3
100
AcDbEntity
  8
0
100
AcDbLine
 10
-457.7362715362602
 20
-349.9903812370675
 30
0.0
 11
-457.7362715362602
 21
-344.9905186479667
 31
0.0
  0
LINE
  5
441
330
2F3
100
AcDbEntity
  8
0
100
AcDbLine
 10
-457.7362715362602
 20
-344.9905186479667
 30
0.0
 11
-457.7362715362602
 21
-169.9953280294328
 31
0.0
  0
LINE
  5
442
330
2F3
100
AcDbEntity
  8
0
100
AcDbLine
 10
-495.3366422737965
 20
-349.9903812370675
 30
0.0
 11
-495.3366422737965
 21
-344.9905186479667
 31
0.0
  0
LINE
  5
443
330
2F3
100
AcDbEntity
  8
0
100
AcDbLine
 10
-495.3366422737965
 20
-344.9905186479667
 30
0.0
 11
-495.3366422737965
 21
-179.9950532076347
 31
0.0
  0
LINE
  5
444
330
2F3
100
AcDbEntity
  8
0
100
AcDbLine
 10
-507.1253791817041
 20
-349.9903812370675
 30
0.0
 11
-507.1253791817041
 21
-344.9905186479667
 31
0.0
  0
LINE
  5
445
330
2F3
100
AcDbEntity
  8
0
100
AcDbLine
 10
-507.1253791817041
 20
-344.9905186479667
 30
0.0
 11
-507.1253791817041
 21
-179.9950532076347
 31
0.0
  0
LINE
  5
446
330
2F3
100
AcDbEntity
  8
0
100
AcDbLine
 10
-518.5284379125733
 20
-349.9903812370675
 30
0.0
 11
-518.5284379125733
 21
-344.9905186479667
 31
0.0
  0
LINE
  5
447
330
2F3
100
AcDbEntity
  8
0
100
AcDbLine
 10
-518.5284379125733
 20
-344.9905186479667
 30
0.0
 11
-518.5284379125733
 21
-179.9950532076347
 31
0.0
  0
LINE
  5
448
330
2F3
100
AcDbEntity
  8
0
100
AcDbLine
 10
-529.5382103810012
 20
-349.9903812370675
 30
0.0
 11
-529.5382103810012
 21
-344.9905186479667
 31
0.0
  0
LINE
  5
449
330
2F3
100
AcDbEntity
  8
0
100
AcDbLine
 10
-529.5382103810012
 20
-344.9905186479667
 30
0.0
 11
-529.5382103810012
 21
-179.9950532076347
 31
0.0
  0
LINE
  5
44A
330
2F3
100
AcDbEntity
  8
0
100
AcDbLine
 10
-540.1505371368982
 20
-349.9903812370675
 30
0.0
 11
-540.1505371368982
 21
-344.9905186479667
 31
0.0
  0
LINE
  5
44B
330
2F3
100
AcDbEntity
  8
0
100
AcDbLine
 10
-540.1505371368982
 20
-344.9905186479667
 30
0.0
 11
-540.1473509009603
 21
-179.9950532076347
 31
0.0
  0
LINE
  5
44C
330
2F3
100
AcDbEntity
  8
0
100
AcDbLine
 10
-550.3487810868158
 20
-349.9903812370675
 30
0.0
 11
-550.3487810868158
 21
-344.9905186479667
 31
0.0
  0
LINE
  5
44D
330
2F3
100
AcDbEntity
  8
0
100
AcDbLine
 10
-550.3487810868158
 20
-344.9905186479667
 30
0.0
 11
-550.3487810868158
 21
-179.9950532076347
 31
0.0
  0
LINE
  5
44E
330
2F3
100
AcDbEntity
  8
0
100
AcDbLine
 10
-560.1356945760023
 20
-349.9903812370675
 30
0.0
 11
-560.1356945760023
 21
-344.9905186479667
 31
0.0
  0
LINE
  5
44F
330
2F3
100
AcDbEntity
  8
0
100
AcDbLine
 10
-560.1356945760023
 20
-344.9905186479667
 30
0.0
 11
-560.1356945760023
 21
-179.9950532076347
 31
0.0
  0
LINE
  5
450
330
2F3
100
AcDbEntity
  8
0
100
AcDbLine
 10
-569.5015615702084
 20
-349.9903812370675
 30
0.0
 11
-569.5015615702084
 21
-344.9905186479667
 31
0.0
  0
LINE
  5
451
330
2F3
100
AcDbEntity
  8
0
100
AcDbLine
 10
-569.5015615702084
 20
-344.9905186479667
 30
0.0
 11
-569.5015615702084
 21
-179.9950532076347
 31
0.0
  0
LINE
  5
452
330
2F3
100
AcDbEntity
  8
0
100
AcDbLine
 10
-578.4401331920374
 20
-349.9903812370675
 30
0.0
 11
-578.4401331920374
 21
-344.9905186479667
 31
0.0
  0
LINE
  5
453
330
2F3
100
AcDbEntity
  8
0
100
AcDbLine
 10
-578.4401331920374
 20
-344.9905186479667
 30
0.0
 11
-578.4401331920374
 21
-179.9950532076347
 31
0.0
  0
LINE
  5
454
330
2F3
100
AcDbEntity
  8
0
100
AcDbLine
 10
-586.9454456542397
 20
-349.9903812370675
 30
0.0
 11
-586.9454456542397
 21
-344.9905186479667
 31
0.0
  0
LINE
  5
455
330
2F3
100
AcDbEntity
  8
0
100
AcDbLine
 10
-586.9454456542397
 20
-344.9905186479667
 30
0.0
 11
-586.9454456542397
 21
-179.9950532076347
 31
0.0
  0
LINE
  5
456
330
2F3
100
AcDbEntity
  8
0
100
AcDbLine
 10
-595.0118242387321
 20
-349.9903812370675
 30
0.0
 11
-595.0118242387321
 21
-344.9905186479667
 31
0.0
  0
LINE
  5
457
330
2F3
100
AcDbEntity
  8
0
100
AcDbLine
 10
-595.0118242387321
 20
-344.9905186479667
 30
0.0
 11
-595.0118242387321
 21
-179.9950532076347
 31
0.0
  0
LINE
  5
458
330
2F3
100
AcDbEntity
  8
0
100
AcDbLine
 10
-602.633887082753
 20
-349.9903812370675
 30
0.0
 11
-602.633887082753
 21
-344.9905186479667
 31
0.0
  0
LINE
  5
459
330
2F3
100
AcDbEntity
  8
0
100
AcDbLine
 10
-602.633887082753
 20
-344.9905186479667
 30
0.0
 11
-602.633887082753
 21
-179.9950532076347
 31
0.0
  0
LINE
  5
45A
330
2F3
100
AcDbEntity
  8
0
100
AcDbLine
 10
-609.8065487696235
 20
-349.9903812370675
 30
0.0
 11
-609.8065487696235
 21
-344.9905186479667
 31
0.0
  0
LINE
  5
45B
330
2F3
100
AcDbEntity
  8
0
100
AcDbLine
 10
-609.8065487696235
 20
-344.9905186479667
 30
0.0
 11
-609.8065487696235
 21
-179.9950532076347
 31
0.0
  0
LINE
  5
45C
330
2F3
100
AcDbEntity
  8
0
100
AcDbLine
 10
-606.6077447447571
 20
-439.9879078408848
 30
0.0
 11
-602.633887082753
 21
-439.9879078408848
 31
0.0
  0
LINE
  5
45D
330
2F3
100
AcDbEntity
  8
0
100
AcDbLine
 10
-503.163275362619
 20
-439.9879078408848
 30
0.0
 11
-495.3366422737965
 21
-439.9879078408848
 31
0.0
  0
LINE
  5
45E
330
2F3
100
AcDbEntity
  8
0
100
AcDbLine
 10
-495.3366422737965
 20
-439.9879078408848
 30
0.0
 11
-493.9564495523113
 21
-439.9879078408848
 31
0.0
  0
LINE
  5
45F
330
2F3
100
AcDbEntity
  8
0
100
AcDbLine
 10
-466.0171675550992
 20
-439.9879078408848
 30
0.0
 11
-457.7362715362602
 21
-439.9879078408848
 31
0.0
  0
LINE
  5
460
330
2F3
100
AcDbEntity
  8
0
100
AcDbLine
 10
-453.3786813818402
 20
-439.9879078408848
 30
0.0
 11
-444.4859695177395
 21
-439.9879078408848
 31
0.0
  0
LINE
  5
461
330
2F3
100
AcDbEntity
  8
0
100
AcDbLine
 10
-444.4859695177395
 20
-439.9879078408848
 30
0.0
 11
-442.7534698962714
 21
-439.9879078408848
 31
0.0
  0
LINE
  5
462
330
2F3
100
AcDbEntity
  8
0
100
AcDbLine
 10
-440.6697306566831
 20
-456.9874406438282
 30
0.0
 11
-440.662274510098
 21
-456.9874406438282
 31
0.0
  0
LINE
  5
463
330
2F3
100
AcDbEntity
  8
0
100
AcDbLine
 10
418.6382375455068
 20
-459.9873581972889
 30
0.0
 11
418.6382375455089
 21
-456.9874406438281
 31
0.0
  0
LINE
  5
464
330
2F3
100
AcDbEntity
  8
0
100
AcDbLine
 10
418.6382375455089
 20
-456.9874406438281
 30
0.0
 11
418.6382375455094
 21
-449.9876330190868
 31
0.0
  0
LINE
  5
465
330
2F3
100
AcDbEntity
  8
0
100
AcDbLine
 10
464.9872207863976
 20
62.99826862267228
 30
0.0
 11
464.9872207863874
 21
14.09571516906022
 31
0.0
  0
LINE
  5
466
330
2F3
100
AcDbEntity
  8
0
100
AcDbLine
 10
464.9872207863874
 20
14.09571516906022
 30
0.0
 11
464.9872207863875
 21
13.99961524948094
 31
0.0
  0
LINE
  5
467
330
2F3
100
AcDbEntity
  8
0
100
AcDbLine
 10
946.0039761087845
 20
-159.9956028512308
 30
0.0
 11
973.9432581059913
 21
-159.9956028512308
 31
0.0
  0
LINE
  5
468
330
2F3
100
AcDbEntity
  8
0
100
AcDbLine
 10
973.9432581059913
 20
-159.9956028512308
 30
0.0
 11
973.9732323568876
 21
-159.9956028512308
 31
0.0
  0
LINE
  5
469
330
2F3
100
AcDbEntity
  8
0
100
AcDbLine
 10
-973.9432581060093
 20
-159.9956028512308
 30
0.0
 11
-946.0039761088026
 21
-159.9956028512308
 31
0.0
  0
LINE
  5
46A
330
2F3
100
AcDbEntity
  8
0
100
AcDbLine
 10
-785.3117506614661
 20
-32.99909308806628
 30
0.0
 11
-785.3117506614659
 21
-37.99895567716726
 31
0.0
  0
LINE
  5
46B
330
2F3
100
AcDbEntity
  8
0
100
AcDbLine
 10
-465.9971930293898
 20
-42.99881826626821
 30
0.0
 11
-493.986423803177
 21
-42.99881826626824
 31
0.0
  0
LINE
  5
46C
330
2F3
100
AcDbEntity
  8
0
100
AcDbLine
 10
-465.9971930293898
 20
62.99826862267228
 30
0.0
 11
-451.9875780547023
 21
62.99826862267228
 31
0.0
  0
LINE
  5
46D
330
2F3
100
AcDbEntity
  8
0
100
AcDbLine
 10
-597.3043387643352
 20
205.9943386709602
 30
0.0
 11
-999.9484926503349
 21
205.9943386709602
 31
0.0
  0
LINE
  5
46E
330
2F3
100
AcDbEntity
  8
0
100
AcDbLine
 10
1.124971854668013
 20
205.9943386709602
 30
0.0
 11
-29.9991724829327
 21
205.9943386709602
 31
0.0
  0
LINE
  5
46F
330
2F3
100
AcDbEntity
  8
0
100
AcDbLine
 10
-29.9991724829327
 20
205.9943386709602
 30
0.0
 11
-30.01705502128167
 21
205.9943386709602
 31
0.0
  0
LINE
  5
470
330
2F3
100
AcDbEntity
  8
0
100
AcDbLine
 10
-261.9570406954212
 20
205.9943386709602
 30
0.0
 11
-279.9565460161789
 21
205.9943386709602
 31
0.0
  0
LINE
  5
471
330
2F3
100
AcDbEntity
  8
0
100
AcDbLine
 10
-465.9871933042265
 20
205.9943386709602
 30
0.0
 11
-493.9864238031919
 21
205.9943386709602
 31
0.0
  0
LINE
  5
472
330
2F3
100
AcDbEntity
  8
0
100
AcDbLine
 10
48.86664705040423
 20
13.56605745632995
 30
0.0
 11
33.34624026340341
 21
10.56613990286944
 31
0.0
  0
LINE
  5
473
330
2F3
100
AcDbEntity
  8
0
100
AcDbLine
 10
-177.6163260636123
 20
-30.21051721268752
 30
0.0
 11
-193.1367328506133
 21
-33.21043476614807
 31
0.0
  0
LINE
  5
474
330
2F3
100
AcDbEntity
  8
0
100
AcDbLine
 10
-597.3043387643352
 20
239.9934042768464
 30
0.0
 11
-597.3043387643352
 21
289.9920301678559
 31
0.0
  0
LINE
  5
475
330
2F3
100
AcDbEntity
  8
0
100
AcDbLine
 10
-597.3043387643352
 20
289.9920301678559
 30
0.0
 11
-597.3043387643352
 21
469.9870833754908
 31
0.0
  0
LINE
  5
476
330
2F3
100
AcDbEntity
  8
0
100
AcDbLine
 10
-493.9864238031919
 20
469.9870833754908
 30
0.0
 11
-493.9864238031918
 21
479.9868085536927
 31
0.0
  0
LINE
  5
477
330
2F3
100
AcDbEntity
  8
0
100
AcDbLine
 10
-466.0171675550992
 20
-439.9879078408848
 30
0.0
 11
-466.0171675550992
 21
-349.9903812370675
 31
0.0
  0
LINE
  5
478
330
2F3
100
AcDbEntity
  8
0
100
AcDbLine
 10
-493.9564495523113
 20
-439.9879078408848
 30
0.0
 11
-493.9564495523113
 21
-179.9950532076347
 31
0.0
  0
LINE
  5
479
330
2F3
100
AcDbEntity
  8
0
100
AcDbLine
 10
-493.9564495523113
 20
-179.9950532076347
 30
0.0
 11
-493.956449552306
 21
-159.9956028512308
 31
0.0
  0
LINE
  5
47A
330
2F3
100
AcDbEntity
  8
0
100
AcDbLine
 10
-442.7046171141084
 20
-439.9879078408848
 30
0.0
 11
-442.7046171141084
 21
-169.9953280294327
 31
0.0
  0
LINE
  5
47B
330
2F3
100
AcDbEntity
  8
0
100
AcDbLine
 10
-442.7046171141084
 20
-169.9953280294327
 30
0.0
 11
-442.7046171141084
 21
-159.9956028512308
 31
0.0
  0
LINE
  5
47C
330
2F3
100
AcDbEntity
  8
0
100
AcDbLine
 10
-574.9837690399154
 20
-179.9950532076347
 30
0.0
 11
-569.623389419779
 21
-179.9950532076347
 31
0.0
  0
LINE
  5
47D
330
2F3
100
AcDbEntity
  8
0
100
AcDbLine
 10
-566.061335793375
 20
-179.9950532076347
 30
0.0
 11
-560.1356945760023
 21
-179.9950532076347
 31
0.0
  0
LINE
  5
47E
330
2F3
100
AcDbEntity
  8
0
100
AcDbLine
 10
-550.3487810868158
 20
-179.9950532076347
 30
0.0
 11
-547.7758117628663
 21
-179.9950532076347
 31
0.0
  0
LINE
  5
47F
330
2F3
100
AcDbEntity
  8
0
100
AcDbLine
 10
-619.5751835775763
 20
-439.9879078408848
 30
0.0
 11
-616.5250237217232
 21
-439.9879078408848
 31
0.0
  0
LINE
  5
480
330
2F3
100
AcDbEntity
  8
0
100
AcDbLine
 10
-609.8065487696235
 20
-439.9879078408848
 30
0.0
 11
-608.0464693670982
 21
-439.9879078408848
 31
0.0
  0
LINE
  5
481
330
2F3
100
AcDbEntity
  8
0
100
AcDbLine
 10
-608.0464693670982
 20
-439.9879078408848
 30
0.0
 11
-606.6077447447571
 21
-439.9879078408848
 31
0.0
  0
LINE
  5
482
330
2F3
100
AcDbEntity
  8
0
100
AcDbLine
 10
-602.633887082753
 20
-439.9879078408848
 30
0.0
 11
-600.753524360726
 21
-439.9879078408848
 31
0.0
  0
LINE
  5
483
330
2F3
100
AcDbEntity
  8
0
100
AcDbLine
 10
-569.6233894197795
 20
-439.9879078408848
 30
0.0
 11
-569.5015615702084
 21
-439.9879078408848
 31
0.0
  0
LINE
  5
484
330
2F3
100
AcDbEntity
  8
0
100
AcDbLine
 10
-566.0613357933748
 20
-439.9879078408848
 30
0.0
 11
-560.1356945760023
 21
-439.9879078408848
 31
0.0
  0
LINE
  5
485
330
2F3
100
AcDbEntity
  8
0
100
AcDbLine
 10
-550.3487810868158
 20
-439.9879078408848
 30
0.0
 11
-547.7758117628663
 21
-439.9879078408848
 31
0.0
  0
LINE
  5
486
330
2F3
100
AcDbEntity
  8
0
100
AcDbLine
 10
-518.5284379125733
 20
-439.9879078408848
 30
0.0
 11
-515.631310962691
 21
-439.9879078408848
 31
0.0
  0
LINE
  5
487
330
2F3
100
AcDbEntity
  8
0
100
AcDbLine
 10
-507.1253791817041
 20
-439.9879078408848
 30
0.0
 11
-504.1239706959695
 21
-439.9879078408848
 31
0.0
  0
LINE
  5
488
330
2F3
100
AcDbEntity
  8
0
100
AcDbLine
 10
-504.1239706959695
 20
-439.9879078408848
 30
0.0
 11
-503.163275362619
 21
-439.9879078408848
 31
0.0
  0
LINE
  5
489
330
2F3
100
AcDbEntity
  8
0
100
AcDbLine
 10
-457.7362715362602
 20
-439.9879078408848
 30
0.0
 11
-454.3384376610837
 21
-439.9879078408848
 31
0.0
  0
LINE
  5
48A
330
2F3
100
AcDbEntity
  8
0
100
AcDbLine
 10
-454.3384376610837
 20
-439.9879078408848
 30
0.0
 11
-453.3786813818402
 21
-439.9879078408848
 31
0.0
  0
LINE
  5
48B
330
2F3
100
AcDbEntity
  8
0
100
AcDbLine
 10
13.96964099859435
 20
-42.99881826626823
 30
0.0
 11
13.96964099859443
 21
6.820864340275507
 31
0.0
  0
LINE
  5
48C
330
2F3
100
AcDbEntity
  8
0
100
AcDbLine
 10
13.96964099859443
 20
6.820864340275507
 30
0.0
 11
13.96964099859433
 21
10.56613990286944
 31
0.0
  0
LINE
  5
48D
330
2F3
100
AcDbEntity
  8
0
100
AcDbLine
 10
13.96964099859433
 20
10.56613990286944
 30
0.0
 11
13.96964099859435
 21
13.56605745632994
 31
0.0
  0
LINE
  5
48E
330
2F3
100
AcDbEntity
  8
0
100
AcDbLine
 10
13.96964099859435
 20
13.56605745632994
 30
0.0
 11
13.96964099859433
 21
32.45442723737804
 31
0.0
  0
LINE
  5
48F
330
2F3
100
AcDbEntity
  8
0
100
AcDbLine
 10
13.96964099859433
 20
32.45442723737804
 30
0.0
 11
13.96964099859435
 21
35.45434479083866
 31
0.0
  0
LINE
  5
490
330
2F3
100
AcDbEntity
  8
0
100
AcDbLine
 10
13.96964099859435
 20
35.45434479083866
 30
0.0
 11
13.96964099859433
 21
54.34271457188686
 31
0.0
  0
LINE
  5
491
330
2F3
100
AcDbEntity
  8
0
100
AcDbLine
 10
13.96964099859433
 20
54.34271457188686
 30
0.0
 11
13.96964099859435
 21
57.34263212534741
 31
0.0
  0
LINE
  5
492
330
2F3
100
AcDbEntity
  8
0
100
AcDbLine
 10
13.96964099859435
 20
57.34263212534741
 30
0.0
 11
13.96964099859435
 21
62.99826862267228
 31
0.0
  0
LINE
  5
493
330
2F3
100
AcDbEntity
  8
0
100
AcDbLine
 10
-13.96964099861242
 20
-42.99881826626823
 30
0.0
 11
-13.96964099861241
 21
1.420519900547007
 31
0.0
  0
LINE
  5
494
330
2F3
100
AcDbEntity
  8
0
100
AcDbLine
 10
-13.96964099861241
 20
1.420519900547007
 30
0.0
 11
-13.96964099861244
 21
10.56613990286944
 31
0.0
  0
LINE
  5
495
330
2F3
100
AcDbEntity
  8
0
100
AcDbLine
 10
-13.96964099861244
 20
10.56613990286944
 30
0.0
 11
-13.96964099861243
 21
13.56605745632993
 31
0.0
  0
LINE
  5
496
330
2F3
100
AcDbEntity
  8
0
100
AcDbLine
 10
-13.96964099861243
 20
13.56605745632993
 30
0.0
 11
-13.96964099861244
 21
32.45442723737804
 31
0.0
  0
LINE
  5
497
330
2F3
100
AcDbEntity
  8
0
100
AcDbLine
 10
-13.96964099861244
 20
32.45442723737804
 30
0.0
 11
-13.96964099861243
 21
35.45434479083866
 31
0.0
  0
LINE
  5
498
330
2F3
100
AcDbEntity
  8
0
100
AcDbLine
 10
-13.96964099861243
 20
35.45434479083866
 30
0.0
 11
-13.96964099861244
 21
54.34271457188686
 31
0.0
  0
LINE
  5
499
330
2F3
100
AcDbEntity
  8
0
100
AcDbLine
 10
-13.96964099861244
 20
54.34271457188686
 30
0.0
 11
-13.96964099861243
 21
57.34263212534741
 31
0.0
  0
LINE
  5
49A
330
2F3
100
AcDbEntity
  8
0
100
AcDbLine
 10
-13.96964099861243
 20
57.34263212534741
 30
0.0
 11
-13.96964099861242
 21
62.99826862267228
 31
0.0
  0
LINE
  5
49B
330
2F3
100
AcDbEntity
  8
0
100
AcDbLine
 10
-451.9875780547025
 20
-42.99881826626821
 30
0.0
 11
-465.9971930293898
 21
-42.99881826626821
 31
0.0
  0
LINE
  5
49C
330
2F3
100
AcDbEntity
  8
0
100
AcDbLine
 10
-451.9875780547023
 20
62.99826862267228
 30
0.0
 11
-441.9878528765146
 21
62.99826862267228
 31
0.0
  0
LINE
  5
49D
330
2F3
100
AcDbEntity
  8
0
100
AcDbLine
 10
-531.9853794803552
 20
205.9943386709597
 30
0.0
 11
-597.3043387643352
 21
205.9943386709602
 31
0.0
  0
LINE
  5
49E
330
2F3
100
AcDbEntity
  8
0
100
AcDbLine
 10
-79.89524629360452
 20
-11.32214743163924
 30
0.0
 11
-177.6163260636123
 21
-30.21051721268752
 31
0.0
  0
LINE
  5
49F
330
2F3
100
AcDbEntity
  8
0
100
AcDbLine
 10
-466.0171675550992
 20
-349.9903812370675
 30
0.0
 11
-466.0171675550992
 21
-344.9905186479667
 31
0.0
  0
LINE
  5
4A0
330
2F3
100
AcDbEntity
  8
0
100
AcDbLine
 10
-569.623389419779
 20
-179.9950532076347
 30
0.0
 11
-569.5015615702084
 21
-179.9950532076347
 31
0.0
  0
LINE
  5
4A1
330
2F3
100
AcDbEntity
  8
0
100
AcDbLine
 10
-560.1356945760023
 20
-179.9950532076347
 30
0.0
 11
-557.6743084870741
 21
-179.9950532076347
 31
0.0
  0
LINE
  5
4A2
330
2F3
100
AcDbEntity
  8
0
100
AcDbLine
 10
-557.6743084870741
 20
-179.9950532076347
 30
0.0
 11
-550.3487810868158
 21
-179.9950532076347
 31
0.0
  0
LINE
  5
4A3
330
2F3
100
AcDbEntity
  8
0
100
AcDbLine
 10
-547.7758117628663
 20
-179.9950532076347
 30
0.0
 11
-540.1505371368974
 21
-179.9950532076347
 31
0.0
  0
LINE
  5
4A4
330
2F3
100
AcDbEntity
  8
0
100
AcDbLine
 10
-616.5250237217232
 20
-439.9879078408848
 30
0.0
 11
-614.8864019582156
 21
-439.9879078408848
 31
0.0
  0
LINE
  5
4A5
330
2F3
100
AcDbEntity
  8
0
100
AcDbLine
 10
-614.8864019582156
 20
-439.9879078408848
 30
0.0
 11
-609.8065487696235
 21
-439.9879078408848
 31
0.0
  0
LINE
  5
4A6
330
2F3
100
AcDbEntity
  8
0
100
AcDbLine
 10
-595.0385044148714
 20
-439.9879078408848
 30
0.0
 11
-595.0118242387321
 21
-439.9879078408848
 31
0.0
  0
LINE
  5
4A7
330
2F3
100
AcDbEntity
  8
0
100
AcDbLine
 10
-595.0118242387321
 20
-439.9879078408848
 30
0.0
 11
-593.0124327693769
 21
-439.9879078408848
 31
0.0
  0
LINE
  5
4A8
330
2F3
100
AcDbEntity
  8
0
100
AcDbLine
 10
-593.0124327693769
 20
-439.9879078408848
 30
0.0
 11
-591.8758463990159
 21
-439.9879078408848
 31
0.0
  0
LINE
  5
4A9
330
2F3
100
AcDbEntity
  8
0
100
AcDbLine
 10
-591.8758463990159
 20
-439.9879078408848
 30
0.0
 11
-586.9454456542397
 21
-439.9879078408848
 31
0.0
  0
LINE
  5
4AA
330
2F3
100
AcDbEntity
  8
0
100
AcDbLine
 10
-578.4401331920374
 20
-439.9879078408848
 30
0.0
 11
-576.2067647169565
 21
-439.9879078408848
 31
0.0
  0
LINE
  5
4AB
330
2F3
100
AcDbEntity
  8
0
100
AcDbLine
 10
-576.2067647169565
 20
-439.9879078408848
 30
0.0
 11
-574.9837690399155
 21
-439.9879078408848
 31
0.0
  0
LINE
  5
4AC
330
2F3
100
AcDbEntity
  8
0
100
AcDbLine
 10
-569.5015615702084
 20
-439.9879078408848
 30
0.0
 11
-567.1534009454627
 21
-439.9879078408848
 31
0.0
  0
LINE
  5
4AD
330
2F3
100
AcDbEntity
  8
0
100
AcDbLine
 10
-567.1534009454627
 20
-439.9879078408848
 30
0.0
 11
-566.0613357933748
 21
-439.9879078408848
 31
0.0
  0
LINE
  5
4AE
330
2F3
100
AcDbEntity
  8
0
100
AcDbLine
 10
-560.1356945760023
 20
-439.9879078408848
 30
0.0
 11
-557.6743084870741
 21
-439.9879078408848
 31
0.0
  0
LINE
  5
4AF
330
2F3
100
AcDbEntity
  8
0
100
AcDbLine
 10
-557.6743084870741
 20
-439.9879078408848
 30
0.0
 11
-550.3487810868158
 21
-439.9879078408848
 31
0.0
  0
LINE
  5
4B0
330
2F3
100
AcDbEntity
  8
0
100
AcDbLine
 10
-540.1505371368986
 20
-439.9879078408848
 30
0.0
 11
-540.1473509009603
 21
-439.9879078408848
 31
0.0
  0
LINE
  5
4B1
330
2F3
100
AcDbEntity
  8
0
100
AcDbLine
 10
-529.5382103810012
 20
-439.9879078408848
 30
0.0
 11
-526.7472979210825
 21
-439.9879078408848
 31
0.0
  0
LINE
  5
4B2
330
2F3
100
AcDbEntity
  8
0
100
AcDbLine
 10
-526.7472979210825
 20
-439.9879078408848
 30
0.0
 11
-518.5284379125733
 21
-439.9879078408848
 31
0.0
  0
LINE
  5
4B3
330
2F3
100
AcDbEntity
  8
0
100
AcDbLine
 10
-441.9878528765146
 20
-42.99881826626823
 30
0.0
 11
-451.9875780547025
 21
-42.99881826626821
 31
0.0
  0
LINE
  5
4B4
330
2F3
100
AcDbEntity
  8
0
100
AcDbLine
 10
418.6382375455094
 20
-159.9956028512308
 30
0.0
 11
454.6372481870336
 21
-159.9956028512308
 31
0.0
  0
LINE
  5
4B5
330
2F3
100
AcDbEntity
  8
0
100
AcDbLine
 10
-441.9878528765146
 20
62.99826862267228
 30
0.0
 11
-387.9893369142302
 21
62.99826862267228
 31
0.0
  0
LINE
  5
4B6
330
2F3
100
AcDbEntity
  8
0
100
AcDbLine
 10
173.9952181007357
 20
37.75198259894408
 30
0.0
 11
145.9959876017703
 21
32.34005079780184
 31
0.0
  0
LINE
  5
4B7
330
2F3
100
AcDbEntity
  8
0
100
AcDbLine
 10
145.9959876017703
 20
32.34005079780184
 30
0.0
 11
140.9961250126695
 21
31.37363440474077
 31
0.0
  0
LINE
  5
4B8
330
2F3
100
AcDbEntity
  8
0
100
AcDbLine
 10
140.9961250126695
 20
31.37363440474077
 30
0.0
 11
48.86664705040423
 21
13.56605745632995
 31
0.0
  0
LINE
  5
4B9
330
2F3
100
AcDbEntity
  8
0
100
AcDbLine
 10
-13.96964099861241
 20
1.420519900547007
 30
0.0
 11
-63.4982548815844
 21
-8.152796071463573
 31
0.0
  0
LINE
  5
4BA
330
2F3
100
AcDbEntity
  8
0
100
AcDbLine
 10
-63.4982548815844
 20
-8.152796071463573
 30
0.0
 11
-79.89524629360452
 21
-11.32214743163924
 31
0.0
  0
LINE
  5
4BB
330
2F3
100
AcDbEntity
  8
0
100
AcDbLine
 10
-466.0171675550992
 20
-344.9905186479667
 30
0.0
 11
-466.0171675550992
 21
-169.9953280294328
 31
0.0
  0
LINE
  5
4BC
330
2F3
100
AcDbEntity
  8
0
100
AcDbLine
 10
-466.0171675550992
 20
-169.9953280294328
 30
0.0
 11
-466.0171675551045
 21
-159.9956028512308
 31
0.0
  0
LINE
  5
4BD
330
2F3
100
AcDbEntity
  8
0
100
AcDbLine
 10
-591.8758463990157
 20
-179.9950532076347
 30
0.0
 11
-586.9454456542397
 21
-179.9950532076347
 31
0.0
  0
LINE
  5
4BE
330
2F3
100
AcDbEntity
  8
0
100
AcDbLine
 10
-578.4401331920374
 20
-179.9950532076347
 30
0.0
 11
-576.2067647169565
 21
-179.9950532076347
 31
0.0
  0
LINE
  5
4BF
330
2F3
100
AcDbEntity
  8
0
100
AcDbLine
 10
-576.2067647169565
 20
-179.9950532076347
 30
0.0
 11
-574.9837690399154
 21
-179.9950532076347
 31
0.0
  0
LINE
  5
4C0
330
2F3
100
AcDbEntity
  8
0
100
AcDbLine
 10
-569.5015615702084
 20
-179.9950532076347
 30
0.0
 11
-567.1534009454627
 21
-179.9950532076347
 31
0.0
  0
LINE
  5
4C1
330
2F3
100
AcDbEntity
  8
0
100
AcDbLine
 10
-567.1534009454627
 20
-179.9950532076347
 30
0.0
 11
-566.061335793375
 21
-179.9950532076347
 31
0.0
  0
LINE
  5
4C2
330
2F3
100
AcDbEntity
  8
0
100
AcDbLine
 10
-586.9454456542397
 20
-439.9879078408848
 30
0.0
 11
-584.8283594253403
 21
-439.9879078408848
 31
0.0
  0
LINE
  5
4C3
330
2F3
100
AcDbEntity
  8
0
100
AcDbLine
 10
-584.8283594253403
 20
-439.9879078408848
 30
0.0
 11
-578.4401331920374
 21
-439.9879078408848
 31
0.0
  0
LINE
  5
4C4
330
2F3
100
AcDbEntity
  8
0
100
AcDbLine
 10
-540.1473509009603
 20
-439.9879078408848
 30
0.0
 11
-537.4645150191386
 21
-439.9879078408848
 31
0.0
  0
LINE
  5
4C5
330
2F3
100
AcDbEntity
  8
0
100
AcDbLine
 10
-537.4645150191386
 20
-439.9879078408848
 30
0.0
 11
-529.5382103810012
 21
-439.9879078408848
 31
0.0
  0
LINE
  5
4C6
330
2F3
100
AcDbEntity
  8
0
100
AcDbLine
 10
-387.9893369142302
 20
-42.99881826626823
 30
0.0
 11
-441.9878528765146
 21
-42.99881826626823
 31
0.0
  0
LINE
  5
4C7
330
2F3
100
AcDbEntity
  8
0
100
AcDbLine
 10
178.9950806898367
 20
38.71839899200521
 30
0.0
 11
173.9952181007357
 21
37.75198259894408
 31
0.0
  0
LINE
  5
4C8
330
2F3
100
AcDbEntity
  8
0
100
AcDbLine
 10
-606.6077447447571
 20
-179.9950532076347
 30
0.0
 11
-602.633887082753
 21
-179.9950532076347
 31
0.0
  0
LINE
  5
4C9
330
2F3
100
AcDbEntity
  8
0
100
AcDbLine
 10
-595.0118242387321
 20
-179.9950532076347
 30
0.0
 11
-593.0124327693769
 21
-179.9950532076347
 31
0.0
  0
LINE
  5
4CA
330
2F3
100
AcDbEntity
  8
0
100
AcDbLine
 10
-593.0124327693769
 20
-179.9950532076347
 30
0.0
 11
-591.8758463990157
 21
-179.9950532076347
 31
0.0
  0
LINE
  5
4CB
330
2F3
100
AcDbEntity
  8
0
100
AcDbLine
 10
-586.9454456542397
 20
-179.9950532076347
 30
0.0
 11
-584.8283594253403
 21
-179.9950532076347
 31
0.0
  0
LINE
  5
4CC
330
2F3
100
AcDbEntity
  8
0
100
AcDbLine
 10
-584.8283594253403
 20
-179.9950532076347
 30
0.0
 11
-578.4401331920374
 21
-179.9950532076347
 31
0.0
  0
LINE
  5
4CD
330
2F3
100
AcDbEntity
  8
0
100
AcDbLine
 10
-507.1253791817041
 20
-179.9950532076347
 30
0.0
 11
-504.1239706959695
 21
-179.9950532076347
 31
0.0
  0
LINE
  5
4CE
330
2F3
100
AcDbEntity
  8
0
100
AcDbLine
 10
454.6372481870336
 20
-159.9956028512308
 30
0.0
 11
466.0171675550859
 21
-159.9956028512308
 31
0.0
  0
LINE
  5
4CF
330
2F3
100
AcDbEntity
  8
0
100
AcDbLine
 10
466.0171675550859
 20
-159.9956028512308
 30
0.0
 11
493.9564495522927
 21
-159.9956028512308
 31
0.0
  0
LINE
  5
4D0
330
2F3
100
AcDbEntity
  8
0
100
AcDbLine
 10
-387.9893369142302
 20
62.99826862267228
 30
0.0
 11
-382.9894743251291
 21
62.99826862267228
 31
0.0
  0
LINE
  5
4D1
330
2F3
100
AcDbEntity
  8
0
100
AcDbLine
 10
-307.9915354886147
 20
62.99826862267228
 30
0.0
 11
-279.9923049896554
 21
62.99826862267228
 31
0.0
  0
LINE
  5
4D2
330
2F3
100
AcDbEntity
  8
0
100
AcDbLine
 10
259.8292133774199
 20
54.34271457188686
 30
0.0
 11
178.9950806898367
 21
38.71839899200521
 31
0.0
  0
LINE
  5
4D3
330
2F3
100
AcDbEntity
  8
0
100
AcDbLine
 10
-619.9829610485324
 20
-179.9950532076347
 30
0.0
 11
-616.5250237217232
 21
-179.9950532076347
 31
0.0
  0
LINE
  5
4D4
330
2F3
100
AcDbEntity
  8
0
100
AcDbLine
 10
-609.8065487696235
 20
-179.9950532076347
 30
0.0
 11
-608.0464693670982
 21
-179.9950532076347
 31
0.0
  0
LINE
  5
4D5
330
2F3
100
AcDbEntity
  8
0
100
AcDbLine
 10
-608.0464693670982
 20
-179.9950532076347
 30
0.0
 11
-606.6077447447571
 21
-179.9950532076347
 31
0.0
  0
LINE
  5
4D6
330
2F3
100
AcDbEntity
  8
0
100
AcDbLine
 10
-602.633887082753
 20
-179.9950532076347
 30
0.0
 11
-600.753524360726
 21
-179.9950532076347
 31
0.0
  0
LINE
  5
4D7
330
2F3
100
AcDbEntity
  8
0
100
AcDbLine
 10
-518.5284379125733
 20
-179.9950532076347
 30
0.0
 11
-515.631310962691
 21
-179.9950532076347
 31
0.0
  0
LINE
  5
4D8
330
2F3
100
AcDbEntity
  8
0
100
AcDbLine
 10
-515.631310962691
 20
-179.9950532076347
 30
0.0
 11
-507.1253791817041
 21
-179.9950532076347
 31
0.0
  0
LINE
  5
4D9
330
2F3
100
AcDbEntity
  8
0
100
AcDbLine
 10
-504.1239706959695
 20
-179.9950532076347
 30
0.0
 11
-503.1632753626188
 21
-179.9950532076347
 31
0.0
  0
LINE
  5
4DA
330
2F3
100
AcDbEntity
  8
0
100
AcDbLine
 10
-279.9923049896554
 20
-42.99881826626821
 30
0.0
 11
-307.9915354886147
 21
-42.99881826626821
 31
0.0
  0
LINE
  5
4DB
330
2F3
100
AcDbEntity
  8
0
100
AcDbLine
 10
-307.9915354886147
 20
-42.99881826626821
 30
0.0
 11
-312.991398077716
 21
-42.99881826626823
 31
0.0
  0
LINE
  5
4DC
330
2F3
100
AcDbEntity
  8
0
100
AcDbLine
 10
-382.9894743251291
 20
62.99826862267228
 30
0.0
 11
-312.991398077716
 21
62.99826862267228
 31
0.0
  0
LINE
  5
4DD
330
2F3
100
AcDbEntity
  8
0
100
AcDbLine
 10
-312.991398077716
 20
62.99826862267228
 30
0.0
 11
-307.9915354886147
 21
62.99826862267228
 31
0.0
  0
LINE
  5
4DE
330
2F3
100
AcDbEntity
  8
0
100
AcDbLine
 10
-279.9923049896554
 20
62.99826862267228
 30
0.0
 11
-274.9924424005701
 21
62.99826862267228
 31
0.0
  0
LINE
  5
4DF
330
2F3
100
AcDbEntity
  8
0
100
AcDbLine
 10
304.6096839873866
 20
62.99826862267228
 30
0.0
 11
275.3496201644208
 21
57.34263212534741
 31
0.0
  0
LINE
  5
4E0
330
2F3
100
AcDbEntity
  8
0
100
AcDbLine
 10
275.3496201644208
 20
57.34263212534741
 30
0.0
 11
259.8292133774199
 21
54.34271457188686
 31
0.0
  0
LINE
  5
4E1
330
2F3
100
AcDbEntity
  8
0
100
AcDbLine
 10
-616.5250237217232
 20
-179.9950532076347
 30
0.0
 11
-614.8864019582156
 21
-179.9950532076347
 31
0.0
  0
LINE
  5
4E2
330
2F3
100
AcDbEntity
  8
0
100
AcDbLine
 10
-614.8864019582156
 20
-179.9950532076347
 30
0.0
 11
-609.8065487696235
 21
-179.9950532076347
 31
0.0
  0
LINE
  5
4E3
330
2F3
100
AcDbEntity
  8
0
100
AcDbLine
 10
-600.753524360726
 20
-179.9950532076347
 30
0.0
 11
-595.0385044148712
 21
-179.9950532076347
 31
0.0
  0
LINE
  5
4E4
330
2F3
100
AcDbEntity
  8
0
100
AcDbLine
 10
-595.0385044148712
 20
-179.9950532076347
 30
0.0
 11
-595.0118242387321
 21
-179.9950532076347
 31
0.0
  0
LINE
  5
4E5
330
2F3
100
AcDbEntity
  8
0
100
AcDbLine
 10
-540.1505371368974
 20
-179.9950532076347
 30
0.0
 11
-540.1473509009603
 21
-179.9950532076347
 31
0.0
  0
LINE
  5
4E6
330
2F3
100
AcDbEntity
  8
0
100
AcDbLine
 10
-529.5382103810012
 20
-179.9950532076347
 30
0.0
 11
-526.7472979210825
 21
-179.9950532076347
 31
0.0
  0
LINE
  5
4E7
330
2F3
100
AcDbEntity
  8
0
100
AcDbLine
 10
-526.7472979210825
 20
-179.9950532076347
 30
0.0
 11
-518.5284379125733
 21
-179.9950532076347
 31
0.0
  0
LINE
  5
4E8
330
2F3
100
AcDbEntity
  8
0
100
AcDbLine
 10
-503.1632753626188
 20
-179.9950532076347
 30
0.0
 11
-495.3366422737965
 21
-179.9950532076347
 31
0.0
  0
LINE
  5
4E9
330
2F3
100
AcDbEntity
  8
0
100
AcDbLine
 10
-495.3366422737965
 20
-179.9950532076347
 30
0.0
 11
-493.9564495523113
 21
-179.9950532076347
 31
0.0
  0
LINE
  5
4EA
330
2F3
100
AcDbEntity
  8
0
100
AcDbLine
 10
-274.9924424005604
 20
-42.9988182662682
 30
0.0
 11
-279.9923049896554
 21
-42.99881826626821
 31
0.0
  0
LINE
  5
4EB
330
2F3
100
AcDbEntity
  8
0
100
AcDbLine
 10
-312.991398077716
 20
-42.99881826626823
 30
0.0
 11
-382.9894743251291
 21
-42.99881826626821
 31
0.0
  0
LINE
  5
4EC
330
2F3
100
AcDbEntity
  8
0
100
AcDbLine
 10
-382.9894743251291
 20
-42.99881826626821
 30
0.0
 11
-387.9893369142302
 21
-42.99881826626823
 31
0.0
  0
LINE
  5
4ED
330
2F3
100
AcDbEntity
  8
0
100
AcDbLine
 10
-13.96964099861257
 20
-159.9956028512308
 30
0.0
 11
13.9696409985942
 21
-159.9956028512308
 31
0.0
  0
LINE
  5
4EE
330
2F3
100
AcDbEntity
  8
0
100
AcDbLine
 10
-540.1473509009603
 20
-179.9950532076347
 30
0.0
 11
-537.4645150191386
 21
-179.9950532076347
 31
0.0
  0
LINE
  5
4EF
330
2F3
100
AcDbEntity
  8
0
100
AcDbLine
 10
-537.4645150191386
 20
-179.9950532076347
 30
0.0
 11
-529.5382103810012
 21
-179.9950532076347
 31
0.0
  0
LINE
  5
4F0
330
2F3
100
AcDbEntity
  8
0
100
AcDbLine
 10
-243.7780224866522
 20
-42.99881826626821
 30
0.0
 11
-274.9924424005604
 21
-42.9988182662682
 31
0.0
  0
LINE
  5
4F1
330
2F3
100
AcDbEntity
  8
0
100
AcDbLine
 10
-274.9924424005701
 20
62.99826862267228
 30
0.0
 11
-70.49806250632575
 21
62.99826862267228
 31
0.0
  0
LINE
  5
4F2
330
2F3
100
AcDbEntity
  8
0
100
AcDbLine
 10
-70.49806250632575
 20
62.99826862267228
 30
0.0
 11
-63.4982548815844
 21
62.99826862267228
 31
0.0
  0
LINE
  5
4F3
330
2F3
100
AcDbEntity
  8
0
100
AcDbLine
 10
-63.4982548815844
 20
62.99826862267228
 30
0.0
 11
-13.96964099861242
 21
62.99826862267228
 31
0.0
  0
LINE
  5
4F4
330
2F3
100
AcDbEntity
  8
0
100
AcDbLine
 10
-13.96964099861242
 20
-42.99881826626823
 30
0.0
 11
-243.7780224866522
 21
-42.99881826626821
 31
0.0
  0
LINE
  5
4F5
330
2F3
100
AcDbEntity
  8
0
100
AcDbLine
 10
340.9856220276325
 20
205.9943386709602
 30
0.0
 11
204.989359604092
 21
205.9943386709602
 31
0.0
  0
LINE
  5
4F6
330
2F3
100
AcDbEntity
  8
0
100
AcDbLine
 10
13.96964099859435
 20
-42.99881826626823
 30
0.0
 11
-13.96964099861242
 21
-42.99881826626823
 31
0.0
  0
LINE
  5
4F7
330
2F3
100
AcDbEntity
  8
0
100
AcDbLine
 10
-13.96964099861242
 20
62.99826862267228
 30
0.0
 11
13.96964099859435
 21
62.99826862267228
 31
0.0
  0
LINE
  5
4F8
330
2F3
100
AcDbEntity
  8
0
100
AcDbLine
 10
464.9872207863976
 20
62.99826862267228
 30
0.0
 11
466.0171675550862
 21
62.99826862267228
 31
0.0
  0
LINE
  5
4F9
330
2F3
100
AcDbEntity
  8
0
100
AcDbLine
 10
173.9952181007427
 20
-42.99881826626821
 30
0.0
 11
13.96964099859435
 21
-42.99881826626823
 31
0.0
  0
LINE
  5
4FA
330
2F3
100
AcDbEntity
  8
0
100
AcDbLine
 10
304.6096839873866
 20
62.99826862267228
 30
0.0
 11
464.9872207863976
 21
62.99826862267228
 31
0.0
  0
LINE
  5
4FB
330
2F3
100
AcDbEntity
  8
0
100
AcDbLine
 10
466.0171675550862
 20
62.99826862267228
 30
0.0
 11
493.956449552293
 21
62.99826862267228
 31
0.0
  0
LINE
  5
4FC
330
2F3
100
AcDbEntity
  8
0
100
AcDbLine
 10
80.46781343364051
 20
205.9943386709602
 30
0.0
 11
52.52853143643387
 21
205.9943386709602
 31
0.0
  0
LINE
  5
4FD
330
2F3
100
AcDbEntity
  8
0
100
AcDbLine
 10
52.52853143643387
 20
205.9943386709602
 30
0.0
 11
1.124971854668013
 21
205.9943386709602
 31
0.0
  0
LINE
  5
4FE
330
2F3
100
AcDbEntity
  8
0
100
AcDbLine
 10
973.9432581059913
 20
-449.9876330190868
 30
0.0
 11
973.9732323568878
 21
-449.9876330190868
 31
0.0
  0
LINE
  5
4FF
330
2F3
100
AcDbEntity
  8
0
100
AcDbLine
 10
937.849227922735
 20
62.99826862267228
 30
0.0
 11
945.974001857923
 21
62.99826862267228
 31
0.0
  0
LINE
  5
500
330
2F3
100
AcDbEntity
  8
0
100
AcDbLine
 10
322.9911232559408
 20
-42.99881826626821
 30
0.0
 11
315.9913156311993
 21
-42.99881826626821
 31
0.0
  0
LINE
  5
501
330
2F3
100
AcDbEntity
  8
0
100
AcDbLine
 10
315.9913156311993
 20
-42.99881826626821
 30
0.0
 11
196.4462472012226
 21
-42.99881826626821
 31
0.0
  0
LINE
  5
502
330
2F3
100
AcDbEntity
  8
0
100
AcDbLine
 10
196.4462472012226
 20
-42.99881826626821
 30
0.0
 11
173.9952181007427
 21
-42.99881826626821
 31
0.0
  0
LINE
  5
503
330
2F3
100
AcDbEntity
  8
0
100
AcDbLine
 10
13.96964099859435
 20
62.99826862267228
 30
0.0
 11
140.9961250126695
 21
62.99826862267228
 31
0.0
  0
LINE
  5
504
330
2F3
100
AcDbEntity
  8
0
100
AcDbLine
 10
140.9961250126695
 20
62.99826862267228
 30
0.0
 11
145.9959876017703
 21
62.99826862267228
 31
0.0
  0
LINE
  5
505
330
2F3
100
AcDbEntity
  8
0
100
AcDbLine
 10
145.9959876017703
 20
62.99826862267228
 30
0.0
 11
173.9952181007357
 21
62.99826862267228
 31
0.0
  0
LINE
  5
506
330
2F3
100
AcDbEntity
  8
0
100
AcDbLine
 10
459.9873581972963
 20
-42.99881826626821
 30
0.0
 11
322.9911232559408
 21
-42.99881826626821
 31
0.0
  0
LINE
  5
507
330
2F3
100
AcDbEntity
  8
0
100
AcDbLine
 10
173.9952181007357
 20
62.99826862267228
 30
0.0
 11
178.9950806898367
 21
62.99826862267228
 31
0.0
  0
LINE
  5
508
330
2F3
100
AcDbEntity
  8
0
100
AcDbLine
 10
178.9950806898367
 20
62.99826862267228
 30
0.0
 11
304.6096839873866
 21
62.99826862267228
 31
0.0
  0
LINE
  5
509
330
2F3
100
AcDbEntity
  8
0
100
AcDbLine
 10
493.956449552293
 20
62.99826862267228
 30
0.0
 11
857.8514264971191
 21
62.99826862267228
 31
0.0
  0
LINE
  5
50A
330
2F3
100
AcDbEntity
  8
0
100
AcDbLine
 10
857.8514264971191
 20
62.99826862267228
 30
0.0
 11
860.3513577916697
 21
62.99826862267228
 31
0.0
  0
LINE
  5
50B
330
2F3
100
AcDbEntity
  8
0
100
AcDbLine
 10
860.3513577916697
 20
62.99826862267228
 30
0.0
 11
935.3492966281843
 21
62.99826862267228
 31
0.0
  0
LINE
  5
50C
330
2F3
100
AcDbEntity
  8
0
100
AcDbLine
 10
935.3492966281843
 20
62.99826862267228
 30
0.0
 11
937.849227922735
 21
62.99826862267228
 31
0.0
  0
LINE
  5
50D
330
2F3
100
AcDbEntity
  8
0
100
AcDbLine
 10
464.9872207863976
 20
-42.99881826626823
 30
0.0
 11
459.9873581972963
 21
-42.99881826626821
 31
0.0
  0
LINE
  5
50E
330
2F3
100
AcDbEntity
  8
0
100
AcDbLine
 10
466.0171675550862
 20
-42.99881826626823
 30
0.0
 11
464.9872207863976
 21
-42.99881826626823
 31
0.0
  0
LINE
  5
50F
330
2F3
100
AcDbEntity
  8
0
100
AcDbLine
 10
493.956449552293
 20
-42.99881826626823
 30
0.0
 11
466.0171675550862
 21
-42.99881826626823
 31
0.0
  0
LINE
  5
510
330
2F3
100
AcDbEntity
  8
0
100
AcDbLine
 10
945.974001857923
 20
-42.99881826626821
 30
0.0
 11
937.849227922735
 21
-42.99881826626823
 31
0.0
  0
LINE
  5
511
330
2F3
100
AcDbEntity
  8
0
100
AcDbLine
 10
937.849227922735
 20
-42.99881826626823
 30
0.0
 11
935.3492966281843
 21
-42.99881826626821
 31
0.0
  0
LINE
  5
512
330
2F3
100
AcDbEntity
  8
0
100
AcDbLine
 10
935.3492966281843
 20
-42.99881826626821
 30
0.0
 11
860.3513577916697
 21
-42.99881826626823
 31
0.0
  0
LINE
  5
513
330
2F3
100
AcDbEntity
  8
0
100
AcDbLine
 10
860.3513577916697
 20
-42.99881826626823
 30
0.0
 11
857.8514264971191
 21
-42.99881826626821
 31
0.0
  0
LINE
  5
514
330
2F3
100
AcDbEntity
  8
0
100
AcDbLine
 10
857.8514264971191
 20
-42.99881826626821
 30
0.0
 11
493.956449552293
 21
-42.99881826626823
 31
0.0
  0
LINE
  5
515
330
2F3
100
AcDbEntity
  8
0
100
AcDbLine
 10
973.9432581059913
 20
-449.9876330190868
 30
0.0
 11
946.0039761087845
 21
-449.9876330190868
 31
0.0
  0
LINE
  5
516
330
2F3
100
AcDbEntity
  8
0
100
AcDbLine
 10
493.9564495522927
 20
-449.9876330190868
 30
0.0
 11
466.0171675550859
 21
-449.9876330190868
 31
0.0
  0
LINE
  5
517
330
2F3
100
AcDbEntity
  8
0
100
AcDbLine
 10
13.9696409985942
 20
-449.9876330190868
 30
0.0
 11
-13.96964099861257
 21
-449.9876330190868
 31
0.0
  0
LINE
  5
518
330
2F3
100
AcDbEntity
  8
0
100
AcDbLine
 10
-946.0039761088042
 20
-449.9876330190868
 30
0.0
 11
-973.9432581060111
 21
-449.9876330190868
 31
0.0
  0
LINE
  5
519
330
2F3
100
AcDbEntity
  8
0
100
AcDbLine
 10
-435.6337436306
 20
-449.9876330190868
 30
0.0
 11
-442.7046171141084
 21
-449.9876330190868
 31
0.0
  0
LINE
  5
51A
330
2F3
100
AcDbEntity
  8
0
100
AcDbLine
 10
946.0039761087845
 20
-449.9876330190868
 30
0.0
 11
493.9564495522927
 21
-449.9876330190868
 31
0.0
  0
LINE
  5
51B
330
2F3
100
AcDbEntity
  8
0
100
AcDbLine
 10
1079.970319245822
 20
-159.9956028512308
 30
0.0
 11
1079.970319245822
 21
-449.9876330190868
 31
0.0
  0
LINE
  5
51C
330
2F3
100
AcDbEntity
  8
0
100
AcDbLine
 10
973.9732323568876
 20
-234.9935416877453
 30
0.0
 11
973.9732323568878
 21
-449.9876330190868
 31
0.0
  0
LINE
  5
51D
330
2F3
100
AcDbEntity
  8
0
100
AcDbLine
 10
418.6382375455094
 20
-162.9955204046914
 30
0.0
 11
418.6382375455094
 21
-449.9876330190868
 31
0.0
  0
LINE
  5
51E
330
2F3
100
AcDbEntity
  8
0
100
AcDbLine
 10
-600.753524360726
 20
-439.9879078408848
 30
0.0
 11
-595.0385044148714
 21
-439.9879078408848
 31
0.0
  0
LINE
  5
51F
330
2F3
100
AcDbEntity
  8
0
100
AcDbLine
 10
-574.9837690399155
 20
-439.9879078408848
 30
0.0
 11
-569.6233894197795
 21
-439.9879078408848
 31
0.0
  0
LINE
  5
520
330
2F3
100
AcDbEntity
  8
0
100
AcDbLine
 10
-540.1505371368986
 20
-439.9879078408848
 30
0.0
 11
-547.7758117628663
 21
-439.9879078408848
 31
0.0
  0
LINE
  5
521
330
2F3
100
AcDbEntity
  8
0
100
AcDbLine
 10
-507.1253791817041
 20
-439.9879078408848
 30
0.0
 11
-515.631310962691
 21
-439.9879078408848
 31
0.0
  0
LINE
  5
522
330
2F3
100
AcDbEntity
  8
0
100
AcDbLine
 10
-600.4394362878894
 20
-349.9903812370675
 30
0.0
 11
-595.0385044148713
 21
-349.9903812370675
 31
0.0
  0
LINE
  5
523
330
2F3
100
AcDbEntity
  8
0
100
AcDbLine
 10
-574.9837690399155
 20
-349.9903812370675
 30
0.0
 11
-569.6233894197794
 21
-349.9903812370675
 31
0.0
  0
LINE
  5
524
330
2F3
100
AcDbEntity
  8
0
100
AcDbLine
 10
-547.4845912350076
 20
-349.9903812370675
 30
0.0
 11
-540.1505371368982
 21
-349.9903812370675
 31
0.0
  0
LINE
  5
525
330
2F3
100
AcDbEntity
  8
0
100
AcDbLine
 10
-515.3491159873304
 20
-349.9903812370675
 30
0.0
 11
-507.1253791817041
 21
-349.9903812370675
 31
0.0
  0
LINE
  5
526
330
2F3
100
AcDbEntity
  8
0
100
AcDbLine
 10
-600.4394362878894
 20
-344.9905186479667
 30
0.0
 11
-595.0385044148713
 21
-344.9905186479667
 31
0.0
  0
LINE
  5
527
330
2F3
100
AcDbEntity
  8
0
100
AcDbLine
 10
-574.9837690399155
 20
-344.9905186479667
 30
0.0
 11
-569.6233894197794
 21
-344.9905186479667
 31
0.0
  0
LINE
  5
528
330
2F3
100
AcDbEntity
  8
0
100
AcDbLine
 10
-547.4845912350076
 20
-344.9905186479667
 30
0.0
 11
-540.1505371368982
 21
-344.9905186479667
 31
0.0
  0
LINE
  5
529
330
2F3
100
AcDbEntity
  8
0
100
AcDbLine
 10
-515.3491159873304
 20
-344.9905186479667
 30
0.0
 11
-507.1253791817041
 21
-344.9905186479667
 31
0.0
  0
LINE
  5
52A
330
2F3
100
AcDbEntity
  8
0
100
AcDbLine
 10
-440.8628810218563
 20
-459.9873581972887
 30
0.0
 11
-440.6697306566831
 21
-459.9873581972887
 31
0.0
  0
LINE
  5
52B
330
2F3
100
AcDbEntity
  8
0
100
AcDbLine
 10
-440.8628810218563
 20
-456.9874406438282
 30
0.0
 11
-440.6697306566831
 21
-456.9874406438282
 31
0.0
  0
LINE
  5
52C
330
2F3
100
AcDbEntity
  8
0
100
AcDbLine
 10
418.6382375455089
 20
-456.9874406438281
 30
0.0
 11
70.93213091557199
 21
-456.9874406438282
 31
0.0
  0
LINE
  5
52D
330
2F3
100
AcDbEntity
  8
0
100
AcDbLine
 10
-199.3372623205731
 20
-456.9874406438282
 30
0.0
 11
70.93213091557199
 21
-456.9874406438282
 31
0.0
  0
LINE
  5
52E
330
2F3
100
AcDbEntity
  8
0
100
AcDbLine
 10
-316.1544111723275
 20
-456.9874406438282
 30
0.0
 11
-199.3372623205731
 21
-456.9874406438282
 31
0.0
  0
LINE
  5
52F
330
2F3
100
AcDbEntity
  8
0
100
AcDbLine
 10
-435.2449636602146
 20
-456.9874406438282
 30
0.0
 11
-316.1544111723275
 21
-456.9874406438282
 31
0.0
  0
LINE
  5
530
330
2F3
100
AcDbEntity
  8
0
100
AcDbLine
 10
-435.2449636602155
 20
-162.9955204046914
 30
0.0
 11
-422.9108513802684
 21
-162.9955204046914
 31
0.0
  0
LINE
  5
531
330
2F3
100
AcDbEntity
  8
0
100
AcDbLine
 10
-440.8628810218563
 20
-162.9955204046914
 30
0.0
 11
-440.4995183424725
 21
-162.9955204046914
 31
0.0
  0
LINE
  5
532
330
2F3
100
AcDbEntity
  8
0
100
AcDbLine
 10
-440.8628810218563
 20
-159.9956028512308
 30
0.0
 11
-435.6337436306
 21
-159.9956028512308
 31
0.0
  0
LINE
  5
533
330
2F3
100
AcDbEntity
  8
0
100
AcDbLine
 10
13.9696409985942
 20
-159.9956028512308
 30
0.0
 11
418.6382375455094
 21
-159.9956028512308
 31
0.0
  0
LINE
  5
534
330
2F3
100
AcDbEntity
  8
0
100
AcDbLine
 10
-199.3372623205731
 20
-162.9955204046914
 30
0.0
 11
-13.96964099861257
 21
-162.9955204046914
 31
0.0
  0
LINE
  5
535
330
2F3
100
AcDbEntity
  8
0
100
AcDbLine
 10
-435.6337436306
 20
-159.9956028512308
 30
0.0
 11
-13.96964099861257
 21
-159.9956028512308
 31
0.0
  0
LINE
  5
536
330
2F3
100
AcDbEntity
  8
0
100
AcDbLine
 10
70.93213091557199
 20
-162.9955204046914
 30
0.0
 11
418.6382375455094
 21
-162.9955204046914
 31
0.0
  0
LINE
  5
537
330
2F3
100
AcDbEntity
  8
0
100
AcDbLine
 10
-316.1544111723275
 20
-162.9955204046914
 30
0.0
 11
-422.9108513802684
 21
-162.9955204046914
 31
0.0
  0
LINE
  5
538
330
2F3
100
AcDbEntity
  8
0
100
AcDbLine
 10
-316.1544111723275
 20
-162.9955204046914
 30
0.0
 11
-199.3372623205731
 21
-162.9955204046914
 31
0.0
  0
LINE
  5
539
330
2F3
100
AcDbEntity
  8
0
100
AcDbLine
 10
418.6382375455072
 20
-479.9868085536926
 30
0.0
 11
973.9732323568739
 21
-479.9868085536926
 31
0.0
  0
LINE
  5
53A
330
2F3
100
AcDbEntity
  8
0
100
AcDbLine
 10
-619.9829610485203
 20
-479.9868085536926
 30
0.0
 11
-435.559003678711
 21
-479.9868085536926
 31
0.0
  0
LINE
  5
53B
330
2F3
100
AcDbEntity
  8
0
100
AcDbLine
 10
-466.0171675551045
 20
-449.9876330190868
 30
0.0
 11
-442.7534698962714
 21
-449.9876330190868
 31
0.0
  0
LINE
  5
53C
330
2F3
100
AcDbEntity
  8
0
100
AcDbLine
 10
-493.9564495523113
 20
-449.9876330190868
 30
0.0
 11
-466.0171675551045
 21
-449.9876330190868
 31
0.0
  0
LINE
  5
53D
330
2F3
100
AcDbEntity
  8
0
100
AcDbLine
 10
-619.9829610485324
 20
-449.9876330190868
 30
0.0
 11
-493.9564495523113
 21
-449.9876330190868
 31
0.0
  0
LINE
  5
53E
330
2F3
100
AcDbEntity
  8
0
100
AcDbLine
 10
418.6382375455068
 20
-459.9873581972889
 30
0.0
 11
-435.559003678711
 21
-459.9873581972889
 31
0.0
  0
LINE
  5
53F
330
2F3
100
AcDbEntity
  8
0
100
AcDbLine
 10
-435.559003678711
 20
-479.9868085536926
 30
0.0
 11
418.6382375455072
 21
-479.9868085536926
 31
0.0
  0
LINE
  5
540
330
2F3
100
AcDbEntity
  8
0
100
AcDbLine
 10
-598.7625647158611
 20
-448.9876605012667
 30
0.0
 11
-619.6171700505931
 21
-448.9876605012667
 31
0.0
  0
LINE
  5
541
330
2F3
100
AcDbEntity
  8
0
100
AcDbLine
 10
-573.2907649218814
 20
-448.9876605012667
 30
0.0
 11
-598.715673692841
 21
-448.9876605012667
 31
0.0
  0
LINE
  5
542
330
2F3
100
AcDbEntity
  8
0
100
AcDbLine
 10
-493.9564495523113
 20
-448.9876605012667
 30
0.0
 11
-573.2691156143491
 21
-448.9876605012667
 31
0.0
  0
LINE
  5
543
330
2F3
100
AcDbEntity
  8
0
100
AcDbLine
 10
-442.7534698962714
 20
-448.9876605012667
 30
0.0
 11
-466.0171675550992
 21
-448.9876605012667
 31
0.0
  0
LINE
  5
544
330
2F3
100
AcDbEntity
  8
0
100
AcDbLine
 10
-439.2040378498395
 20
-448.9876605012667
 30
0.0
 11
-442.7046171141084
 21
-448.9876605012667
 31
0.0
  0
LINE
  5
545
330
2F3
100
AcDbEntity
  8
0
100
AcDbLine
 10
-1079.97031924581
 20
-159.9956028512308
 30
0.0
 11
-973.9432581060093
 21
-159.9956028512308
 31
0.0
  0
LINE
  5
546
330
2F3
100
AcDbEntity
  8
0
100
AcDbLine
 10
946.0039761087845
 20
-159.9956028512308
 30
0.0
 11
493.9564495522927
 21
-159.9956028512308
 31
0.0
  0
LINE
  5
547
330
2F3
100
AcDbEntity
  8
0
100
AcDbLine
 10
1079.970319245815
 20
205.9943386709602
 30
0.0
 11
1079.970319245822
 21
-159.9956028512308
 31
0.0
  0
LINE
  5
548
330
2F3
100
AcDbEntity
  8
0
100
AcDbLine
 10
1079.970319245822
 20
-159.9956028512308
 30
0.0
 11
973.9732323568876
 21
-159.9956028512308
 31
0.0
  0
LINE
  5
549
330
2F3
100
AcDbEntity
  8
0
100
AcDbLine
 10
-1079.97031924581
 20
-159.9956028512308
 30
0.0
 11
-1079.970319245806
 21
205.9943386709602
 31
0.0
  0
LINE
  5
54A
330
2F3
100
AcDbEntity
  8
0
100
AcDbLine
 10
-493.956449552306
 20
-159.9956028512308
 30
0.0
 11
-946.0039761088026
 21
-159.9956028512308
 31
0.0
  0
LINE
  5
54B
330
2F3
100
AcDbEntity
  8
0
100
AcDbLine
 10
-442.7046171141084
 20
-159.9956028512308
 30
0.0
 11
-440.8628810218563
 21
-159.9956028512308
 31
0.0
  0
LINE
  5
54C
330
2F3
100
AcDbEntity
  8
0
100
AcDbLine
 10
-999.9484926503349
 20
205.9943386709602
 30
0.0
 11
-1079.970319245806
 21
205.9943386709602
 31
0.0
  0
LINE
  5
54D
330
2F3
100
AcDbEntity
  8
0
100
AcDbLine
 10
-30.01705502128167
 20
205.9943386709602
 30
0.0
 11
-261.9570406954212
 21
205.9943386709602
 31
0.0
  0
LINE
  5
54E
330
2F3
100
AcDbEntity
  8
0
100
AcDbLine
 10
-279.9565460161789
 20
205.9943386709602
 30
0.0
 11
-465.9871933042265
 21
205.9943386709602
 31
0.0
  0
LINE
  5
54F
330
2F3
100
AcDbEntity
  8
0
100
AcDbLine
 10
483.1117254440011
 20
205.9943386709602
 30
0.0
 11
398.1140614292849
 21
205.9943386709602
 31
0.0
  0
LINE
  5
550
330
2F3
100
AcDbEntity
  8
0
100
AcDbLine
 10
483.1117254440011
 20
205.9943386709602
 30
0.0
 11
1079.970319245815
 21
205.9943386709602
 31
0.0
  0
LINE
  5
551
330
2F3
100
AcDbEntity
  8
0
100
AcDbLine
 10
259.8292133774199
 20
54.34271457188686
 30
0.0
 11
178.9950806898367
 21
54.34271457188686
 31
0.0
  0
LINE
  5
552
330
2F3
100
AcDbEntity
  8
0
100
AcDbLine
 10
275.3496201644208
 20
57.34263212534741
 30
0.0
 11
178.9950806898367
 21
57.34263212534741
 31
0.0
  0
LINE
  5
553
330
2F3
100
AcDbEntity
  8
0
100
AcDbLine
 10
-466.0171675551045
 20
-159.9956028512308
 30
0.0
 11
-493.956449552306
 21
-159.9956028512308
 31
0.0
  0
LINE
  5
554
330
2F3
100
AcDbEntity
  8
0
100
AcDbLine
 10
-597.3230849563921
 20
479.9868085536927
 30
0.0
 11
-493.9864238031918
 21
479.9868085536927
 31
0.0
  0
LINE
  5
555
330
2F3
100
AcDbEntity
  8
0
100
AcDbLine
 10
-597.3043387643352
 20
469.9870833754908
 30
0.0
 11
-493.9864238031919
 21
469.9870833754908
 31
0.0
  0
LINE
  5
556
330
2F3
100
AcDbEntity
  8
0
100
AcDbLine
 10
-633.8564274527931
 20
469.9870833754908
 30
0.0
 11
-999.9484926503342
 21
469.9870833754908
 31
0.0
  0
LINE
  5
557
330
2F3
100
AcDbEntity
  8
0
100
AcDbLine
 10
-604.5470756182502
 20
469.9870833754908
 30
0.0
 11
-633.840986606855
 21
469.9870833754908
 31
0.0
  0
LINE
  5
558
330
2F3
100
AcDbEntity
  8
0
100
AcDbLine
 10
-604.5428918140908
 20
469.9870833754908
 30
0.0
 11
-602.5977307016392
 21
469.9870833754908
 31
0.0
  0
LINE
  5
559
330
2F3
100
AcDbEntity
  8
0
100
AcDbLine
 10
-597.3230849563921
 20
469.9870833754908
 30
0.0
 11
-602.1440377025403
 21
469.9870833754908
 31
0.0
  0
LINE
  5
55A
330
2F3
100
AcDbEntity
  8
0
100
AcDbLine
 10
-493.9864238031921
 20
239.9934042768464
 30
0.0
 11
-493.9864238031919
 21
469.9870833754908
 31
0.0
  0
LINE
  5
55B
330
2F3
100
AcDbEntity
  8
0
100
AcDbLine
 10
80.46781343364065
 20
479.9868085536927
 30
0.0
 11
52.52853143643387
 21
479.9868085536927
 31
0.0
  0
LINE
  5
55C
330
2F3
100
AcDbEntity
  8
0
100
AcDbLine
 10
204.9893596040921
 20
229.9936790986444
 30
0.0
 11
340.9856220276326
 21
229.9936790986444
 31
0.0
  0
LINE
  5
55D
330
2F3
100
AcDbEntity
  8
0
100
AcDbLine
 10
-531.9853794803557
 20
289.9920301678559
 30
0.0
 11
-531.9853794803552
 21
239.9934042768464
 31
0.0
  0
LINE
  5
55E
330
2F3
100
AcDbEntity
  8
0
100
AcDbLine
 10
-531.9853794803552
 20
239.9934042768464
 30
0.0
 11
-597.3043387643352
 21
239.9934042768464
 31
0.0
  0
LINE
  5
55F
330
2F3
100
AcDbEntity
  8
0
100
AcDbLine
 10
-999.9484926503342
 20
479.9868085536927
 30
0.0
 11
-597.3230849563921
 21
479.9868085536927
 31
0.0
  0
LINE
  5
560
330
2F3
100
AcDbEntity
  8
0
100
AcDbLine
 10
-465.9871933043127
 20
479.9868085536927
 30
0.0
 11
-493.9864238031918
 21
479.9868085536927
 31
0.0
  0
LINE
  5
561
330
2F3
100
AcDbEntity
  8
0
100
AcDbLine
 10
-30.01705502128138
 20
479.9868085536927
 30
0.0
 11
-261.9570406954205
 21
479.9868085536927
 31
0.0
  0
LINE
  5
562
330
2F3
100
AcDbEntity
  8
0
100
AcDbLine
 10
-279.9565460161789
 20
479.9868085536927
 30
0.0
 11
-279.9565460161789
 21
205.9943386709602
 31
0.0
  0
LINE
  5
563
330
2F3
100
AcDbEntity
  8
0
100
AcDbLine
 10
-261.9570406954205
 20
479.9868085536927
 30
0.0
 11
-261.9570406954212
 21
205.9943386709602
 31
0.0
  0
LINE
  5
564
330
2F3
100
AcDbEntity
  8
0
100
AcDbLine
 10
-531.9853794803552
 20
239.9934042768464
 30
0.0
 11
-493.9864238031921
 21
239.9934042768464
 31
0.0
  0
LINE
  5
565
330
2F3
100
AcDbEntity
  8
0
100
AcDbLine
 10
398.1140614292848
 20
229.9936790986444
 30
0.0
 11
483.1117254440012
 21
229.9936790986444
 31
0.0
  0
LINE
  5
566
330
2F3
100
AcDbEntity
  8
0
100
AcDbLine
 10
52.52853143643387
 20
229.9936790986444
 30
0.0
 11
1.124971854669321
 21
229.9936790986444
 31
0.0
  0
LINE
  5
567
330
2F3
100
AcDbEntity
  8
0
100
AcDbLine
 10
973.9732323568878
 20
-449.9876330190868
 30
0.0
 11
973.9732323568878
 21
-159.9956028512308
 31
0.0
  0
LINE
  5
568
330
2F3
100
AcDbEntity
  8
0
100
AcDbLine
 10
973.9732323568878
 20
-449.9876330190868
 30
0.0
 11
973.9432581059913
 21
-449.9876330190868
 31
0.0
  0
LINE
  5
569
330
2F3
100
AcDbEntity
  8
0
100
AcDbLine
 10
946.0039761087845
 20
-449.9876330190868
 30
0.0
 11
694.9808998850364
 21
-449.9876330190868
 31
0.0
  0
LINE
  5
56A
330
2F3
100
AcDbEntity
  8
0
100
AcDbLine
 10
-29.99917248293299
 20
463.9872482685695
 30
0.0
 11
-30.01705502128167
 21
479.9868085536927
 31
0.0
  0
ENDBLK
  5
2F5
330
2F3
100
AcDbEntity
  8
0
100
AcDbBlockEnd
  0
ENDSEC
  0
SECTION
  2
ENTITIES
  0
INSERT
  5
57D
330
1F
100
AcDbEntity
  8
0
100
AcDbBlockReference
  2
Fachada derecho
 10
27.29239171648306
 20
10.79999999999883
 30
0.0
 41
0.0100002748293499
 42
0.0100002748293499
 43
0.0100002748293499
 50
90.0
  0
ENDSEC
  0
SECTION
  2
OBJECTS
  0
DICTIONARY
  5
C
330
0
100
AcDbDictionary
281
     1
  3
ACAD_CIP_PREVIOUS_PRODUCT_INFO
350
2F2
  3
ACAD_COLOR
350
2EC
  3
ACAD_DETAILVIEWSTYLE
350
2E9
  3
ACAD_GROUP
350
D
  3
ACAD_LAYOUT
350
1A
  3
ACAD_MATERIAL
350
43
  3
ACAD_MLEADERSTYLE
350
6B
  3
ACAD_MLINESTYLE
350
17
  3
ACAD_PLOTSETTINGS
350
19
  3
ACAD_PLOTSTYLENAME
350
E
  3
ACAD_SCALELIST
350
47
  3
ACAD_SECTIONVIEWSTYLE
350
2EA
  3
ACAD_TABLESTYLE
350
69
  3
ACAD_VISUALSTYLE
350
2A
  3
ACDB_RECOMPOSE_DATA
350
587
  3
AcDbVariableDictionary
350
2E5
  3
AEC_PROPERTY_SET_DEFS
350
57B
  3
ASE_INDEX_DICTIONARY
350
57F
  0
SUN
  5
6D
330
29
100
AcDbSun
 90
        1
290
     0
 63
     7
421
 16777215
 40
1.0
291
     1
 91
  2455826
 92
 54000000
292
     0
 70
     0
 71
   256
280
     1
  0
DICTIONARY
  5
573
330
2
100
AcDbDictionary
280
     1
281
     1
  3
ACAD_LAYERSTATES
360
574
  0
XRECORD
  5
2F2
102
{ACAD_REACTORS
330
C
102
}
330
C
100
AcDbXrecord
280
     1
300
ACD
300
2022
300

  0
DICTIONARY
  5
2EC
102
{ACAD_REACTORS
330
C
102
}
330
C
100
AcDbDictionary
281
     1
  0
DICTIONARY
  5
2E9
102
{ACAD_REACTORS
330
C
102
}
330
C
100
AcDbDictionary
281
     1
  3
Metric50
350
2EE
  0
DICTIONARY
  5
D
102
{ACAD_REACTORS
330
C
102
}
330
C
100
AcDbDictionary
281
     1
  0
DICTIONARY
  5
1A
102
{ACAD_REACTORS
330
C
102
}
330
C
100
AcDbDictionary
281
     1
  3
Layout1
350
1E
  3
Layout2
350
26
  3
Model
350
22
  0
DICTIONARY
  5
43
102
{ACAD_REACTORS
330
C
102
}
330
C
100
AcDbDictionary
281
     1
  3
ByBlock
350
45
  3
ByLayer
350
44
  3
Global
350
46
  0
DICTIONARY
  5
6B
102
{ACAD_REACTORS
330
C
102
}
330
C
100
AcDbDictionary
281
     1
  3
Standard
350
6C
  0
DICTIONARY
  5
17
102
{ACAD_REACTORS
330
C
102
}
330
C
100
AcDbDictionary
281
     1
  3
Standard
350
18
  0
DICTIONARY
  5
19
102
{ACAD_REACTORS
330
C
102
}
330
C
100
AcDbDictionary
281
     1
  0
ACDBDICTIONARYWDFLT
  5
E
102
{ACAD_REACTORS
330
C
102
}
330
C
100
AcDbDictionary
281
     1
  3
Normal
350
F
100
AcDbDictionaryWithDefault
340
F
  0
DICTIONARY
  5
47
102
{ACAD_REACTORS
330
C
102
}
330
C
100
AcDbDictionary
281
     1
  3
A0
350
48
  3
A1
350
49
  3
A2
350
4A
  3
A3
350
4B
  3
A4
350
4C
  3
A5
350
4D
  3
A6
350
4E
  3
A7
350
4F
  3
A8
350
50
  3
A9
350
51
  3
B0
350
52
  3
B1
350
53
  3
B2
350
54
  3
B3
350
55
  3
B4
350
56
  3
B5
350
57
  3
B6
350
58
  3
B7
350
59
  3
B8
350
5A
  3
B9
350
5B
  3
C0
350
5C
  3
C1
350
5D
  3
C2
350
5E
  3
C3
350
5F
  3
C4
350
60
  3
C5
350
61
  3
C6
350
62
  3
C7
350
63
  3
C8
350
64
  3
C9
350
65
  3
D0
350
66
  3
D1
350
67
  3
D2
350
68
  0
DICTIONARY
  5
2EA
102
{ACAD_REACTORS
330
C
102
}
330
C
100
AcDbDictionary
281
     1
  3
Metric50
350
2ED
  0
DICTIONARY
  5
69
102
{ACAD_REACTORS
330
C
102
}
330
C
100
AcDbDictionary
281
     1
  3
Standard
350
6A
  0
DICTIONARY
  5
2A
102
{ACAD_REACTORS
330
C
102
}
330
C
100
AcDbDictionary
281
     1
  3
2dWireframe
350
2F
  3
Basic
350
32
  3
Brighten
350
36
  3
ColorChange
350
3A
  3
Conceptual
350
34
  3
Dim
350
35
  3
EdgeColorOff
350
3D
  3
Facepattern
350
39
  3
Flat
350
2B
  3
FlatWithEdges
350
2C
  3
Gouraud
350
2D
  3
GouraudWithEdges
350
2E
  3
Hidden
350
31
  3
JitterOff
350
3B
  3
Linepattern
350
38
  3
OverhangOff
350
3C
  3
Realistic
350
33
  3
Shaded
350
42
  3
Shaded with edges
350
41
  3
Shades of Gray
350
3E
  3
Sketchy
350
3F
  3
Thicken
350
37
  3
Wireframe
350
30
  3
X-Ray
350
40
  0
XRECORD
  5
587
102
{ACAD_REACTORS
330
C
102
}
330
C
100
AcDbXrecord
280
     1
 90
        1
330
6A
  0
DICTIONARY
  5
2E5
102
{ACAD_REACTORS
330
C
102
}
330
C
100
AcDbDictionary
281
     1
  3
CANNOSCALE
350
2E6
  3
CMLEADERSTYLE
350
2E8
  3
CTABLESTYLE
350
2E7
  3
CVIEWDETAILSTYLE
350
56D
  3
CVIEWSECTIONSTYLE
350
56E
  0
DICTIONARY
  5
57B
102
{ACAD_REACTORS
330
C
102
}
330
C
100
AcDbDictionary
281
     1
  0
DICTIONARY
  5
57F
102
{ACAD_REACTORS
330
C
102
}
330
C
100
AcDbDictionary
281
     1
  3
ASEBlockHierarchyIndexRecord
350
580
1001
DCO15
1040
2118506828.0
  0
DICTIONARY
  5
574
102
{ACAD_REACTORS
330
573
102
}
330
573
100
AcDbDictionary
281
     1
  0
ACDBDETAILVIEWSTYLE
  5
2EE
102
{ACAD_REACTORS
330
2E9
102
}
330
2E9
100
AcDbModelDocViewStyle
 70
     0
  3
Metric50
290
     1
300
Metric50
 90
        0
100
AcDbDetailViewStyle
 70
     0
 71
     0
 90
        3
 71
     1
340
11
 62
   256
 40
5.0
340
0
 62
   256
 40
5.0
300

 40
0.0
280
     1
 71
     2
340
16
 90
       25
 62
   256
 71
     3
340
11
 62
   256
 40
5.0
 90
        0
 40
15.0
 90
        1
300
%<\AcVar ViewDetailId>% (%<\AcVar ViewScale \f "%sn">%)
 71
     4
340
16
 90
       25
 62
   256
340
16
 90
       25
 62
   256
280
     0
  0
LAYOUT
  5
1E
102
{ACAD_REACTORS
330
1A
102
}
330
1A
100
AcDbPlotSettings
  1

  2
none_device
  4

  6

 40
0.0
 41
0.0
 42
0.0
 43
0.0
 44
0.0
 45
0.0
 46
0.0
 47
0.0
 48
0.0
 49
0.0
140
0.0
141
0.0
142
1.0
143
1.0
 70
   688
 72
     0
 73
     0
 74
     5
  7

 75
    16
147
1.0
 76
     0
 77
     2
 78
   300
148
0.0
149
0.0
100
AcDbLayout
  1
Layout1
 70
     1
 71
     1
 10
0.0
 20
0.0
 11
12.0
 21
9.0
 12
0.0
 22
0.0
 32
0.0
 14
1.000000000000000E+20
 24
1.000000000000000E+20
 34
1.000000000000000E+20
 15
-1.000000000000000E+20
 25
-1.000000000000000E+20
 35
-1.000000000000000E+20
146
0.0
 13
0.0
 23
0.0
 33
0.0
 16
1.0
 26
0.0
 36
0.0
 17
0.0
 27
1.0
 37
0.0
 76
     0
330
1B
  0
LAYOUT
  5
26
102
{ACAD_REACTORS
330
1A
102
}
330
1A
100
AcDbPlotSettings
  1

  2
none_device
  4

  6

 40
0.0
 41
0.0
 42
0.0
 43
0.0
 44
0.0
 45
0.0
 46
0.0
 47
0.0
 48
0.0
 49
0.0
140
0.0
141
0.0
142
1.0
143
1.0
 70
   688
 72
     0
 73
     0
 74
     5
  7

 75
    16
147
1.0
 76
     0
 77
     2
 78
   300
148
0.0
149
0.0
100
AcDbLayout
  1
Layout2
 70
     1
 71
     2
 10
0.0
 20
0.0
 11
0.0
 21
0.0
 12
0.0
 22
0.0
 32
0.0
 14
0.0
 24
0.0
 34
0.0
 15
0.0
 25
0.0
 35
0.0
146
0.0
 13
0.0
 23
0.0
 33
0.0
 16
1.0
 26
0.0
 36
0.0
 17
0.0
 27
1.0
 37
0.0
 76
     0
330
23
  0
LAYOUT
  5
22
102
{ACAD_REACTORS
330
1A
102
}
330
1A
100
AcDbPlotSettings
  1

  2
none_device
  4
Letter_(8.50_x_11.00_Inches)
  6

 40
6.349999999999999
 41
6.349999999999999
 42
6.350005079999999
 43
6.350005079999999
 44
215.9
 45
279.4
 46
0.0
 47
0.0
 48
0.0
 49
0.0
140
0.0
141
0.0
142
1.0
143
1.0
 70
  1712
 72
     0
 73
     0
 74
     0
  7

 75
     0
147
1.0
 76
     0
 77
     2
 78
   300
148
0.0
149
0.0
100
AcDbLayout
  1
Model
 70
     1
 71
     0
 10
0.0
 20
0.0
 11
12.0
 21
9.0
 12
0.0
 22
0.0
 32
0.0
 14
1.000000000000000E+20
 24
1.000000000000000E+20
 34
1.000000000000000E+20
 15
-1.000000000000000E+20
 25
-1.000000000000000E+20
 35
-1.000000000000000E+20
146
0.0
 13
0.0
 23
0.0
 33
0.0
 16
1.0
 26
0.0
 36
0.0
 17
0.0
 27
1.0
 37
0.0
 76
     0
330
1F
331
29
  0
MATERIAL
  5
45
102
{ACAD_REACTORS
330
43
102
}
330
43
100
AcDbMaterial
  1
ByBlock
 73
     1
 78
     1
172
     1
176
     1
270
     1
274
     1
  0
MATERIAL
  5
44
102
{ACAD_REACTORS
330
43
102
}
330
43
100
AcDbMaterial
  1
ByLayer
 73
     1
 78
     1
172
     1
176
     1
270
     1
274
     1
  0
MATERIAL
  5
46
102
{ACAD_REACTORS
330
43
102
}
330
43
100
AcDbMaterial
  1
Global
 73
     1
 78
     1
172
     1
176
     1
270
     1
274
     1
  0
MLEADERSTYLE
  5
6C
102
{ACAD_REACTORS
330
6B
102
}
330
6B
100
AcDbMLeaderStyle
179
     2
170
     2
171
     1
172
     0
 90
        2
 40
0.0
 41
0.0
173
     1
 91
-1056964608
340
14
 92
       -2
290
     1
 42
0.09
291
     1
 43
0.36
  3
Standard
 44
0.18
300

342
11
174
     1
178
     6
175
     1
176
     0
 93
-1056964608
 45
0.18
292
     0
297
     0
 46
0.18
 94
-1056964608
 47
1.0
 49
1.0
140
1.0
293
     1
141
0.0
294
     1
177
     0
142
1.0
295
     0
296
     0
143
0.125
271
     0
272
     9
273
     9
298
     0
  0
MLINESTYLE
  5
18
102
{ACAD_REACTORS
330
17
102
}
330
17
100
AcDbMlineStyle
  2
STANDARD
 70
     0
  3

 62
   256
 51
90.0
 52
90.0
 71
     2
 49
0.5
 62
   256
  6
BYLAYER
 49
-0.5
 62
   256
  6
BYLAYER
  0
ACDBPLACEHOLDER
  5
F
102
{ACAD_REACTORS
330
E
102
}
330
E
  0
SCALE
  5
48
102
{ACAD_REACTORS
330
47
102
}
330
47
100
AcDbScale
 70
     0
300
1:1
140
1.0
141
1.0
290
     1
  0
SCALE
  5
49
102
{ACAD_REACTORS
330
47
102
}
330
47
100
AcDbScale
 70
     0
300
1:2
140
1.0
141
2.0
290
     0
  0
SCALE
  5
4A
102
{ACAD_REACTORS
330
47
102
}
330
47
100
AcDbScale
 70
     0
300
1:4
140
1.0
141
4.0
290
     0
  0
SCALE
  5
4B
102
{ACAD_REACTORS
330
47
102
}
330
47
100
AcDbScale
 70
     0
300
1:5
140
1.0
141
5.0
290
     0
  0
SCALE
  5
4C
102
{ACAD_REACTORS
330
47
102
}
330
47
100
AcDbScale
 70
     0
300
1:8
140
1.0
141
8.0
290
     0
  0
SCALE
  5
4D
102
{ACAD_REACTORS
330
47
102
}
330
47
100
AcDbScale
 70
     0
300
1:10
140
1.0
141
10.0
290
     0
  0
SCALE
  5
4E
102
{ACAD_REACTORS
330
47
102
}
330
47
100
AcDbScale
 70
     0
300
1:16
140
1.0
141
16.0
290
     0
  0
SCALE
  5
4F
102
{ACAD_REACTORS
330
47
102
}
330
47
100
AcDbScale
 70
     0
300
1:20
140
1.0
141
20.0
290
     0
  0
SCALE
  5
50
102
{ACAD_REACTORS
330
47
102
}
330
47
100
AcDbScale
 70
     0
300
1:30
140
1.0
141
30.0
290
     0
  0
SCALE
  5
51
102
{ACAD_REACTORS
330
47
102
}
330
47
100
AcDbScale
 70
     0
300
1:40
140
1.0
141
40.0
290
     0
  0
SCALE
  5
52
102
{ACAD_REACTORS
330
47
102
}
330
47
100
AcDbScale
 70
     0
300
1:50
140
1.0
141
50.0
290
     0
  0
SCALE
  5
53
102
{ACAD_REACTORS
330
47
102
}
330
47
100
AcDbScale
 70
     0
300
1:100
140
1.0
141
100.0
290
     0
  0
SCALE
  5
54
102
{ACAD_REACTORS
330
47
102
}
330
47
100
AcDbScale
 70
     0
300
2:1
140
2.0
141
1.0
290
     0
  0
SCALE
  5
55
102
{ACAD_REACTORS
330
47
102
}
330
47
100
AcDbScale
 70
     0
300
4:1
140
4.0
141
1.0
290
     0
  0
SCALE
  5
56
102
{ACAD_REACTORS
330
47
102
}
330
47
100
AcDbScale
 70
     0
300
8:1
140
8.0
141
1.0
290
     0
  0
SCALE
  5
57
102
{ACAD_REACTORS
330
47
102
}
330
47
100
AcDbScale
 70
     0
300
10:1
140
10.0
141
1.0
290
     0
  0
SCALE
  5
58
102
{ACAD_REACTORS
330
47
102
}
330
47
100
AcDbScale
 70
     0
300
100:1
140
100.0
141
1.0
290
     0
  0
SCALE
  5
59
102
{ACAD_REACTORS
330
47
102
}
330
47
100
AcDbScale
 70
     0
300
1/128" = 1'-0"
140
0.0078125
141
12.0
290
     0
  0
SCALE
  5
5A
102
{ACAD_REACTORS
330
47
102
}
330
47
100
AcDbScale
 70
     0
300
1/64" = 1'-0"
140
0.015625
141
12.0
290
     0
  0
SCALE
  5
5B
102
{ACAD_REACTORS
330
47
102
}
330
47
100
AcDbScale
 70
     0
300
1/32" = 1'-0"
140
0.03125
141
12.0
290
     0
  0
SCALE
  5
5C
102
{ACAD_REACTORS
330
47
102
}
330
47
100
AcDbScale
 70
     0
300
1/16" = 1'-0"
140
0.0625
141
12.0
290
     0
  0
SCALE
  5
5D
102
{ACAD_REACTORS
330
47
102
}
330
47
100
AcDbScale
 70
     0
300
3/32" = 1'-0"
140
0.09375
141
12.0
290
     0
  0
SCALE
  5
5E
102
{ACAD_REACTORS
330
47
102
}
330
47
100
AcDbScale
 70
     0
300
1/8" = 1'-0"
140
0.125
141
12.0
290
     0
  0
SCALE
  5
5F
102
{ACAD_REACTORS
330
47
102
}
330
47
100
AcDbScale
 70
     0
300
3/16" = 1'-0"
140
0.1875
141
12.0
290
     0
  0
SCALE
  5
60
102
{ACAD_REACTORS
330
47
102
}
330
47
100
AcDbScale
 70
     0
300
1/4" = 1'-0"
140
0.25
141
12.0
290
     0
  0
SCALE
  5
61
102
{ACAD_REACTORS
330
47
102
}
330
47
100
AcDbScale
 70
     0
300
3/8" = 1'-0"
140
0.375
141
12.0
290
     0
  0
SCALE
  5
62
102
{ACAD_REACTORS
330
47
102
}
330
47
100
AcDbScale
 70
     0
300
1/2" = 1'-0"
140
0.5
141
12.0
290
     0
  0
SCALE
  5
63
102
{ACAD_REACTORS
330
47
102
}
330
47
100
AcDbScale
 70
     0
300
3/4" = 1'-0"
140
0.75
141
12.0
290
     0
  0
SCALE
  5
64
102
{ACAD_REACTORS
330
47
102
}
330
47
100
AcDbScale
 70
     0
300
1" = 1'-0"
140
1.0
141
12.0
290
     0
  0
SCALE
  5
65
102
{ACAD_REACTORS
330
47
102
}
330
47
100
AcDbScale
 70
     0
300
1-1/2" = 1'-0"
140
1.5
141
12.0
290
     0
  0
SCALE
  5
66
102
{ACAD_REACTORS
330
47
102
}
330
47
100
AcDbScale
 70
     0
300
3" = 1'-0"
140
3.0
141
12.0
290
     0
  0
SCALE
  5
67
102
{ACAD_REACTORS
330
47
102
}
330
47
100
AcDbScale
 70
     0
300
6" = 1'-0"
140
6.0
141
12.0
290
     0
  0
SCALE
  5
68
102
{ACAD_REACTORS
330
47
102
}
330
47
100
AcDbScale
 70
     0
300
1'-0" = 1'-0"
140
12.0
141
12.0
290
     0
  0
ACDBSECTIONVIEWSTYLE
  5
2ED
102
{ACAD_REACTORS
330
2EA
102
}
330
2EA
100
AcDbModelDocViewStyle
 70
     0
  3
Metric50
290
     1
300
Metric50
 90
        0
100
AcDbSectionViewStyle
 70
     0
 71
     0
 90
      102
 71
     1
340
11
 62
   256
 40
5.0
340
0
340
0
 62
   256
 40
5.0
300
I, O, Q, S, X, Z
 40
10.0
 90
        0
 40
2.5
 90
        0
 71
     2
340
16
 90
       25
 62
   256
340
16
 90
       50
 62
   256
 40
5.0
 40
2.5
 40
5.0
 71
     3
340
11
 62
   256
 40
5.0
 90
        0
 40
15.0
 90
        1
300
%<\AcVar ViewSectionStartId>%-%<\AcVar ViewSectionEndId>% (%<\AcVar ViewScale \f "%sn">%)
 71
     4
 62
   256
 62
   257
300
ANSI31
 40
1.0
 90
        0
290
     0
290
     0
 90
        6
 40
0.0
 40
1.570796326794896
 40
0.2617993877991494
 40
1.308996938995747
 40
-0.2617993877991494
 40
1.832595714594046
  0
TABLESTYLE
  5
6A
102
{ACAD_XDICTIONARY
360
585
102
}
102
{ACAD_REACTORS
330
69
102
}
330
69
100
AcDbTableStyle
280
     0
  3
Standard
 70
     0
 71
     0
 40
0.06
 41
0.06
280
     0
281
     0
  7
Standard
140
0.18
170
     2
 62
     0
 63
     7
283
     0
 90
        4
 91
        0
  1

274
    -2
284
     1
 64
     0
275
    -2
285
     1
 65
     0
276
    -2
286
     1
 66
     0
277
    -2
287
     1
 67
     0
278
    -2
288
     1
 68
     0
279
    -2
289
     1
 69
     0
  7
Standard
140
0.25
170
     5
 62
     0
 63
     7
283
     0
 90
        4
 91
        0
  1

274
    -2
284
     1
 64
     0
275
    -2
285
     1
 65
     0
276
    -2
286
     1
 66
     0
277
    -2
287
     1
 67
     0
278
    -2
288
     1
 68
     0
279
    -2
289
     1
 69
     0
  7
Standard
140
0.18
170
     5
 62
     0
 63
     7
283
     0
 90
        4
 91
        0
  1

274
    -2
284
     1
 64
     0
275
    -2
285
     1
 65
     0
276
    -2
286
     1
 66
     0
277
    -2
287
     1
 67
     0
278
    -2
288
     1
 68
     0
279
    -2
289
     1
 69
     0
  0
VISUALSTYLE
  5
2F
102
{ACAD_REACTORS
330
2A
102
}
330
2A
100
AcDbVisualStyle
  2
2dWireframe
 70
     4
177
     3
291
     0
 70
    58
 90
        0
176
     1
 90
        2
176
     1
 90
        0
176
     1
 90
        0
176
     1
 40
0.6
176
     1
 40
30.0
176
     1
 62
     7
420
 16777215
176
     1
 90
        1
176
     1
 90
        4
176
     1
 62
     7
176
     1
 62
   257
176
     1
 90
        1
176
     1
 90
        1
176
     1
 40
1.0
176
     1
 90
        0
176
     1
 62
   257
176
     1
 40
1.0
176
     1
 90
        1
176
     1
 90
        6
176
     1
 90
        2
176
     1
 62
     7
176
     1
 90
        5
176
     1
 90
        0
176
     1
 90
        0
176
     1
290
     0
176
     1
 90
        1
176
     1
 40
0.0
176
     1
 90
        0
176
     1
290
     1
176
     1
290
     1
176
     1
290
     0
176
     1
290
     0
176
     1
290
     0
176
     1
290
     0
176
     1
290
     0
176
     1
290
     0
176
     1
290
     0
176
     1
 90
       50
176
     1
 40
0.0
176
     1
 40
1.0
176
     1
 90
        0
176
     1
 62
    18
420
        0
176
     1
 90
       50
176
     1
 90
        3
176
     1
 62
     5
420
      255
176
     1
290
     0
176
     1
 90
       50
176
     1
 90
       50
176
     1
 90
       50
176
     1
290
     0
176
     1
 90
       50
176
     1
 62
   256
176
     0
 40
1.0
176
     0
 90
        2
176
     1
  1
strokes_ogs.tif
176
     1
290
     0
176
     1
 40
1.0
176
     1
 40
1.0
176
     1
  0
VISUALSTYLE
  5
32
102
{ACAD_REACTORS
330
2A
102
}
330
2A
100
AcDbVisualStyle
  2
Basic
 70
     7
177
     3
291
     1
 70
    58
 90
        1
176
     1
 90
        0
176
     1
 90
        1
176
     1
 90
        0
176
     1
 40
0.6
176
     1
 40
30.0
176
     1
 62
     7
420
 16777215
176
     1
 90
        0
176
     1
 90
        4
176
     1
 62
     7
176
     1
 62
   257
176
     1
 90
        1
176
     1
 90
        1
176
     1
 40
1.0
176
     1
 90
        8
176
     1
 62
     7
176
     1
 40
1.0
176
     1
 90
        1
176
     1
 90
        6
176
     1
 90
        2
176
     1
 62
     7
176
     1
 90
        5
176
     1
 90
        0
176
     1
 90
        0
176
     1
290
     0
176
     1
 90
        1
176
     1
 40
0.0
176
     1
 90
        0
176
     1
290
     0
176
     1
290
     1
176
     1
290
     1
176
     1
290
     0
176
     1
290
     0
176
     1
290
     0
176
     1
290
     0
176
     1
290
     0
176
     1
290
     0
176
     1
 90
       50
176
     1
 40
0.0
176
     1
 40
1.0
176
     1
 90
        0
176
     1
 62
    18
420
        0
176
     1
 90
       50
176
     1
 90
        3
176
     1
 62
     5
420
      255
176
     1
290
     0
176
     1
 90
       50
176
     1
 90
       50
176
     1
 90
       50
176
     1
290
     0
176
     1
 90
       50
176
     1
 62
   256
176
     0
 40
1.0
176
     0
 90
        2
176
     1
  1
strokes_ogs.tif
176
     1
290
     0
176
     1
 40
1.0
176
     1
 40
1.0
176
     1
  0
VISUALSTYLE
  5
36
102
{ACAD_REACTORS
330
2A
102
}
330
2A
100
AcDbVisualStyle
  2
Brighten
 70
    12
177
     3
291
     1
 70
    58
 90
        2
176
     1
 90
        2
176
     1
 90
        0
176
     1
 90
        0
176
     1
 40
0.6
176
     1
 40
30.0
176
     1
 62
     7
420
 16777215
176
     1
 90
        1
176
     1
 90
        4
176
     1
 62
     7
176
     1
 62
   257
176
     1
 90
        1
176
     1
 90
        1
176
     1
 40
1.0
176
     1
 90
        8
176
     1
 62
     7
176
     1
 40
1.0
176
     1
 90
        1
176
     1
 90
        6
176
     1
 90
        2
176
     1
 62
     7
176
     1
 90
        5
176
     1
 90
        0
176
     1
 90
        0
176
     1
290
     0
176
     1
 90
        1
176
     1
 40
50.0
176
     1
 90
        0
176
     1
290
     0
176
     1
290
     1
176
     1
290
     1
176
     1
290
     0
176
     1
290
     0
176
     1
290
     0
176
     1
290
     0
176
     1
290
     0
176
     1
290
     0
176
     1
 90
       50
176
     1
 40
0.0
176
     1
 40
1.0
176
     1
 90
        0
176
     1
 62
    18
420
        0
176
     1
 90
       50
176
     1
 90
        3
176
     1
 62
     5
420
      255
176
     1
290
     0
176
     1
 90
       50
176
     1
 90
       50
176
     1
 90
       50
176
     1
290
     0
176
     1
 90
       50
176
     1
 62
   256
176
     0
 40
1.0
176
     0
 90
        2
176
     1
  1
strokes_ogs.tif
176
     1
290
     0
176
     1
 40
1.0
176
     1
 40
1.0
176
     1
  0
VISUALSTYLE
  5
3A
102
{ACAD_REACTORS
330
2A
102
}
330
2A
100
AcDbVisualStyle
  2
ColorChange
 70
    16
177
     3
291
     1
 70
    58
 90
        2
176
     1
 90
        2
176
     1
 90
        3
176
     1
 90
        0
176
     1
 40
0.6
176
     1
 40
30.0
176
     1
 62
     8
420
  8421504
176
     1
 90
        1
176
     1
 90
        4
176
     1
 62
     7
176
     1
 62
   257
176
     1
 90
        1
176
     1
 90
        1
176
     1
 40
1.0
176
     1
 90
        8
176
     1
 62
     8
420
  8421504
176
     1
 40
1.0
176
     1
 90
        1
176
     1
 90
        6
176
     1
 90
        2
176
     1
 62
     7
176
     1
 90
        5
176
     1
 90
        0
176
     1
 90
        0
176
     1
290
     0
176
     1
 90
        1
176
     1
 40
0.0
176
     1
 90
        0
176
     1
290
     0
176
     1
290
     1
176
     1
290
     1
176
     1
290
     0
176
     1
290
     0
176
     1
290
     0
176
     1
290
     0
176
     1
290
     0
176
     1
290
     0
176
     1
 90
       50
176
     1
 40
0.0
176
     1
 40
1.0
176
     1
 90
        0
176
     1
 62
    18
420
        0
176
     1
 90
       50
176
     1
 90
        3
176
     1
 62
     5
420
      255
176
     1
290
     0
176
     1
 90
       50
176
     1
 90
       50
176
     1
 90
       50
176
     1
290
     0
176
     1
 90
       50
176
     1
 62
   256
176
     0
 40
1.0
176
     0
 90
        2
176
     1
  1
strokes_ogs.tif
176
     1
290
     0
176
     1
 40
1.0
176
     1
 40
1.0
176
     1
  0
VISUALSTYLE
  5
34
102
{ACAD_REACTORS
330
2A
102
}
330
2A
100
AcDbVisualStyle
  2
Conceptual
 70
     9
177
     3
291
     0
 70
    58
 90
        3
176
     1
 90
        2
176
     1
 90
        0
176
     1
 90
        0
176
     1
 40
0.6
176
     1
 40
30.0
176
     1
 62
     7
420
 16777215
176
     1
 90
        2
176
     1
 90
        2
176
     1
 62
     7
176
     1
 62
   257
176
     1
 90
        1
176
     1
 90
        1
176
     1
 40
179.0
176
     1
 90
        8
176
     1
 62
     7
176
     1
 40
1.0
176
     1
 90
        1
176
     1
 90
        6
176
     1
 90
        2
176
     1
 62
     7
176
     1
 90
        3
176
     1
 90
        0
176
     1
 90
        0
176
     1
290
     0
176
     1
 90
        1
176
     1
 40
0.0
176
     1
 90
        0
176
     1
290
     0
176
     1
290
     1
176
     1
290
     1
176
     1
290
     0
176
     1
290
     0
176
     1
290
     0
176
     1
290
     0
176
     1
290
     0
176
     1
290
     0
176
     1
 90
       50
176
     1
 40
0.0
176
     1
 40
1.0
176
     1
 90
        0
176
     1
 62
    18
420
        0
176
     1
 90
       50
176
     1
 90
        3
176
     1
 62
     5
420
      255
176
     1
290
     0
176
     1
 90
       50
176
     1
 90
       50
176
     1
 90
       50
176
     1
290
     0
176
     1
 90
       50
176
     1
 62
   256
176
     0
 40
1.0
176
     0
 90
        2
176
     1
  1
strokes_ogs.tif
176
     1
290
     0
176
     1
 40
1.0
176
     1
 40
1.0
176
     1
  0
VISUALSTYLE
  5
35
102
{ACAD_REACTORS
330
2A
102
}
330
2A
100
AcDbVisualStyle
  2
Dim
 70
    11
177
     3
291
     1
 70
    58
 90
        2
176
     1
 90
        2
176
     1
 90
        0
176
     1
 90
        0
176
     1
 40
0.6
176
     1
 40
30.0
176
     1
 62
     7
420
 16777215
176
     1
 90
        1
176
     1
 90
        4
176
     1
 62
     7
176
     1
 62
   257
176
     1
 90
        1
176
     1
 90
        1
176
     1
 40
1.0
176
     1
 90
        8
176
     1
 62
     7
176
     1
 40
1.0
176
     1
 90
        1
176
     1
 90
        6
176
     1
 90
        2
176
     1
 62
     7
176
     1
 90
        5
176
     1
 90
        0
176
     1
 90
        0
176
     1
290
     0
176
     1
 90
        1
176
     1
 40
-50.0
176
     1
 90
        0
176
     1
290
     0
176
     1
290
     1
176
     1
290
     1
176
     1
290
     0
176
     1
290
     0
176
     1
290
     0
176
     1
290
     0
176
     1
290
     0
176
     1
290
     0
176
     1
 90
       50
176
     1
 40
0.0
176
     1
 40
1.0
176
     1
 90
        0
176
     1
 62
    18
420
        0
176
     1
 90
       50
176
     1
 90
        3
176
     1
 62
     5
420
      255
176
     1
290
     0
176
     1
 90
       50
176
     1
 90
       50
176
     1
 90
       50
176
     1
290
     0
176
     1
 90
       50
176
     1
 62
   256
176
     0
 40
1.0
176
     0
 90
        2
176
     1
  1
strokes_ogs.tif
176
     1
290
     0
176
     1
 40
1.0
176
     1
 40
1.0
176
     1
  0
VISUALSTYLE
  5
3D
102
{ACAD_REACTORS
330
2A
102
}
330
2A
100
AcDbVisualStyle
  2
EdgeColorOff
 70
    22
177
     3
291
     1
 70
    58
 90
        2
176
     0
 90
        2
176
     0
 90
        0
176
     0
 90
        0
176
     0
 40
0.6
176
     0
 40
30.0
176
     0
 62
     7
420
 16777215
176
     0
 90
        1
176
     0
 90
        4
176
     0
 62
     7
176
     0
 62
   257
176
     0
 90
        1
176
     0
 90
        1
176
     0
 40
1.0
176
     0
 90
        8
176
     2
 62
     7
176
     0
 40
1.0
176
     0
 90
        1
176
     0
 90
        6
176
     0
 90
        2
176
     0
 62
     7
176
     0
 90
        5
176
     0
 90
        0
176
     0
 90
        0
176
     0
290
     0
176
     0
 90
        1
176
     0
 40
0.0
176
     0
 90
        0
176
     0
290
     0
176
     0
290
     1
176
     0
290
     1
176
     0
290
     0
176
     0
290
     0
176
     0
290
     0
176
     0
290
     0
176
     0
290
     0
176
     0
290
     0
176
     0
 90
       50
176
     0
 40
0.0
176
     0
 40
1.0
176
     0
 90
        0
176
     0
 62
    18
420
        0
176
     0
 90
       50
176
     0
 90
        3
176
     0
 62
     5
420
      255
176
     0
290
     0
176
     0
 90
       50
176
     0
 90
       50
176
     0
 90
       50
176
     0
290
     0
176
     0
 90
       50
176
     0
 62
   256
176
     0
 40
1.0
176
     0
 90
        2
176
     0
  1
strokes_ogs.tif
176
     0
290
     0
176
     0
 40
1.0
176
     0
 40
1.0
176
     0
  0
VISUALSTYLE
  5
39
102
{ACAD_REACTORS
330
2A
102
}
330
2A
100
AcDbVisualStyle
  2
Facepattern
 70
    15
177
     3
291
     1
 70
    58
 90
        2
176
     1
 90
        2
176
     1
 90
        0
176
     1
 90
        0
176
     1
 40
0.6
176
     1
 40
30.0
176
     1
 62
     7
420
 16777215
176
     1
 90
        1
176
     1
 90
        4
176
     1
 62
     7
176
     1
 62
   257
176
     1
 90
        1
176
     1
 90
        1
176
     1
 40
1.0
176
     1
 90
        8
176
     1
 62
     7
176
     1
 40
1.0
176
     1
 90
        1
176
     1
 90
        6
176
     1
 90
        2
176
     1
 62
     7
176
     1
 90
        5
176
     1
 90
        0
176
     1
 90
        0
176
     1
290
     0
176
     1
 90
        1
176
     1
 40
0.0
176
     1
 90
        0
176
     1
290
     0
176
     1
290
     1
176
     1
290
     1
176
     1
290
     0
176
     1
290
     0
176
     1
290
     0
176
     1
290
     0
176
     1
290
     0
176
     1
290
     0
176
     1
 90
       50
176
     1
 40
0.0
176
     1
 40
1.0
176
     1
 90
        0
176
     1
 62
    18
420
        0
176
     1
 90
       50
176
     1
 90
        3
176
     1
 62
     5
420
      255
176
     1
290
     0
176
     1
 90
       50
176
     1
 90
       50
176
     1
 90
       50
176
     1
290
     0
176
     1
 90
       50
176
     1
 62
   256
176
     0
 40
1.0
176
     0
 90
        2
176
     1
  1
strokes_ogs.tif
176
     1
290
     0
176
     1
 40
1.0
176
     1
 40
1.0
176
     1
  0
VISUALSTYLE
  5
2B
102
{ACAD_REACTORS
330
2A
102
}
330
2A
100
AcDbVisualStyle
  2
Flat
 70
     0
177
     3
291
     1
 70
    58
 90
        2
176
     1
 90
        1
176
     1
 90
        1
176
     1
 90
        2
176
     1
 40
0.6
176
     1
 40
30.0
176
     1
 62
     7
420
 16777215
176
     1
 90
        0
176
     1
 90
        0
176
     1
 62
     7
176
     1
 62
   257
176
     1
 90
        1
176
     1
 90
        1
176
     1
 40
1.0
176
     1
 90
        8
176
     1
 62
     7
176
     1
 40
1.0
176
     1
 90
        1
176
     1
 90
        6
176
     1
 90
        2
176
     1
 62
     7
176
     1
 90
        5
176
     1
 90
        0
176
     1
 90
        0
176
     1
290
     0
176
     1
 90
       13
176
     1
 40
0.0
176
     1
 90
        0
176
     1
290
     0
176
     1
290
     1
176
     1
290
     1
176
     1
290
     0
176
     1
290
     0
176
     1
290
     0
176
     1
290
     0
176
     1
290
     0
176
     1
290
     0
176
     1
 90
       50
176
     1
 40
0.0
176
     1
 40
1.0
176
     1
 90
        0
176
     1
 62
    18
420
        0
176
     1
 90
       50
176
     1
 90
        3
176
     1
 62
     5
420
      255
176
     1
290
     0
176
     1
 90
       50
176
     1
 90
       50
176
     1
 90
       50
176
     1
290
     0
176
     1
 90
       50
176
     1
 62
   256
176
     0
 40
1.0
176
     0
 90
        2
176
     1
  1
strokes_ogs.tif
176
     1
290
     0
176
     1
 40
1.0
176
     1
 40
1.0
176
     1
  0
VISUALSTYLE
  5
2C
102
{ACAD_REACTORS
330
2A
102
}
330
2A
100
AcDbVisualStyle
  2
FlatWithEdges
 70
     1
177
     3
291
     1
 70
    58
 90
        2
176
     1
 90
        1
176
     1
 90
        1
176
     1
 90
        2
176
     1
 40
0.6
176
     1
 40
30.0
176
     1
 62
     7
420
 16777215
176
     1
 90
        1
176
     1
 90
        0
176
     1
 62
     7
176
     1
 62
   257
176
     1
 90
        1
176
     1
 90
        1
176
     1
 40
1.0
176
     1
 90
        0
176
     1
 62
   257
176
     1
 40
1.0
176
     1
 90
        1
176
     1
 90
        6
176
     1
 90
        2
176
     1
 62
     7
176
     1
 90
        5
176
     1
 90
        0
176
     1
 90
        0
176
     1
290
     0
176
     1
 90
       13
176
     1
 40
0.0
176
     1
 90
        0
176
     1
290
     0
176
     1
290
     1
176
     1
290
     1
176
     1
290
     0
176
     1
290
     0
176
     1
290
     0
176
     1
290
     0
176
     1
290
     0
176
     1
290
     0
176
     1
 90
       50
176
     1
 40
0.0
176
     1
 40
1.0
176
     1
 90
        0
176
     1
 62
    18
420
        0
176
     1
 90
       50
176
     1
 90
        3
176
     1
 62
     5
420
      255
176
     1
290
     0
176
     1
 90
       50
176
     1
 90
       50
176
     1
 90
       50
176
     1
290
     0
176
     1
 90
       50
176
     1
 62
   256
176
     0
 40
1.0
176
     0
 90
        2
176
     1
  1
strokes_ogs.tif
176
     1
290
     0
176
     1
 40
1.0
176
     1
 40
1.0
176
     1
  0
VISUALSTYLE
  5
2D
102
{ACAD_REACTORS
330
2A
102
}
330
2A
100
AcDbVisualStyle
  2
Gouraud
 70
     2
177
     3
291
     1
 70
    58
 90
        2
176
     1
 90
        2
176
     1
 90
        1
176
     1
 90
        2
176
     1
 40
0.6
176
     1
 40
30.0
176
     1
 62
     7
420
 16777215
176
     1
 90
        0
176
     1
 90
        0
176
     1
 62
     7
176
     1
 62
   257
176
     1
 90
        1
176
     1
 90
        1
176
     1
 40
1.0
176
     1
 90
        0
176
     1
 62
     7
176
     1
 40
1.0
176
     1
 90
        1
176
     1
 90
        6
176
     1
 90
        2
176
     1
 62
     7
176
     1
 90
        5
176
     1
 90
        0
176
     1
 90
        0
176
     1
290
     0
176
     1
 90
       13
176
     1
 40
0.0
176
     1
 90
        0
176
     1
290
     0
176
     1
290
     1
176
     1
290
     1
176
     1
290
     0
176
     1
290
     0
176
     1
290
     0
176
     1
290
     0
176
     1
290
     0
176
     1
290
     0
176
     1
 90
       50
176
     1
 40
0.0
176
     1
 40
1.0
176
     1
 90
        0
176
     1
 62
    18
420
        0
176
     1
 90
       50
176
     1
 90
        3
176
     1
 62
     5
420
      255
176
     1
290
     0
176
     1
 90
       50
176
     1
 90
       50
176
     1
 90
       50
176
     1
290
     0
176
     1
 90
       50
176
     1
 62
   256
176
     0
 40
1.0
176
     0
 90
        2
176
     1
  1
strokes_ogs.tif
176
     1
290
     0
176
     1
 40
1.0
176
     1
 40
1.0
176
     1
  0
VISUALSTYLE
  5
2E
102
{ACAD_REACTORS
330
2A
102
}
330
2A
100
AcDbVisualStyle
  2
GouraudWithEdges
 70
     3
177
     3
291
     1
 70
    58
 90
        2
176
     1
 90
        2
176
     1
 90
        1
176
     1
 90
        2
176
     1
 40
0.6
176
     1
 40
30.0
176
     1
 62
     7
420
 16777215
176
     1
 90
        1
176
     1
 90
        0
176
     1
 62
     7
176
     1
 62
   257
176
     1
 90
        1
176
     1
 90
        1
176
     1
 40
1.0
176
     1
 90
        0
176
     1
 62
   257
176
     1
 40
1.0
176
     1
 90
        1
176
     1
 90
        6
176
     1
 90
        2
176
     1
 62
     7
176
     1
 90
        5
176
     1
 90
        0
176
     1
 90
        0
176
     1
290
     0
176
     1
 90
       13
176
     1
 40
0.0
176
     1
 90
        0
176
     1
290
     0
176
     1
290
     1
176
     1
290
     1
176
     1
290
     0
176
     1
290
     0
176
     1
290
     0
176
     1
290
     0
176
     1
290
     0
176
     1
290
     0
176
     1
 90
       50
176
     1
 40
0.0
176
     1
 40
1.0
176
     1
 90
        0
176
     1
 62
    18
420
        0
176
     1
 90
       50
176
     1
 90
        3
176
     1
 62
     5
420
      255
176
     1
290
     0
176
     1
 90
       50
176
     1
 90
       50
176
     1
 90
       50
176
     1
290
     0
176
     1
 90
       50
176
     1
 62
   256
176
     0
 40
1.0
176
     0
 90
        2
176
     1
  1
strokes_ogs.tif
176
     1
290
     0
176
     1
 40
1.0
176
     1
 40
1.0
176
     1
  0
VISUALSTYLE
  5
31
102
{ACAD_REACTORS
330
2A
102
}
330
2A
100
AcDbVisualStyle
  2
Hidden
 70
     6
177
     3
291
     0
 70
    58
 90
        1
176
     1
 90
        2
176
     1
 90
        2
176
     1
 90
        0
176
     1
 40
0.6
176
     1
 40
30.0
176
     1
 62
     7
420
 16777215
176
     1
 90
        2
176
     1
 90
        2
176
     1
 62
     7
176
     1
 62
   257
176
     1
 90
        2
176
     1
 90
        1
176
     1
 40
40.0
176
     1
 90
        0
176
     1
 62
   257
176
     1
 40
1.0
176
     1
 90
        1
176
     1
 90
        6
176
     1
 90
        2
176
     1
 62
     7
176
     1
 90
        3
176
     1
 90
        0
176
     1
 90
        0
176
     1
290
     0
176
     1
 90
        1
176
     1
 40
0.0
176
     1
 90
        0
176
     1
290
     0
176
     1
290
     1
176
     1
290
     1
176
     1
290
     0
176
     1
290
     0
176
     1
290
     0
176
     1
290
     0
176
     1
290
     0
176
     1
290
     0
176
     1
 90
       50
176
     1
 40
0.0
176
     1
 40
1.0
176
     1
 90
        0
176
     1
 62
    18
420
        0
176
     1
 90
       50
176
     1
 90
        3
176
     1
 62
     5
420
      255
176
     1
290
     0
176
     1
 90
       50
176
     1
 90
       50
176
     1
 90
       50
176
     1
290
     0
176
     1
 90
       50
176
     1
 62
   256
176
     0
 40
1.0
176
     0
 90
        2
176
     1
  1
strokes_ogs.tif
176
     1
290
     0
176
     1
 40
1.0
176
     1
 40
1.0
176
     1
  0
VISUALSTYLE
  5
3B
102
{ACAD_REACTORS
330
2A
102
}
330
2A
100
AcDbVisualStyle
  2
JitterOff
 70
    20
177
     3
291
     1
 70
    58
 90
        2
176
     0
 90
        2
176
     0
 90
        0
176
     0
 90
        0
176
     0
 40
0.6
176
     0
 40
30.0
176
     0
 62
     7
420
 16777215
176
     0
 90
        1
176
     0
 90
        4
176
     0
 62
     7
176
     0
 62
   257
176
     0
 90
        1
176
     0
 90
        1
176
     0
 40
1.0
176
     0
 90
       10
176
     2
 62
     7
176
     0
 40
1.0
176
     0
 90
        1
176
     0
 90
        6
176
     0
 90
        2
176
     0
 62
     7
176
     0
 90
        5
176
     0
 90
        0
176
     0
 90
        0
176
     0
290
     0
176
     0
 90
        1
176
     0
 40
0.0
176
     0
 90
        0
176
     0
290
     0
176
     0
290
     1
176
     0
290
     1
176
     0
290
     0
176
     0
290
     0
176
     0
290
     0
176
     0
290
     0
176
     0
290
     0
176
     0
290
     0
176
     0
 90
       50
176
     0
 40
0.0
176
     0
 40
1.0
176
     0
 90
        0
176
     0
 62
    18
420
        0
176
     0
 90
       50
176
     0
 90
        3
176
     0
 62
     5
420
      255
176
     0
290
     0
176
     0
 90
       50
176
     0
 90
       50
176
     0
 90
       50
176
     0
290
     0
176
     0
 90
       50
176
     0
 62
   256
176
     0
 40
1.0
176
     0
 90
        2
176
     0
  1
strokes_ogs.tif
176
     0
290
     0
176
     0
 40
1.0
176
     0
 40
1.0
176
     0
  0
VISUALSTYLE
  5
38
102
{ACAD_REACTORS
330
2A
102
}
330
2A
100
AcDbVisualStyle
  2
Linepattern
 70
    14
177
     3
291
     1
 70
    58
 90
        2
176
     1
 90
        2
176
     1
 90
        0
176
     1
 90
        0
176
     1
 40
0.6
176
     1
 40
30.0
176
     1
 62
     7
420
 16777215
176
     1
 90
        1
176
     1
 90
        4
176
     1
 62
     7
176
     1
 62
   257
176
     1
 90
        7
176
     1
 90
        7
176
     1
 40
1.0
176
     1
 90
        8
176
     1
 62
     7
176
     1
 40
1.0
176
     1
 90
        1
176
     1
 90
        6
176
     1
 90
        2
176
     1
 62
     7
176
     1
 90
        5
176
     1
 90
        0
176
     1
 90
        0
176
     1
290
     0
176
     1
 90
        1
176
     1
 40
0.0
176
     1
 90
        0
176
     1
290
     0
176
     1
290
     1
176
     1
290
     1
176
     1
290
     0
176
     1
290
     0
176
     1
290
     0
176
     1
290
     0
176
     1
290
     0
176
     1
290
     0
176
     1
 90
       50
176
     1
 40
0.0
176
     1
 40
1.0
176
     1
 90
        0
176
     1
 62
    18
420
        0
176
     1
 90
       50
176
     1
 90
        3
176
     1
 62
     5
420
      255
176
     1
290
     0
176
     1
 90
       50
176
     1
 90
       50
176
     1
 90
       50
176
     1
290
     0
176
     1
 90
       50
176
     1
 62
   256
176
     0
 40
1.0
176
     0
 90
        2
176
     1
  1
strokes_ogs.tif
176
     1
290
     0
176
     1
 40
1.0
176
     1
 40
1.0
176
     1
  0
VISUALSTYLE
  5
3C
102
{ACAD_REACTORS
330
2A
102
}
330
2A
100
AcDbVisualStyle
  2
OverhangOff
 70
    21
177
     3
291
     1
 70
    58
 90
        2
176
     0
 90
        2
176
     0
 90
        0
176
     0
 90
        0
176
     0
 40
0.6
176
     0
 40
30.0
176
     0
 62
     7
420
 16777215
176
     0
 90
        1
176
     0
 90
        4
176
     0
 62
     7
176
     0
 62
   257
176
     0
 90
        1
176
     0
 90
        1
176
     0
 40
1.0
176
     0
 90
        9
176
     2
 62
     7
176
     0
 40
1.0
176
     0
 90
        1
176
     0
 90
        6
176
     0
 90
        2
176
     0
 62
     7
176
     0
 90
        5
176
     0
 90
        0
176
     0
 90
        0
176
     0
290
     0
176
     0
 90
        1
176
     0
 40
0.0
176
     0
 90
        0
176
     0
290
     0
176
     0
290
     1
176
     0
290
     1
176
     0
290
     0
176
     0
290
     0
176
     0
290
     0
176
     0
290
     0
176
     0
290
     0
176
     0
290
     0
176
     0
 90
       50
176
     0
 40
0.0
176
     0
 40
1.0
176
     0
 90
        0
176
     0
 62
    18
420
        0
176
     0
 90
       50
176
     0
 90
        3
176
     0
 62
     5
420
      255
176
     0
290
     0
176
     0
 90
       50
176
     0
 90
       50
176
     0
 90
       50
176
     0
290
     0
176
     0
 90
       50
176
     0
 62
   256
176
     0
 40
1.0
176
     0
 90
        2
176
     0
  1
strokes_ogs.tif
176
     0
290
     0
176
     0
 40
1.0
176
     0
 40
1.0
176
     0
  0
VISUALSTYLE
  5
33
102
{ACAD_REACTORS
330
2A
102
}
330
2A
100
AcDbVisualStyle
  2
Realistic
 70
     8
177
     3
291
     0
 70
    58
 90
        2
176
     1
 90
        3
176
     1
 90
        0
176
     1
 90
        2
176
     1
 40
0.6
176
     1
 40
30.0
176
     1
 62
     7
420
 16777215
176
     1
 90
        0
176
     1
 90
        0
176
     1
 62
     7
176
     1
 62
   257
176
     1
 90
        1
176
     1
 90
        1
176
     1
 40
1.0
176
     1
 90
        8
176
     1
 62
   257
176
     1
 40
1.0
176
     1
 90
        1
176
     1
 90
        6
176
     1
 90
        2
176
     1
 62
     7
176
     1
 90
        3
176
     1
 90
        0
176
     1
 90
        0
176
     1
290
     0
176
     1
 90
       13
176
     1
 40
0.0
176
     1
 90
        0
176
     1
290
     0
176
     1
290
     1
176
     1
290
     1
176
     1
290
     0
176
     1
290
     0
176
     1
290
     0
176
     1
290
     0
176
     1
290
     0
176
     1
290
     0
176
     1
 90
       50
176
     1
 40
0.0
176
     1
 40
1.0
176
     1
 90
        0
176
     1
 62
    18
420
        0
176
     1
 90
       50
176
     1
 90
        3
176
     1
 62
     5
420
      255
176
     1
290
     0
176
     1
 90
       50
176
     1
 90
       50
176
     1
 90
       50
176
     1
290
     0
176
     1
 90
       50
176
     1
 62
   256
176
     0
 40
1.0
176
     0
 90
        2
176
     1
  1
strokes_ogs.tif
176
     1
290
     0
176
     1
 40
1.0
176
     1
 40
1.0
176
     1
  0
VISUALSTYLE
  5
42
102
{ACAD_REACTORS
330
2A
102
}
330
2A
100
AcDbVisualStyle
  2
Shaded
 70
    27
177
     3
291
     0
 70
    58
 90
        2
176
     1
 90
        2
176
     1
 90
        1
176
     1
 90
        2
176
     1
 40
0.6
176
     1
 40
30.0
176
     1
 62
     7
420
 16777215
176
     1
 90
        0
176
     1
 90
        4
176
     1
 62
     7
176
     1
 62
   257
176
     1
 90
        1
176
     1
 90
        1
176
     1
 40
1.0
176
     1
 90
        8
176
     1
 62
   257
176
     1
 40
1.0
176
     1
 90
        1
176
     1
 90
        6
176
     1
 90
        2
176
     1
 62
     8
420
  7895160
176
     1
 90
        3
176
     1
 90
        0
176
     1
 90
        0
176
     1
290
     0
176
     1
 90
        5
176
     1
 40
0.0
176
     1
 90
        0
176
     1
290
     0
176
     1
290
     1
176
     1
290
     1
176
     1
290
     0
176
     1
290
     0
176
     1
290
     0
176
     1
290
     0
176
     1
290
     0
176
     1
290
     0
176
     1
 90
       50
176
     1
 40
0.0
176
     1
 40
1.0
176
     1
 90
        0
176
     1
 62
    18
420
        0
176
     1
 90
       50
176
     1
 90
        3
176
     1
 62
     5
420
      255
176
     1
290
     0
176
     1
 90
       50
176
     1
 90
       50
176
     1
 90
       50
176
     1
290
     0
176
     1
 90
       50
176
     1
 62
   256
176
     0
 40
1.0
176
     0
 90
        2
176
     1
  1
strokes_ogs.tif
176
     1
290
     0
176
     1
 40
1.0
176
     1
 40
1.0
176
     1
  0
VISUALSTYLE
  5
41
102
{ACAD_REACTORS
330
2A
102
}
330
2A
100
AcDbVisualStyle
  2
Shaded with edges
 70
    26
177
     3
291
     0
 70
    58
 90
        2
176
     1
 90
        2
176
     1
 90
        1
176
     1
 90
        2
176
     1
 40
0.6
176
     1
 40
30.0
176
     1
 62
     7
420
 16777215
176
     1
 90
        1
176
     1
 90
        2
176
     1
 62
     7
176
     1
 62
   257
176
     1
 90
        2
176
     1
 90
        1
176
     1
 40
1.0
176
     1
 90
        8
176
     1
 62
   257
176
     1
 40
1.0
176
     1
 90
        1
176
     1
 90
        6
176
     1
 90
        2
176
     1
 62
     7
176
     1
 90
        3
176
     1
 90
        0
176
     1
 90
        0
176
     1
290
     0
176
     1
 90
        5
176
     1
 40
0.0
176
     1
 90
        0
176
     1
290
     0
176
     1
290
     1
176
     1
290
     1
176
     1
290
     0
176
     1
290
     0
176
     1
290
     0
176
     1
290
     0
176
     1
290
     0
176
     1
290
     0
176
     1
 90
       50
176
     1
 40
0.0
176
     1
 40
1.0
176
     1
 90
        0
176
     1
 62
    18
420
        0
176
     1
 90
       50
176
     1
 90
        3
176
     1
 62
     5
420
      255
176
     1
290
     0
176
     1
 90
       50
176
     1
 90
       50
176
     1
 90
       50
176
     1
290
     0
176
     1
 90
       50
176
     1
 62
   256
176
     0
 40
1.0
176
     0
 90
        2
176
     1
  1
strokes_ogs.tif
176
     1
290
     0
176
     1
 40
1.0
176
     1
 40
1.0
176
     1
  0
VISUALSTYLE
  5
3E
102
{ACAD_REACTORS
330
2A
102
}
330
2A
100
AcDbVisualStyle
  2
Shades of Gray
 70
    23
177
     3
291
     0
 70
    58
 90
        2
176
     1
 90
        2
176
     1
 90
        3
176
     1
 90
        0
176
     1
 40
0.6
176
     1
 40
30.0
176
     1
 62
     7
420
 16777215
176
     1
 90
        2
176
     1
 90
        2
176
     1
 62
     7
176
     1
 62
     7
176
     1
 90
        1
176
     1
 90
        1
176
     1
 40
40.0
176
     1
 90
        8
176
     1
 62
     7
176
     1
 40
1.0
176
     1
 90
        1
176
     1
 90
        6
176
     1
 90
        2
176
     1
 62
     7
176
     1
 90
        3
176
     1
 90
        0
176
     1
 90
        0
176
     1
290
     0
176
     1
 90
        1
176
     1
 40
0.0
176
     1
 90
        0
176
     1
290
     0
176
     1
290
     1
176
     1
290
     1
176
     1
290
     0
176
     1
290
     0
176
     1
290
     0
176
     1
290
     0
176
     1
290
     0
176
     1
290
     0
176
     1
 90
       50
176
     1
 40
0.0
176
     1
 40
1.0
176
     1
 90
        0
176
     1
 62
    18
420
        0
176
     1
 90
       50
176
     1
 90
        3
176
     1
 62
     5
420
      255
176
     1
290
     0
176
     1
 90
       50
176
     1
 90
       50
176
     1
 90
       50
176
     1
290
     0
176
     1
 90
       50
176
     1
 62
   256
176
     0
 40
1.0
176
     0
 90
        2
176
     1
  1
strokes_ogs.tif
176
     1
290
     0
176
     1
 40
1.0
176
     1
 40
1.0
176
     1
  0
VISUALSTYLE
  5
3F
102
{ACAD_REACTORS
330
2A
102
}
330
2A
100
AcDbVisualStyle
  2
Sketchy
 70
    24
177
     3
291
     0
 70
    58
 90
        1
176
     1
 90
        2
176
     1
 90
        2
176
     1
 90
        0
176
     1
 40
0.6
176
     1
 40
30.0
176
     1
 62
     7
420
 16777215
176
     1
 90
        2
176
     1
 90
        2
176
     1
 62
     7
176
     1
 62
     7
176
     1
 90
        1
176
     1
 90
        1
176
     1
 40
40.0
176
     1
 90
       11
176
     1
 62
     7
176
     1
 40
1.0
176
     1
 90
        1
176
     1
 90
        6
176
     1
 90
        2
176
     1
 62
     7
176
     1
 90
        6
176
     1
 90
        0
176
     1
 90
        0
176
     1
290
     0
176
     1
 90
        1
176
     1
 40
0.0
176
     1
 90
        0
176
     1
290
     0
176
     1
290
     1
176
     1
290
     1
176
     1
290
     0
176
     1
290
     0
176
     1
290
     0
176
     1
290
     0
176
     1
290
     0
176
     1
290
     0
176
     1
 90
       50
176
     1
 40
0.0
176
     1
 40
1.0
176
     1
 90
        0
176
     1
 62
    18
420
        0
176
     1
 90
       50
176
     1
 90
        3
176
     1
 62
     5
420
      255
176
     1
290
     0
176
     1
 90
       50
176
     1
 90
       50
176
     1
 90
       50
176
     1
290
     0
176
     1
 90
       50
176
     1
 62
   256
176
     0
 40
1.0
176
     0
 90
        2
176
     1
  1
strokes_ogs.tif
176
     1
290
     0
176
     1
 40
1.0
176
     1
 40
1.0
176
     1
  0
VISUALSTYLE
  5
37
102
{ACAD_REACTORS
330
2A
102
}
330
2A
100
AcDbVisualStyle
  2
Thicken
 70
    13
177
     3
291
     1
 70
    58
 90
        2
176
     1
 90
        2
176
     1
 90
        0
176
     1
 90
        0
176
     1
 40
0.6
176
     1
 40
30.0
176
     1
 62
     7
420
 16777215
176
     1
 90
        1
176
     1
 90
        4
176
     1
 62
     7
176
     1
 62
   257
176
     1
 90
        1
176
     1
 90
        1
176
     1
 40
1.0
176
     1
 90
       12
176
     1
 62
     7
176
     1
 40
1.0
176
     1
 90
        1
176
     1
 90
        6
176
     1
 90
        2
176
     1
 62
     7
176
     1
 90
        5
176
     1
 90
        0
176
     1
 90
        0
176
     1
290
     0
176
     1
 90
        1
176
     1
 40
0.0
176
     1
 90
        0
176
     1
290
     0
176
     1
290
     1
176
     1
290
     1
176
     1
290
     0
176
     1
290
     0
176
     1
290
     0
176
     1
290
     0
176
     1
290
     0
176
     1
290
     0
176
     1
 90
       50
176
     1
 40
0.0
176
     1
 40
1.0
176
     1
 90
        0
176
     1
 62
    18
420
        0
176
     1
 90
       50
176
     1
 90
        3
176
     1
 62
     5
420
      255
176
     1
290
     0
176
     1
 90
       50
176
     1
 90
       50
176
     1
 90
       50
176
     1
290
     0
176
     1
 90
       50
176
     1
 62
   256
176
     0
 40
1.0
176
     0
 90
        2
176
     1
  1
strokes_ogs.tif
176
     1
290
     0
176
     1
 40
1.0
176
     1
 40
1.0
176
     1
  0
VISUALSTYLE
  5
30
102
{ACAD_REACTORS
330
2A
102
}
330
2A
100
AcDbVisualStyle
  2
Wireframe
 70
     5
177
     3
291
     0
 70
    58
 90
        0
176
     1
 90
        2
176
     1
 90
        0
176
     1
 90
        0
176
     1
 40
0.6
176
     1
 40
30.0
176
     1
 62
     7
420
 16777215
176
     1
 90
        1
176
     1
 90
        4
176
     1
 62
     7
176
     1
 62
   257
176
     1
 90
        1
176
     1
 90
        1
176
     1
 40
1.0
176
     1
 90
        0
176
     1
 62
   257
176
     1
 40
1.0
176
     1
 90
        1
176
     1
 90
        6
176
     1
 90
        2
176
     1
 62
     7
176
     1
 90
        3
176
     1
 90
        0
176
     1
 90
        0
176
     1
290
     0
176
     1
 90
        1
176
     1
 40
0.0
176
     1
 90
        0
176
     1
290
     0
176
     1
290
     1
176
     1
290
     1
176
     1
290
     0
176
     1
290
     0
176
     1
290
     0
176
     1
290
     0
176
     1
290
     0
176
     1
290
     0
176
     1
 90
       50
176
     1
 40
0.0
176
     1
 40
1.0
176
     1
 90
        0
176
     1
 62
    18
420
        0
176
     1
 90
       50
176
     1
 90
        3
176
     1
 62
     5
420
      255
176
     1
290
     0
176
     1
 90
       50
176
     1
 90
       50
176
     1
 90
       50
176
     1
290
     0
176
     1
 90
       50
176
     1
 62
   256
176
     0
 40
1.0
176
     0
 90
        2
176
     1
  1
strokes_ogs.tif
176
     1
290
     0
176
     1
 40
1.0
176
     1
 40
1.0
176
     1
  0
VISUALSTYLE
  5
40
102
{ACAD_REACTORS
330
2A
102
}
330
2A
100
AcDbVisualStyle
  2
X-Ray
 70
    25
177
     3
291
     0
 70
    58
 90
        2
176
     1
 90
        2
176
     1
 90
        1
176
     1
 90
        1
176
     1
 40
0.5
176
     1
 40
30.0
176
     1
 62
     7
420
 16777215
176
     1
 90
        1
176
     1
 90
        0
176
     1
 62
     7
176
     1
 62
   257
176
     1
 90
        1
176
     1
 90
        1
176
     1
 40
1.0
176
     1
 90
        8
176
     1
 62
     7
176
     1
 40
1.0
176
     1
 90
        1
176
     1
 90
        6
176
     1
 90
        2
176
     1
 62
     7
176
     1
 90
        3
176
     1
 90
        0
176
     1
 90
        0
176
     1
290
     0
176
     1
 90
       13
176
     1
 40
0.0
176
     1
 90
        0
176
     1
290
     0
176
     1
290
     1
176
     1
290
     1
176
     1
290
     0
176
     1
290
     0
176
     1
290
     0
176
     1
290
     0
176
     1
290
     0
176
     1
290
     0
176
     1
 90
       50
176
     1
 40
0.0
176
     1
 40
1.0
176
     1
 90
        0
176
     1
 62
    18
420
        0
176
     1
 90
       50
176
     1
 90
        3
176
     1
 62
     5
420
      255
176
     1
290
     0
176
     1
 90
       50
176
     1
 90
       50
176
     1
 90
       50
176
     1
290
     0
176
     1
 90
       50
176
     1
 62
   256
176
     0
 40
1.0
176
     0
 90
        2
176
     1
  1
strokes_ogs.tif
176
     1
290
     0
176
     1
 40
1.0
176
     1
 40
1.0
176
     1
  0
DICTIONARYVAR
  5
2E6
102
{ACAD_REACTORS
330
2E5
102
}
330
2E5
100
DictionaryVariables
280
     0
  1
1:1
  0
DICTIONARYVAR
  5
2E8
102
{ACAD_REACTORS
330
2E5
102
}
330
2E5
100
DictionaryVariables
280
     0
  1
STANDARD
  0
DICTIONARYVAR
  5
2E7
102
{ACAD_REACTORS
330
2E5
102
}
330
2E5
100
DictionaryVariables
280
     0
  1
STANDARD
  0
DICTIONARYVAR
  5
56D
102
{ACAD_REACTORS
330
2E5
102
}
330
2E5
100
DictionaryVariables
280
     0
  1
Metric50
  0
DICTIONARYVAR
  5
56E
102
{ACAD_REACTORS
330
2E5
102
}
330
2E5
100
DictionaryVariables
280
     0
  1
Metric50
  0
XRECORD
  5
580
102
{ACAD_REACTORS
330
57F
102
}
330
57F
100
AcDbXrecord
280
     1
330
57D
  0
DICTIONARY
  5
585
330
6A
100
AcDbDictionary
280
     1
281
     1
  3
ACAD_ROUNDTRIP_2008_TABLESTYLE_CELLSTYLEMAP
360
586
  0
CELLSTYLEMAP
  5
586
102
{ACAD_REACTORS
330
585
102
}
330
585
100
AcDbCellStyleMap
 90
        3
300
CELLSTYLE
  1
TABLEFORMAT_BEGIN
 90
        5
170
     1
 91
        0
 92
    32768
 62
   257
 93
        1
300
CONTENTFORMAT
  1
CONTENTFORMAT_BEGIN
 90
        0
 91
        0
 92
        4
 93
        0
300

 40
0.0
140
1.0
 94
        5
 62
     0
340
11
144
0.25
309
CONTENTFORMAT_END
171
     1
301
MARGIN
  1
CELLMARGIN_BEGIN
 40
0.06
 40
0.06
 40
0.06
 40
0.06
 40
0.06
 40
0.06
309
CELLMARGIN_END
 94
        6
 95
        1
302
GRIDFORMAT
  1
GRIDFORMAT_BEGIN
 90
        0
 91
        1
 62
     0
 92
       -2
340
14
 93
        0
 40
0.045
309
GRIDFORMAT_END
 95
        2
302
GRIDFORMAT
  1
GRIDFORMAT_BEGIN
 90
        0
 91
        1
 62
     0
 92
       -2
340
14
 93
        0
 40
0.045
309
GRIDFORMAT_END
 95
        4
302
GRIDFORMAT
  1
GRIDFORMAT_BEGIN
 90
        0
 91
        1
 62
     0
 92
       -2
340
14
 93
        0
 40
0.045
309
GRIDFORMAT_END
 95
        8
302
GRIDFORMAT
  1
GRIDFORMAT_BEGIN
 90
        0
 91
        1
 62
     0
 92
       -2
340
14
 93
        0
 40
0.045
309
GRIDFORMAT_END
 95
       16
302
GRIDFORMAT
  1
GRIDFORMAT_BEGIN
 90
        0
 91
        1
 62
     0
 92
       -2
340
14
 93
        0
 40
0.045
309
GRIDFORMAT_END
 95
       32
302
GRIDFORMAT
  1
GRIDFORMAT_BEGIN
 90
        0
 91
        1
 62
     0
 92
       -2
340
14
 93
        0
 40
0.045
309
GRIDFORMAT_END
309
TABLEFORMAT_END
  1
CELLSTYLE_BEGIN
 90
        1
 91
        1
300
_TITLE
309
CELLSTYLE_END
300
CELLSTYLE
  1
TABLEFORMAT_BEGIN
 90
        5
170
     1
 91
        0
 92
        0
 62
   257
 93
        1
300
CONTENTFORMAT
  1
CONTENTFORMAT_BEGIN
 90
        0
 91
        0
 92
        4
 93
        0
300

 40
0.0
140
1.0
 94
        5
 62
     0
340
11
144
0.18
309
CONTENTFORMAT_END
171
     1
301
MARGIN
  1
CELLMARGIN_BEGIN
 40
0.06
 40
0.06
 40
0.06
 40
0.06
 40
0.06
 40
0.06
309
CELLMARGIN_END
 94
        6
 95
        1
302
GRIDFORMAT
  1
GRIDFORMAT_BEGIN
 90
        0
 91
        1
 62
     0
 92
       -2
340
14
 93
        0
 40
0.045
309
GRIDFORMAT_END
 95
        2
302
GRIDFORMAT
  1
GRIDFORMAT_BEGIN
 90
        0
 91
        1
 62
     0
 92
       -2
340
14
 93
        0
 40
0.045
309
GRIDFORMAT_END
 95
        4
302
GRIDFORMAT
  1
GRIDFORMAT_BEGIN
 90
        0
 91
        1
 62
     0
 92
       -2
340
14
 93
        0
 40
0.045
309
GRIDFORMAT_END
 95
        8
302
GRIDFORMAT
  1
GRIDFORMAT_BEGIN
 90
        0
 91
        1
 62
     0
 92
       -2
340
14
 93
        0
 40
0.045
309
GRIDFORMAT_END
 95
       16
302
GRIDFORMAT
  1
GRIDFORMAT_BEGIN
 90
        0
 91
        1
 62
     0
 92
       -2
340
14
 93
        0
 40
0.045
309
GRIDFORMAT_END
 95
       32
302
GRIDFORMAT
  1
GRIDFORMAT_BEGIN
 90
        0
 91
        1
 62
     0
 92
       -2
340
14
 93
        0
 40
0.045
309
GRIDFORMAT_END
309
TABLEFORMAT_END
  1
CELLSTYLE_BEGIN
 90
        2
 91
        1
300
_HEADER
309
CELLSTYLE_END
300
CELLSTYLE
  1
TABLEFORMAT_BEGIN
 90
        5
170
     1
 91
        0
 92
        0
 62
   257
 93
        1
300
CONTENTFORMAT
  1
CONTENTFORMAT_BEGIN
 90
        0
 91
        0
 92
        4
 93
        0
300

 40
0.0
140
1.0
 94
        2
 62
     0
340
11
144
0.18
309
CONTENTFORMAT_END
171
     1
301
MARGIN
  1
CELLMARGIN_BEGIN
 40
0.06
 40
0.06
 40
0.06
 40
0.06
 40
0.06
 40
0.06
309
CELLMARGIN_END
 94
        6
 95
        1
302
GRIDFORMAT
  1
GRIDFORMAT_BEGIN
 90
        0
 91
        1
 62
     0
 92
       -2
340
14
 93
        0
 40
0.045
309
GRIDFORMAT_END
 95
        2
302
GRIDFORMAT
  1
GRIDFORMAT_BEGIN
 90
        0
 91
        1
 62
     0
 92
       -2
340
14
 93
        0
 40
0.045
309
GRIDFORMAT_END
 95
        4
302
GRIDFORMAT
  1
GRIDFORMAT_BEGIN
 90
        0
 91
        1
 62
     0
 92
       -2
340
14
 93
        0
 40
0.045
309
GRIDFORMAT_END
 95
        8
302
GRIDFORMAT
  1
GRIDFORMAT_BEGIN
 90
        0
 91
        1
 62
     0
 92
       -2
340
14
 93
        0
 40
0.045
309
GRIDFORMAT_END
 95
       16
302
GRIDFORMAT
  1
GRIDFORMAT_BEGIN
 90
        0
 91
        1
 62
     0
 92
       -2
340
14
 93
        0
 40
0.045
309
GRIDFORMAT_END
 95
       32
302
GRIDFORMAT
  1
GRIDFORMAT_BEGIN
 90
        0
 91
        1
 62
     0
 92
       -2
340
14
 93
        0
 40
0.045
309
GRIDFORMAT_END
309
TABLEFORMAT_END
  1
CELLSTYLE_BEGIN
 90
        3
 91
        2
300
_DATA
309
CELLSTYLE_END
  0
ENDSEC
  0
EOF
