  0
SECTION
  2
HEADER
  9
$ACADVER
  1
AC1032
  9
$ACADMAINTVER
 90
      197
  9
$DWGCODEPAGE
  3
ANSI_1252
  9
$LASTSAVEDBY
  1
ASUS
  9
$REQUIREDVERSIONS
160
                 0
  9
$INSBASE
 10
0.0
 20
0.0
 30
0.0
  9
$EXTMIN
 10
-0.0000000000002025
 20
24.46489859270196
 30
0.0
  9
$EXTMAX
 10
19.59999999999821
 20
34.06489859270073
 30
0.0
  9
$LIMMIN
 10
0.0
 20
0.0
  9
$LIMMAX
 10
12.0
 20
9.0
  9
$ORTHOMODE
 70
     0
  9
$REGENMODE
 70
     1
  9
$FILLMODE
 70
     1
  9
$QTEXTMODE
 70
     0
  9
$MIRRTEXT
 70
     1
  9
$LTSCALE
 40
1.0
  9
$ATTMODE
 70
     1
  9
$TEXTSIZE
 40
0.2
  9
$TRACEWID
 40
0.05
  9
$TEXTSTYLE
  7
Standard
  9
$CLAYER
  8
0
  9
$CELTYPE
  6
ByLayer
  9
$CECOLOR
 62
   256
  9
$CELTSCALE
 40
1.0
  9
$DISPSILH
 70
     0
  9
$DIMSCALE
 40
1.0
  9
$DIMASZ
 40
0.18
  9
$DIMEXO
 40
0.0625
  9
$DIMDLI
 40
0.38
  9
$DIMRND
 40
0.0
  9
$DIMDLE
 40
0.0
  9
$DIMEXE
 40
0.18
  9
$DIMTP
 40
0.0
  9
$DIMTM
 40
0.0
  9
$DIMTXT
 40
0.18
  9
$DIMCEN
 40
0.09
  9
$DIMTSZ
 40
0.0
  9
$DIMTOL
 70
     0
  9
$DIMLIM
 70
     0
  9
$DIMTIH
 70
     1
  9
$DIMTOH
 70
     1
  9
$DIMSE1
 70
     0
  9
$DIMSE2
 70
     0
  9
$DIMTAD
 70
     0
  9
$DIMZIN
 70
     0
  9
$DIMBLK
  1

  9
$DIMASO
 70
     1
  9
$DIMSHO
 70
     1
  9
$DIMPOST
  1

  9
$DIMAPOST
  1

  9
$DIMALT
 70
     0
  9
$DIMALTD
 70
     2
  9
$DIMALTF
 40
25.4
  9
$DIMLFAC
 40
1.0
  9
$DIMTOFL
 70
     0
  9
$DIMTVP
 40
0.0
  9
$DIMTIX
 70
     0
  9
$DIMSOXD
 70
     0
  9
$DIMSAH
 70
     0
  9
$DIMBLK1
  1

  9
$DIMBLK2
  1

  9
$DIMSTYLE
  2
Standard
  9
$DIMCLRD
 70
     0
  9
$DIMCLRE
 70
     0
  9
$DIMCLRT
 70
     0
  9
$DIMTFAC
 40
1.0
  9
$DIMGAP
 40
0.09
  9
$DIMJUST
 70
     0
  9
$DIMSD1
 70
     0
  9
$DIMSD2
 70
     0
  9
$DIMTOLJ
 70
     1
  9
$DIMTZIN
 70
     0
  9
$DIMALTZ
 70
     0
  9
$DIMALTTZ
 70
     0
  9
$DIMUPT
 70
     0
  9
$DIMDEC
 70
     4
  9
$DIMTDEC
 70
     4
  9
$DIMALTU
 70
     2
  9
$DIMALTTD
 70
     2
  9
$DIMTXSTY
  7
Standard
  9
$DIMAUNIT
 70
     0
  9
$DIMADEC
 70
     0
  9
$DIMALTRND
 40
0.0
  9
$DIMAZIN
 70
     0
  9
$DIMDSEP
 70
    46
  9
$DIMATFIT
 70
     3
  9
$DIMFRAC
 70
     0
  9
$DIMLDRBLK
  1

  9
$DIMLUNIT
 70
     2
  9
$DIMLWD
 70
    -2
  9
$DIMLWE
 70
    -2
  9
$DIMTMOVE
 70
     0
  9
$DIMFXL
 40
1.0
  9
$DIMFXLON
 70
     0
  9
$DIMJOGANG
 40
0.7853981633974483
  9
$DIMTFILL
 70
     0
  9
$DIMTFILLCLR
 70
     0
  9
$DIMARCSYM
 70
     0
  9
$DIMLTYPE
  6

  9
$DIMLTEX1
  6

  9
$DIMLTEX2
  6

  9
$DIMTXTDIRECTION
 70
     0
  9
$LUNITS
 70
     2
  9
$LUPREC
 70
     4
  9
$SKETCHINC
 40
0.1
  9
$FILLETRAD
 40
0.5
  9
$AUNITS
 70
     0
  9
$AUPREC
 70
     0
  9
$MENU
  1
.
  9
$ELEVATION
 40
0.0
  9
$PELEVATION
 40
0.0
  9
$THICKNESS
 40
0.0
  9
$LIMCHECK
 70
     0
  9
$CHAMFERA
 40
0.0
  9
$CHAMFERB
 40
0.0
  9
$CHAMFERC
 40
0.0
  9
$CHAMFERD
 40
0.0
  9
$SKPOLY
 70
     0
  9
$TDCREATE
 40
2460319.075648148
  9
$TDUCREATE
 40
2460319.283986192
  9
$TDUPDATE
 40
2460323.081944444
  9
$TDUUPDATE
 40
2460323.290277778
  9
$TDINDWG
 40
0.0011805671
  9
$TDUSRTIMER
 40
0.0011805671
  9
$USRTIMER
 70
     1
  9
$ANGBASE
 50
0.0
  9
$ANGDIR
 70
     0
  9
$PDMODE
 70
     0
  9
$PDSIZE
 40
0.0
  9
$PLINEWID
 40
0.0
  9
$SPLFRAME
 70
     0
  9
$SPLINETYPE
 70
     6
  9
$SPLINESEGS
 70
     8
  9
$HANDSEED
  5
542
  9
$SURFTAB1
 70
     6
  9
$SURFTAB2
 70
     6
  9
$SURFTYPE
 70
     6
  9
$SURFU
 70
     6
  9
$SURFV
 70
     6
  9
$UCSBASE
  2

  9
$UCSNAME
  2

  9
$UCSORG
 10
0.0
 20
0.0
 30
0.0
  9
$UCSXDIR
 10
1.0
 20
0.0
 30
0.0
  9
$UCSYDIR
 10
0.0
 20
1.0
 30
0.0
  9
$UCSORTHOREF
  2

  9
$UCSORTHOVIEW
 70
     0
  9
$UCSORGTOP
 10
0.0
 20
0.0
 30
0.0
  9
$UCSORGBOTTOM
 10
0.0
 20
0.0
 30
0.0
  9
$UCSORGLEFT
 10
0.0
 20
0.0
 30
0.0
  9
$UCSORGRIGHT
 10
0.0
 20
0.0
 30
0.0
  9
$UCSORGFRONT
 10
0.0
 20
0.0
 30
0.0
  9
$UCSORGBACK
 10
0.0
 20
0.0
 30
0.0
  9
$PUCSBASE
  2

  9
$PUCSNAME
  2

  9
$PUCSORG
 10
0.0
 20
0.0
 30
0.0
  9
$PUCSXDIR
 10
1.0
 20
0.0
 30
0.0
  9
$PUCSYDIR
 10
0.0
 20
1.0
 30
0.0
  9
$PUCSORTHOREF
  2

  9
$PUCSORTHOVIEW
 70
     0
  9
$PUCSORGTOP
 10
0.0
 20
0.0
 30
0.0
  9
$PUCSORGBOTTOM
 10
0.0
 20
0.0
 30
0.0
  9
$PUCSORGLEFT
 10
0.0
 20
0.0
 30
0.0
  9
$PUCSORGRIGHT
 10
0.0
 20
0.0
 30
0.0
  9
$PUCSORGFRONT
 10
0.0
 20
0.0
 30
0.0
  9
$PUCSORGBACK
 10
0.0
 20
0.0
 30
0.0
  9
$USERI1
 70
     0
  9
$USERI2
 70
     0
  9
$USERI3
 70
     0
  9
$USERI4
 70
     0
  9
$USERI5
 70
     0
  9
$USERR1
 40
0.0
  9
$USERR2
 40
0.0
  9
$USERR3
 40
0.0
  9
$USERR4
 40
0.0
  9
$USERR5
 40
0.0
  9
$WORLDVIEW
 70
     1
  9
$SHADEDGE
 70
     3
  9
$SHADEDIF
 70
    70
  9
$TILEMODE
 70
     1
  9
$MAXACTVP
 70
    64
  9
$PINSBASE
 10
0.0
 20
0.0
 30
0.0
  9
$PLIMCHECK
 70
     0
  9
$PEXTMIN
 10
1.000000000000000E+20
 20
1.000000000000000E+20
 30
1.000000000000000E+20
  9
$PEXTMAX
 10
-1.000000000000000E+20
 20
-1.000000000000000E+20
 30
-1.000000000000000E+20
  9
$PLIMMIN
 10
0.0
 20
0.0
  9
$PLIMMAX
 10
12.0
 20
9.0
  9
$UNITMODE
 70
     0
  9
$VISRETAIN
 70
     1
  9
$PLINEGEN
 70
     0
  9
$PSLTSCALE
 70
     1
  9
$TREEDEPTH
 70
  3020
  9
$CMLSTYLE
  2
Standard
  9
$CMLJUST
 70
     0
  9
$CMLSCALE
 40
1.0
  9
$PROXYGRAPHICS
 70
     1
  9
$MEASUREMENT
 70
     1
  9
$CELWEIGHT
370
    -1
  9
$ENDCAPS
280
     0
  9
$JOINSTYLE
280
     0
  9
$LWDISPLAY
290
     0
  9
$INSUNITS
 70
     5
  9
$HYPERLINKBASE
  1

  9
$STYLESHEET
  1

  9
$XEDIT
290
     1
  9
$CEPSNTYPE
380
     0
  9
$PSTYLEMODE
290
     1
  9
$FINGERPRINTGUID
  2
{bb2c9bfb-16b7-4e86-a5e5-35503624944c}
  9
$VERSIONGUID
  2
{BE18CDA2-4C13-304E-B4F0-2AFC63E46B83}
  9
$EXTNAMES
290
     1
  9
$PSVPSCALE
 40
0.0
  9
$OLESTARTUP
290
     0
  9
$SORTENTS
280
   127
  9
$INDEXCTL
280
     0
  9
$HIDETEXT
280
     1
  9
$XCLIPFRAME
280
     2
  9
$HALOGAP
280
     0
  9
$OBSCOLOR
 70
   257
  9
$OBSLTYPE
280
     0
  9
$INTERSECTIONDISPLAY
280
     0
  9
$INTERSECTIONCOLOR
 70
   257
  9
$DIMASSOC
280
     2
  9
$PROJECTNAME
  1

  9
$CAMERADISPLAY
290
     0
  9
$LENSLENGTH
 40
50.0
  9
$CAMERAHEIGHT
 40
0.0
  9
$STEPSPERSEC
 40
2.0
  9
$STEPSIZE
 40
6.0
  9
$3DDWFPREC
 40
2.0
  9
$PSOLWIDTH
 40
0.25
  9
$PSOLHEIGHT
 40
4.0
  9
$LOFTANG1
 40
1.570796326794896
  9
$LOFTANG2
 40
1.570796326794896
  9
$LOFTMAG1
 40
0.0
  9
$LOFTMAG2
 40
0.0
  9
$LOFTPARAM
 70
     7
  9
$LOFTNORMALS
280
     1
  9
$LATITUDE
 40
37.795
  9
$LONGITUDE
 40
-122.394
  9
$NORTHDIRECTION
 40
0.0
  9
$TIMEZONE
 70
 -8000
  9
$LIGHTGLYPHDISPLAY
280
     1
  9
$TILEMODELIGHTSYNCH
280
     1
  9
$CMATERIAL
347
44
  9
$SOLIDHIST
280
     0
  9
$SHOWHIST
280
     1
  9
$DWFFRAME
280
     2
  9
$DGNFRAME
280
     2
  9
$REALWORLDSCALE
290
     1
  9
$INTERFERECOLOR
 62
   256
  9
$INTERFEREOBJVS
345
33
  9
$INTERFEREVPVS
346
30
  9
$CSHADOW
280
     0
  9
$SHADOWPLANELOCATION
 40
0.0
  0
ENDSEC
  0
SECTION
  2
CLASSES
  0
CLASS
  1
ACDBDICTIONARYWDFLT
  2
AcDbDictionaryWithDefault
  3
ObjectDBX Classes
 90
        0
 91
        1
280
     0
281
     0
  0
CLASS
  1
VISUALSTYLE
  2
AcDbVisualStyle
  3
ObjectDBX Classes
 90
     4095
 91
       24
280
     0
281
     0
  0
CLASS
  1
MATERIAL
  2
AcDbMaterial
  3
ObjectDBX Classes
 90
     1153
 91
        3
280
     0
281
     0
  0
CLASS
  1
SCALE
  2
AcDbScale
  3
ObjectDBX Classes
 90
     1153
 91
       33
280
     0
281
     0
  0
CLASS
  1
TABLESTYLE
  2
AcDbTableStyle
  3
ObjectDBX Classes
 90
     4095
 91
        1
280
     0
281
     0
  0
CLASS
  1
MLEADERSTYLE
  2
AcDbMLeaderStyle
  3
ACDB_MLEADERSTYLE_CLASS
 90
     4095
 91
        1
280
     0
281
     0
  0
CLASS
  1
SUN
  2
AcDbSun
  3
SCENEOE
 90
     1153
 91
        1
280
     0
281
     0
  0
CLASS
  1
DICTIONARYVAR
  2
AcDbDictionaryVar
  3
ObjectDBX Classes
 90
        0
 91
        5
280
     0
281
     0
  0
CLASS
  1
ACDBSECTIONVIEWSTYLE
  2
AcDbSectionViewStyle
  3
ObjectDBX Classes
 90
     1025
 91
        1
280
     0
281
     0
  0
CLASS
  1
ACDBDETAILVIEWSTYLE
  2
AcDbDetailViewStyle
  3
ObjectDBX Classes
 90
     1025
 91
        1
280
     0
281
     0
  0
CLASS
  1
SORTENTSTABLE
  2
AcDbSortentsTable
  3
ObjectDBX Classes
 90
        0
 91
        0
280
     0
281
     0
  0
CLASS
  1
CELLSTYLEMAP
  2
AcDbCellStyleMap
  3
ObjectDBX Classes
 90
     1152
 91
        1
280
     0
281
     0
  0
ENDSEC
  0
SECTION
  2
TABLES
  0
TABLE
  2
VPORT
  5
8
330
0
100
AcDbSymbolTable
 70
     1
  0
VPORT
  5
29
330
8
100
AcDbSymbolTableRecord
100
AcDbViewportTableRecord
  2
*Active
 70
     0
 10
0.0
 20
0.0
 11
1.0
 21
1.0
 12
3.286213319146554
 22
25.95809282880941
 13
0.0
 23
0.0
 14
0.5
 24
0.5
 15
0.5
 25
0.5
 16
0.0
 26
0.0
 36
1.0
 17
0.0
 27
0.0
 37
-1000.0
 40
68.04775160890358
 41
1.891975308641974
 42
50.0
 43
5190.429109765373
 44
12658.2992970297
 50
0.0
 51
0.0
 71
     0
 72
   100
 73
     1
 74
     3
 75
     0
 76
     0
 77
     0
 78
     0
281
     0
 65
     1
110
0.0
120
0.0
130
0.0
111
1.0
121
0.0
131
0.0
112
0.0
122
1.0
132
0.0
 79
     0
146
0.0
348
2F
 60
     3
 61
     5
292
     1
282
     1
141
0.0
142
0.0
361
6D
1001
ACAD_NAV_VCDISPLAY
1070
     3
  0
ENDTAB
  0
TABLE
  2
LTYPE
  5
5
330
0
100
AcDbSymbolTable
 70
     1
  0
LTYPE
  5
14
330
5
100
AcDbSymbolTableRecord
100
AcDbLinetypeTableRecord
  2
ByBlock
 70
     0
  3

 72
    65
 73
     0
 40
0.0
  0
LTYPE
  5
15
330
5
100
AcDbSymbolTableRecord
100
AcDbLinetypeTableRecord
  2
ByLayer
 70
     0
  3

 72
    65
 73
     0
 40
0.0
  0
LTYPE
  5
16
330
5
100
AcDbSymbolTableRecord
100
AcDbLinetypeTableRecord
  2
Continuous
 70
     0
  3
Solid line
 72
    65
 73
     0
 40
0.0
  0
ENDTAB
  0
TABLE
  2
LAYER
  5
2
102
{ACAD_XDICTIONARY
360
52D
102
}
330
0
100
AcDbSymbolTable
 70
     4
  0
LAYER
  5
10
330
2
100
AcDbSymbolTableRecord
100
AcDbLayerTableRecord
  2
0
 70
     0
 62
     7
  6
Continuous
370
    -3
390
F
347
46
348
0
  0
LAYER
  5
6E
330
2
100
AcDbSymbolTableRecord
100
AcDbLayerTableRecord
  2
ProfileEdges
 70
     0
 62
     7
  6
Continuous
370
    -3
390
F
347
46
348
0
  0
LAYER
  5
6F
330
2
100
AcDbSymbolTableRecord
100
AcDbLayerTableRecord
  2
SectionCutEdges
 70
     0
 62
     7
  6
Continuous
370
    -3
390
F
347
46
348
0
  0
LAYER
  5
529
330
2
100
AcDbSymbolTableRecord
100
AcDbLayerTableRecord
  2
ZMURETES
 70
     0
 62
   152
  6
Continuous
370
     9
390
F
347
46
348
0
1001
AcAecLayerStandard
1000

1000

1001
AcCmTransparency
1071
        0
  0
ENDTAB
  0
TABLE
  2
STYLE
  5
3
330
0
100
AcDbSymbolTable
 70
     1
  0
STYLE
  5
11
330
3
100
AcDbSymbolTableRecord
100
AcDbTextStyleTableRecord
  2
Standard
 70
     0
 40
0.0
 41
1.0
 50
0.0
 71
     0
 42
0.2
  3
txt
  4

  0
ENDTAB
  0
TABLE
  2
VIEW
  5
6
330
0
100
AcDbSymbolTable
 70
     0
  0
ENDTAB
  0
TABLE
  2
UCS
  5
7
330
0
100
AcDbSymbolTable
 70
     0
  0
ENDTAB
  0
TABLE
  2
APPID
  5
9
330
0
100
AcDbSymbolTable
 70
     5
  0
APPID
  5
12
330
9
100
AcDbSymbolTableRecord
100
AcDbRegAppTableRecord
  2
ACAD
 70
     0
  0
APPID
  5
526
330
9
100
AcDbSymbolTableRecord
100
AcDbRegAppTableRecord
  2
ACAD_NAV_VCDISPLAY
 70
     0
  0
APPID
  5
52A
330
9
100
AcDbSymbolTableRecord
100
AcDbRegAppTableRecord
  2
AcAecLayerStandard
 70
     0
  0
APPID
  5
52B
330
9
100
AcDbSymbolTableRecord
100
AcDbRegAppTableRecord
  2
AcCmTransparency
 70
     0
  0
APPID
  5
52C
330
9
100
AcDbSymbolTableRecord
100
AcDbRegAppTableRecord
  2
DCO15
 70
     0
  0
ENDTAB
  0
TABLE
  2
DIMSTYLE
  5
A
330
0
100
AcDbSymbolTable
 70
     1
100
AcDbDimStyleTable
 71
     0
  0
DIMSTYLE
105
27
330
A
100
AcDbSymbolTableRecord
100
AcDbDimStyleTableRecord
  2
Standard
 70
     0
340
11
  0
ENDTAB
  0
TABLE
  2
BLOCK_RECORD
  5
1
330
0
100
AcDbSymbolTable
 70
     2
  0
BLOCK_RECORD
  5
1F
330
1
100
AcDbSymbolTableRecord
100
AcDbBlockTableRecord
  2
*Model_Space
340
22
 70
     0
280
     1
281
     0
  0
BLOCK_RECORD
  5
1B
330
1
100
AcDbSymbolTableRecord
100
AcDbBlockTableRecord
  2
*Paper_Space
340
1E
 70
     0
280
     1
281
     0
  0
BLOCK_RECORD
  5
23
330
1
100
AcDbSymbolTableRecord
100
AcDbBlockTableRecord
  2
*Paper_Space0
340
26
 70
     0
280
     1
281
     0
  0
BLOCK_RECORD
  5
2D0
330
1
100
AcDbSymbolTableRecord
100
AcDbBlockTableRecord
  2
posterior
340
0
310
28000000280000002800000001002000000000000019000001000000010000000000000000000000FFFFFFFFFFFFFFFFFFFFFFFFFFFFFFFFFFFFFFFFFFFFFFFFFFFFFFFFFFFFFFFFFFFFFFFFFFFFFFFFFFFFFFFFFFFFFFFFFFFFFFFFFFFFFFFFFFFFFFFFFFFFFFFFFFFFFFFFFFFFFFFFFFFFFFFFFFFFFFFFFFFFFFFFFFFFFF
310
FFFFFFFFFFFFFFFFFFFFFFFFFFFFFFFFFFFFFFFFFFFFFFFFFFFFFFFFFFFFFFFFFFFFFFFFFFFFFFFFFFFFFFFFFFFFFFFFFFFFFFFFFFFFFFFFFFFFFFFFFFFFFFFFFFFFFFFFFFFFFFFFFFFFFFFFFFFFFFFFFFFFFFFFFFFFFFFFFFFFFFFFFFFFFFFFFFFFFFFFFFFFFFFFFFFFFFFFFFFFFFFFFFFFFFFFFFFFFFFFFFFFFFFFFFFFFF
310
FFFFFFFFFFFFFFFFFFFFFFFFFFFFFFFFFFFFFFFFFFFFFFFFFFFFFFFFFFFFFFFFFFFFFFFFFFFFFFFFFFFFFFFFFFFFFFFFFFFFFFFFFFFFFFFFFFFFFFFFFFFFFFFFFFFFFFFFFFFFFFFFFFFFFFFFFFFFFFFFFFFFFFFFFFFFFFFFFFFFFFFFFFFFFFFFFFFFFFFFFFFFFFFFFFFFFFFFFFFFFFFFFFFFFFFFFFFFFFFFFFFFFFFFFFFFFF
310
FFFFFFFFFFFFFFFFFFFFFFFFFFFFFFFFFFFFFFFFFFFFFFFFFFFFFFFFFFFFFFFFFFFFFFFFFFFFFFFFFFFFFFFFFFFFFFFFFFFFFFFFFFFFFFFFFFFFFFFFFFFFFFFFFFFFFFFFFFFFFFFFFFFFFFFFFFFFFFFFFFFFFFFFFFFFFFFFFFFFFFFFFFFFFFFFFFFFFFFFFFFFFFFFFFFFFFFFFFFFFFFFFFFFFFFFFFFFFFFFFFFFFFFFFFFFFF
310
FFFFFFFFFFFFFFFFFFFFFFFFFFFFFFFFFFFFFFFFFFFFFFFFFFFFFFFFFFFFFFFFFFFFFFFFFFFFFFFFFFFFFFFFFFFFFFFFFFFFFFFFFFFFFFFFFFFFFFFFFFFFFFFFFFFFFFFFFFFFFFFFFFFFFFFFFFFFFFFFFFFFFFFFFFFFFFFFFFFFFFFFFFFFFFFFFFFFFFFFFFFFFFFFFFFFFFFFFFFFFFFFFFFFFFFFFFFFFFFFFFFFFFFFFFFFFF
310
FFFFFFFFFFFFFFFFFFFFFFFFFFFFFFFFFFFFFFFFFFFFFFFFFFFFFFFFFFFFFFFFFFFFFFFFFFFFFFFFFFFFFFFFFFFFFFFFFFFFFFFFFFFFFFFFFFFFFFFFFFFFFFFFFFFFFFFFFFFFFFFFFFFFFFFFFFFFFFFFFFFFFFFFFFFFFFFFFFFFFFFFFFFFFFFFFFFFFFFFFFFFFFFFFFFFFFFFFFFFFFFFFFFFFFFFFFFFFFFFFFFFFFFFFFFFFF
310
FFFFFFFFFFFFFFFFFFFFFFFFFFFFFFFFFFFFFFFFFFFFFFFFFFFFFFFFFFFFFFFFFFFFFFFFFFFFFFFFFFFFFFFFFFFFFFFFFFFFFFFFFFFFFFFFFFFFFFFFFFFFFFFFFFFFFFFFFFFFFFFFFFFFFFFFFFFFFFFFFFFFFFFFFFFFFFFFFFFFFFFFFFFFFFFFFFFFFFFFFFFFFFFFFFFFFFFFFFFFFFFFFFFFFFFFFFFFFFFFFFFFFFFFFFFFFF
310
FFFFFFFFFFFFFFFFFFFFFFFFFFFFFFFFFFFFFFFFFFFFFFFFFFFFFFFFFFFFFFFFFFFFFFFFFFFFFFFFFFFFFFFFFFFFFFFFFFFFFFFFFFFFFFFFFFFFFFFFFFFFFFFFFFFFFFFFFFFFFFFFFFFFFFFFFFFFFFFFFFFFFFFFFFFFFFFFFFFFFFFFFFFFFFFFFFFFFFFFFFFFFFFFFFFFFFFFFFFFFFFFFFFFFFFFFFFFFFFFFFFFFFFFFFFFFF
310
FFFFFFFFFFFFFFFFFFFFFFFFFFFFFFFFFFFFFFFFFFFFFFFFFFFFFFFFFFFFFFFFFFFFFFFFFFFFFFFFFFFFFFFFFFFFFFFFFFFFFFFFFFFFFFFFFFFFFFFFFFFFFFFFFFFFFFFFFFFFFFFFFFFFFFFFFFFFFFFFFFFFFFFFFFFFFFFFFFFFFFFFFFFFFFFFFFFFFFFFFFFFFFFFFFFFFFFFFFFFFFFFFFFFFFFFFFFFFFFFFFFFFFFFFFFFFF
310
FFFFFFFFFFFFFFFFFFFFFFFFFFFFFFFFFFFFFFFFFFFFFFFFFFFFFFFFFFFFFFFFFFFFFFFFFFFFFFFFFFFFFFFFFFFFFFFFFFFFFFFFFFFFFFFFFFFFFFFFFFFFFFFFFFFFFFFFFFFFFFFFFFFFFFFFFFFFFFFFFFFFFFFFFFFFFFFFFFFFFFFFFFFFFFFFFFFFFFFFFFFFFFFFFFFFFFFFFFFFFFFFFFFFFFFFFFFFFFFFFFFFFFFFFFFFFF
310
FFFFFFFFFFFFFFFFFFFFFFFFFFFFFFFFFFFFFFFFFFFFFFFFFFFFFFFFFFFFFFFFFFFFFFFFFFFFFFFFFFFFFFFFFFFFFFFFFFFFFFFFFFFFFFFFFFFFFFFFFFFFFFFFFFFFFFFFFFFFFFFFFFFFFFFFFFFFFFFFFFFFFFFFFFFFFFFFFFFFFFFFFFFFFFFFFFFFFFFFFFFFFFFFFFFFFFFFFFFFFFFFFFFFFFFFFFFFFFFFFFFFFFFFFFFFFF
310
FFFFFFFFFFFFFFFFFFFFFFFFFFFFFFFFFFFFFFFFFFFFFFFFFFFFFFFFFFFFFFFFFFFFFFFFFFFFFFFFFFFFFFFFFFFFFFFFFFFFFFFFFFFFFFFFFFFFFFFFFFFFFFFFFFFFFFFFFFFFFFFFFFFFFFFFFFFFFFFFFFFFFFFFFFFFFFFFFFFFFFFFFFFFFFFFFFFFFFFFFFFFFFFFFFFFFFFFFFFFFFFFFFFFFFFFFFFFFFFFFFFFFFFFFFFFFF
310
FFFFFFFFFFFFFFFFFFFFFFFFFFFFFFFFFFFFFFFFFFFFFFFFFFFFFFFFFFFFFFFFFFFFFFFFFFFFFFFFFFFFFFFFFFFFFFFFFFFFFFFFFFFFFFFFFFFFFFFFFFFFFFFFFFFFFFFFFFFFFFFFFFFFFFFFFFFFFFFFFFFFFFFFFFFFFFFFFFFFFFFFFFFFFFFFFFFFFFFFFFFFFFFFFFFFFFFFFFFFFFFFFFFFFFFFFFFFFFFFFFFFFFFFFFFFFF
310
FFFFFFFFFFFFFFFFFFFFFFFFFFFFFFFFFFFFFFFFFFFFFFFFFFFFFFFFFFFFFFFFFFFFFFFFFFFFFFFFFFFFFFFFFFFFFFFFFFFFFFFFFFFFFFFFFFFFFFFFFFFFFFFFFFFFFFFFFFFFFFFFFFFFFFFFFFFFFFFFFFFFFFFFFFFFFFFFFFFFFFFFFFFFFFFFFFFFFFFFFFFFFFFFFFFFFFFFFFFFFFFFFFFFFFFFFFFFFFFFFFFFFFFFFFFFFF
310
FFFFFFFFFFFFFFFFFFFFFFFFFFFFFFFFFFFFFFFFFFFFFFFFFFFFFFFFFFFF000000FFFFFFFFFFFFFFFFFFFFFFFFFFFFFFFFFFFFFFFFFF000000FF000000FF000000FF000000FF000000FF000000FF000000FF000000FF000000FF000000FF000000FF000000FF000000FF000000FF000000FF000000FF000000FF000000FF00
310
0000FF000000FF000000FF000000FF000000FF000000FFFFFFFFFFFFFFFFFFFFFFFFFFFFFFFFFFFFFFFFFF000000FFFFFFFFFFFFFFFFFFFFFFFFFFFFFFFFFF000000FFFFFFFFFFFFFFFFFFFFFFFFFFFFFFFFFFFFFFFFFF000000FFFFFFFFFFFFFFFFFF000000FFFFFFFFFFFFFFFFFFFFFFFFFFFFFFFFFFFFFFFFFFFFFFFFFF
310
FFFFFFFFFFFFFFFFFFFFFFFFFFFFFFFFFFFFFFFFFFFFFFFFFFFFFFFFFFFFFFFFFFFFFFFFFFFFFFFF000000FFFFFFFFFFFFFFFFFF000000FFFFFFFFFFFFFFFFFFFFFFFFFFFFFFFFFFFFFFFFFF000000FFFFFFFFFFFFFFFFFFFFFFFFFFFFFFFFFF000000FFFFFFFFFFFFFFFFFFFFFFFFFFFFFFFFFFFFFFFFFF000000FF000000
310
FF000000FF000000FF000000FF000000FF000000FF000000FF000000FF000000FF000000FF000000FF000000FF000000FF000000FF000000FF000000FF000000FF000000FF000000FF000000FF000000FF000000FF000000FFFFFFFFFFFFFFFFFFFFFFFFFFFFFFFFFFFFFFFFFF000000FFFFFFFFFFFFFFFFFFFFFFFFFFFFFF
310
FFFF000000FFFFFFFFFFFFFFFFFFFFFFFFFFFFFFFFFFFFFFFFFF000000FF000000FF000000FF000000FF000000FF000000FF000000FF000000FF000000FF000000FF000000FF000000FF000000FF000000FF000000FF000000FF000000FF000000FF000000FF000000FF000000FF000000FF000000FF000000FFFFFFFFFFFF
310
FFFFFFFFFFFFFFFFFFFFFFFFFFFFFF000000FFFFFFFFFFFFFFFFFFFFFFFFFFFFFFFFFF000000FFFFFFFFFFFFFFFFFFFFFFFFFFFFFFFFFFFFFFFFFF000000FF000000FF000000FF000000FF000000FF000000FF000000FF000000FF000000FF000000FF000000FF000000FF000000FF000000FF000000FF000000FF000000FF
310
000000FF000000FF000000FF000000FF000000FF000000FF000000FFFFFFFFFFFFFFFFFFFFFFFFFFFFFFFFFFFFFFFFFF000000FFFFFFFFFFFFFFFFFFFFFFFFFFFFFFFFFF000000FFFFFFFFFFFFFFFFFFFFFFFFFFFFFFFFFFFFFFFFFF000000FFFFFFFFFFFFFFFFFF000000FF000000FF000000FF000000FF000000FF000000
310
FF000000FF000000FF000000FF000000FF000000FF000000FF000000FF000000FF000000FF000000FF000000FF000000FFFFFFFFFFFFFFFFFF000000FFFFFFFFFFFFFFFFFFFFFFFFFFFFFFFFFFFFFFFFFF000000FFFFFFFFFFFFFFFFFFFFFFFFFFFFFFFFFF000000FF000000FF000000FF000000FF000000FF000000FF0000
310
00FF000000FF000000FF000000FF000000FF000000FF000000FF000000FF000000FF000000FF000000FF000000FF000000FF000000FF000000FF000000FF000000FF000000FF000000FF000000FF000000FF000000FF000000FF000000FF000000FF000000FF000000FF000000FF000000FF000000FFFFFFFFFFFFFFFFFFFF
310
FFFFFFFFFFFFFF000000FFFFFFFFFFFFFFFFFFFFFFFFFFFFFFFFFFFFFFFFFFFFFFFFFFFFFFFFFFFFFFFFFFFFFFFFFFFFFFFFFFFFFFFFFFFFFFFFFFFFFFFFFFFFFFFFFFFFFFFFFFFFFFFFFFFFFFFFFFFFFFFFFFFFFFFFFFFFFFFFFFFFFFFFFFFFFFFFFFFFFFFFFFFFFFFFFFFFFFFFFFFFFFFFFFFFFFFFFFFFFFFFFFFFFFFFFF
310
FFFFFFFFFFFFFFFFFFFFFFFFFFFFFFFFFFFFFFFF000000FFFFFFFFFFFFFFFFFFFFFFFFFFFFFFFFFF000000FF000000FF000000FF000000FF000000FF000000FF000000FF000000FF000000FF000000FF000000FF000000FF000000FF000000FF000000FF000000FF000000FF000000FF000000FF000000FF000000FF000000
310
FF000000FF000000FF000000FF000000FF000000FF000000FF000000FF000000FF000000FF000000FF000000FF000000FF000000FF000000FFFFFFFFFFFFFFFFFFFFFFFFFFFFFFFFFF000000FF000000FF000000FF000000FF000000FF000000FF000000FF000000FF000000FF000000FF000000FF000000FF000000FF0000
310
00FF000000FF000000FF000000FF000000FF000000FF000000FF000000FF000000FF000000FF000000FF000000FF000000FF000000FF000000FF000000FF000000FF000000FF000000FF000000FF000000FF000000FF000000FFFFFFFFFFFFFFFFFFFFFFFFFFFFFFFFFF000000FF000000FF000000FF000000FF000000FF00
310
0000FF000000FF000000FF000000FF000000FF000000FF000000FF000000FF000000FF000000FF000000FF000000FF000000FF000000FF000000FF000000FF000000FF000000FF000000FF000000FF000000FF000000FF000000FF000000FF000000FF000000FF000000FF000000FF000000FF000000FF000000FFFFFFFFFF
310
FFFFFFFFFFFFFFFFFFFFFFFF000000FFFFFFFFFFFFFFFFFFFFFFFFFFFFFFFFFFFFFFFFFFFFFFFFFFFFFFFFFFFFFFFFFFFFFFFFFFFFFFFFFFFFFFFFFFFFFFFFFFFFFFFFFFFFFFFFFFFFFFFFFFFFFFFFFFFFFFFFFFFFFFFFFFFFFFFFFFFFFFFFFFFFFFFFFFFFFFFFFFFFFFFFFFFFFFFFFFFFFFFFFFFFFFFFFFFFFFFFFFFFFFFF
310
FFFFFFFFFFFFFFFFFFFFFFFFFFFFFFFFFFFFFFFFFFFFFFFFFF000000FFFFFFFFFFFFFFFFFFFFFFFFFFFFFFFFFF000000FF000000FF000000FF000000FF000000FF000000FF000000FF000000FF000000FF000000FF000000FF000000FF000000FF000000FF000000FF000000FF000000FF000000FF000000FF000000FF0000
310
00FF000000FF000000FF000000FF000000FF000000FF000000FF000000FF000000FF000000FF000000FF000000FF000000FF000000FF000000FF000000FFFFFFFFFFFFFFFFFFFFFFFFFFFFFFFFFFFFFFFFFFFFFFFFFFFFFFFFFFFFFFFFFF000000FFFFFFFFFFFFFFFFFFFFFFFFFFFFFFFFFFFFFFFFFF000000FF000000FF00
310
0000FF000000FF000000FF000000FF000000FF000000FF000000FF000000FF000000FF000000FF000000FF000000FF000000FF000000FF000000FF000000FF000000FF000000FF000000FFFFFFFFFF000000FF000000FFFFFFFFFFFFFFFFFFFFFFFFFFFFFFFFFFFFFFFFFFFFFFFFFFFFFFFFFFFFFFFFFFFFFFFFFFFFFFFFFF
310
000000FFFFFFFFFFFFFFFFFFFFFFFFFFFFFFFFFFFFFFFFFF000000FFFFFFFFFFFFFFFFFF000000FF000000FFFFFFFFFFFFFFFFFF000000FF000000FF000000FF000000FF000000FF000000FF000000FFFFFFFFFFFFFFFFFFFFFFFFFFFFFFFFFFFFFFFFFF000000FFFFFFFFFFFFFFFFFF000000FF000000FFFFFFFFFFFFFFFF
310
FFFFFFFFFFFFFFFFFFFFFFFFFFFFFFFFFFFFFFFFFFFFFFFFFFFFFFFFFFFFFFFFFF000000FFFFFFFFFFFFFFFFFFFFFFFFFFFFFFFFFFFFFFFFFF000000FFFFFFFFFFFFFFFFFF000000FF000000FFFFFFFFFFFFFFFFFF000000FF000000FF000000FF000000FF000000FF000000FF000000FFFFFFFFFFFFFFFFFFFFFFFFFFFFFF
310
FFFFFFFFFFFF000000FFFFFFFFFFFFFFFFFF000000FF000000FFFFFFFFFFFFFFFFFFFFFFFFFFFFFFFFFFFFFFFFFFFFFFFFFFFFFFFFFFFFFFFFFFFFFFFFFFFFFFFFFF000000FFFFFFFFFFFFFFFFFFFFFFFFFFFFFFFFFFFFFFFFFF000000FFFFFFFFFFFFFFFFFF000000FF000000FFFFFFFFFFFFFFFFFF000000FF000000FF00
310
0000FF000000FF000000FF000000FF000000FFFFFFFFFFFFFFFFFFFFFFFFFFFFFFFFFFFFFFFFFF000000FFFFFFFFFFFFFFFFFF000000FF000000FFFFFFFFFFFFFFFFFFFFFFFFFFFFFFFFFFFFFFFFFFFFFFFFFFFFFFFFFFFFFFFFFFFFFFFFFFFFFFFFFF000000FF000000FF000000FF000000FF000000FF000000FF000000FF
310
000000FF000000FF000000FF000000FF000000FF000000FF000000FF000000FF000000FF000000FF000000FF000000FF000000FF000000FF000000FF000000FF000000FF000000FF000000FF000000FF000000FF000000FF000000FFFFFFFFFFFFFFFFFFFFFFFFFFFFFFFFFFFFFFFFFFFFFFFFFFFFFFFFFFFFFFFFFFFFFFFF
310
FFFFFFFFFFFFFFFFFFFFFFFFFFFFFFFFFFFFFFFFFFFFFFFFFFFFFFFFFFFFFFFFFFFFFFFFFFFFFFFFFFFFFFFFFFFFFFFFFFFFFFFFFFFFFFFFFFFFFFFFFFFFFFFFFFFFFFFFFFFFFFFFFFFFFFFFFFFFFFFFFFFFFFFFFFFFFFFFFFFFFFFFFFFFFFFFFFFFFFFFFFFFFFFFFFFFFFFFFFFFFFFFFFFFFFFFFFFFFFFFFFFFFFFFFFFFFF
310
FFFFFFFFFFFFFFFFFFFFFFFFFFFFFFFFFFFFFFFFFFFFFFFFFFFFFFFFFFFFFFFFFFFFFFFFFFFFFFFFFFFFFFFFFFFFFFFFFFFFFFFFFFFFFFFFFFFFFFFFFFFFFFFFFFFFFFFFFFFFFFFFFFFFFFFFFFFFFFFFFFFFFFFFFFFFFFFFFFFFFFFFFFFFFFFFFFFFFFFFFFFFFFFFFFFFFFFFFFFFFFFFFFFFFFFFFFFFFFFFFFFFFFFFFFFFFF
310
FFFFFFFFFFFFFFFFFFFFFFFFFFFFFFFFFFFFFFFFFFFFFFFFFFFFFFFFFFFFFFFFFFFFFFFFFFFFFFFFFFFFFFFFFFFFFFFFFFFFFFFFFFFFFFFFFFFFFFFFFFFFFFFFFFFFFFFFFFFFFFFFFFFFFFFFFFFFFFFFFFFFFFFFFFFFFFFFFFFFFFFFFFFFFFFFFFFFFFFFFFFFFFFFFFFFFFFFFFFFFFFFFFFFFFFFFFFFFFFFFFFFFFFFFFFFFF
310
FFFFFFFFFFFFFFFFFFFFFFFFFFFFFFFFFFFFFFFFFFFFFFFFFFFFFFFFFFFFFFFFFFFFFFFFFFFFFFFFFFFFFFFFFFFFFFFFFFFFFFFFFFFFFFFFFFFFFFFFFFFFFFFFFFFFFFFFFFFFFFFFFFFFFFFFFFFFFFFFFFFFFFFFFFFFFFFFFFFFFFFFFFFFFFFFFFFFFFFFFFFFFFFFFFFFFFFFFFFFFFFFFFFFFFFFFFFFFFFFFFFFFFFFFFFFFF
310
FFFFFFFFFFFFFFFFFFFFFFFFFFFFFFFFFFFFFFFFFFFFFFFFFFFFFFFFFFFFFFFFFFFFFFFFFFFFFFFFFFFFFFFFFFFFFFFFFFFFFFFFFFFFFFFFFFFFFFFFFFFFFFFFFFFFFFFFFFFFFFFFFFFFFFFFFFFFFFFFFFFFFFFFFFFFFFFFFFFFFFFFFFFFFFFFFFFFFFFFFFFFFFFFFFFFFFFFFFFFFFFFFFFFFFFFFFFFFFFFFFFFFFFFFFFFFF
310
FFFFFFFFFFFFFFFFFFFFFFFFFFFFFFFFFFFFFFFFFFFFFFFFFFFFFFFFFFFFFFFFFFFFFFFFFFFFFFFFFFFFFFFFFFFFFFFFFFFFFFFFFFFFFFFFFFFFFFFFFFFFFFFFFFFFFFFFFFFFFFFFFFFFFFFFFFFFFFFFFFFFFFFFFFFFFFFFFFFFFFFFFFFFFFFFFFFFFFFFFFFFFFFFFFFFFFFFFFFFFFFFFFFFFFFFFFFFFFFFFFFFFFFFFFFFFF
310
FFFFFFFFFFFFFFFFFFFFFFFFFFFFFFFFFFFFFFFFFFFFFFFFFFFFFFFFFFFFFFFFFFFFFFFFFFFFFFFFFFFFFFFFFFFFFFFFFFFFFFFFFFFFFFFFFFFFFFFFFFFFFFFFFFFFFFFFFFFFFFFFFFFFFFFFFFFFFFFFFFFFFFFFFFFFFFFFFFFFFFFFFFFFFFFFFFFFFFFFFFFFFFFFFFFFFFFFFFFFFFFFFFFFFFFFFFFFFFFFFFFFFFFFFFFFFF
310
FFFFFFFFFFFFFFFFFFFFFFFFFFFFFFFFFFFFFFFFFFFFFFFFFFFFFFFFFFFFFFFFFFFFFFFFFFFFFFFFFFFFFFFFFFFFFFFFFFFFFFFFFFFFFFFFFFFFFFFFFFFFFFFFFFFFFFFFFFFFFFFFFFFFFFFFFFFFFFFFFFFFFFFFFFFFFFFFFFFFFFFFFFFFFFFFFFFFFFFFFFFFFFFFFFFFFFFFFFFFFFFFFFFFFFFFFFFFFFFFFFFFFFFFFFFFFF
310
FFFFFFFFFFFFFFFFFFFFFFFFFFFFFFFFFFFFFFFFFFFFFFFFFFFFFFFFFFFFFFFFFFFFFFFFFFFFFFFFFFFFFFFFFFFFFFFFFFFFFFFFFFFFFFFFFFFFFFFFFFFFFFFFFFFFFFFFFFFFFFFFFFFFFFFFFFFFFFFFFFFFFFFFFFFFFFFFFFFFFFFFFFFFFFFFFFFFFFFFFFFFFFFFFFFFFFFFFFFFFFFFFFFFFFFFFFFFFFFFFFFFFFFFFFFFFF
310
FFFFFFFFFFFFFFFFFFFFFFFFFFFFFFFFFFFFFFFFFFFFFFFFFFFFFFFFFFFFFFFFFFFFFFFFFFFFFFFFFFFFFFFFFFFFFFFFFFFFFFFFFFFFFFFFFFFFFFFFFFFFFFFFFFFFFFFFFFFFFFFFFFFFFFFFFFFFFFFFFFFFFFFFFFFFFFFFFFFFFFFFFFFFFFFFFFFFFFFFFFFFFFFFFFFFFFFFFFFFFFFFFFFFFFFFFFFFFFFFFFFFFFFFFFFFFF
310
FFFFFFFFFFFFFFFFFFFFFFFFFFFFFFFFFFFFFFFFFFFFFFFFFFFFFFFFFFFFFFFFFFFFFFFFFFFFFFFFFFFFFFFFFFFFFFFFFFFFFFFFFFFFFFFFFFFFFFFFFFFFFFFFFFFFFFFFFFFFFFFFFFFFFFFFFFFFFFFFFFFFFFFFFFFFFFFFFFFFFFFFFFFFFFFFFFFFFFFFFFFFFFFFFFFFFFFFFFFFFFFFFFFFFFFFFFFFFFFFFFFFFFFFFFFFFF
310
FFFFFFFFFFFFFFFFFFFFFFFFFFFFFFFFFFFFFFFFFFFFFFFFFFFFFFFFFFFFFFFFFFFFFFFFFFFFFFFFFFFFFFFFFFFFFFFFFFFFFFFFFFFFFFFFFFFFFFFFFFFFFFFFFFFFFFFFFFFFFFFFFFFFFFFFFFFFFFFFFFFFFFFFFFFFFFFFFFFFFFFFFFFFFFFFFFFFFFFFFFFFFFFFFFFFFFFFFFFFFFFFFFFFFFFFFFFFFFFFFFFFFFFFFFFFFF
310
FFFFFFFFFFFFFFFFFFFFFFFFFFFFFFFFFFFFFFFFFFFFFFFFFFFFFFFFFFFFFFFFFFFFFFFFFFFFFFFFFFFFFFFFFFFFFFFFFFFFFFFFFFFFFFFFFFFFFFFFFFFFFFFFFFFFFFFFFFFFFFFFFFFFFFFFFFFFFFFFFFFFFFFFFFFFFFFFFFFFFFFFFFFFFFFFFFFFFFFFFFFFFFFFFFFFFFFFFFFFFFFFFFFFFFFFFFFFFFFFFFFFFFFFFFFFFF
310
FFFFFFFFFFFFFFFFFFFFFFFFFFFFFFFFFFFFFFFFFFFFFFFFFFFFFFFFFFFFFFFFFFFFFFFFFFFFFFFFFFFFFFFFFFFFFFFFFFFFFFFFFFFFFFFFFFFFFFFFFFFFFFFFFFFFFFFFFFFFFFFFFFFFFFFFFFFFFFFFFFFFFFFFFFFFFFFFFFFF
102
{BLKREFS
331
537
102
}
 70
     5
280
     1
281
     0
  0
ENDTAB
  0
ENDSEC
  0
SECTION
  2
BLOCKS
  0
BLOCK
  5
20
330
1F
100
AcDbEntity
  8
0
100
AcDbBlockBegin
  2
*Model_Space
 70
     0
 10
0.0
 20
0.0
 30
0.0
  3
*Model_Space
  1

  0
ENDBLK
  5
21
330
1F
100
AcDbEntity
  8
0
100
AcDbBlockEnd
  0
BLOCK
  5
1C
330
1B
100
AcDbEntity
 67
     1
  8
0
100
AcDbBlockBegin
  2
*Paper_Space
 70
     0
 10
0.0
 20
0.0
 30
0.0
  3
*Paper_Space
  1

  0
ENDBLK
  5
1D
330
1B
100
AcDbEntity
 67
     1
  8
0
100
AcDbBlockEnd
  0
BLOCK
  5
24
330
23
100
AcDbEntity
 67
     1
  8
0
100
AcDbBlockBegin
  2
*Paper_Space0
 70
     0
 10
0.0
 20
0.0
 30
0.0
  3
*Paper_Space0
  1

  0
ENDBLK
  5
25
330
23
100
AcDbEntity
 67
     1
  8
0
100
AcDbBlockEnd
  0
BLOCK
  5
2D1
330
2D0
100
AcDbEntity
  8
0
100
AcDbBlockBegin
  2
posterior
 70
     0
 10
0.0
 20
0.0
 30
0.0
  3
posterior
  1

  0
LINE
  5
2D3
330
2D0
100
AcDbEntity
  8
0
100
AcDbLine
 10
872.6962549148586
 20
-339.6292427580318
 30
0.0
 11
872.6962549148586
 21
-49.63721259017574
 31
0.0
  0
LINE
  5
2D4
330
2D0
100
AcDbEntity
  8
0
100
AcDbLine
 10
900.6355369120653
 20
-339.6292427580318
 30
0.0
 11
900.6355369120653
 21
-49.63721259017574
 31
0.0
  0
LINE
  5
2D5
330
2D0
100
AcDbEntity
  8
0
100
AcDbLine
 10
-1047.250979299918
 20
-339.6292427580318
 30
0.0
 11
-1047.250979299918
 21
-49.63721259017574
 31
0.0
  0
LINE
  5
2D6
330
2D0
100
AcDbEntity
  8
0
100
AcDbLine
 10
-1019.311697302712
 20
-339.6292427580318
 30
0.0
 11
-1019.311697302712
 21
-49.63721259017574
 31
0.0
  0
LINE
  5
2D7
330
2D0
100
AcDbEntity
  8
0
100
AcDbLine
 10
-572.2940075862157
 20
-168.9672663833855
 30
0.0
 11
-572.2940075862157
 21
-185.6334750137221
 31
0.0
  0
LINE
  5
2D8
330
2D0
100
AcDbEntity
  8
0
100
AcDbLine
 10
-685.2909021002991
 20
-168.9672663833855
 30
0.0
 11
-685.2909021002991
 21
-185.6334750137221
 31
0.0
  0
LINE
  5
2D9
330
2D0
100
AcDbEntity
  8
0
100
AcDbLine
 10
-685.2909021002991
 20
-227.9656449347769
 30
0.0
 11
-685.2909021002991
 21
-244.6318535651135
 31
0.0
  0
LINE
  5
2DA
330
2D0
100
AcDbEntity
  8
0
100
AcDbLine
 10
-685.2909021002991
 20
-149.3011401995883
 30
0.0
 11
-685.2909021002991
 21
-165.9673488299249
 31
0.0
  0
LINE
  5
2DB
330
2D0
100
AcDbEntity
  8
0
100
AcDbLine
 10
-572.2940075862157
 20
-227.9656449347769
 30
0.0
 11
-572.2940075862157
 21
-244.6318535651135
 31
0.0
  0
LINE
  5
2DC
330
2D0
100
AcDbEntity
  8
0
100
AcDbLine
 10
-572.2940075862157
 20
-188.6333925671826
 30
0.0
 11
-572.2940075862157
 21
-205.2996011975192
 31
0.0
  0
LINE
  5
2DD
330
2D0
100
AcDbEntity
  8
0
100
AcDbLine
 10
-572.2940075862157
 20
-149.3011401995883
 30
0.0
 11
-572.2940075862157
 21
-165.9673488299249
 31
0.0
  0
LINE
  5
2DE
330
2D0
100
AcDbEntity
  8
0
100
AcDbLine
 10
-685.2909021002991
 20
-208.2995187509797
 30
0.0
 11
-685.2909021002991
 21
-224.9657273813163
 31
0.0
  0
LINE
  5
2DF
330
2D0
100
AcDbEntity
  8
0
100
AcDbLine
 10
-685.2909021002991
 20
-188.6333925671826
 30
0.0
 11
-685.2909021002991
 21
-205.2996011975192
 31
0.0
  0
LINE
  5
2E0
330
2D0
100
AcDbEntity
  8
0
100
AcDbLine
 10
-572.2940075862157
 20
-244.6318535651135
 30
0.0
 11
-685.2909021002991
 21
-244.6318535651135
 31
0.0
  0
LINE
  5
2E1
330
2D0
100
AcDbEntity
  8
0
100
AcDbLine
 10
-685.2909021002991
 20
-129.6350140157912
 30
0.0
 11
-572.2940075862157
 21
-129.6350140157912
 31
0.0
  0
LINE
  5
2E2
330
2D0
100
AcDbEntity
  8
0
100
AcDbLine
 10
-572.2940075862157
 20
-224.9657273813163
 30
0.0
 11
-685.2909021002991
 21
-224.9657273813163
 31
0.0
  0
LINE
  5
2E3
330
2D0
100
AcDbEntity
  8
0
100
AcDbLine
 10
-685.2909021002991
 20
-227.9656449347769
 30
0.0
 11
-572.2940075862157
 21
-227.9656449347769
 31
0.0
  0
LINE
  5
2E4
330
2D0
100
AcDbEntity
  8
0
100
AcDbLine
 10
-572.2940075862157
 20
-205.2996011975192
 30
0.0
 11
-685.2909021002991
 21
-205.2996011975192
 31
0.0
  0
LINE
  5
2E5
330
2D0
100
AcDbEntity
  8
0
100
AcDbLine
 10
-685.2909021002991
 20
-208.2995187509797
 30
0.0
 11
-572.2940075862157
 21
-208.2995187509797
 31
0.0
  0
LINE
  5
2E6
330
2D0
100
AcDbEntity
  8
0
100
AcDbLine
 10
-572.2940075862157
 20
-185.6334750137221
 30
0.0
 11
-685.2909021002991
 21
-185.6334750137221
 31
0.0
  0
LINE
  5
2E7
330
2D0
100
AcDbEntity
  8
0
100
AcDbLine
 10
-685.2909021002991
 20
-188.6333925671826
 30
0.0
 11
-572.2940075862157
 21
-188.6333925671826
 31
0.0
  0
LINE
  5
2E8
330
2D0
100
AcDbEntity
  8
0
100
AcDbLine
 10
-572.2940075862157
 20
-165.9673488299249
 30
0.0
 11
-685.2909021002991
 21
-165.9673488299249
 31
0.0
  0
LINE
  5
2E9
330
2D0
100
AcDbEntity
  8
0
100
AcDbLine
 10
-685.2909021002991
 20
-168.9672663833855
 30
0.0
 11
-572.2940075862157
 21
-168.9672663833855
 31
0.0
  0
LINE
  5
2EA
330
2D0
100
AcDbEntity
  8
0
100
AcDbLine
 10
-572.2940075862157
 20
-146.3012226461277
 30
0.0
 11
-685.2909021002991
 21
-146.3012226461277
 31
0.0
  0
LINE
  5
2EB
330
2D0
100
AcDbEntity
  8
0
100
AcDbLine
 10
-685.2909021002991
 20
-149.3011401995883
 30
0.0
 11
-572.2940075862157
 21
-149.3011401995883
 31
0.0
  0
LINE
  5
2EC
330
2D0
100
AcDbEntity
  8
0
100
AcDbLine
 10
-572.2940075862157
 20
-208.2995187509797
 30
0.0
 11
-572.2940075862157
 21
-224.9657273813163
 31
0.0
  0
LINE
  5
2ED
330
2D0
100
AcDbEntity
  8
0
100
AcDbLine
 10
-572.2940075862157
 20
-129.6350140157912
 30
0.0
 11
-572.2940075862157
 21
-146.3012226461277
 31
0.0
  0
LINE
  5
2EE
330
2D0
100
AcDbEntity
  8
0
100
AcDbLine
 10
-685.2909021002991
 20
-129.6350140157912
 30
0.0
 11
-685.2909021002991
 21
-146.3012226461277
 31
0.0
  0
LINE
  5
2EF
330
2D0
100
AcDbEntity
  8
0
100
AcDbLine
 10
-69.80781738157616
 20
-118.3019921471623
 30
0.0
 11
47.18896720338642
 21
-118.3019921471623
 31
0.0
  0
LINE
  5
2F0
330
2D0
100
AcDbEntity
  8
0
100
AcDbLine
 10
54.18877482812792
 20
-118.3019921471623
 30
0.0
 11
216.9343021033643
 21
-118.3019921471623
 31
0.0
  0
LINE
  5
2F1
330
2D0
100
AcDbEntity
  8
0
100
AcDbLine
 10
223.9341097281055
 20
-118.3019921471623
 30
0.0
 11
387.6796095212406
 21
-118.3019921471623
 31
0.0
  0
LINE
  5
2F2
330
2D0
100
AcDbEntity
  8
0
100
AcDbLine
 10
-534.2950519090254
 20
-244.6318535651135
 30
0.0
 11
-534.2950519090254
 21
-227.7434288197057
 31
0.0
  0
LINE
  5
2F3
330
2D0
100
AcDbEntity
  8
0
100
AcDbLine
 10
387.6796095212406
 20
-244.6318535651135
 30
0.0
 11
223.9341097281055
 21
-244.6318535651135
 31
0.0
  0
LINE
  5
2F4
330
2D0
100
AcDbEntity
  8
0
100
AcDbLine
 10
-200.8042172160214
 20
-54.63707517927677
 30
0.0
 11
-200.8042172160214
 21
-71.52549992468445
 31
0.0
  0
LINE
  5
2F5
330
2D0
100
AcDbEntity
  8
0
100
AcDbLine
 10
-193.8044095912802
 20
-244.6318535651135
 30
0.0
 11
-193.8044095912802
 21
-227.7434288197057
 31
0.0
  0
LINE
  5
2F6
330
2D0
100
AcDbEntity
  8
0
100
AcDbLine
 10
47.18896720338642
 20
-54.63707517927677
 30
0.0
 11
47.18896720338642
 21
-71.52549992468445
 31
0.0
  0
LINE
  5
2F7
330
2D0
100
AcDbEntity
  8
0
100
AcDbLine
 10
54.18877482812792
 20
-244.6318535651135
 30
0.0
 11
54.18877482812792
 21
-227.7434288197057
 31
0.0
  0
LINE
  5
2F8
330
2D0
100
AcDbEntity
  8
0
100
AcDbLine
 10
47.18896720338642
 20
-205.8551414851971
 30
0.0
 11
47.18896720338642
 21
-224.7435112662452
 31
0.0
  0
LINE
  5
2F9
330
2D0
100
AcDbEntity
  8
0
100
AcDbLine
 10
54.18877482812792
 20
-224.7435112662452
 30
0.0
 11
54.18877482812792
 21
-205.8551414851971
 31
0.0
  0
LINE
  5
2FA
330
2D0
100
AcDbEntity
  8
0
100
AcDbLine
 10
54.18877482812792
 20
-202.8552239317365
 30
0.0
 11
54.18877482812792
 21
-183.9668541506884
 31
0.0
  0
LINE
  5
2FB
330
2D0
100
AcDbEntity
  8
0
100
AcDbLine
 10
54.18877482812792
 20
-180.9669365972278
 30
0.0
 11
54.18877482812792
 21
-162.0785668161796
 31
0.0
  0
LINE
  5
2FC
330
2D0
100
AcDbEntity
  8
0
100
AcDbLine
 10
54.18877482812792
 20
-159.078649262719
 30
0.0
 11
54.18877482812792
 21
-140.1902794816711
 31
0.0
  0
LINE
  5
2FD
330
2D0
100
AcDbEntity
  8
0
100
AcDbLine
 10
54.18877482812792
 20
-137.1903619282106
 30
0.0
 11
54.18877482812792
 21
-118.3019921471623
 31
0.0
  0
LINE
  5
2FE
330
2D0
100
AcDbEntity
  8
0
100
AcDbLine
 10
54.18877482812792
 20
-115.3020745937018
 30
0.0
 11
54.18877482812792
 21
-96.41370481265369
 31
0.0
  0
LINE
  5
2FF
330
2D0
100
AcDbEntity
  8
0
100
AcDbLine
 10
47.18896720338642
 20
-96.41370481265369
 30
0.0
 11
47.18896720338642
 21
-115.3020745937018
 31
0.0
  0
LINE
  5
300
330
2D0
100
AcDbEntity
  8
0
100
AcDbLine
 10
47.18896720338642
 20
-118.3019921471623
 30
0.0
 11
47.18896720338642
 21
-137.1903619282106
 31
0.0
  0
LINE
  5
301
330
2D0
100
AcDbEntity
  8
0
100
AcDbLine
 10
47.18896720338642
 20
-140.1902794816711
 30
0.0
 11
47.18896720338642
 21
-159.078649262719
 31
0.0
  0
LINE
  5
302
330
2D0
100
AcDbEntity
  8
0
100
AcDbLine
 10
47.18896720338642
 20
-162.0785668161796
 30
0.0
 11
47.18896720338642
 21
-180.9669365972278
 31
0.0
  0
LINE
  5
303
330
2D0
100
AcDbEntity
  8
0
100
AcDbLine
 10
47.18896720338642
 20
-183.9668541506884
 30
0.0
 11
47.18896720338642
 21
-202.8552239317365
 31
0.0
  0
LINE
  5
304
330
2D0
100
AcDbEntity
  8
0
100
AcDbLine
 10
54.18877482812792
 20
-71.52549992468445
 30
0.0
 11
54.18877482812792
 21
-54.63707517927677
 31
0.0
  0
LINE
  5
305
330
2D0
100
AcDbEntity
  8
0
100
AcDbLine
 10
54.18877482812792
 20
-93.41378725919311
 30
0.0
 11
54.18877482812792
 21
-74.52541747814507
 31
0.0
  0
LINE
  5
306
330
2D0
100
AcDbEntity
  8
0
100
AcDbLine
 10
47.18896720338642
 20
-227.7434288197057
 30
0.0
 11
47.18896720338642
 21
-244.6318535651135
 31
0.0
  0
LINE
  5
307
330
2D0
100
AcDbEntity
  8
0
100
AcDbLine
 10
47.18896720338642
 20
-74.52541747814507
 30
0.0
 11
47.18896720338642
 21
-93.41378725919311
 31
0.0
  0
LINE
  5
308
330
2D0
100
AcDbEntity
  8
0
100
AcDbLine
 10
216.9343021033643
 20
-54.63707517927677
 30
0.0
 11
216.9343021033643
 21
-71.52549992468445
 31
0.0
  0
LINE
  5
309
330
2D0
100
AcDbEntity
  8
0
100
AcDbLine
 10
223.9341097281055
 20
-244.6318535651135
 30
0.0
 11
223.9341097281055
 21
-227.7434288197057
 31
0.0
  0
LINE
  5
30A
330
2D0
100
AcDbEntity
  8
0
100
AcDbLine
 10
216.9343021033643
 20
-96.41370481265367
 30
0.0
 11
216.9343021033643
 21
-115.3020745937018
 31
0.0
  0
LINE
  5
30B
330
2D0
100
AcDbEntity
  8
0
100
AcDbLine
 10
216.9343021033643
 20
-118.3019921471623
 30
0.0
 11
216.9343021033643
 21
-137.1903619282106
 31
0.0
  0
LINE
  5
30C
330
2D0
100
AcDbEntity
  8
0
100
AcDbLine
 10
216.9343021033643
 20
-140.1902794816711
 30
0.0
 11
216.9343021033643
 21
-159.078649262719
 31
0.0
  0
LINE
  5
30D
330
2D0
100
AcDbEntity
  8
0
100
AcDbLine
 10
216.9343021033643
 20
-162.0785668161796
 30
0.0
 11
216.9343021033643
 21
-180.9669365972278
 31
0.0
  0
LINE
  5
30E
330
2D0
100
AcDbEntity
  8
0
100
AcDbLine
 10
216.9343021033643
 20
-183.9668541506884
 30
0.0
 11
216.9343021033643
 21
-202.8552239317365
 31
0.0
  0
LINE
  5
30F
330
2D0
100
AcDbEntity
  8
0
100
AcDbLine
 10
223.9341097281055
 20
-202.8552239317365
 30
0.0
 11
223.9341097281055
 21
-183.9668541506884
 31
0.0
  0
LINE
  5
310
330
2D0
100
AcDbEntity
  8
0
100
AcDbLine
 10
223.9341097281055
 20
-180.9669365972278
 30
0.0
 11
223.9341097281055
 21
-162.0785668161796
 31
0.0
  0
LINE
  5
311
330
2D0
100
AcDbEntity
  8
0
100
AcDbLine
 10
223.9341097281055
 20
-159.078649262719
 30
0.0
 11
223.9341097281055
 21
-140.1902794816711
 31
0.0
  0
LINE
  5
312
330
2D0
100
AcDbEntity
  8
0
100
AcDbLine
 10
223.9341097281055
 20
-137.1903619282106
 30
0.0
 11
223.9341097281055
 21
-118.3019921471623
 31
0.0
  0
LINE
  5
313
330
2D0
100
AcDbEntity
  8
0
100
AcDbLine
 10
223.9341097281055
 20
-115.3020745937018
 30
0.0
 11
223.9341097281055
 21
-96.41370481265367
 31
0.0
  0
LINE
  5
314
330
2D0
100
AcDbEntity
  8
0
100
AcDbLine
 10
-76.8076250063175
 20
-54.63707517927677
 30
0.0
 11
-76.8076250063175
 21
-71.52549992468445
 31
0.0
  0
LINE
  5
315
330
2D0
100
AcDbEntity
  8
0
100
AcDbLine
 10
-69.80781738157616
 20
-244.6318535651135
 30
0.0
 11
-69.80781738157616
 21
-227.7434288197057
 31
0.0
  0
LINE
  5
316
330
2D0
100
AcDbEntity
  8
0
100
AcDbLine
 10
-69.80781738157616
 20
-71.52549992468445
 30
0.0
 11
-69.80781738157616
 21
-54.63707517927677
 31
0.0
  0
LINE
  5
317
330
2D0
100
AcDbEntity
  8
0
100
AcDbLine
 10
-69.80781738157616
 20
-93.41378725919311
 30
0.0
 11
-69.80781738157616
 21
-74.52541747814507
 31
0.0
  0
LINE
  5
318
330
2D0
100
AcDbEntity
  8
0
100
AcDbLine
 10
-69.80781738157616
 20
-115.3020745937018
 30
0.0
 11
-69.80781738157616
 21
-96.41370481265367
 31
0.0
  0
LINE
  5
319
330
2D0
100
AcDbEntity
  8
0
100
AcDbLine
 10
-69.80781738157616
 20
-137.1903619282106
 30
0.0
 11
-69.80781738157616
 21
-118.3019921471623
 31
0.0
  0
LINE
  5
31A
330
2D0
100
AcDbEntity
  8
0
100
AcDbLine
 10
-69.80781738157616
 20
-159.078649262719
 30
0.0
 11
-69.80781738157616
 21
-140.1902794816711
 31
0.0
  0
LINE
  5
31B
330
2D0
100
AcDbEntity
  8
0
100
AcDbLine
 10
-69.80781738157616
 20
-180.9669365972278
 30
0.0
 11
-69.80781738157616
 21
-162.0785668161796
 31
0.0
  0
LINE
  5
31C
330
2D0
100
AcDbEntity
  8
0
100
AcDbLine
 10
-69.80781738157616
 20
-202.8552239317365
 30
0.0
 11
-69.80781738157616
 21
-183.9668541506884
 31
0.0
  0
LINE
  5
31D
330
2D0
100
AcDbEntity
  8
0
100
AcDbLine
 10
-69.80781738157616
 20
-224.7435112662452
 30
0.0
 11
-69.80781738157616
 21
-205.8551414851971
 31
0.0
  0
LINE
  5
31E
330
2D0
100
AcDbEntity
  8
0
100
AcDbLine
 10
-76.8076250063175
 20
-227.7434288197057
 30
0.0
 11
-76.8076250063175
 21
-244.6318535651135
 31
0.0
  0
LINE
  5
31F
330
2D0
100
AcDbEntity
  8
0
100
AcDbLine
 10
-76.8076250063175
 20
-205.8551414851971
 30
0.0
 11
-76.8076250063175
 21
-224.7435112662451
 31
0.0
  0
LINE
  5
320
330
2D0
100
AcDbEntity
  8
0
100
AcDbLine
 10
-76.8076250063175
 20
-183.9668541506884
 30
0.0
 11
-76.8076250063175
 21
-202.8552239317365
 31
0.0
  0
LINE
  5
321
330
2D0
100
AcDbEntity
  8
0
100
AcDbLine
 10
-76.8076250063175
 20
-162.0785668161796
 30
0.0
 11
-76.8076250063175
 21
-180.9669365972278
 31
0.0
  0
LINE
  5
322
330
2D0
100
AcDbEntity
  8
0
100
AcDbLine
 10
-76.8076250063175
 20
-140.1902794816711
 30
0.0
 11
-76.8076250063175
 21
-159.078649262719
 31
0.0
  0
LINE
  5
323
330
2D0
100
AcDbEntity
  8
0
100
AcDbLine
 10
-76.8076250063175
 20
-118.3019921471623
 30
0.0
 11
-76.8076250063175
 21
-137.1903619282106
 31
0.0
  0
LINE
  5
324
330
2D0
100
AcDbEntity
  8
0
100
AcDbLine
 10
-76.8076250063175
 20
-96.41370481265367
 30
0.0
 11
-76.8076250063175
 21
-115.3020745937018
 31
0.0
  0
LINE
  5
325
330
2D0
100
AcDbEntity
  8
0
100
AcDbLine
 10
-76.8076250063175
 20
-74.52541747814507
 30
0.0
 11
-76.8076250063175
 21
-93.41378725919311
 31
0.0
  0
LINE
  5
326
330
2D0
100
AcDbEntity
  8
0
100
AcDbLine
 10
-370.5495521159993
 20
-54.63707517927677
 30
0.0
 11
-370.5495521159993
 21
-71.52549992468445
 31
0.0
  0
LINE
  5
327
330
2D0
100
AcDbEntity
  8
0
100
AcDbLine
 10
-363.5497444912579
 20
-244.6318535651135
 30
0.0
 11
-363.5497444912579
 21
-227.7434288197057
 31
0.0
  0
LINE
  5
328
330
2D0
100
AcDbEntity
  8
0
100
AcDbLine
 10
387.6796095212406
 20
-71.52549992468445
 30
0.0
 11
223.9341097281055
 21
-71.52549992468445
 31
0.0
  0
LINE
  5
329
330
2D0
100
AcDbEntity
  8
0
100
AcDbLine
 10
-534.2950519090254
 20
-74.525417478145
 30
0.0
 11
-370.5495521159993
 21
-74.525417478145
 31
0.0
  0
LINE
  5
32A
330
2D0
100
AcDbEntity
  8
0
100
AcDbLine
 10
387.6796095212406
 20
-115.3020745937017
 30
0.0
 11
223.9341097281055
 21
-115.3020745937018
 31
0.0
  0
LINE
  5
32B
330
2D0
100
AcDbEntity
  8
0
100
AcDbLine
 10
-534.2950519090254
 20
-118.3019921471623
 30
0.0
 11
-370.5495521159993
 21
-118.3019921471622
 31
0.0
  0
LINE
  5
32C
330
2D0
100
AcDbEntity
  8
0
100
AcDbLine
 10
387.6796095212406
 20
-137.1903619282106
 30
0.0
 11
223.9341097281055
 21
-137.1903619282106
 31
0.0
  0
LINE
  5
32D
330
2D0
100
AcDbEntity
  8
0
100
AcDbLine
 10
-534.2950519090254
 20
-140.1902794816711
 30
0.0
 11
-370.5495521159993
 21
-140.1902794816711
 31
0.0
  0
LINE
  5
32E
330
2D0
100
AcDbEntity
  8
0
100
AcDbLine
 10
387.6796095212406
 20
-159.078649262719
 30
0.0
 11
223.9341097281055
 21
-159.078649262719
 31
0.0
  0
LINE
  5
32F
330
2D0
100
AcDbEntity
  8
0
100
AcDbLine
 10
-534.2950519090254
 20
-162.0785668161796
 30
0.0
 11
-370.5495521159993
 21
-162.0785668161796
 31
0.0
  0
LINE
  5
330
330
2D0
100
AcDbEntity
  8
0
100
AcDbLine
 10
387.6796095212406
 20
-180.9669365972278
 30
0.0
 11
223.9341097281055
 21
-180.9669365972278
 31
0.0
  0
LINE
  5
331
330
2D0
100
AcDbEntity
  8
0
100
AcDbLine
 10
-534.2950519090254
 20
-183.9668541506884
 30
0.0
 11
-370.5495521159993
 21
-183.9668541506884
 31
0.0
  0
LINE
  5
332
330
2D0
100
AcDbEntity
  8
0
100
AcDbLine
 10
387.6796095212406
 20
-202.8552239317365
 30
0.0
 11
223.9341097281055
 21
-202.8552239317365
 31
0.0
  0
LINE
  5
333
330
2D0
100
AcDbEntity
  8
0
100
AcDbLine
 10
-534.2950519090254
 20
-205.8551414851971
 30
0.0
 11
-370.5495521159993
 21
-205.8551414851971
 31
0.0
  0
LINE
  5
334
330
2D0
100
AcDbEntity
  8
0
100
AcDbLine
 10
-363.5497444912579
 20
-205.8551414851971
 30
0.0
 11
-200.8042172160214
 21
-205.8551414851971
 31
0.0
  0
LINE
  5
335
330
2D0
100
AcDbEntity
  8
0
100
AcDbLine
 10
-69.80781738157616
 20
-205.8551414851971
 30
0.0
 11
47.18896720338642
 21
-205.8551414851971
 31
0.0
  0
LINE
  5
336
330
2D0
100
AcDbEntity
  8
0
100
AcDbLine
 10
387.6796095212406
 20
-224.7435112662452
 30
0.0
 11
223.9341097281055
 21
-224.7435112662452
 31
0.0
  0
LINE
  5
337
330
2D0
100
AcDbEntity
  8
0
100
AcDbLine
 10
-534.2950519090254
 20
-227.7434288197057
 30
0.0
 11
-370.5495521159993
 21
-227.7434288197057
 31
0.0
  0
LINE
  5
338
330
2D0
100
AcDbEntity
  8
0
100
AcDbLine
 10
387.6796095212406
 20
-93.41378725919307
 30
0.0
 11
223.9341097281055
 21
-93.41378725919307
 31
0.0
  0
LINE
  5
339
330
2D0
100
AcDbEntity
  8
0
100
AcDbLine
 10
-200.8042172160214
 20
-244.6318535651135
 30
0.0
 11
-363.5497444912579
 21
-244.6318535651135
 31
0.0
  0
LINE
  5
33A
330
2D0
100
AcDbEntity
  8
0
100
AcDbLine
 10
-76.8076250063175
 20
-244.6318535651135
 30
0.0
 11
-193.8044095912802
 21
-244.6318535651135
 31
0.0
  0
LINE
  5
33B
330
2D0
100
AcDbEntity
  8
0
100
AcDbLine
 10
-534.2950519090254
 20
-137.1903619282106
 30
0.0
 11
-534.2950519090254
 21
-118.3019921471623
 31
0.0
  0
LINE
  5
33C
330
2D0
100
AcDbEntity
  8
0
100
AcDbLine
 10
-534.2950519090254
 20
-159.078649262719
 30
0.0
 11
-534.2950519090254
 21
-140.1902794816711
 31
0.0
  0
LINE
  5
33D
330
2D0
100
AcDbEntity
  8
0
100
AcDbLine
 10
-534.2950519090254
 20
-180.9669365972278
 30
0.0
 11
-534.2950519090254
 21
-162.0785668161796
 31
0.0
  0
LINE
  5
33E
330
2D0
100
AcDbEntity
  8
0
100
AcDbLine
 10
-534.2950519090254
 20
-202.8552239317365
 30
0.0
 11
-534.2950519090254
 21
-183.9668541506884
 31
0.0
  0
LINE
  5
33F
330
2D0
100
AcDbEntity
  8
0
100
AcDbLine
 10
-534.2950519090254
 20
-224.7435112662452
 30
0.0
 11
-534.2950519090254
 21
-205.8551414851971
 31
0.0
  0
LINE
  5
340
330
2D0
100
AcDbEntity
  8
0
100
AcDbLine
 10
47.18896720338642
 20
-244.6318535651135
 30
0.0
 11
-69.80781738157616
 21
-244.6318535651135
 31
0.0
  0
LINE
  5
341
330
2D0
100
AcDbEntity
  8
0
100
AcDbLine
 10
216.9343021033643
 20
-244.6318535651135
 30
0.0
 11
54.18877482812792
 21
-244.6318535651135
 31
0.0
  0
LINE
  5
342
330
2D0
100
AcDbEntity
  8
0
100
AcDbLine
 10
-370.5495521159993
 20
-244.6318535651135
 30
0.0
 11
-534.2950519090254
 21
-244.6318535651135
 31
0.0
  0
LINE
  5
343
330
2D0
100
AcDbEntity
  8
0
100
AcDbLine
 10
-534.2950519090254
 20
-93.41378725919307
 30
0.0
 11
-534.2950519090254
 21
-74.525417478145
 31
0.0
  0
LINE
  5
344
330
2D0
100
AcDbEntity
  8
0
100
AcDbLine
 10
223.9341097281055
 20
-54.63707517927677
 30
0.0
 11
387.6796095212406
 21
-54.63707517927677
 31
0.0
  0
LINE
  5
345
330
2D0
100
AcDbEntity
  8
0
100
AcDbLine
 10
-534.2950519090254
 20
-71.52549992468445
 30
0.0
 11
-534.2950519090254
 21
-54.63707517927677
 31
0.0
  0
LINE
  5
346
330
2D0
100
AcDbEntity
  8
0
100
AcDbLine
 10
-370.5495521159993
 20
-54.63707517927677
 30
0.0
 11
-534.2950519090254
 21
-54.63707517927677
 31
0.0
  0
LINE
  5
347
330
2D0
100
AcDbEntity
  8
0
100
AcDbLine
 10
387.6796095212406
 20
-54.63707517927677
 30
0.0
 11
387.6796095212406
 21
-71.52549992468445
 31
0.0
  0
LINE
  5
348
330
2D0
100
AcDbEntity
  8
0
100
AcDbLine
 10
387.6796095212406
 20
-96.41370481265367
 30
0.0
 11
387.6796095212406
 21
-115.3020745937017
 31
0.0
  0
LINE
  5
349
330
2D0
100
AcDbEntity
  8
0
100
AcDbLine
 10
387.6796095212406
 20
-162.0785668161796
 30
0.0
 11
387.6796095212406
 21
-180.9669365972278
 31
0.0
  0
LINE
  5
34A
330
2D0
100
AcDbEntity
  8
0
100
AcDbLine
 10
387.6796095212406
 20
-183.9668541506884
 30
0.0
 11
387.6796095212406
 21
-202.8552239317365
 31
0.0
  0
LINE
  5
34B
330
2D0
100
AcDbEntity
  8
0
100
AcDbLine
 10
387.6796095212406
 20
-205.8551414851971
 30
0.0
 11
387.6796095212406
 21
-224.7435112662452
 31
0.0
  0
LINE
  5
34C
330
2D0
100
AcDbEntity
  8
0
100
AcDbLine
 10
387.6796095212406
 20
-227.7434288197057
 30
0.0
 11
387.6796095212406
 21
-244.6318535651135
 31
0.0
  0
LINE
  5
34D
330
2D0
100
AcDbEntity
  8
0
100
AcDbLine
 10
216.9343021033643
 20
-74.525417478145
 30
0.0
 11
216.9343021033643
 21
-93.41378725919307
 31
0.0
  0
LINE
  5
34E
330
2D0
100
AcDbEntity
  8
0
100
AcDbLine
 10
223.9341097281055
 20
-93.41378725919307
 30
0.0
 11
223.9341097281055
 21
-74.525417478145
 31
0.0
  0
LINE
  5
34F
330
2D0
100
AcDbEntity
  8
0
100
AcDbLine
 10
223.9341097281055
 20
-224.7435112662452
 30
0.0
 11
223.9341097281055
 21
-205.8551414851971
 31
0.0
  0
LINE
  5
350
330
2D0
100
AcDbEntity
  8
0
100
AcDbLine
 10
223.9341097281055
 20
-71.52549992468445
 30
0.0
 11
223.9341097281055
 21
-54.63707517927677
 31
0.0
  0
LINE
  5
351
330
2D0
100
AcDbEntity
  8
0
100
AcDbLine
 10
216.9343021033643
 20
-71.52549992468445
 30
0.0
 11
54.18877482812792
 21
-71.52549992468445
 31
0.0
  0
LINE
  5
352
330
2D0
100
AcDbEntity
  8
0
100
AcDbLine
 10
216.9343021033643
 20
-115.3020745937018
 30
0.0
 11
54.18877482812792
 21
-115.3020745937018
 31
0.0
  0
LINE
  5
353
330
2D0
100
AcDbEntity
  8
0
100
AcDbLine
 10
216.9343021033643
 20
-137.1903619282106
 30
0.0
 11
54.18877482812792
 21
-137.1903619282106
 31
0.0
  0
LINE
  5
354
330
2D0
100
AcDbEntity
  8
0
100
AcDbLine
 10
216.9343021033643
 20
-159.078649262719
 30
0.0
 11
54.18877482812792
 21
-159.078649262719
 31
0.0
  0
LINE
  5
355
330
2D0
100
AcDbEntity
  8
0
100
AcDbLine
 10
216.9343021033643
 20
-180.9669365972278
 30
0.0
 11
54.18877482812792
 21
-180.9669365972278
 31
0.0
  0
LINE
  5
356
330
2D0
100
AcDbEntity
  8
0
100
AcDbLine
 10
216.9343021033643
 20
-202.8552239317365
 30
0.0
 11
54.18877482812792
 21
-202.8552239317365
 31
0.0
  0
LINE
  5
357
330
2D0
100
AcDbEntity
  8
0
100
AcDbLine
 10
216.9343021033643
 20
-224.7435112662452
 30
0.0
 11
54.18877482812792
 21
-224.7435112662452
 31
0.0
  0
LINE
  5
358
330
2D0
100
AcDbEntity
  8
0
100
AcDbLine
 10
216.9343021033643
 20
-93.41378725919307
 30
0.0
 11
54.18877482812792
 21
-93.41378725919311
 31
0.0
  0
LINE
  5
359
330
2D0
100
AcDbEntity
  8
0
100
AcDbLine
 10
216.9343021033643
 20
-227.7434288197057
 30
0.0
 11
216.9343021033643
 21
-244.6318535651135
 31
0.0
  0
LINE
  5
35A
330
2D0
100
AcDbEntity
  8
0
100
AcDbLine
 10
216.9343021033643
 20
-205.8551414851971
 30
0.0
 11
216.9343021033643
 21
-224.7435112662452
 31
0.0
  0
LINE
  5
35B
330
2D0
100
AcDbEntity
  8
0
100
AcDbLine
 10
-200.8042172160214
 20
-74.525417478145
 30
0.0
 11
-363.5497444912579
 21
-74.525417478145
 31
0.0
  0
LINE
  5
35C
330
2D0
100
AcDbEntity
  8
0
100
AcDbLine
 10
47.18896720338642
 20
-71.52549992468445
 30
0.0
 11
-69.80781738157616
 21
-71.52549992468445
 31
0.0
  0
LINE
  5
35D
330
2D0
100
AcDbEntity
  8
0
100
AcDbLine
 10
47.18896720338642
 20
-115.3020745937018
 30
0.0
 11
-69.80781738157616
 21
-115.3020745937018
 31
0.0
  0
LINE
  5
35E
330
2D0
100
AcDbEntity
  8
0
100
AcDbLine
 10
47.18896720338642
 20
-137.1903619282106
 30
0.0
 11
-69.80781738157616
 21
-137.1903619282106
 31
0.0
  0
LINE
  5
35F
330
2D0
100
AcDbEntity
  8
0
100
AcDbLine
 10
47.18896720338642
 20
-159.078649262719
 30
0.0
 11
-69.80781738157616
 21
-159.078649262719
 31
0.0
  0
LINE
  5
360
330
2D0
100
AcDbEntity
  8
0
100
AcDbLine
 10
47.18896720338642
 20
-180.9669365972278
 30
0.0
 11
-69.80781738157616
 21
-180.9669365972278
 31
0.0
  0
LINE
  5
361
330
2D0
100
AcDbEntity
  8
0
100
AcDbLine
 10
47.18896720338642
 20
-202.8552239317365
 30
0.0
 11
-69.80781738157616
 21
-202.8552239317365
 31
0.0
  0
LINE
  5
362
330
2D0
100
AcDbEntity
  8
0
100
AcDbLine
 10
47.18896720338642
 20
-224.7435112662452
 30
0.0
 11
-69.80781738157616
 21
-224.7435112662452
 31
0.0
  0
LINE
  5
363
330
2D0
100
AcDbEntity
  8
0
100
AcDbLine
 10
47.18896720338642
 20
-93.41378725919311
 30
0.0
 11
-69.80781738157616
 21
-93.41378725919311
 31
0.0
  0
LINE
  5
364
330
2D0
100
AcDbEntity
  8
0
100
AcDbLine
 10
-76.8076250063175
 20
-71.52549992468445
 30
0.0
 11
-193.8044095912802
 21
-71.52549992468445
 31
0.0
  0
LINE
  5
365
330
2D0
100
AcDbEntity
  8
0
100
AcDbLine
 10
-76.8076250063175
 20
-115.3020745937018
 30
0.0
 11
-193.8044095912802
 21
-115.3020745937018
 31
0.0
  0
LINE
  5
366
330
2D0
100
AcDbEntity
  8
0
100
AcDbLine
 10
-76.8076250063175
 20
-137.1903619282106
 30
0.0
 11
-193.8044095912802
 21
-137.1903619282106
 31
0.0
  0
LINE
  5
367
330
2D0
100
AcDbEntity
  8
0
100
AcDbLine
 10
-76.8076250063175
 20
-159.078649262719
 30
0.0
 11
-193.8044095912802
 21
-159.078649262719
 31
0.0
  0
LINE
  5
368
330
2D0
100
AcDbEntity
  8
0
100
AcDbLine
 10
-76.8076250063175
 20
-180.9669365972278
 30
0.0
 11
-193.8044095912802
 21
-180.9669365972278
 31
0.0
  0
LINE
  5
369
330
2D0
100
AcDbEntity
  8
0
100
AcDbLine
 10
-76.8076250063175
 20
-202.8552239317365
 30
0.0
 11
-193.8044095912802
 21
-202.8552239317365
 31
0.0
  0
LINE
  5
36A
330
2D0
100
AcDbEntity
  8
0
100
AcDbLine
 10
-76.8076250063175
 20
-224.7435112662451
 30
0.0
 11
-193.8044095912802
 21
-224.7435112662451
 31
0.0
  0
LINE
  5
36B
330
2D0
100
AcDbEntity
  8
0
100
AcDbLine
 10
-76.8076250063175
 20
-93.41378725919311
 30
0.0
 11
-193.8044095912802
 21
-93.41378725919311
 31
0.0
  0
LINE
  5
36C
330
2D0
100
AcDbEntity
  8
0
100
AcDbLine
 10
54.18877482812792
 20
-54.63707517927677
 30
0.0
 11
216.9343021033643
 21
-54.63707517927677
 31
0.0
  0
LINE
  5
36D
330
2D0
100
AcDbEntity
  8
0
100
AcDbLine
 10
-69.80781738157616
 20
-54.63707517927677
 30
0.0
 11
47.18896720338642
 21
-54.63707517927677
 31
0.0
  0
LINE
  5
36E
330
2D0
100
AcDbEntity
  8
0
100
AcDbLine
 10
-193.8044095912802
 20
-224.7435112662451
 30
0.0
 11
-193.8044095912802
 21
-205.8551414851971
 31
0.0
  0
LINE
  5
36F
330
2D0
100
AcDbEntity
  8
0
100
AcDbLine
 10
-193.8044095912802
 20
-180.9669365972278
 30
0.0
 11
-193.8044095912802
 21
-162.0785668161796
 31
0.0
  0
LINE
  5
370
330
2D0
100
AcDbEntity
  8
0
100
AcDbLine
 10
-193.8044095912802
 20
-202.8552239317365
 30
0.0
 11
-193.8044095912802
 21
-183.9668541506884
 31
0.0
  0
LINE
  5
371
330
2D0
100
AcDbEntity
  8
0
100
AcDbLine
 10
-193.8044095912802
 20
-137.1903619282106
 30
0.0
 11
-193.8044095912802
 21
-118.3019921471622
 31
0.0
  0
LINE
  5
372
330
2D0
100
AcDbEntity
  8
0
100
AcDbLine
 10
-193.8044095912802
 20
-159.078649262719
 30
0.0
 11
-193.8044095912802
 21
-140.1902794816711
 31
0.0
  0
LINE
  5
373
330
2D0
100
AcDbEntity
  8
0
100
AcDbLine
 10
-193.8044095912802
 20
-115.3020745937018
 30
0.0
 11
-193.8044095912802
 21
-96.41370481265367
 31
0.0
  0
LINE
  5
374
330
2D0
100
AcDbEntity
  8
0
100
AcDbLine
 10
-193.8044095912802
 20
-93.41378725919311
 30
0.0
 11
-193.8044095912802
 21
-74.525417478145
 31
0.0
  0
LINE
  5
375
330
2D0
100
AcDbEntity
  8
0
100
AcDbLine
 10
-193.8044095912802
 20
-71.52549992468445
 30
0.0
 11
-193.8044095912802
 21
-54.63707517927677
 31
0.0
  0
LINE
  5
376
330
2D0
100
AcDbEntity
  8
0
100
AcDbLine
 10
-200.8042172160214
 20
-118.3019921471622
 30
0.0
 11
-200.8042172160214
 21
-137.1903619282106
 31
0.0
  0
LINE
  5
377
330
2D0
100
AcDbEntity
  8
0
100
AcDbLine
 10
-200.8042172160214
 20
-96.41370481265367
 30
0.0
 11
-200.8042172160214
 21
-115.3020745937018
 31
0.0
  0
LINE
  5
378
330
2D0
100
AcDbEntity
  8
0
100
AcDbLine
 10
-200.8042172160214
 20
-74.525417478145
 30
0.0
 11
-200.8042172160214
 21
-93.41378725919311
 31
0.0
  0
LINE
  5
379
330
2D0
100
AcDbEntity
  8
0
100
AcDbLine
 10
-200.8042172160214
 20
-71.52549992468445
 30
0.0
 11
-363.5497444912579
 21
-71.52549992468445
 31
0.0
  0
LINE
  5
37A
330
2D0
100
AcDbEntity
  8
0
100
AcDbLine
 10
-200.8042172160214
 20
-115.3020745937018
 30
0.0
 11
-363.5497444912579
 21
-115.3020745937018
 31
0.0
  0
LINE
  5
37B
330
2D0
100
AcDbEntity
  8
0
100
AcDbLine
 10
-200.8042172160214
 20
-137.1903619282106
 30
0.0
 11
-363.5497444912579
 21
-137.1903619282106
 31
0.0
  0
LINE
  5
37C
330
2D0
100
AcDbEntity
  8
0
100
AcDbLine
 10
-200.8042172160214
 20
-159.078649262719
 30
0.0
 11
-363.5497444912579
 21
-159.078649262719
 31
0.0
  0
LINE
  5
37D
330
2D0
100
AcDbEntity
  8
0
100
AcDbLine
 10
-200.8042172160214
 20
-180.9669365972278
 30
0.0
 11
-363.5497444912579
 21
-180.9669365972278
 31
0.0
  0
LINE
  5
37E
330
2D0
100
AcDbEntity
  8
0
100
AcDbLine
 10
-200.8042172160214
 20
-202.8552239317365
 30
0.0
 11
-363.5497444912579
 21
-202.8552239317365
 31
0.0
  0
LINE
  5
37F
330
2D0
100
AcDbEntity
  8
0
100
AcDbLine
 10
-200.8042172160214
 20
-224.7435112662451
 30
0.0
 11
-363.5497444912579
 21
-224.7435112662452
 31
0.0
  0
LINE
  5
380
330
2D0
100
AcDbEntity
  8
0
100
AcDbLine
 10
-200.8042172160214
 20
-93.41378725919311
 30
0.0
 11
-363.5497444912579
 21
-93.41378725919311
 31
0.0
  0
LINE
  5
381
330
2D0
100
AcDbEntity
  8
0
100
AcDbLine
 10
-200.8042172160214
 20
-140.1902794816711
 30
0.0
 11
-200.8042172160214
 21
-159.078649262719
 31
0.0
  0
LINE
  5
382
330
2D0
100
AcDbEntity
  8
0
100
AcDbLine
 10
-200.8042172160214
 20
-162.0785668161796
 30
0.0
 11
-200.8042172160214
 21
-180.9669365972278
 31
0.0
  0
LINE
  5
383
330
2D0
100
AcDbEntity
  8
0
100
AcDbLine
 10
-200.8042172160214
 20
-183.9668541506884
 30
0.0
 11
-200.8042172160214
 21
-202.8552239317365
 31
0.0
  0
LINE
  5
384
330
2D0
100
AcDbEntity
  8
0
100
AcDbLine
 10
-200.8042172160214
 20
-205.8551414851971
 30
0.0
 11
-200.8042172160214
 21
-224.7435112662451
 31
0.0
  0
LINE
  5
385
330
2D0
100
AcDbEntity
  8
0
100
AcDbLine
 10
-200.8042172160214
 20
-227.7434288197057
 30
0.0
 11
-200.8042172160214
 21
-244.6318535651135
 31
0.0
  0
LINE
  5
386
330
2D0
100
AcDbEntity
  8
0
100
AcDbLine
 10
-363.5497444912579
 20
-202.8552239317365
 30
0.0
 11
-363.5497444912579
 21
-183.9668541506884
 31
0.0
  0
LINE
  5
387
330
2D0
100
AcDbEntity
  8
0
100
AcDbLine
 10
-363.5497444912579
 20
-224.7435112662452
 30
0.0
 11
-363.5497444912579
 21
-205.8551414851971
 31
0.0
  0
LINE
  5
388
330
2D0
100
AcDbEntity
  8
0
100
AcDbLine
 10
-363.5497444912579
 20
-93.41378725919311
 30
0.0
 11
-363.5497444912579
 21
-74.525417478145
 31
0.0
  0
LINE
  5
389
330
2D0
100
AcDbEntity
  8
0
100
AcDbLine
 10
-363.5497444912579
 20
-115.3020745937018
 30
0.0
 11
-363.5497444912579
 21
-96.41370481265367
 31
0.0
  0
LINE
  5
38A
330
2D0
100
AcDbEntity
  8
0
100
AcDbLine
 10
-363.5497444912579
 20
-137.1903619282106
 30
0.0
 11
-363.5497444912579
 21
-118.3019921471622
 31
0.0
  0
LINE
  5
38B
330
2D0
100
AcDbEntity
  8
0
100
AcDbLine
 10
-363.5497444912579
 20
-159.078649262719
 30
0.0
 11
-363.5497444912579
 21
-140.1902794816711
 31
0.0
  0
LINE
  5
38C
330
2D0
100
AcDbEntity
  8
0
100
AcDbLine
 10
-363.5497444912579
 20
-180.9669365972278
 30
0.0
 11
-363.5497444912579
 21
-162.0785668161796
 31
0.0
  0
LINE
  5
38D
330
2D0
100
AcDbEntity
  8
0
100
AcDbLine
 10
-363.5497444912579
 20
-71.52549992468445
 30
0.0
 11
-363.5497444912579
 21
-54.63707517927677
 31
0.0
  0
LINE
  5
38E
330
2D0
100
AcDbEntity
  8
0
100
AcDbLine
 10
-370.5495521159993
 20
-227.7434288197057
 30
0.0
 11
-370.5495521159993
 21
-244.6318535651135
 31
0.0
  0
LINE
  5
38F
330
2D0
100
AcDbEntity
  8
0
100
AcDbLine
 10
-370.5495521159993
 20
-71.52549992468445
 30
0.0
 11
-534.2950519090254
 21
-71.52549992468445
 31
0.0
  0
LINE
  5
390
330
2D0
100
AcDbEntity
  8
0
100
AcDbLine
 10
-370.5495521159993
 20
-115.3020745937018
 30
0.0
 11
-534.2950519090254
 21
-115.3020745937017
 31
0.0
  0
LINE
  5
391
330
2D0
100
AcDbEntity
  8
0
100
AcDbLine
 10
-370.5495521159993
 20
-137.1903619282106
 30
0.0
 11
-534.2950519090254
 21
-137.1903619282106
 31
0.0
  0
LINE
  5
392
330
2D0
100
AcDbEntity
  8
0
100
AcDbLine
 10
-370.5495521159993
 20
-159.078649262719
 30
0.0
 11
-534.2950519090254
 21
-159.078649262719
 31
0.0
  0
LINE
  5
393
330
2D0
100
AcDbEntity
  8
0
100
AcDbLine
 10
-370.5495521159993
 20
-180.9669365972278
 30
0.0
 11
-534.2950519090254
 21
-180.9669365972278
 31
0.0
  0
LINE
  5
394
330
2D0
100
AcDbEntity
  8
0
100
AcDbLine
 10
-370.5495521159993
 20
-202.8552239317365
 30
0.0
 11
-534.2950519090254
 21
-202.8552239317365
 31
0.0
  0
LINE
  5
395
330
2D0
100
AcDbEntity
  8
0
100
AcDbLine
 10
-370.5495521159993
 20
-224.7435112662452
 30
0.0
 11
-534.2950519090254
 21
-224.7435112662452
 31
0.0
  0
LINE
  5
396
330
2D0
100
AcDbEntity
  8
0
100
AcDbLine
 10
-370.5495521159993
 20
-93.41378725919311
 30
0.0
 11
-534.2950519090254
 21
-93.41378725919307
 31
0.0
  0
LINE
  5
397
330
2D0
100
AcDbEntity
  8
0
100
AcDbLine
 10
-370.5495521159993
 20
-205.8551414851971
 30
0.0
 11
-370.5495521159993
 21
-224.7435112662452
 31
0.0
  0
LINE
  5
398
330
2D0
100
AcDbEntity
  8
0
100
AcDbLine
 10
-370.5495521159993
 20
-96.41370481265367
 30
0.0
 11
-370.5495521159993
 21
-115.3020745937018
 31
0.0
  0
LINE
  5
399
330
2D0
100
AcDbEntity
  8
0
100
AcDbLine
 10
-370.5495521159993
 20
-74.525417478145
 30
0.0
 11
-370.5495521159993
 21
-93.41378725919311
 31
0.0
  0
LINE
  5
39A
330
2D0
100
AcDbEntity
  8
0
100
AcDbLine
 10
-370.5495521159993
 20
-162.0785668161796
 30
0.0
 11
-370.5495521159993
 21
-180.9669365972278
 31
0.0
  0
LINE
  5
39B
330
2D0
100
AcDbEntity
  8
0
100
AcDbLine
 10
-370.5495521159993
 20
-183.9668541506884
 30
0.0
 11
-370.5495521159993
 21
-202.8552239317365
 31
0.0
  0
LINE
  5
39C
330
2D0
100
AcDbEntity
  8
0
100
AcDbLine
 10
-370.5495521159993
 20
-118.3019921471622
 30
0.0
 11
-370.5495521159993
 21
-137.1903619282106
 31
0.0
  0
LINE
  5
39D
330
2D0
100
AcDbEntity
  8
0
100
AcDbLine
 10
-534.2950519090254
 20
-96.41370481265367
 30
0.0
 11
-370.5495521159993
 21
-96.41370481265367
 31
0.0
  0
LINE
  5
39E
330
2D0
100
AcDbEntity
  8
0
100
AcDbLine
 10
-193.8044095912802
 20
-205.8551414851971
 30
0.0
 11
-76.8076250063175
 21
-205.8551414851971
 31
0.0
  0
LINE
  5
39F
330
2D0
100
AcDbEntity
  8
0
100
AcDbLine
 10
387.6796095212406
 20
-227.7434288197057
 30
0.0
 11
223.9341097281055
 21
-227.7434288197057
 31
0.0
  0
LINE
  5
3A0
330
2D0
100
AcDbEntity
  8
0
100
AcDbLine
 10
-69.80781738157616
 20
-162.0785668161796
 30
0.0
 11
47.18896720338642
 21
-162.0785668161796
 31
0.0
  0
LINE
  5
3A1
330
2D0
100
AcDbEntity
  8
0
100
AcDbLine
 10
54.18877482812792
 20
-162.0785668161796
 30
0.0
 11
216.9343021033643
 21
-162.0785668161796
 31
0.0
  0
LINE
  5
3A2
330
2D0
100
AcDbEntity
  8
0
100
AcDbLine
 10
-363.5497444912579
 20
-118.3019921471622
 30
0.0
 11
-200.8042172160214
 21
-118.3019921471622
 31
0.0
  0
LINE
  5
3A3
330
2D0
100
AcDbEntity
  8
0
100
AcDbLine
 10
216.9343021033643
 20
-140.1902794816711
 30
0.0
 11
54.18877482812792
 21
-140.1902794816711
 31
0.0
  0
LINE
  5
3A4
330
2D0
100
AcDbEntity
  8
0
100
AcDbLine
 10
-193.8044095912802
 20
-162.0785668161796
 30
0.0
 11
-76.8076250063175
 21
-162.0785668161796
 31
0.0
  0
LINE
  5
3A5
330
2D0
100
AcDbEntity
  8
0
100
AcDbLine
 10
-76.8076250063175
 20
-140.1902794816711
 30
0.0
 11
-193.8044095912802
 21
-140.1902794816711
 31
0.0
  0
LINE
  5
3A6
330
2D0
100
AcDbEntity
  8
0
100
AcDbLine
 10
-363.5497444912579
 20
-162.0785668161796
 30
0.0
 11
-200.8042172160214
 21
-162.0785668161796
 31
0.0
  0
LINE
  5
3A7
330
2D0
100
AcDbEntity
  8
0
100
AcDbLine
 10
-200.8042172160214
 20
-140.1902794816711
 30
0.0
 11
-363.5497444912579
 21
-140.1902794816711
 31
0.0
  0
LINE
  5
3A8
330
2D0
100
AcDbEntity
  8
0
100
AcDbLine
 10
387.6796095212406
 20
-183.9668541506884
 30
0.0
 11
223.9341097281055
 21
-183.9668541506884
 31
0.0
  0
LINE
  5
3A9
330
2D0
100
AcDbEntity
  8
0
100
AcDbLine
 10
223.9341097281055
 20
-162.0785668161796
 30
0.0
 11
387.6796095212406
 21
-162.0785668161796
 31
0.0
  0
LINE
  5
3AA
330
2D0
100
AcDbEntity
  8
0
100
AcDbLine
 10
47.18896720338642
 20
-140.1902794816711
 30
0.0
 11
-69.80781738157616
 21
-140.1902794816711
 31
0.0
  0
LINE
  5
3AB
330
2D0
100
AcDbEntity
  8
0
100
AcDbLine
 10
387.6796095212406
 20
-140.1902794816711
 30
0.0
 11
223.9341097281055
 21
-140.1902794816711
 31
0.0
  0
LINE
  5
3AC
330
2D0
100
AcDbEntity
  8
0
100
AcDbLine
 10
-193.8044095912802
 20
-118.3019921471622
 30
0.0
 11
-76.8076250063175
 21
-118.3019921471623
 31
0.0
  0
LINE
  5
3AD
330
2D0
100
AcDbEntity
  8
0
100
AcDbLine
 10
216.9343021033643
 20
-183.9668541506884
 30
0.0
 11
54.18877482812792
 21
-183.9668541506884
 31
0.0
  0
LINE
  5
3AE
330
2D0
100
AcDbEntity
  8
0
100
AcDbLine
 10
216.9343021033643
 20
-227.7434288197057
 30
0.0
 11
54.18877482812792
 21
-227.7434288197057
 31
0.0
  0
LINE
  5
3AF
330
2D0
100
AcDbEntity
  8
0
100
AcDbLine
 10
47.18896720338642
 20
-183.9668541506884
 30
0.0
 11
-69.80781738157616
 21
-183.9668541506884
 31
0.0
  0
LINE
  5
3B0
330
2D0
100
AcDbEntity
  8
0
100
AcDbLine
 10
-76.8076250063175
 20
-183.9668541506884
 30
0.0
 11
-193.8044095912802
 21
-183.9668541506884
 31
0.0
  0
LINE
  5
3B1
330
2D0
100
AcDbEntity
  8
0
100
AcDbLine
 10
-200.8042172160214
 20
-183.9668541506884
 30
0.0
 11
-363.5497444912579
 21
-183.9668541506884
 31
0.0
  0
LINE
  5
3B2
330
2D0
100
AcDbEntity
  8
0
100
AcDbLine
 10
47.18896720338642
 20
-227.7434288197057
 30
0.0
 11
-69.80781738157616
 21
-227.7434288197057
 31
0.0
  0
LINE
  5
3B3
330
2D0
100
AcDbEntity
  8
0
100
AcDbLine
 10
-76.8076250063175
 20
-227.7434288197057
 30
0.0
 11
-193.8044095912802
 21
-227.7434288197057
 31
0.0
  0
LINE
  5
3B4
330
2D0
100
AcDbEntity
  8
0
100
AcDbLine
 10
-200.8042172160214
 20
-227.7434288197057
 30
0.0
 11
-363.5497444912579
 21
-227.7434288197057
 31
0.0
  0
LINE
  5
3B5
330
2D0
100
AcDbEntity
  8
0
100
AcDbLine
 10
-76.8076250063175
 20
-74.52541747814507
 30
0.0
 11
-193.8044095912802
 21
-74.525417478145
 31
0.0
  0
LINE
  5
3B6
330
2D0
100
AcDbEntity
  8
0
100
AcDbLine
 10
-363.5497444912579
 20
-96.41370481265367
 30
0.0
 11
-200.8042172160214
 21
-96.41370481265367
 31
0.0
  0
LINE
  5
3B7
330
2D0
100
AcDbEntity
  8
0
100
AcDbLine
 10
47.18896720338642
 20
-74.52541747814507
 30
0.0
 11
-69.80781738157616
 21
-74.52541747814507
 31
0.0
  0
LINE
  5
3B8
330
2D0
100
AcDbEntity
  8
0
100
AcDbLine
 10
216.9343021033643
 20
-74.525417478145
 30
0.0
 11
54.18877482812792
 21
-74.52541747814507
 31
0.0
  0
LINE
  5
3B9
330
2D0
100
AcDbEntity
  8
0
100
AcDbLine
 10
54.18877482812792
 20
-205.8551414851971
 30
0.0
 11
216.9343021033643
 21
-205.8551414851971
 31
0.0
  0
LINE
  5
3BA
330
2D0
100
AcDbEntity
  8
0
100
AcDbLine
 10
-193.8044095912802
 20
-54.63707517927677
 30
0.0
 11
-76.8076250063175
 21
-54.63707517927677
 31
0.0
  0
LINE
  5
3BB
330
2D0
100
AcDbEntity
  8
0
100
AcDbLine
 10
-363.5497444912579
 20
-54.63707517927677
 30
0.0
 11
-200.8042172160214
 21
-54.63707517927677
 31
0.0
  0
LINE
  5
3BC
330
2D0
100
AcDbEntity
  8
0
100
AcDbLine
 10
387.6796095212406
 20
-74.525417478145
 30
0.0
 11
223.9341097281055
 21
-74.525417478145
 31
0.0
  0
LINE
  5
3BD
330
2D0
100
AcDbEntity
  8
0
100
AcDbLine
 10
54.18877482812792
 20
-96.41370481265369
 30
0.0
 11
216.9343021033643
 21
-96.41370481265367
 31
0.0
  0
LINE
  5
3BE
330
2D0
100
AcDbEntity
  8
0
100
AcDbLine
 10
223.9341097281055
 20
-205.8551414851971
 30
0.0
 11
387.6796095212406
 21
-205.8551414851971
 31
0.0
  0
LINE
  5
3BF
330
2D0
100
AcDbEntity
  8
0
100
AcDbLine
 10
387.6796095212406
 20
-74.525417478145
 30
0.0
 11
387.6796095212406
 21
-93.41378725919307
 31
0.0
  0
LINE
  5
3C0
330
2D0
100
AcDbEntity
  8
0
100
AcDbLine
 10
387.6796095212406
 20
-118.3019921471623
 30
0.0
 11
387.6796095212406
 21
-137.1903619282106
 31
0.0
  0
LINE
  5
3C1
330
2D0
100
AcDbEntity
  8
0
100
AcDbLine
 10
387.6796095212406
 20
-140.1902794816711
 30
0.0
 11
387.6796095212406
 21
-159.078649262719
 31
0.0
  0
LINE
  5
3C2
330
2D0
100
AcDbEntity
  8
0
100
AcDbLine
 10
-534.2950519090254
 20
-96.41370481265367
 30
0.0
 11
-534.2950519090254
 21
-115.3020745937017
 31
0.0
  0
LINE
  5
3C3
330
2D0
100
AcDbEntity
  8
0
100
AcDbLine
 10
-539.2949144981264
 20
-49.63721259017577
 30
0.0
 11
392.6794721103411
 21
-49.63721259017577
 31
0.0
  0
LINE
  5
3C4
330
2D0
100
AcDbEntity
  8
0
100
AcDbLine
 10
-193.8044095912802
 20
-96.41370481265367
 30
0.0
 11
-76.8076250063175
 21
-96.41370481265367
 31
0.0
  0
LINE
  5
3C5
330
2D0
100
AcDbEntity
  8
0
100
AcDbLine
 10
-69.80781738157616
 20
-96.41370481265367
 30
0.0
 11
47.18896720338642
 21
-96.41370481265369
 31
0.0
  0
LINE
  5
3C6
330
2D0
100
AcDbEntity
  8
0
100
AcDbLine
 10
223.9341097281055
 20
-96.41370481265367
 30
0.0
 11
387.6796095212406
 21
-96.41370481265367
 31
0.0
  0
LINE
  5
3C7
330
2D0
100
AcDbEntity
  8
0
100
AcDbLine
 10
538.6754597120289
 20
-168.9672663833855
 30
0.0
 11
538.6754597120289
 21
-185.6334750137221
 31
0.0
  0
LINE
  5
3C8
330
2D0
100
AcDbEntity
  8
0
100
AcDbLine
 10
425.6785651979455
 20
-168.9672663833855
 30
0.0
 11
425.6785651979455
 21
-185.6334750137221
 31
0.0
  0
LINE
  5
3C9
330
2D0
100
AcDbEntity
  8
0
100
AcDbLine
 10
425.6785651979455
 20
-227.9656449347769
 30
0.0
 11
425.6785651979455
 21
-244.6318535651135
 31
0.0
  0
LINE
  5
3CA
330
2D0
100
AcDbEntity
  8
0
100
AcDbLine
 10
425.6785651979455
 20
-149.3011401995883
 30
0.0
 11
425.6785651979455
 21
-165.9673488299249
 31
0.0
  0
LINE
  5
3CB
330
2D0
100
AcDbEntity
  8
0
100
AcDbLine
 10
538.6754597120289
 20
-227.9656449347769
 30
0.0
 11
538.6754597120289
 21
-244.6318535651135
 31
0.0
  0
LINE
  5
3CC
330
2D0
100
AcDbEntity
  8
0
100
AcDbLine
 10
538.6754597120289
 20
-188.6333925671826
 30
0.0
 11
538.6754597120289
 21
-205.2996011975192
 31
0.0
  0
LINE
  5
3CD
330
2D0
100
AcDbEntity
  8
0
100
AcDbLine
 10
538.6754597120289
 20
-149.3011401995883
 30
0.0
 11
538.6754597120289
 21
-165.9673488299249
 31
0.0
  0
LINE
  5
3CE
330
2D0
100
AcDbEntity
  8
0
100
AcDbLine
 10
425.6785651979455
 20
-208.2995187509797
 30
0.0
 11
425.6785651979455
 21
-224.9657273813163
 31
0.0
  0
LINE
  5
3CF
330
2D0
100
AcDbEntity
  8
0
100
AcDbLine
 10
425.6785651979455
 20
-188.6333925671826
 30
0.0
 11
425.6785651979455
 21
-205.2996011975192
 31
0.0
  0
LINE
  5
3D0
330
2D0
100
AcDbEntity
  8
0
100
AcDbLine
 10
538.6754597120289
 20
-244.6318535651135
 30
0.0
 11
425.6785651979455
 21
-244.6318535651135
 31
0.0
  0
LINE
  5
3D1
330
2D0
100
AcDbEntity
  8
0
100
AcDbLine
 10
425.6785651979455
 20
-129.6350140157912
 30
0.0
 11
538.6754597120289
 21
-129.6350140157912
 31
0.0
  0
LINE
  5
3D2
330
2D0
100
AcDbEntity
  8
0
100
AcDbLine
 10
538.6754597120289
 20
-224.9657273813163
 30
0.0
 11
425.6785651979455
 21
-224.9657273813163
 31
0.0
  0
LINE
  5
3D3
330
2D0
100
AcDbEntity
  8
0
100
AcDbLine
 10
425.6785651979455
 20
-227.9656449347769
 30
0.0
 11
538.6754597120289
 21
-227.9656449347769
 31
0.0
  0
LINE
  5
3D4
330
2D0
100
AcDbEntity
  8
0
100
AcDbLine
 10
538.6754597120289
 20
-205.2996011975192
 30
0.0
 11
425.6785651979455
 21
-205.2996011975192
 31
0.0
  0
LINE
  5
3D5
330
2D0
100
AcDbEntity
  8
0
100
AcDbLine
 10
425.6785651979455
 20
-208.2995187509797
 30
0.0
 11
538.6754597120289
 21
-208.2995187509797
 31
0.0
  0
LINE
  5
3D6
330
2D0
100
AcDbEntity
  8
0
100
AcDbLine
 10
538.6754597120289
 20
-185.6334750137221
 30
0.0
 11
425.6785651979455
 21
-185.6334750137221
 31
0.0
  0
LINE
  5
3D7
330
2D0
100
AcDbEntity
  8
0
100
AcDbLine
 10
425.6785651979455
 20
-188.6333925671826
 30
0.0
 11
538.6754597120289
 21
-188.6333925671826
 31
0.0
  0
LINE
  5
3D8
330
2D0
100
AcDbEntity
  8
0
100
AcDbLine
 10
538.6754597120289
 20
-165.9673488299249
 30
0.0
 11
425.6785651979455
 21
-165.9673488299249
 31
0.0
  0
LINE
  5
3D9
330
2D0
100
AcDbEntity
  8
0
100
AcDbLine
 10
425.6785651979455
 20
-168.9672663833855
 30
0.0
 11
538.6754597120289
 21
-168.9672663833855
 31
0.0
  0
LINE
  5
3DA
330
2D0
100
AcDbEntity
  8
0
100
AcDbLine
 10
538.6754597120289
 20
-146.3012226461277
 30
0.0
 11
425.6785651979455
 21
-146.3012226461277
 31
0.0
  0
LINE
  5
3DB
330
2D0
100
AcDbEntity
  8
0
100
AcDbLine
 10
425.6785651979455
 20
-149.3011401995883
 30
0.0
 11
538.6754597120289
 21
-149.3011401995883
 31
0.0
  0
LINE
  5
3DC
330
2D0
100
AcDbEntity
  8
0
100
AcDbLine
 10
538.6754597120289
 20
-208.2995187509797
 30
0.0
 11
538.6754597120289
 21
-224.9657273813163
 31
0.0
  0
LINE
  5
3DD
330
2D0
100
AcDbEntity
  8
0
100
AcDbLine
 10
538.6754597120289
 20
-129.6350140157912
 30
0.0
 11
538.6754597120289
 21
-146.3012226461277
 31
0.0
  0
LINE
  5
3DE
330
2D0
100
AcDbEntity
  8
0
100
AcDbLine
 10
425.6785651979455
 20
-129.6350140157912
 30
0.0
 11
425.6785651979455
 21
-146.3012226461277
 31
0.0
  0
LINE
  5
3DF
330
2D0
100
AcDbEntity
  8
0
100
AcDbLine
 10
-567.2941449970926
 20
-49.63721259017577
 30
0.0
 11
-539.2949144981264
 21
-49.63721259017577
 31
0.0
  0
LINE
  5
3E0
330
2D0
100
AcDbEntity
  8
0
100
AcDbLine
 10
392.6794721103411
 20
-49.63721259017577
 30
0.0
 11
420.6787026093066
 21
-49.63721259017577
 31
0.0
  0
LINE
  5
3E1
330
2D0
100
AcDbEntity
  8
0
100
AcDbLine
 10
-567.2941449971142
 20
-339.6292427580318
 30
0.0
 11
-567.2941449970926
 21
-249.6317161542144
 31
0.0
  0
LINE
  5
3E2
330
2D0
100
AcDbEntity
  8
0
100
AcDbLine
 10
-567.2941449970926
 20
-249.6317161542144
 30
0.0
 11
-567.2941449970926
 21
-124.6351514266902
 31
0.0
  0
LINE
  5
3E3
330
2D0
100
AcDbEntity
  8
0
100
AcDbLine
 10
-567.2941449970926
 20
-124.6351514266902
 30
0.0
 11
-567.2941449970926
 21
-49.63721259017577
 31
0.0
  0
LINE
  5
3E4
330
2D0
100
AcDbEntity
  8
0
100
AcDbLine
 10
-567.2941449970926
 20
-19.63803705556998
 30
0.0
 11
-567.2941449970926
 21
-49.63721259017577
 31
0.0
  0
LINE
  5
3E5
330
2D0
100
AcDbEntity
  8
0
100
AcDbLine
 10
-567.2941449970926
 20
-249.6317161542144
 30
0.0
 11
-690.2907646894001
 21
-249.6317161542144
 31
0.0
  0
LINE
  5
3E6
330
2D0
100
AcDbEntity
  8
0
100
AcDbLine
 10
-690.2907646894001
 20
-249.6317161542144
 30
0.0
 11
-690.2907646894001
 21
-124.6351514266902
 31
0.0
  0
LINE
  5
3E7
330
2D0
100
AcDbEntity
  8
0
100
AcDbLine
 10
-690.2907646894001
 20
-124.6351514266902
 30
0.0
 11
-567.2941449970926
 21
-124.6351514266902
 31
0.0
  0
LINE
  5
3E8
330
2D0
100
AcDbEntity
  8
0
100
AcDbLine
 10
-539.294914498127
 20
-249.6317161542144
 30
0.0
 11
-539.2949144981264
 21
-49.63721259017577
 31
0.0
  0
LINE
  5
3E9
330
2D0
100
AcDbEntity
  8
0
100
AcDbLine
 10
420.6787026093066
 20
-339.6292427580318
 30
0.0
 11
420.6787026093066
 21
-249.6317161542144
 31
0.0
  0
LINE
  5
3EA
330
2D0
100
AcDbEntity
  8
0
100
AcDbLine
 10
392.6794721103411
 20
-49.63721259017577
 30
0.0
 11
392.6794721103412
 21
-249.6317161542144
 31
0.0
  0
LINE
  5
3EB
330
2D0
100
AcDbEntity
  8
0
100
AcDbLine
 10
420.6787026093066
 20
-249.6317161542144
 30
0.0
 11
420.6787026093066
 21
-124.6351514266902
 31
0.0
  0
LINE
  5
3EC
330
2D0
100
AcDbEntity
  8
0
100
AcDbLine
 10
420.6787026093066
 20
-124.6351514266902
 30
0.0
 11
420.6787026093066
 21
-49.63721259017577
 31
0.0
  0
LINE
  5
3ED
330
2D0
100
AcDbEntity
  8
0
100
AcDbLine
 10
392.6794721103412
 20
-249.6317161542144
 30
0.0
 11
-539.294914498127
 21
-249.6317161542144
 31
0.0
  0
LINE
  5
3EE
330
2D0
100
AcDbEntity
  8
0
100
AcDbLine
 10
543.6753223011297
 20
-124.6351514266902
 30
0.0
 11
543.6753223011297
 21
-249.6317161542144
 31
0.0
  0
LINE
  5
3EF
330
2D0
100
AcDbEntity
  8
0
100
AcDbLine
 10
543.6753223011297
 20
-249.6317161542144
 30
0.0
 11
420.6787026093066
 21
-249.6317161542144
 31
0.0
  0
LINE
  5
3F0
330
2D0
100
AcDbEntity
  8
0
100
AcDbLine
 10
420.6787026093066
 20
-124.6351514266902
 30
0.0
 11
543.6753223011297
 21
-124.6351514266902
 31
0.0
  0
LINE
  5
3F1
330
2D0
100
AcDbEntity
  8
0
100
AcDbLine
 10
420.6787026093066
 20
-49.63721259017577
 30
0.0
 11
420.6787026093066
 21
-19.63803705556998
 31
0.0
  0
LINE
  5
3F2
330
2D0
100
AcDbEntity
  8
0
100
AcDbLine
 10
571.8652027694491
 20
-59.63693776837771
 30
0.0
 11
571.8652027694491
 21
-49.63721259017577
 31
0.0
  0
LINE
  5
3F3
330
2D0
100
AcDbEntity
  8
0
100
AcDbLine
 10
571.6745528000951
 20
-329.6295175798298
 30
0.0
 11
571.8679357608619
 21
-329.6295175798298
 31
0.0
  0
LINE
  5
3F4
330
2D0
100
AcDbEntity
  8
0
100
AcDbLine
 10
-539.266361983341
 20
-50.63718510799596
 30
0.0
 11
-539.2692741771566
 21
-50.63718510799596
 31
0.0
  0
LINE
  5
3F5
330
2D0
100
AcDbEntity
  8
0
100
AcDbLine
 10
-539.2820943376415
 20
-50.13719884908586
 30
0.0
 11
-539.2758794882694
 21
-50.13719884908586
 31
0.0
  0
LINE
  5
3F6
330
2D0
100
AcDbEntity
  8
0
100
AcDbLine
 10
571.6745528000946
 20
-369.6284182926376
 30
0.0
 11
571.8676836083139
 21
-369.6284182926376
 31
0.0
  0
LINE
  5
3F7
330
2D0
100
AcDbEntity
  8
0
100
AcDbLine
 10
420.6787026092483
 20
-369.6284182926376
 30
0.0
 11
571.6745528000946
 21
-369.6284182926376
 31
0.0
  0
LINE
  5
3F8
330
2D0
100
AcDbEntity
  8
0
100
AcDbLine
 10
-718.2899951879612
 20
-369.6284182926376
 30
0.0
 11
-567.2941449971142
 21
-369.6284182926376
 31
0.0
  0
LINE
  5
3F9
330
2D0
100
AcDbEntity
  8
0
100
AcDbLine
 10
571.8676836083139
 20
-369.6284182926376
 30
0.0
 11
571.8679357608619
 21
-339.6292427580318
 31
0.0
  0
LINE
  5
3FA
330
2D0
100
AcDbEntity
  8
0
100
AcDbLine
 10
571.6745528000946
 20
-369.6284182926376
 30
0.0
 11
571.6745528000951
 21
-339.6292427580318
 31
0.0
  0
LINE
  5
3FB
330
2D0
100
AcDbEntity
  8
0
100
AcDbLine
 10
420.6787026092483
 20
-369.6284182926376
 30
0.0
 11
420.6787026093066
 21
-339.6292427580318
 31
0.0
  0
LINE
  5
3FC
330
2D0
100
AcDbEntity
  8
0
100
AcDbLine
 10
-567.2941449971142
 20
-369.6284182926376
 30
0.0
 11
-567.2941449971142
 21
-339.6292427580318
 31
0.0
  0
LINE
  5
3FD
330
2D0
100
AcDbEntity
  8
0
100
AcDbLine
 10
-718.2899951879644
 20
-349.6289679362337
 30
0.0
 11
-718.2899951879612
 21
-369.6284182926376
 31
0.0
  0
LINE
  5
3FE
330
2D0
100
AcDbEntity
  8
0
100
AcDbLine
 10
-718.4831259961782
 20
-349.6289679362338
 30
0.0
 11
-718.4831259961782
 21
-369.6284182926376
 31
0.0
  0
LINE
  5
3FF
330
2D0
100
AcDbEntity
  8
0
100
AcDbLine
 10
-718.4831259961782
 20
-369.6284182926376
 30
0.0
 11
-718.2899951879612
 21
-369.6284182926376
 31
0.0
  0
LINE
  5
400
330
2D0
100
AcDbEntity
  8
0
100
AcDbLine
 10
-1053.280788657689
 20
-49.63721259017577
 30
0.0
 11
-1047.250979299918
 21
-49.63721259017574
 31
0.0
  0
LINE
  5
401
330
2D0
100
AcDbEntity
  8
0
100
AcDbLine
 10
-597.2933205316711
 20
168.3567962946263
 30
0.0
 11
-572.2940075861619
 21
168.3567962946263
 31
0.0
  0
LINE
  5
402
330
2D0
100
AcDbEntity
  8
0
100
AcDbLine
 10
-567.2941449970609
 20
173.3566588837273
 30
0.0
 11
-1025.281558158715
 21
173.3566588837273
 31
0.0
  0
LINE
  5
403
330
2D0
100
AcDbEntity
  8
0
100
AcDbLine
 10
-1025.281558158715
 20
173.3566588837273
 30
0.0
 11
-1025.281558158715
 21
67.35957199478685
 31
0.0
  0
LINE
  5
404
330
2D0
100
AcDbEntity
  8
0
100
AcDbLine
 10
-1025.281558158715
 20
67.35957199478685
 30
0.0
 11
-567.2941449970609
 21
67.35957199478685
 31
0.0
  0
LINE
  5
405
330
2D0
100
AcDbEntity
  8
0
100
AcDbLine
 10
-567.2941449970609
 20
67.35957199478685
 30
0.0
 11
-567.2941449970609
 21
173.3566588837273
 31
0.0
  0
LINE
  5
406
330
2D0
100
AcDbEntity
  8
0
100
AcDbLine
 10
-1020.281695569614
 20
168.3567962946263
 30
0.0
 11
-995.2823826241106
 21
168.3567962946263
 31
0.0
  0
LINE
  5
407
330
2D0
100
AcDbEntity
  8
0
100
AcDbLine
 10
-995.2823826241106
 20
168.3567962946263
 30
0.0
 11
-995.2823826241106
 21
72.35943458388781
 31
0.0
  0
LINE
  5
408
330
2D0
100
AcDbEntity
  8
0
100
AcDbLine
 10
-995.2823826241106
 20
72.35943458388781
 30
0.0
 11
-1020.281695569614
 21
72.35943458388781
 31
0.0
  0
LINE
  5
409
330
2D0
100
AcDbEntity
  8
0
100
AcDbLine
 10
-1020.281695569614
 20
72.35943458388781
 30
0.0
 11
-1020.281695569614
 21
168.3567962946263
 31
0.0
  0
LINE
  5
40A
330
2D0
100
AcDbEntity
  8
0
100
AcDbLine
 10
-602.2931831207721
 20
168.3567962946263
 30
0.0
 11
-602.2931831207721
 21
72.35943458388781
 31
0.0
  0
LINE
  5
40B
330
2D0
100
AcDbEntity
  8
0
100
AcDbLine
 10
-990.2825200350095
 20
72.35943458388781
 30
0.0
 11
-990.2825200350095
 21
168.3567962946263
 31
0.0
  0
LINE
  5
40C
330
2D0
100
AcDbEntity
  8
0
100
AcDbLine
 10
-572.2940075861619
 20
168.3567962946263
 30
0.0
 11
-572.2940075861619
 21
72.35943458388781
 31
0.0
  0
LINE
  5
40D
330
2D0
100
AcDbEntity
  8
0
100
AcDbLine
 10
-572.2940075861619
 20
72.35943458388781
 30
0.0
 11
-597.2933205316711
 21
72.35943458388781
 31
0.0
  0
LINE
  5
40E
330
2D0
100
AcDbEntity
  8
0
100
AcDbLine
 10
-597.2933205316711
 20
72.35943458388781
 30
0.0
 11
-597.2933205316711
 21
168.3567962946263
 31
0.0
  0
LINE
  5
40F
330
2D0
100
AcDbEntity
  8
0
100
AcDbLine
 10
-990.2825200350095
 20
72.35943458388781
 30
0.0
 11
-729.9563412291441
 21
72.35943458388781
 31
0.0
  0
LINE
  5
410
330
2D0
100
AcDbEntity
  8
0
100
AcDbLine
 10
-729.9563412291441
 20
168.3567962946263
 30
0.0
 11
-990.2825200350095
 21
168.3567962946263
 31
0.0
  0
LINE
  5
411
330
2D0
100
AcDbEntity
  8
0
100
AcDbLine
 10
-985.2826574459017
 20
163.3569337055253
 30
0.0
 11
-862.6193619266238
 21
163.3569337055253
 31
0.0
  0
LINE
  5
412
330
2D0
100
AcDbEntity
  8
0
100
AcDbLine
 10
-862.6193619266238
 20
163.3569337055253
 30
0.0
 11
-862.6193619266238
 21
77.3592971729888
 31
0.0
  0
LINE
  5
413
330
2D0
100
AcDbEntity
  8
0
100
AcDbLine
 10
-862.6193619266238
 20
77.3592971729888
 30
0.0
 11
-985.2826574459017
 21
77.3592971729888
 31
0.0
  0
LINE
  5
414
330
2D0
100
AcDbEntity
  8
0
100
AcDbLine
 10
-985.2826574459017
 20
77.3592971729888
 30
0.0
 11
-985.2826574459017
 21
163.3569337055253
 31
0.0
  0
LINE
  5
415
330
2D0
100
AcDbEntity
  8
0
100
AcDbLine
 10
-857.619499337523
 20
163.3569337055253
 30
0.0
 11
-734.9562038182453
 21
163.3569337055253
 31
0.0
  0
LINE
  5
416
330
2D0
100
AcDbEntity
  8
0
100
AcDbLine
 10
-734.9562038182453
 20
163.3569337055253
 30
0.0
 11
-734.9562038182453
 21
77.3592971729888
 31
0.0
  0
LINE
  5
417
330
2D0
100
AcDbEntity
  8
0
100
AcDbLine
 10
-734.9562038182453
 20
77.3592971729888
 30
0.0
 11
-857.619499337523
 21
77.3592971729888
 31
0.0
  0
LINE
  5
418
330
2D0
100
AcDbEntity
  8
0
100
AcDbLine
 10
-857.619499337523
 20
77.3592971729888
 30
0.0
 11
-857.619499337523
 21
163.3569337055253
 31
0.0
  0
LINE
  5
419
330
2D0
100
AcDbEntity
  8
0
100
AcDbLine
 10
-729.9563412291441
 20
163.3569337055253
 30
0.0
 11
-607.2930457098731
 21
163.3569337055253
 31
0.0
  0
LINE
  5
41A
330
2D0
100
AcDbEntity
  8
0
100
AcDbLine
 10
-607.2930457098731
 20
163.3569337055253
 30
0.0
 11
-607.2930457098731
 21
77.3592971729888
 31
0.0
  0
LINE
  5
41B
330
2D0
100
AcDbEntity
  8
0
100
AcDbLine
 10
-607.2930457098731
 20
77.3592971729888
 30
0.0
 11
-729.9563412291441
 21
77.3592971729888
 31
0.0
  0
LINE
  5
41C
330
2D0
100
AcDbEntity
  8
0
100
AcDbLine
 10
-729.9563412291441
 20
77.3592971729888
 30
0.0
 11
-729.9563412291441
 21
163.3569337055253
 31
0.0
  0
LINE
  5
41D
330
2D0
100
AcDbEntity
  8
0
100
AcDbLine
 10
873.6662531818375
 20
168.3567962946263
 30
0.0
 11
873.6662531818375
 21
72.35943458388781
 31
0.0
  0
LINE
  5
41E
330
2D0
100
AcDbEntity
  8
0
100
AcDbLine
 10
399.1792934761559
 20
168.3567962946263
 30
0.0
 11
399.1792934761559
 21
72.35943458388781
 31
0.0
  0
LINE
  5
41F
330
2D0
100
AcDbEntity
  8
0
100
AcDbLine
 10
404.1791560652568
 20
72.35943458388781
 30
0.0
 11
404.1791560652568
 21
168.3567962946263
 31
0.0
  0
LINE
  5
420
330
2D0
100
AcDbEntity
  8
0
100
AcDbLine
 10
878.6661157709385
 20
67.35957199478685
 30
0.0
 11
878.6661157709385
 21
173.3566588837273
 31
0.0
  0
LINE
  5
421
330
2D0
100
AcDbEntity
  8
0
100
AcDbLine
 10
-203.8041347694209
 20
168.3567962946263
 30
0.0
 11
-203.8041347694209
 21
72.35943458388781
 31
0.0
  0
LINE
  5
422
330
2D0
100
AcDbEntity
  8
0
100
AcDbLine
 10
878.6661157709385
 20
173.3566588837273
 30
0.0
 11
-539.2949144980957
 21
173.3566588837273
 31
0.0
  0
LINE
  5
423
330
2D0
100
AcDbEntity
  8
0
100
AcDbLine
 10
-539.2949144980957
 20
67.35957199478685
 30
0.0
 11
878.6661157709385
 21
67.35957199478685
 31
0.0
  0
LINE
  5
424
330
2D0
100
AcDbEntity
  8
0
100
AcDbLine
 10
-534.2950519089948
 20
72.35943458388781
 30
0.0
 11
-534.2950519089948
 21
168.3567962946263
 31
0.0
  0
LINE
  5
425
330
2D0
100
AcDbEntity
  8
0
100
AcDbLine
 10
-539.2949144980957
 20
173.3566588837273
 30
0.0
 11
-539.2949144980957
 21
67.35957199478685
 31
0.0
  0
LINE
  5
426
330
2D0
100
AcDbEntity
  8
0
100
AcDbLine
 10
-198.8042721803199
 20
72.35943458388781
 30
0.0
 11
-198.8042721803199
 21
168.3567962946263
 31
0.0
  0
LINE
  5
427
330
2D0
100
AcDbEntity
  8
0
100
AcDbLine
 10
713.8373124169101
 20
163.3569337055253
 30
0.0
 11
713.8373124169101
 21
77.3592971729888
 31
0.0
  0
LINE
  5
428
330
2D0
100
AcDbEntity
  8
0
100
AcDbLine
 10
559.0082342410834
 20
72.35943458388781
 30
0.0
 11
718.837175006011
 21
72.35943458388781
 31
0.0
  0
LINE
  5
429
330
2D0
100
AcDbEntity
  8
0
100
AcDbLine
 10
718.837175006011
 20
168.3567962946263
 30
0.0
 11
559.0082342410834
 21
168.3567962946263
 31
0.0
  0
LINE
  5
42A
330
2D0
100
AcDbEntity
  8
0
100
AcDbLine
 10
564.0080968301844
 20
77.3592971729888
 30
0.0
 11
564.0080968301844
 21
163.3569337055253
 31
0.0
  0
LINE
  5
42B
330
2D0
100
AcDbEntity
  8
0
100
AcDbLine
 10
713.8373124169101
 20
77.3592971729888
 30
0.0
 11
564.0080968301844
 21
77.3592971729888
 31
0.0
  0
LINE
  5
42C
330
2D0
100
AcDbEntity
  8
0
100
AcDbLine
 10
564.0080968301844
 20
163.3569337055253
 30
0.0
 11
713.8373124169101
 21
163.3569337055253
 31
0.0
  0
LINE
  5
42D
330
2D0
100
AcDbEntity
  8
0
100
AcDbLine
 10
868.6663905927368
 20
163.3569337055253
 30
0.0
 11
868.6663905927368
 21
77.3592971729888
 31
0.0
  0
LINE
  5
42E
330
2D0
100
AcDbEntity
  8
0
100
AcDbLine
 10
718.837175006011
 20
77.3592971729888
 30
0.0
 11
718.837175006011
 21
163.3569337055253
 31
0.0
  0
LINE
  5
42F
330
2D0
100
AcDbEntity
  8
0
100
AcDbLine
 10
868.6663905927368
 20
77.3592971729888
 30
0.0
 11
718.837175006011
 21
77.3592971729888
 31
0.0
  0
LINE
  5
430
330
2D0
100
AcDbEntity
  8
0
100
AcDbLine
 10
718.837175006011
 20
163.3569337055253
 30
0.0
 11
868.6663905927368
 21
163.3569337055253
 31
0.0
  0
LINE
  5
431
330
2D0
100
AcDbEntity
  8
0
100
AcDbLine
 10
559.0082342410834
 20
163.3569337055253
 30
0.0
 11
559.0082342410834
 21
77.3592971729888
 31
0.0
  0
LINE
  5
432
330
2D0
100
AcDbEntity
  8
0
100
AcDbLine
 10
409.1790186543578
 20
77.3592971729888
 30
0.0
 11
409.1790186543578
 21
163.3569337055253
 31
0.0
  0
LINE
  5
433
330
2D0
100
AcDbEntity
  8
0
100
AcDbLine
 10
559.0082342410834
 20
77.3592971729888
 30
0.0
 11
409.1790186543578
 21
77.3592971729888
 31
0.0
  0
LINE
  5
434
330
2D0
100
AcDbEntity
  8
0
100
AcDbLine
 10
409.1790186543578
 20
163.3569337055253
 30
0.0
 11
559.0082342410834
 21
163.3569337055253
 31
0.0
  0
LINE
  5
435
330
2D0
100
AcDbEntity
  8
0
100
AcDbLine
 10
-366.5496620446573
 20
77.3592971729888
 30
0.0
 11
-366.5496620446573
 21
163.3569337055253
 31
0.0
  0
LINE
  5
436
330
2D0
100
AcDbEntity
  8
0
100
AcDbLine
 10
-366.5496620446573
 20
163.3569337055253
 30
0.0
 11
-208.8039973585219
 21
163.3569337055253
 31
0.0
  0
LINE
  5
437
330
2D0
100
AcDbEntity
  8
0
100
AcDbLine
 10
-371.5495246337582
 20
72.35943458388781
 30
0.0
 11
-203.8041347694209
 21
72.35943458388781
 31
0.0
  0
LINE
  5
438
330
2D0
100
AcDbEntity
  8
0
100
AcDbLine
 10
-203.8041347694209
 20
168.3567962946263
 30
0.0
 11
-371.5495246337582
 21
168.3567962946263
 31
0.0
  0
LINE
  5
439
330
2D0
100
AcDbEntity
  8
0
100
AcDbLine
 10
-208.8039973585219
 20
77.3592971729888
 30
0.0
 11
-366.5496620446573
 21
77.3592971729888
 31
0.0
  0
LINE
  5
43A
330
2D0
100
AcDbEntity
  8
0
100
AcDbLine
 10
-208.8039973585219
 20
163.3569337055253
 30
0.0
 11
-208.8039973585219
 21
77.3592971729888
 31
0.0
  0
LINE
  5
43B
330
2D0
100
AcDbEntity
  8
0
100
AcDbLine
 10
-529.2951893198938
 20
163.3569337055253
 30
0.0
 11
-371.5495246337582
 21
163.3569337055253
 31
0.0
  0
LINE
  5
43C
330
2D0
100
AcDbEntity
  8
0
100
AcDbLine
 10
-371.5495246337582
 20
163.3569337055253
 30
0.0
 11
-371.5495246337582
 21
77.3592971729888
 31
0.0
  0
LINE
  5
43D
330
2D0
100
AcDbEntity
  8
0
100
AcDbLine
 10
-371.5495246337582
 20
77.3592971729888
 30
0.0
 11
-529.2951893198938
 21
77.3592971729888
 31
0.0
  0
LINE
  5
43E
330
2D0
100
AcDbEntity
  8
0
100
AcDbLine
 10
-529.2951893198938
 20
77.3592971729888
 30
0.0
 11
-529.2951893198938
 21
163.3569337055253
 31
0.0
  0
LINE
  5
43F
330
2D0
100
AcDbEntity
  8
0
100
AcDbLine
 10
-193.8044095912186
 20
163.3569337055253
 30
0.0
 11
-50.55834641347605
 21
163.3569337055253
 31
0.0
  0
LINE
  5
440
330
2D0
100
AcDbEntity
  8
0
100
AcDbLine
 10
-193.8044095912186
 20
77.3592971729888
 30
0.0
 11
-193.8044095912186
 21
163.3569337055253
 31
0.0
  0
LINE
  5
441
330
2D0
100
AcDbEntity
  8
0
100
AcDbLine
 10
-50.55834641347605
 20
77.3592971729888
 30
0.0
 11
-193.8044095912186
 21
77.3592971729888
 31
0.0
  0
LINE
  5
442
330
2D0
100
AcDbEntity
  8
0
100
AcDbLine
 10
-50.55834641347605
 20
163.3569337055253
 30
0.0
 11
-50.55834641347605
 21
77.3592971729888
 31
0.0
  0
LINE
  5
443
330
2D0
100
AcDbEntity
  8
0
100
AcDbLine
 10
-45.55848382437505
 20
163.3569337055253
 30
0.0
 11
97.68757935336765
 21
163.3569337055253
 31
0.0
  0
LINE
  5
444
330
2D0
100
AcDbEntity
  8
0
100
AcDbLine
 10
-45.55848382437505
 20
77.3592971729888
 30
0.0
 11
-45.55848382437505
 21
163.3569337055253
 31
0.0
  0
LINE
  5
445
330
2D0
100
AcDbEntity
  8
0
100
AcDbLine
 10
97.68757935336768
 20
77.3592971729888
 30
0.0
 11
-45.55848382437505
 21
77.3592971729888
 31
0.0
  0
LINE
  5
446
330
2D0
100
AcDbEntity
  8
0
100
AcDbLine
 10
97.68757935336765
 20
163.3569337055253
 30
0.0
 11
97.68757935336768
 21
77.3592971729888
 31
0.0
  0
LINE
  5
447
330
2D0
100
AcDbEntity
  8
0
100
AcDbLine
 10
97.68757935336768
 20
72.35943458388781
 30
0.0
 11
399.1792934761559
 21
72.35943458388781
 31
0.0
  0
LINE
  5
448
330
2D0
100
AcDbEntity
  8
0
100
AcDbLine
 10
399.1792934761559
 20
168.3567962946263
 30
0.0
 11
97.68757935336768
 21
168.3567962946263
 31
0.0
  0
LINE
  5
449
330
2D0
100
AcDbEntity
  8
0
100
AcDbLine
 10
102.6874419424686
 20
163.3569337055253
 30
0.0
 11
245.9335051202113
 21
163.3569337055253
 31
0.0
  0
LINE
  5
44A
330
2D0
100
AcDbEntity
  8
0
100
AcDbLine
 10
102.6874419424686
 20
77.3592971729888
 30
0.0
 11
102.6874419424686
 21
163.3569337055253
 31
0.0
  0
LINE
  5
44B
330
2D0
100
AcDbEntity
  8
0
100
AcDbLine
 10
245.9335051202113
 20
77.3592971729888
 30
0.0
 11
102.6874419424686
 21
77.3592971729888
 31
0.0
  0
LINE
  5
44C
330
2D0
100
AcDbEntity
  8
0
100
AcDbLine
 10
245.9335051202113
 20
163.3569337055253
 30
0.0
 11
245.9335051202113
 21
77.3592971729888
 31
0.0
  0
LINE
  5
44D
330
2D0
100
AcDbEntity
  8
0
100
AcDbLine
 10
250.9333677093123
 20
163.3569337055253
 30
0.0
 11
394.179430887055
 21
163.3569337055253
 31
0.0
  0
LINE
  5
44E
330
2D0
100
AcDbEntity
  8
0
100
AcDbLine
 10
250.9333677093123
 20
77.3592971729888
 30
0.0
 11
250.9333677093123
 21
163.3569337055253
 31
0.0
  0
LINE
  5
44F
330
2D0
100
AcDbEntity
  8
0
100
AcDbLine
 10
394.179430887055
 20
77.3592971729888
 30
0.0
 11
250.9333677093123
 21
77.3592971729888
 31
0.0
  0
LINE
  5
450
330
2D0
100
AcDbEntity
  8
0
100
AcDbLine
 10
394.179430887055
 20
163.3569337055253
 30
0.0
 11
394.179430887055
 21
77.3592971729888
 31
0.0
  0
LINE
  5
451
330
2D0
100
AcDbEntity
  8
0
100
AcDbLine
 10
900.6355369120653
 20
-49.63721259017574
 30
0.0
 11
906.6653462699038
 21
-49.63721259017577
 31
0.0
  0
LINE
  5
452
330
2D0
100
AcDbEntity
  8
0
100
AcDbLine
 10
-1019.311697302712
 20
-49.63721259017574
 30
0.0
 11
-718.289995187964
 21
-49.63721259017577
 31
0.0
  0
LINE
  5
453
330
2D0
100
AcDbEntity
  8
0
100
AcDbLine
 10
-499.2960137852863
 20
580.3454736365458
 30
0.0
 11
-499.2960137852863
 21
590.3451988147478
 31
0.0
  0
LINE
  5
454
330
2D0
100
AcDbEntity
  8
0
100
AcDbLine
 10
-830.606984294285
 20
580.3454736365458
 30
0.0
 11
-830.606984294285
 21
590.3451988147478
 31
0.0
  0
LINE
  5
455
330
2D0
100
AcDbEntity
  8
0
100
AcDbLine
 10
87.70610679689937
 20
580.3454736365458
 30
0.0
 11
88.91700446752786
 21
580.3454736365458
 31
0.0
  0
LINE
  5
456
330
2D0
100
AcDbEntity
  8
0
100
AcDbLine
 10
88.91700446752786
 20
580.3454736365458
 30
0.0
 11
88.91700446752786
 21
590.3451988147478
 31
0.0
  0
LINE
  5
457
330
2D0
100
AcDbEntity
  8
0
100
AcDbLine
 10
742.0476039803912
 20
580.3454736365458
 30
0.0
 11
742.0476039803912
 21
590.3451988147478
 31
0.0
  0
LINE
  5
458
330
2D0
100
AcDbEntity
  8
0
100
AcDbLine
 10
742.0476039803912
 20
580.3454736365458
 30
0.0
 11
744.8952580398943
 21
580.3454736365458
 31
0.0
  0
LINE
  5
459
330
2D0
100
AcDbEntity
  8
0
100
AcDbLine
 10
793.3582470814357
 20
580.3454736365458
 30
0.0
 11
793.3582470814357
 21
590.3451988147478
 31
0.0
  0
LINE
  5
45A
330
2D0
100
AcDbEntity
  8
0
100
AcDbLine
 10
793.3611847331243
 20
590.3451988147478
 30
0.0
 11
793.3582470814357
 21
590.3451988147478
 31
0.0
  0
LINE
  5
45B
330
2D0
100
AcDbEntity
  8
0
100
AcDbLine
 10
793.3582470814357
 20
580.3454736365458
 30
0.0
 11
793.3611847331243
 21
580.3454736365458
 31
0.0
  0
LINE
  5
45C
330
2D0
100
AcDbEntity
  8
0
100
AcDbLine
 10
793.3611847331243
 20
580.3454736365458
 30
0.0
 11
793.3611847331243
 21
590.3451988147478
 31
0.0
  0
LINE
  5
45D
330
2D0
100
AcDbEntity
  8
0
100
AcDbLine
 10
578.6743604243635
 20
590.3451988147478
 30
0.0
 11
578.6743604243635
 21
580.3454736365458
 31
0.0
  0
LINE
  5
45E
330
2D0
100
AcDbEntity
  8
0
100
AcDbLine
 10
-499.2960137852863
 20
350.3517945379015
 30
0.0
 11
-499.2960137852863
 21
580.3454736365458
 31
0.0
  0
LINE
  5
45F
330
2D0
100
AcDbEntity
  8
0
100
AcDbLine
 10
742.0421057890796
 20
316.3527289320148
 30
0.0
 11
742.042105789078
 21
580.3454736365458
 31
0.0
  0
LINE
  5
460
330
2D0
100
AcDbEntity
  8
0
100
AcDbLine
 10
742.042105789078
 20
580.3454736365458
 30
0.0
 11
578.6743604243635
 21
580.3454736365458
 31
0.0
  0
LINE
  5
461
330
2D0
100
AcDbEntity
  8
0
100
AcDbLine
 10
578.6743604243635
 20
580.3454736365458
 30
0.0
 11
578.6743604243635
 21
340.3520693596995
 31
0.0
  0
LINE
  5
462
330
2D0
100
AcDbEntity
  8
0
100
AcDbLine
 10
793.3536787571415
 20
316.3527289320152
 30
0.0
 11
793.3536787571415
 21
580.3454736365458
 31
0.0
  0
LINE
  5
463
330
2D0
100
AcDbEntity
  8
0
100
AcDbLine
 10
793.3582470814357
 20
580.3454736365458
 30
0.0
 11
793.3536787571415
 21
580.3454736365458
 31
0.0
  0
LINE
  5
464
330
2D0
100
AcDbEntity
  8
0
100
AcDbLine
 10
793.3566378882345
 20
316.3527289320152
 30
0.0
 11
793.3582470814357
 21
580.3454736365458
 31
0.0
  0
LINE
  5
465
330
2D0
100
AcDbEntity
  8
0
100
AcDbLine
 10
-830.606630846303
 20
316.3527289320152
 30
0.0
 11
-830.606984294285
 21
580.3454736365458
 31
0.0
  0
LINE
  5
466
330
2D0
100
AcDbEntity
  8
0
100
AcDbLine
 10
87.7057336619276
 20
390.3506952507092
 30
0.0
 11
82.69693132990232
 21
390.3506952507092
 31
0.0
  0
LINE
  5
467
330
2D0
100
AcDbEntity
  8
0
100
AcDbLine
 10
72.69720615170178
 20
390.3506952507092
 30
0.0
 11
72.69720615170178
 21
380.3509700725072
 31
0.0
  0
LINE
  5
468
330
2D0
100
AcDbEntity
  8
0
100
AcDbLine
 10
72.69720615170178
 20
370.3512448943052
 30
0.0
 11
72.69720615170178
 21
316.3527289320152
 31
0.0
  0
LINE
  5
469
330
2D0
100
AcDbEntity
  8
0
100
AcDbLine
 10
87.7057336619276
 20
490.3479470327241
 30
0.0
 11
82.69693132990232
 21
490.3479470327241
 31
0.0
  0
LINE
  5
46A
330
2D0
100
AcDbEntity
  8
0
100
AcDbLine
 10
72.69720615170178
 20
490.3479470327241
 30
0.0
 11
72.69720615170178
 21
390.3506952507092
 31
0.0
  0
LINE
  5
46B
330
2D0
100
AcDbEntity
  8
0
100
AcDbLine
 10
72.69720615170178
 20
580.3454736365458
 30
0.0
 11
72.69720615170178
 21
500.3476722109304
 31
0.0
  0
LINE
  5
46C
330
2D0
100
AcDbEntity
  8
0
100
AcDbLine
 10
-72.29880893222619
 20
400.350420428911
 30
0.0
 11
-72.29880893222619
 21
490.3479470327241
 31
0.0
  0
LINE
  5
46D
330
2D0
100
AcDbEntity
  8
0
100
AcDbLine
 10
72.69720615170178
 20
390.3506952507092
 30
0.0
 11
-68.30785860499656
 21
390.3506952507092
 31
0.0
  0
LINE
  5
46E
330
2D0
100
AcDbEntity
  8
0
100
AcDbLine
 10
-72.29880893222619
 20
490.3479470327241
 30
0.0
 11
72.69720615170178
 21
490.3479470327241
 31
0.0
  0
LINE
  5
46F
330
2D0
100
AcDbEntity
  8
0
100
AcDbLine
 10
87.70610679689937
 20
580.3454736365458
 30
0.0
 11
87.7057336619276
 21
490.3479470327241
 31
0.0
  0
LINE
  5
470
330
2D0
100
AcDbEntity
  8
0
100
AcDbLine
 10
-499.2960137852863
 20
580.3454736365458
 30
0.0
 11
-295.7971365369554
 21
580.3454736365458
 31
0.0
  0
LINE
  5
471
330
2D0
100
AcDbEntity
  8
0
100
AcDbLine
 10
-285.7974113587563
 20
580.3454736365458
 30
0.0
 11
-82.29853411042672
 21
580.3454736365458
 31
0.0
  0
LINE
  5
472
330
2D0
100
AcDbEntity
  8
0
100
AcDbLine
 10
72.69720615170178
 20
500.3476722109304
 30
0.0
 11
-72.29880893222618
 21
500.3476722109304
 31
0.0
  0
LINE
  5
473
330
2D0
100
AcDbEntity
  8
0
100
AcDbLine
 10
72.69720615170178
 20
500.3476722109304
 30
0.0
 11
72.69720615170178
 21
490.3479470327241
 31
0.0
  0
LINE
  5
474
330
2D0
100
AcDbEntity
  8
0
100
AcDbLine
 10
-72.29880893222619
 20
490.3479470327241
 30
0.0
 11
-72.29880893222618
 21
500.3476722109304
 31
0.0
  0
LINE
  5
475
330
2D0
100
AcDbEntity
  8
0
100
AcDbLine
 10
-285.7974113587563
 20
580.3454736365458
 30
0.0
 11
-295.7971365369554
 21
580.3454736365458
 31
0.0
  0
LINE
  5
476
330
2D0
100
AcDbEntity
  8
0
100
AcDbLine
 10
-285.7974113587563
 20
350.3517945379015
 30
0.0
 11
-285.7974113587563
 21
580.3454736365458
 31
0.0
  0
LINE
  5
477
330
2D0
100
AcDbEntity
  8
0
100
AcDbLine
 10
-295.7971365369554
 20
350.3517945379015
 30
0.0
 11
-295.7971365369554
 21
580.3454736365458
 31
0.0
  0
LINE
  5
478
330
2D0
100
AcDbEntity
  8
0
100
AcDbLine
 10
-72.29880893222764
 20
580.3454736365458
 30
0.0
 11
-82.29853411042672
 21
580.3454736365458
 31
0.0
  0
LINE
  5
479
330
2D0
100
AcDbEntity
  8
0
100
AcDbLine
 10
-72.29880893222618
 20
500.3476722109304
 30
0.0
 11
-72.29880893222764
 21
580.3454736365458
 31
0.0
  0
LINE
  5
47A
330
2D0
100
AcDbEntity
  8
0
100
AcDbLine
 10
-82.29853411042672
 20
380.3509700725072
 30
0.0
 11
-82.29853411042672
 21
580.3454736365458
 31
0.0
  0
LINE
  5
47B
330
2D0
100
AcDbEntity
  8
0
100
AcDbLine
 10
82.69693132990232
 20
580.3454736365458
 30
0.0
 11
72.69720615170178
 21
580.3454736365458
 31
0.0
  0
LINE
  5
47C
330
2D0
100
AcDbEntity
  8
0
100
AcDbLine
 10
87.7057336619276
 20
390.3506952507092
 30
0.0
 11
87.7057336619276
 21
380.3509700725072
 31
0.0
  0
LINE
  5
47D
330
2D0
100
AcDbEntity
  8
0
100
AcDbLine
 10
87.7057336619276
 20
370.3512448943052
 30
0.0
 11
87.7057336619276
 21
350.3517945379015
 31
0.0
  0
LINE
  5
47E
330
2D0
100
AcDbEntity
  8
0
100
AcDbLine
 10
87.7057336619276
 20
490.3479470327241
 30
0.0
 11
87.7057336619276
 21
390.3506952507092
 31
0.0
  0
LINE
  5
47F
330
2D0
100
AcDbEntity
  8
0
100
AcDbLine
 10
82.69693132990232
 20
580.3454736365458
 30
0.0
 11
87.70610679689937
 21
580.3454736365458
 31
0.0
  0
LINE
  5
480
330
2D0
100
AcDbEntity
  8
0
100
AcDbLine
 10
-72.29880893222764
 20
580.3454736365458
 30
0.0
 11
72.69720615170178
 21
580.3454736365458
 31
0.0
  0
LINE
  5
481
330
2D0
100
AcDbEntity
  8
0
100
AcDbLine
 10
171.7155199229137
 20
316.3527289320152
 30
0.0
 11
171.7155199229137
 21
590.3451988147478
 31
0.0
  0
LINE
  5
482
330
2D0
100
AcDbEntity
  8
0
100
AcDbLine
 10
199.6548019201205
 20
316.3527289320152
 30
0.0
 11
199.6548019201205
 21
590.3451988147478
 31
0.0
  0
LINE
  5
483
330
2D0
100
AcDbEntity
  8
0
100
AcDbLine
 10
-68.30785860499654
 20
370.3512448943052
 30
0.0
 11
72.69720615170178
 21
370.3512448943052
 31
0.0
  0
LINE
  5
484
330
2D0
100
AcDbEntity
  8
0
100
AcDbLine
 10
87.7057336619276
 20
370.3512448943052
 30
0.0
 11
87.7057336619276
 21
380.3509700725072
 31
0.0
  0
LINE
  5
485
330
2D0
100
AcDbEntity
  8
0
100
AcDbLine
 10
-87.30733644345697
 20
370.3512448943052
 30
0.0
 11
-87.30733644345697
 21
380.3509700725072
 31
0.0
  0
LINE
  5
486
330
2D0
100
AcDbEntity
  8
0
100
AcDbLine
 10
-80.80751507762574
 20
370.3512448943052
 30
0.0
 11
-80.80751507762574
 21
350.3517945379015
 31
0.0
  0
LINE
  5
487
330
2D0
100
AcDbEntity
  8
0
100
AcDbLine
 10
-83.80743263108636
 20
350.3517945379015
 30
0.0
 11
-83.80743263108636
 21
370.3512448943052
 31
0.0
  0
LINE
  5
488
330
2D0
100
AcDbEntity
  8
0
100
AcDbLine
 10
77.70600848473137
 20
316.3527289320152
 30
0.0
 11
77.70600848473137
 21
350.3517945379015
 31
0.0
  0
LINE
  5
489
330
2D0
100
AcDbEntity
  8
0
100
AcDbLine
 10
83.65743484831172
 20
350.3517945379015
 30
0.0
 11
83.41294674655596
 21
350.3517945379015
 31
0.0
  0
LINE
  5
48A
330
2D0
100
AcDbEntity
  8
0
100
AcDbLine
 10
83.27988044691712
 20
350.3517945379015
 30
0.0
 11
82.99849851459498
 21
350.3517945379015
 31
0.0
  0
LINE
  5
48B
330
2D0
100
AcDbEntity
  8
0
100
AcDbLine
 10
82.85289274373903
 20
350.3517945379015
 30
0.0
 11
82.70587107383184
 21
350.3517945379015
 31
0.0
  0
LINE
  5
48C
330
2D0
100
AcDbEntity
  8
0
100
AcDbLine
 10
82.5588494039245
 20
350.3517945379015
 30
0.0
 11
82.27045602443364
 21
350.3517945379015
 31
0.0
  0
LINE
  5
48D
330
2D0
100
AcDbEntity
  8
0
100
AcDbLine
 10
82.13186170074655
 20
350.3517945379015
 30
0.0
 11
81.99879540110757
 21
350.3517945379015
 31
0.0
  0
LINE
  5
48E
330
2D0
100
AcDbEntity
  8
0
100
AcDbLine
 10
81.87253862672386
 20
350.3517945379015
 30
0.0
 11
81.54638725980614
 21
350.3517945379015
 31
0.0
  0
LINE
  5
48F
330
2D0
100
AcDbEntity
  8
0
100
AcDbLine
 10
84.02871661467624
 20
350.3517945379015
 30
0.0
 11
83.76650209635808
 21
350.3517945379015
 31
0.0
  0
LINE
  5
490
330
2D0
100
AcDbEntity
  8
0
100
AcDbLine
 10
-499.2960137852863
 20
350.3517945379015
 30
0.0
 11
-499.2960137852863
 21
316.3527289320152
 31
0.0
  0
LINE
  5
491
330
2D0
100
AcDbEntity
  8
0
100
AcDbLine
 10
-38.30868307017131
 20
395.3505578398101
 30
0.0
 11
-38.30868307017131
 21
400.350420428911
 31
0.0
  0
LINE
  5
492
330
2D0
100
AcDbEntity
  8
0
100
AcDbLine
 10
-68.30785860499654
 20
395.3505578398101
 30
0.0
 11
-38.30868307017131
 21
395.3505578398101
 31
0.0
  0
LINE
  5
493
330
2D0
100
AcDbEntity
  8
0
100
AcDbLine
 10
523.2848040643236
 20
340.3520693596995
 30
0.0
 11
523.2848040643236
 21
316.3527289320152
 31
0.0
  0
LINE
  5
494
330
2D0
100
AcDbEntity
  8
0
100
AcDbLine
 10
438.2871400496074
 20
340.3520693596995
 30
0.0
 11
438.2871400496074
 21
316.3527289320152
 31
0.0
  0
LINE
  5
495
330
2D0
100
AcDbEntity
  8
0
100
AcDbLine
 10
622.4639573352789
 20
340.3520693596995
 30
0.0
 11
622.4639573352789
 21
316.3527289320148
 31
0.0
  0
LINE
  5
496
330
2D0
100
AcDbEntity
  8
0
100
AcDbLine
 10
544.4657575692128
 20
340.3520693596995
 30
0.0
 11
544.4657575692128
 21
316.3527289320152
 31
0.0
  0
LINE
  5
497
330
2D0
100
AcDbEntity
  8
0
100
AcDbLine
 10
233.1838555181213
 20
340.3520693596995
 30
0.0
 11
233.1838555181213
 21
316.3527289320152
 31
0.0
  0
LINE
  5
498
330
2D0
100
AcDbEntity
  8
0
100
AcDbLine
 10
402.679197288477
 20
316.3527289320152
 30
0.0
 11
402.6791972884636
 21
340.3520693596995
 31
0.0
  0
LINE
  5
499
330
2D0
100
AcDbEntity
  8
0
100
AcDbLine
 10
266.6829348649366
 20
340.3520693596995
 30
0.0
 11
266.6829348649366
 21
316.3527289320152
 31
0.0
  0
LINE
  5
49A
330
2D0
100
AcDbEntity
  8
0
100
AcDbLine
 10
87.7057336619276
 20
350.3517945379015
 30
0.0
 11
87.70573366254582
 21
316.3527289320152
 31
0.0
  0
LINE
  5
49B
330
2D0
100
AcDbEntity
  8
0
100
AcDbLine
 10
571.6745528000951
 20
-59.63693776837771
 30
0.0
 11
571.6745528000951
 21
-49.63721259017577
 31
0.0
  0
LINE
  5
49C
330
2D0
100
AcDbEntity
  8
0
100
AcDbLine
 10
571.8679357608619
 20
-339.6292427580318
 30
0.0
 11
571.8676836083139
 21
-338.6292702402116
 31
0.0
  0
LINE
  5
49D
330
2D0
100
AcDbEntity
  8
0
100
AcDbLine
 10
571.8676836083139
 20
-338.6292702402116
 30
0.0
 11
571.8679357608619
 21
-329.6295175798298
 31
0.0
  0
LINE
  5
49E
330
2D0
100
AcDbEntity
  8
0
100
AcDbLine
 10
-729.9563412291441
 20
168.3567962946263
 30
0.0
 11
-602.2931831207721
 21
168.3567962946263
 31
0.0
  0
LINE
  5
49F
330
2D0
100
AcDbEntity
  8
0
100
AcDbLine
 10
-602.2931831207721
 20
72.35943458388781
 30
0.0
 11
-729.9563412291441
 21
72.35943458388781
 31
0.0
  0
LINE
  5
4A0
330
2D0
100
AcDbEntity
  8
0
100
AcDbLine
 10
-729.9563412291441
 20
163.3569337055253
 30
0.0
 11
-729.9563412291441
 21
168.3567962946263
 31
0.0
  0
LINE
  5
4A1
330
2D0
100
AcDbEntity
  8
0
100
AcDbLine
 10
97.68757935336768
 20
168.3567962946263
 30
0.0
 11
-198.8042721803199
 21
168.3567962946263
 31
0.0
  0
LINE
  5
4A2
330
2D0
100
AcDbEntity
  8
0
100
AcDbLine
 10
-371.5495246337582
 20
168.3567962946263
 30
0.0
 11
-534.2950519089948
 21
168.3567962946263
 31
0.0
  0
LINE
  5
4A3
330
2D0
100
AcDbEntity
  8
0
100
AcDbLine
 10
97.68757935336768
 20
72.35943458388781
 30
0.0
 11
-198.8042721803199
 21
72.35943458388781
 31
0.0
  0
LINE
  5
4A4
330
2D0
100
AcDbEntity
  8
0
100
AcDbLine
 10
-371.5495246337582
 20
72.35943458388781
 30
0.0
 11
-534.2950519089948
 21
72.35943458388781
 31
0.0
  0
LINE
  5
4A5
330
2D0
100
AcDbEntity
  8
0
100
AcDbLine
 10
559.0082342410834
 20
168.3567962946263
 30
0.0
 11
404.1791560652568
 21
168.3567962946263
 31
0.0
  0
LINE
  5
4A6
330
2D0
100
AcDbEntity
  8
0
100
AcDbLine
 10
559.0082342410834
 20
72.35943458388781
 30
0.0
 11
404.1791560652568
 21
72.35943458388781
 31
0.0
  0
LINE
  5
4A7
330
2D0
100
AcDbEntity
  8
0
100
AcDbLine
 10
718.837175006011
 20
72.35943458388781
 30
0.0
 11
718.837175006011
 21
77.3592971729888
 31
0.0
  0
LINE
  5
4A8
330
2D0
100
AcDbEntity
  8
0
100
AcDbLine
 10
559.0082342410834
 20
77.3592971729888
 30
0.0
 11
559.0082342410834
 21
72.35943458388781
 31
0.0
  0
LINE
  5
4A9
330
2D0
100
AcDbEntity
  8
0
100
AcDbLine
 10
-371.5495246337582
 20
77.3592971729888
 30
0.0
 11
-371.5495246337582
 21
72.35943458388781
 31
0.0
  0
LINE
  5
4AA
330
2D0
100
AcDbEntity
  8
0
100
AcDbLine
 10
97.68757935336768
 20
77.3592971729888
 30
0.0
 11
97.68757935336768
 21
72.35943458388781
 31
0.0
  0
LINE
  5
4AB
330
2D0
100
AcDbEntity
  8
0
100
AcDbLine
 10
571.8652027694491
 20
-49.63721259017577
 30
0.0
 11
872.6962549148586
 21
-49.63721259017574
 31
0.0
  0
LINE
  5
4AC
330
2D0
100
AcDbEntity
  8
0
100
AcDbLine
 10
742.042105789078
 20
580.3454736365458
 30
0.0
 11
742.0476039803912
 21
580.3454736365458
 31
0.0
  0
LINE
  5
4AD
330
2D0
100
AcDbEntity
  8
0
100
AcDbLine
 10
82.69693132990232
 20
380.3509700725072
 30
0.0
 11
82.69693132990232
 21
390.3506952507092
 31
0.0
  0
LINE
  5
4AE
330
2D0
100
AcDbEntity
  8
0
100
AcDbLine
 10
72.69720615170178
 20
380.3509700725072
 30
0.0
 11
-68.30785860499654
 21
380.3509700725072
 31
0.0
  0
LINE
  5
4AF
330
2D0
100
AcDbEntity
  8
0
100
AcDbLine
 10
-78.30758378319834
 20
380.3509700725072
 30
0.0
 11
-82.29853411042672
 21
380.3509700725072
 31
0.0
  0
LINE
  5
4B0
330
2D0
100
AcDbEntity
  8
0
100
AcDbLine
 10
-82.29853411042672
 20
380.3509700725072
 30
0.0
 11
-87.30733644345697
 21
380.3509700725072
 31
0.0
  0
LINE
  5
4B1
330
2D0
100
AcDbEntity
  8
0
100
AcDbLine
 10
-87.30733644345697
 20
370.3512448943052
 30
0.0
 11
-83.80743263108636
 21
370.3512448943052
 31
0.0
  0
LINE
  5
4B2
330
2D0
100
AcDbEntity
  8
0
100
AcDbLine
 10
81.20591229710145
 20
370.3512448943052
 30
0.0
 11
81.20591229710145
 21
350.3517945379015
 31
0.0
  0
LINE
  5
4B3
330
2D0
100
AcDbEntity
  8
0
100
AcDbLine
 10
81.20591229710145
 20
350.3517945379015
 30
0.0
 11
81.20591229710145
 21
316.3527289320152
 31
0.0
  0
LINE
  5
4B4
330
2D0
100
AcDbEntity
  8
0
100
AcDbLine
 10
84.20582985056208
 20
316.3527289320152
 30
0.0
 11
84.20582985056208
 21
350.3517945379015
 31
0.0
  0
LINE
  5
4B5
330
2D0
100
AcDbEntity
  8
0
100
AcDbLine
 10
84.20582985056208
 20
350.3517945379015
 30
0.0
 11
84.20582985056208
 21
370.3512448943052
 31
0.0
  0
LINE
  5
4B6
330
2D0
100
AcDbEntity
  8
0
100
AcDbLine
 10
81.45870093127399
 20
350.3517945379015
 30
0.0
 11
81.20591229710145
 21
350.3517945379015
 31
0.0
  0
LINE
  5
4B7
330
2D0
100
AcDbEntity
  8
0
100
AcDbLine
 10
81.20591229710145
 20
350.3517945379015
 30
0.0
 11
77.70600848473137
 21
350.3517945379015
 31
0.0
  0
LINE
  5
4B8
330
2D0
100
AcDbEntity
  8
0
100
AcDbLine
 10
84.20582985056208
 20
350.3517945379015
 30
0.0
 11
84.09165228726349
 21
350.3517945379015
 31
0.0
  0
LINE
  5
4B9
330
2D0
100
AcDbEntity
  8
0
100
AcDbLine
 10
-68.30785860499654
 20
395.3505578398101
 30
0.0
 11
-68.30785860499656
 21
390.3506952507092
 31
0.0
  0
LINE
  5
4BA
330
2D0
100
AcDbEntity
  8
0
100
AcDbLine
 10
-78.30758378319834
 20
370.3512448943052
 30
0.0
 11
-78.30758378319835
 21
350.3517945379015
 31
0.0
  0
LINE
  5
4BB
330
2D0
100
AcDbEntity
  8
0
100
AcDbLine
 10
-78.30758378319835
 20
400.350420428911
 30
0.0
 11
-72.29880893222619
 21
400.350420428911
 31
0.0
  0
LINE
  5
4BC
330
2D0
100
AcDbEntity
  8
0
100
AcDbLine
 10
-72.29880893222619
 20
400.350420428911
 30
0.0
 11
-38.30868307017131
 21
400.350420428911
 31
0.0
  0
LINE
  5
4BD
330
2D0
100
AcDbEntity
  8
0
100
AcDbLine
 10
-78.30758378319835
 20
350.3517945379015
 30
0.0
 11
-80.80751507762574
 21
350.3517945379015
 31
0.0
  0
LINE
  5
4BE
330
2D0
100
AcDbEntity
  8
0
100
AcDbLine
 10
105.7052360971967
 20
316.3527289320152
 30
0.0
 11
105.7052364549791
 21
350.3517945379015
 31
0.0
  0
LINE
  5
4BF
330
2D0
100
AcDbEntity
  8
0
100
AcDbLine
 10
571.6745528000951
 20
-339.6292427580318
 30
0.0
 11
571.6745528000951
 21
-338.6292702402116
 31
0.0
  0
LINE
  5
4C0
330
2D0
100
AcDbEntity
  8
0
100
AcDbLine
 10
571.6745528000951
 20
-338.6292702402116
 30
0.0
 11
571.6745528000951
 21
-329.6295175798298
 31
0.0
  0
LINE
  5
4C1
330
2D0
100
AcDbEntity
  8
0
100
AcDbLine
 10
-729.9563412291441
 20
72.35943458388781
 30
0.0
 11
-729.9563412291441
 21
77.3592971729888
 31
0.0
  0
LINE
  5
4C2
330
2D0
100
AcDbEntity
  8
0
100
AcDbLine
 10
873.6662531818375
 20
168.3567962946263
 30
0.0
 11
718.837175006011
 21
168.3567962946263
 31
0.0
  0
LINE
  5
4C3
330
2D0
100
AcDbEntity
  8
0
100
AcDbLine
 10
873.6662531818375
 20
72.35943458388781
 30
0.0
 11
718.837175006011
 21
72.35943458388781
 31
0.0
  0
LINE
  5
4C4
330
2D0
100
AcDbEntity
  8
0
100
AcDbLine
 10
718.837175006011
 20
163.3569337055253
 30
0.0
 11
718.837175006011
 21
168.3567962946263
 31
0.0
  0
LINE
  5
4C5
330
2D0
100
AcDbEntity
  8
0
100
AcDbLine
 10
559.0082342410834
 20
168.3567962946263
 30
0.0
 11
559.0082342410834
 21
163.3569337055253
 31
0.0
  0
LINE
  5
4C6
330
2D0
100
AcDbEntity
  8
0
100
AcDbLine
 10
-371.5495246337582
 20
168.3567962946263
 30
0.0
 11
-371.5495246337582
 21
163.3569337055253
 31
0.0
  0
LINE
  5
4C7
330
2D0
100
AcDbEntity
  8
0
100
AcDbLine
 10
97.68757935336768
 20
168.3567962946263
 30
0.0
 11
97.68757935336765
 21
163.3569337055253
 31
0.0
  0
LINE
  5
4C8
330
2D0
100
AcDbEntity
  8
0
100
AcDbLine
 10
-718.289995187964
 20
-49.63721259017577
 30
0.0
 11
-567.2941449970926
 21
-49.63721259017577
 31
0.0
  0
LINE
  5
4C9
330
2D0
100
AcDbEntity
  8
0
100
AcDbLine
 10
793.3566378882345
 20
316.3527289320152
 30
0.0
 11
793.3536787571415
 21
316.3527289320152
 31
0.0
  0
LINE
  5
4CA
330
2D0
100
AcDbEntity
  8
0
100
AcDbLine
 10
742.0421057890796
 20
316.3527289320148
 30
0.0
 11
622.4639573352789
 21
316.3527289320148
 31
0.0
  0
LINE
  5
4CB
330
2D0
100
AcDbEntity
  8
0
100
AcDbLine
 10
82.69693132990232
 20
390.3506952507092
 30
0.0
 11
82.69693132990232
 21
490.3479470327241
 31
0.0
  0
LINE
  5
4CC
330
2D0
100
AcDbEntity
  8
0
100
AcDbLine
 10
82.69693132990232
 20
490.3479470327241
 30
0.0
 11
82.69693132990232
 21
580.3454736365458
 31
0.0
  0
LINE
  5
4CD
330
2D0
100
AcDbEntity
  8
0
100
AcDbLine
 10
87.7057336619276
 20
380.3509700725072
 30
0.0
 11
82.69693132990232
 21
380.3509700725072
 31
0.0
  0
LINE
  5
4CE
330
2D0
100
AcDbEntity
  8
0
100
AcDbLine
 10
82.69693132990232
 20
380.3509700725072
 30
0.0
 11
72.69720615170178
 21
380.3509700725072
 31
0.0
  0
LINE
  5
4CF
330
2D0
100
AcDbEntity
  8
0
100
AcDbLine
 10
87.7057336619276
 20
350.3517945379015
 30
0.0
 11
84.20582985056208
 21
350.3517945379015
 31
0.0
  0
LINE
  5
4D0
330
2D0
100
AcDbEntity
  8
0
100
AcDbLine
 10
-68.30785860499656
 20
390.3506952507092
 30
0.0
 11
-68.30785860499654
 21
380.3509700725072
 31
0.0
  0
LINE
  5
4D1
330
2D0
100
AcDbEntity
  8
0
100
AcDbLine
 10
-295.7971365369554
 20
350.3517945379015
 30
0.0
 11
-285.7974113587563
 21
350.3517945379015
 31
0.0
  0
LINE
  5
4D2
330
2D0
100
AcDbEntity
  8
0
100
AcDbLine
 10
-285.7974113587563
 20
350.3517945379015
 30
0.0
 11
-83.80743263108636
 21
350.3517945379015
 31
0.0
  0
LINE
  5
4D3
330
2D0
100
AcDbEntity
  8
0
100
AcDbLine
 10
-78.30758378319835
 20
400.350420428911
 30
0.0
 11
-78.30758378319834
 21
380.3509700725072
 31
0.0
  0
LINE
  5
4D4
330
2D0
100
AcDbEntity
  8
0
100
AcDbLine
 10
-78.30758378319834
 20
380.3509700725072
 30
0.0
 11
-78.30758378319834
 21
370.3512448943052
 31
0.0
  0
LINE
  5
4D5
330
2D0
100
AcDbEntity
  8
0
100
AcDbLine
 10
105.7052364549791
 20
350.3517945379015
 30
0.0
 11
105.7052388752723
 21
580.3454736365458
 31
0.0
  0
LINE
  5
4D6
330
2D0
100
AcDbEntity
  8
0
100
AcDbLine
 10
105.7052388752723
 20
580.3454736365458
 30
0.0
 11
105.7052389805024
 21
590.3451988147478
 31
0.0
  0
LINE
  5
4D7
330
2D0
100
AcDbEntity
  8
0
100
AcDbLine
 10
578.6743604243635
 20
340.3520693596995
 30
0.0
 11
560.6748551040631
 21
340.3520693596995
 31
0.0
  0
LINE
  5
4D8
330
2D0
100
AcDbEntity
  8
0
100
AcDbLine
 10
420.6787026093066
 20
-49.63721259017577
 30
0.0
 11
571.6745528000951
 21
-49.63721259017577
 31
0.0
  0
LINE
  5
4D9
330
2D0
100
AcDbEntity
  8
0
100
AcDbLine
 10
-499.2960137852863
 20
316.3527289320152
 30
0.0
 11
-830.606630846303
 21
316.3527289320152
 31
0.0
  0
LINE
  5
4DA
330
2D0
100
AcDbEntity
  8
0
100
AcDbLine
 10
81.20591229710145
 20
370.3512448943052
 30
0.0
 11
72.69720615170178
 21
370.3512448943052
 31
0.0
  0
LINE
  5
4DB
330
2D0
100
AcDbEntity
  8
0
100
AcDbLine
 10
-68.30785860499654
 20
380.3509700725072
 30
0.0
 11
-68.30785860499654
 21
370.3512448943052
 31
0.0
  0
LINE
  5
4DC
330
2D0
100
AcDbEntity
  8
0
100
AcDbLine
 10
-68.30785860499654
 20
370.3512448943052
 30
0.0
 11
-68.30785860499654
 21
316.3527289320152
 31
0.0
  0
LINE
  5
4DD
330
2D0
100
AcDbEntity
  8
0
100
AcDbLine
 10
84.20582985056208
 20
370.3512448943052
 30
0.0
 11
87.7057336619276
 21
370.3512448943052
 31
0.0
  0
LINE
  5
4DE
330
2D0
100
AcDbEntity
  8
0
100
AcDbLine
 10
84.20582985056208
 20
316.3527289320152
 30
0.0
 11
81.20591229710145
 21
316.3527289320152
 31
0.0
  0
LINE
  5
4DF
330
2D0
100
AcDbEntity
  8
0
100
AcDbLine
 10
81.20591229710145
 20
316.3527289320152
 30
0.0
 11
77.70600848473137
 21
316.3527289320152
 31
0.0
  0
LINE
  5
4E0
330
2D0
100
AcDbEntity
  8
0
100
AcDbLine
 10
77.70600848473137
 20
316.3527289320152
 30
0.0
 11
72.69720615170178
 21
316.3527289320152
 31
0.0
  0
LINE
  5
4E1
330
2D0
100
AcDbEntity
  8
0
100
AcDbLine
 10
87.70573366254582
 20
316.3527289320152
 30
0.0
 11
84.20582985056208
 21
316.3527289320152
 31
0.0
  0
LINE
  5
4E2
330
2D0
100
AcDbEntity
  8
0
100
AcDbLine
 10
199.6548019201205
 20
316.3527289320152
 30
0.0
 11
171.7155199229137
 21
316.3527289320152
 31
0.0
  0
LINE
  5
4E3
330
2D0
100
AcDbEntity
  8
0
100
AcDbLine
 10
171.7155199229137
 20
316.3527289320152
 30
0.0
 11
105.7052360971967
 21
316.3527289320152
 31
0.0
  0
LINE
  5
4E4
330
2D0
100
AcDbEntity
  8
0
100
AcDbLine
 10
105.7052360971967
 20
316.3527289320152
 30
0.0
 11
87.70573366254582
 21
316.3527289320152
 31
0.0
  0
LINE
  5
4E5
330
2D0
100
AcDbEntity
  8
0
100
AcDbLine
 10
221.6834847454226
 20
316.3527289320152
 30
0.0
 11
199.6548019201205
 21
316.3527289320152
 31
0.0
  0
LINE
  5
4E6
330
2D0
100
AcDbEntity
  8
0
100
AcDbLine
 10
233.1838555181213
 20
316.3527289320152
 30
0.0
 11
221.6834847454226
 21
316.3527289320152
 31
0.0
  0
LINE
  5
4E7
330
2D0
100
AcDbEntity
  8
0
100
AcDbLine
 10
266.6829348649366
 20
316.3527289320152
 30
0.0
 11
233.1838555181213
 21
316.3527289320152
 31
0.0
  0
LINE
  5
4E8
330
2D0
100
AcDbEntity
  8
0
100
AcDbLine
 10
402.679197288477
 20
316.3527289320152
 30
0.0
 11
266.6829348649366
 21
316.3527289320152
 31
0.0
  0
LINE
  5
4E9
330
2D0
100
AcDbEntity
  8
0
100
AcDbLine
 10
438.2871400496074
 20
316.3527289320152
 30
0.0
 11
402.679197288477
 21
316.3527289320152
 31
0.0
  0
LINE
  5
4EA
330
2D0
100
AcDbEntity
  8
0
100
AcDbLine
 10
523.2848040643236
 20
316.3527289320152
 30
0.0
 11
438.2871400496074
 21
316.3527289320152
 31
0.0
  0
LINE
  5
4EB
330
2D0
100
AcDbEntity
  8
0
100
AcDbLine
 10
544.4657575692128
 20
316.3527289320152
 30
0.0
 11
523.2848040643236
 21
316.3527289320152
 31
0.0
  0
LINE
  5
4EC
330
2D0
100
AcDbEntity
  8
0
100
AcDbLine
 10
622.4639573352789
 20
316.3527289320148
 30
0.0
 11
544.4657575692128
 21
316.3527289320152
 31
0.0
  0
LINE
  5
4ED
330
2D0
100
AcDbEntity
  8
0
100
AcDbLine
 10
-78.30758378319834
 20
370.3512448943052
 30
0.0
 11
-80.80751507762574
 21
370.3512448943052
 31
0.0
  0
LINE
  5
4EE
330
2D0
100
AcDbEntity
  8
0
100
AcDbLine
 10
900.6355369120653
 20
-339.6292427580318
 30
0.0
 11
872.6962549148586
 21
-339.6292427580318
 31
0.0
  0
LINE
  5
4EF
330
2D0
100
AcDbEntity
  8
0
100
AcDbLine
 10
-1019.311697302712
 20
-339.6292427580318
 30
0.0
 11
-1047.250979299918
 21
-339.6292427580318
 31
0.0
  0
LINE
  5
4F0
330
2D0
100
AcDbEntity
  8
0
100
AcDbLine
 10
-370.5495521159993
 20
-140.1902794816711
 30
0.0
 11
-370.5495521159993
 21
-159.078649262719
 31
0.0
  0
LINE
  5
4F1
330
2D0
100
AcDbEntity
  8
0
100
AcDbLine
 10
-718.289995187964
 20
-339.6292427580318
 30
0.0
 11
-567.2941449971142
 21
-339.6292427580318
 31
0.0
  0
LINE
  5
4F2
330
2D0
100
AcDbEntity
  8
0
100
AcDbLine
 10
571.6745528000951
 20
-59.63693776837771
 30
0.0
 11
571.6745528000951
 21
-329.6295175798298
 31
0.0
  0
LINE
  5
4F3
330
2D0
100
AcDbEntity
  8
0
100
AcDbLine
 10
420.6787026093066
 20
-339.6292427580318
 30
0.0
 11
-567.2941449971142
 21
-339.6292427580318
 31
0.0
  0
LINE
  5
4F4
330
2D0
100
AcDbEntity
  8
0
100
AcDbLine
 10
571.6745528000951
 20
-339.6292427580318
 30
0.0
 11
420.6787026093066
 21
-339.6292427580318
 31
0.0
  0
LINE
  5
4F5
330
2D0
100
AcDbEntity
  8
0
100
AcDbLine
 10
571.6745528000951
 20
-49.63721259017577
 30
0.0
 11
571.8652027694491
 21
-49.63721259017577
 31
0.0
  0
LINE
  5
4F6
330
2D0
100
AcDbEntity
  8
0
100
AcDbLine
 10
571.8652027694491
 20
-59.63693776837771
 30
0.0
 11
571.6745528000951
 21
-59.63693776837771
 31
0.0
  0
LINE
  5
4F7
330
2D0
100
AcDbEntity
  8
0
100
AcDbLine
 10
-718.2899951879644
 20
-349.6289679362337
 30
0.0
 11
-718.289995187964
 21
-339.6292427580318
 31
0.0
  0
LINE
  5
4F8
330
2D0
100
AcDbEntity
  8
0
100
AcDbLine
 10
-718.289995187964
 20
-49.63721259017577
 30
0.0
 11
-718.289995187964
 21
-339.6292427580318
 31
0.0
  0
LINE
  5
4F9
330
2D0
100
AcDbEntity
  8
0
100
AcDbLine
 10
571.8679357608619
 20
-339.6292427580318
 30
0.0
 11
571.6745528000951
 21
-339.6292427580318
 31
0.0
  0
LINE
  5
4FA
330
2D0
100
AcDbEntity
  8
0
100
AcDbLine
 10
-718.2899951879644
 20
-349.6289679362337
 30
0.0
 11
-718.4831259961782
 21
-349.6289679362338
 31
0.0
  0
LINE
  5
4FB
330
2D0
100
AcDbEntity
  8
0
100
AcDbLine
 10
-567.2941449971142
 20
-369.6284182926376
 30
0.0
 11
420.6787026092483
 21
-369.6284182926376
 31
0.0
  0
LINE
  5
4FC
330
2D0
100
AcDbEntity
  8
0
100
AcDbLine
 10
571.8676836083139
 20
-338.6292702402116
 30
0.0
 11
571.6745528000951
 21
-338.6292702402116
 31
0.0
  0
LINE
  5
4FD
330
2D0
100
AcDbEntity
  8
0
100
AcDbLine
 10
900.6355369120653
 20
-49.63721259017574
 30
0.0
 11
872.6962549148586
 21
-49.63721259017574
 31
0.0
  0
LINE
  5
4FE
330
2D0
100
AcDbEntity
  8
0
100
AcDbLine
 10
-1047.250979299918
 20
-49.63721259017574
 30
0.0
 11
-1019.311697302712
 21
-49.63721259017574
 31
0.0
  0
LINE
  5
4FF
330
2D0
100
AcDbEntity
  8
0
100
AcDbLine
 10
-1053.280788657689
 20
-49.63721259017577
 30
0.0
 11
-1053.280788657669
 21
316.3527289320152
 31
0.0
  0
LINE
  5
500
330
2D0
100
AcDbEntity
  8
0
100
AcDbLine
 10
906.6653462699825
 20
316.3527289320152
 30
0.0
 11
906.6653462699038
 21
-49.63721259017577
 31
0.0
  0
LINE
  5
501
330
2D0
100
AcDbEntity
  8
0
100
AcDbLine
 10
906.6653462699825
 20
316.3527289320152
 30
0.0
 11
793.3566378882345
 21
316.3527289320152
 31
0.0
  0
LINE
  5
502
330
2D0
100
AcDbEntity
  8
0
100
AcDbLine
 10
742.0421057890796
 20
316.3527289320148
 30
0.0
 11
793.3536787571415
 21
316.3527289320152
 31
0.0
  0
LINE
  5
503
330
2D0
100
AcDbEntity
  8
0
100
AcDbLine
 10
-68.30785860499654
 20
316.3527289320152
 30
0.0
 11
72.69720615170178
 21
316.3527289320152
 31
0.0
  0
LINE
  5
504
330
2D0
100
AcDbEntity
  8
0
100
AcDbLine
 10
-68.30785860499654
 20
316.3527289320152
 30
0.0
 11
-499.2960137852863
 21
316.3527289320152
 31
0.0
  0
LINE
  5
505
330
2D0
100
AcDbEntity
  8
0
100
AcDbLine
 10
-830.606630846303
 20
316.3527289320152
 30
0.0
 11
-1053.280788657669
 21
316.3527289320152
 31
0.0
  0
LINE
  5
506
330
2D0
100
AcDbEntity
  8
0
100
AcDbLine
 10
88.91700446752786
 20
590.3451988147478
 30
0.0
 11
105.7052389805024
 21
590.3451988147478
 31
0.0
  0
LINE
  5
507
330
2D0
100
AcDbEntity
  8
0
100
AcDbLine
 10
88.91700446752786
 20
580.3454736365458
 30
0.0
 11
105.7052388752723
 21
580.3454736365458
 31
0.0
  0
LINE
  5
508
330
2D0
100
AcDbEntity
  8
0
100
AcDbLine
 10
560.6748551040633
 20
590.3451988147478
 30
0.0
 11
578.6743604243635
 21
590.3451988147478
 31
0.0
  0
LINE
  5
509
330
2D0
100
AcDbEntity
  8
0
100
AcDbLine
 10
742.0476039803912
 20
590.3451988147478
 30
0.0
 11
578.6743604243635
 21
590.3451988147478
 31
0.0
  0
LINE
  5
50A
330
2D0
100
AcDbEntity
  8
0
100
AcDbLine
 10
742.0476039803912
 20
590.3451988147478
 30
0.0
 11
793.3582470814357
 21
590.3451988147478
 31
0.0
  0
LINE
  5
50B
330
2D0
100
AcDbEntity
  8
0
100
AcDbLine
 10
-499.2960137852863
 20
590.3451988147478
 30
0.0
 11
-830.606984294285
 21
590.3451988147478
 31
0.0
  0
LINE
  5
50C
330
2D0
100
AcDbEntity
  8
0
100
AcDbLine
 10
747.6686007877114
 20
580.3454736365458
 30
0.0
 11
793.3536787571415
 21
580.3454736365458
 31
0.0
  0
LINE
  5
50D
330
2D0
100
AcDbEntity
  8
0
100
AcDbLine
 10
-745.0446148200994
 20
580.3454736365458
 30
0.0
 11
-830.606984294285
 21
580.3454736365458
 31
0.0
  0
LINE
  5
50E
330
2D0
100
AcDbEntity
  8
0
100
AcDbLine
 10
-682.9762672304696
 20
580.3454736365458
 30
0.0
 11
-745.0237359437888
 21
580.3454736365458
 31
0.0
  0
LINE
  5
50F
330
2D0
100
AcDbEntity
  8
0
100
AcDbLine
 10
-682.959563193215
 20
580.3454736365458
 30
0.0
 11
-675.1934148568067
 21
580.3454736365458
 31
0.0
  0
LINE
  5
510
330
2D0
100
AcDbEntity
  8
0
100
AcDbLine
 10
-499.2960137852863
 20
580.3454736365458
 30
0.0
 11
-673.371658453145
 21
580.3454736365458
 31
0.0
  0
LINE
  5
511
330
2D0
100
AcDbEntity
  8
0
100
AcDbLine
 10
560.6748551040633
 20
590.3451988147478
 30
0.0
 11
560.6748551040631
 21
340.3520693596995
 31
0.0
  0
LINE
  5
512
330
2D0
100
AcDbEntity
  8
0
100
AcDbLine
 10
-80.80751507762574
 20
370.3512448943052
 30
0.0
 11
-83.80743263108636
 21
370.3512448943052
 31
0.0
  0
LINE
  5
513
330
2D0
100
AcDbEntity
  8
0
100
AcDbLine
 10
84.20582985056208
 20
370.3512448943052
 30
0.0
 11
81.20591229710145
 21
370.3512448943052
 31
0.0
  0
LINE
  5
514
330
2D0
100
AcDbEntity
  8
0
100
AcDbLine
 10
-499.2960137852863
 20
350.3517945379015
 30
0.0
 11
-295.7971365369554
 21
350.3517945379015
 31
0.0
  0
LINE
  5
515
330
2D0
100
AcDbEntity
  8
0
100
AcDbLine
 10
-83.80743263108636
 20
350.3517945379015
 30
0.0
 11
-80.80751507762574
 21
350.3517945379015
 31
0.0
  0
LINE
  5
516
330
2D0
100
AcDbEntity
  8
0
100
AcDbLine
 10
-499.2960137852863
 20
590.3451988147478
 30
0.0
 11
88.91700446752786
 21
590.3451988147478
 31
0.0
  0
LINE
  5
517
330
2D0
100
AcDbEntity
  8
0
100
AcDbLine
 10
171.7155199229137
 20
590.3451988147478
 30
0.0
 11
105.7052389805024
 21
590.3451988147478
 31
0.0
  0
LINE
  5
518
330
2D0
100
AcDbEntity
  8
0
100
AcDbLine
 10
199.6548019201205
 20
590.3451988147478
 30
0.0
 11
171.7155199229137
 21
590.3451988147478
 31
0.0
  0
LINE
  5
519
330
2D0
100
AcDbEntity
  8
0
100
AcDbLine
 10
221.6834531618898
 20
590.3451988147478
 30
0.0
 11
199.6548019201205
 21
590.3451988147478
 31
0.0
  0
LINE
  5
51A
330
2D0
100
AcDbEntity
  8
0
100
AcDbLine
 10
221.6834531618898
 20
590.3451988147478
 30
0.0
 11
560.6748551040633
 21
590.3451988147478
 31
0.0
  0
LINE
  5
51B
330
2D0
100
AcDbEntity
  8
0
100
AcDbLine
 10
221.6834531618898
 20
590.3451988147478
 30
0.0
 11
221.6834847454226
 21
316.3527289320152
 31
0.0
  0
LINE
  5
51C
330
2D0
100
AcDbEntity
  8
0
100
AcDbLine
 10
87.7057336619276
 20
350.3517945379015
 30
0.0
 11
105.7052364549791
 21
350.3517945379015
 31
0.0
  0
LINE
  5
51D
330
2D0
100
AcDbEntity
  8
0
100
AcDbLine
 10
438.2871400496074
 20
340.3520693596995
 30
0.0
 11
523.2848040643236
 21
340.3520693596995
 31
0.0
  0
LINE
  5
51E
330
2D0
100
AcDbEntity
  8
0
100
AcDbLine
 10
266.6829348649366
 20
340.3520693596995
 30
0.0
 11
233.1838555181213
 21
340.3520693596995
 31
0.0
  0
LINE
  5
51F
330
2D0
100
AcDbEntity
  8
0
100
AcDbLine
 10
402.6791972884636
 20
340.3520693596995
 30
0.0
 11
266.6829348649366
 21
340.3520693596995
 31
0.0
  0
LINE
  5
520
330
2D0
100
AcDbEntity
  8
0
100
AcDbLine
 10
578.6743604243635
 20
340.3520693596995
 30
0.0
 11
622.4639573352789
 21
340.3520693596995
 31
0.0
  0
LINE
  5
521
330
2D0
100
AcDbEntity
  8
0
100
AcDbLine
 10
560.6748551040631
 20
340.3520693596995
 30
0.0
 11
544.4657575692128
 21
340.3520693596995
 31
0.0
  0
LINE
  5
522
330
2D0
100
AcDbEntity
  8
0
100
AcDbLine
 10
-718.289995187964
 20
-339.6292427580318
 30
0.0
 11
-718.289995187964
 21
-49.63721259017574
 31
0.0
  0
LINE
  5
523
330
2D0
100
AcDbEntity
  8
0
100
AcDbLine
 10
-567.2941449970926
 20
-339.6292427580318
 30
0.0
 11
-718.289995187964
 21
-339.6292427580318
 31
0.0
  0
LINE
  5
524
330
2D0
100
AcDbEntity
  8
0
100
AcDbLine
 10
560.6748551040631
 20
574.3456385296247
 30
0.0
 11
560.6748551040631
 21
590.3451988147478
 31
0.0
  0
ENDBLK
  5
2D2
330
2D0
100
AcDbEntity
  8
0
100
AcDbBlockEnd
  0
ENDSEC
  0
SECTION
  2
ENTITIES
  0
INSERT
  5
537
330
1F
100
AcDbEntity
  8
0
100
AcDbBlockReference
  2
posterior
 10
10.53309735905088
 20
28.16128436036617
 30
0.0
 41
0.0100002748293497
 42
0.0100002748293497
 43
0.0100002748293497
  0
ENDSEC
  0
SECTION
  2
OBJECTS
  0
DICTIONARY
  5
C
330
0
100
AcDbDictionary
281
     1
  3
ACAD_CIP_PREVIOUS_PRODUCT_INFO
350
2CF
  3
ACAD_COLOR
350
2C9
  3
ACAD_DETAILVIEWSTYLE
350
2C6
  3
ACAD_GROUP
350
D
  3
ACAD_LAYOUT
350
1A
  3
ACAD_MATERIAL
350
43
  3
ACAD_MLEADERSTYLE
350
6B
  3
ACAD_MLINESTYLE
350
17
  3
ACAD_PLOTSETTINGS
350
19
  3
ACAD_PLOTSTYLENAME
350
E
  3
ACAD_SCALELIST
350
47
  3
ACAD_SECTIONVIEWSTYLE
350
2C7
  3
ACAD_TABLESTYLE
350
69
  3
ACAD_VISUALSTYLE
350
2A
  3
ACDB_RECOMPOSE_DATA
350
541
  3
AcDbVariableDictionary
350
2C2
  3
AEC_PROPERTY_SET_DEFS
350
535
  3
ASE_INDEX_DICTIONARY
350
539
  0
SUN
  5
6D
330
29
100
AcDbSun
 90
        1
290
     0
 63
     7
421
 16777215
 40
1.0
291
     1
 91
  2455826
 92
 54000000
292
     0
 70
     0
 71
   256
280
     1
  0
DICTIONARY
  5
52D
330
2
100
AcDbDictionary
280
     1
281
     1
  3
ACAD_LAYERSTATES
360
52E
  0
XRECORD
  5
2CF
102
{ACAD_REACTORS
330
C
102
}
330
C
100
AcDbXrecord
280
     1
300
ACD
300
2022
300

  0
DICTIONARY
  5
2C9
102
{ACAD_REACTORS
330
C
102
}
330
C
100
AcDbDictionary
281
     1
  0
DICTIONARY
  5
2C6
102
{ACAD_REACTORS
330
C
102
}
330
C
100
AcDbDictionary
281
     1
  3
Metric50
350
2CB
  0
DICTIONARY
  5
D
102
{ACAD_REACTORS
330
C
102
}
330
C
100
AcDbDictionary
281
     1
  0
DICTIONARY
  5
1A
102
{ACAD_REACTORS
330
C
102
}
330
C
100
AcDbDictionary
281
     1
  3
Layout1
350
1E
  3
Layout2
350
26
  3
Model
350
22
  0
DICTIONARY
  5
43
102
{ACAD_REACTORS
330
C
102
}
330
C
100
AcDbDictionary
281
     1
  3
ByBlock
350
45
  3
ByLayer
350
44
  3
Global
350
46
  0
DICTIONARY
  5
6B
102
{ACAD_REACTORS
330
C
102
}
330
C
100
AcDbDictionary
281
     1
  3
Standard
350
6C
  0
DICTIONARY
  5
17
102
{ACAD_REACTORS
330
C
102
}
330
C
100
AcDbDictionary
281
     1
  3
Standard
350
18
  0
DICTIONARY
  5
19
102
{ACAD_REACTORS
330
C
102
}
330
C
100
AcDbDictionary
281
     1
  0
ACDBDICTIONARYWDFLT
  5
E
102
{ACAD_REACTORS
330
C
102
}
330
C
100
AcDbDictionary
281
     1
  3
Normal
350
F
100
AcDbDictionaryWithDefault
340
F
  0
DICTIONARY
  5
47
102
{ACAD_REACTORS
330
C
102
}
330
C
100
AcDbDictionary
281
     1
  3
A0
350
48
  3
A1
350
49
  3
A2
350
4A
  3
A3
350
4B
  3
A4
350
4C
  3
A5
350
4D
  3
A6
350
4E
  3
A7
350
4F
  3
A8
350
50
  3
A9
350
51
  3
B0
350
52
  3
B1
350
53
  3
B2
350
54
  3
B3
350
55
  3
B4
350
56
  3
B5
350
57
  3
B6
350
58
  3
B7
350
59
  3
B8
350
5A
  3
B9
350
5B
  3
C0
350
5C
  3
C1
350
5D
  3
C2
350
5E
  3
C3
350
5F
  3
C4
350
60
  3
C5
350
61
  3
C6
350
62
  3
C7
350
63
  3
C8
350
64
  3
C9
350
65
  3
D0
350
66
  3
D1
350
67
  3
D2
350
68
  0
DICTIONARY
  5
2C7
102
{ACAD_REACTORS
330
C
102
}
330
C
100
AcDbDictionary
281
     1
  3
Metric50
350
2CA
  0
DICTIONARY
  5
69
102
{ACAD_REACTORS
330
C
102
}
330
C
100
AcDbDictionary
281
     1
  3
Standard
350
6A
  0
DICTIONARY
  5
2A
102
{ACAD_REACTORS
330
C
102
}
330
C
100
AcDbDictionary
281
     1
  3
2dWireframe
350
2F
  3
Basic
350
32
  3
Brighten
350
36
  3
ColorChange
350
3A
  3
Conceptual
350
34
  3
Dim
350
35
  3
EdgeColorOff
350
3D
  3
Facepattern
350
39
  3
Flat
350
2B
  3
FlatWithEdges
350
2C
  3
Gouraud
350
2D
  3
GouraudWithEdges
350
2E
  3
Hidden
350
31
  3
JitterOff
350
3B
  3
Linepattern
350
38
  3
OverhangOff
350
3C
  3
Realistic
350
33
  3
Shaded
350
42
  3
Shaded with edges
350
41
  3
Shades of Gray
350
3E
  3
Sketchy
350
3F
  3
Thicken
350
37
  3
Wireframe
350
30
  3
X-Ray
350
40
  0
XRECORD
  5
541
102
{ACAD_REACTORS
330
C
102
}
330
C
100
AcDbXrecord
280
     1
 90
        1
330
6A
  0
DICTIONARY
  5
2C2
102
{ACAD_REACTORS
330
C
102
}
330
C
100
AcDbDictionary
281
     1
  3
CANNOSCALE
350
2C3
  3
CMLEADERSTYLE
350
2C5
  3
CTABLESTYLE
350
2C4
  3
CVIEWDETAILSTYLE
350
527
  3
CVIEWSECTIONSTYLE
350
528
  0
DICTIONARY
  5
535
102
{ACAD_REACTORS
330
C
102
}
330
C
100
AcDbDictionary
281
     1
  0
DICTIONARY
  5
539
102
{ACAD_REACTORS
330
C
102
}
330
C
100
AcDbDictionary
281
     1
  3
ASEBlockHierarchyIndexRecord
350
53A
1001
DCO15
1040
2118507029.0
  0
DICTIONARY
  5
52E
102
{ACAD_REACTORS
330
52D
102
}
330
52D
100
AcDbDictionary
281
     1
  0
ACDBDETAILVIEWSTYLE
  5
2CB
102
{ACAD_REACTORS
330
2C6
102
}
330
2C6
100
AcDbModelDocViewStyle
 70
     0
  3
Metric50
290
     1
300
Metric50
 90
        0
100
AcDbDetailViewStyle
 70
     0
 71
     0
 90
        3
 71
     1
340
11
 62
   256
 40
5.0
340
0
 62
   256
 40
5.0
300

 40
0.0
280
     1
 71
     2
340
16
 90
       25
 62
   256
 71
     3
340
11
 62
   256
 40
5.0
 90
        0
 40
15.0
 90
        1
300
%<\AcVar ViewDetailId>% (%<\AcVar ViewScale \f "%sn">%)
 71
     4
340
16
 90
       25
 62
   256
340
16
 90
       25
 62
   256
280
     0
  0
LAYOUT
  5
1E
102
{ACAD_REACTORS
330
1A
102
}
330
1A
100
AcDbPlotSettings
  1

  2
none_device
  4

  6

 40
0.0
 41
0.0
 42
0.0
 43
0.0
 44
0.0
 45
0.0
 46
0.0
 47
0.0
 48
0.0
 49
0.0
140
0.0
141
0.0
142
1.0
143
1.0
 70
   688
 72
     0
 73
     0
 74
     5
  7

 75
    16
147
1.0
 76
     0
 77
     2
 78
   300
148
0.0
149
0.0
100
AcDbLayout
  1
Layout1
 70
     1
 71
     1
 10
0.0
 20
0.0
 11
12.0
 21
9.0
 12
0.0
 22
0.0
 32
0.0
 14
1.000000000000000E+20
 24
1.000000000000000E+20
 34
1.000000000000000E+20
 15
-1.000000000000000E+20
 25
-1.000000000000000E+20
 35
-1.000000000000000E+20
146
0.0
 13
0.0
 23
0.0
 33
0.0
 16
1.0
 26
0.0
 36
0.0
 17
0.0
 27
1.0
 37
0.0
 76
     0
330
1B
  0
LAYOUT
  5
26
102
{ACAD_REACTORS
330
1A
102
}
330
1A
100
AcDbPlotSettings
  1

  2
none_device
  4

  6

 40
0.0
 41
0.0
 42
0.0
 43
0.0
 44
0.0
 45
0.0
 46
0.0
 47
0.0
 48
0.0
 49
0.0
140
0.0
141
0.0
142
1.0
143
1.0
 70
   688
 72
     0
 73
     0
 74
     5
  7

 75
    16
147
1.0
 76
     0
 77
     2
 78
   300
148
0.0
149
0.0
100
AcDbLayout
  1
Layout2
 70
     1
 71
     2
 10
0.0
 20
0.0
 11
0.0
 21
0.0
 12
0.0
 22
0.0
 32
0.0
 14
0.0
 24
0.0
 34
0.0
 15
0.0
 25
0.0
 35
0.0
146
0.0
 13
0.0
 23
0.0
 33
0.0
 16
1.0
 26
0.0
 36
0.0
 17
0.0
 27
1.0
 37
0.0
 76
     0
330
23
  0
LAYOUT
  5
22
102
{ACAD_REACTORS
330
1A
102
}
330
1A
100
AcDbPlotSettings
  1

  2
none_device
  4
Letter_(8.50_x_11.00_Inches)
  6

 40
6.349999999999999
 41
6.349999999999999
 42
6.350005079999999
 43
6.350005079999999
 44
215.9
 45
279.4
 46
0.0
 47
0.0
 48
0.0
 49
0.0
140
0.0
141
0.0
142
1.0
143
1.0
 70
  1712
 72
     0
 73
     0
 74
     0
  7

 75
     0
147
1.0
 76
     0
 77
     2
 78
   300
148
0.0
149
0.0
100
AcDbLayout
  1
Model
 70
     1
 71
     0
 10
0.0
 20
0.0
 11
12.0
 21
9.0
 12
0.0
 22
0.0
 32
0.0
 14
1.000000000000000E+20
 24
1.000000000000000E+20
 34
1.000000000000000E+20
 15
-1.000000000000000E+20
 25
-1.000000000000000E+20
 35
-1.000000000000000E+20
146
0.0
 13
0.0
 23
0.0
 33
0.0
 16
1.0
 26
0.0
 36
0.0
 17
0.0
 27
1.0
 37
0.0
 76
     0
330
1F
331
29
  0
MATERIAL
  5
45
102
{ACAD_REACTORS
330
43
102
}
330
43
100
AcDbMaterial
  1
ByBlock
 73
     1
 78
     1
172
     1
176
     1
270
     1
274
     1
  0
MATERIAL
  5
44
102
{ACAD_REACTORS
330
43
102
}
330
43
100
AcDbMaterial
  1
ByLayer
 73
     1
 78
     1
172
     1
176
     1
270
     1
274
     1
  0
MATERIAL
  5
46
102
{ACAD_REACTORS
330
43
102
}
330
43
100
AcDbMaterial
  1
Global
 73
     1
 78
     1
172
     1
176
     1
270
     1
274
     1
  0
MLEADERSTYLE
  5
6C
102
{ACAD_REACTORS
330
6B
102
}
330
6B
100
AcDbMLeaderStyle
179
     2
170
     2
171
     1
172
     0
 90
        2
 40
0.0
 41
0.0
173
     1
 91
-1056964608
340
14
 92
       -2
290
     1
 42
0.09
291
     1
 43
0.36
  3
Standard
 44
0.18
300

342
11
174
     1
178
     6
175
     1
176
     0
 93
-1056964608
 45
0.18
292
     0
297
     0
 46
0.18
 94
-1056964608
 47
1.0
 49
1.0
140
1.0
293
     1
141
0.0
294
     1
177
     0
142
1.0
295
     0
296
     0
143
0.125
271
     0
272
     9
273
     9
298
     0
  0
MLINESTYLE
  5
18
102
{ACAD_REACTORS
330
17
102
}
330
17
100
AcDbMlineStyle
  2
STANDARD
 70
     0
  3

 62
   256
 51
90.0
 52
90.0
 71
     2
 49
0.5
 62
   256
  6
BYLAYER
 49
-0.5
 62
   256
  6
BYLAYER
  0
ACDBPLACEHOLDER
  5
F
102
{ACAD_REACTORS
330
E
102
}
330
E
  0
SCALE
  5
48
102
{ACAD_REACTORS
330
47
102
}
330
47
100
AcDbScale
 70
     0
300
1:1
140
1.0
141
1.0
290
     1
  0
SCALE
  5
49
102
{ACAD_REACTORS
330
47
102
}
330
47
100
AcDbScale
 70
     0
300
1:2
140
1.0
141
2.0
290
     0
  0
SCALE
  5
4A
102
{ACAD_REACTORS
330
47
102
}
330
47
100
AcDbScale
 70
     0
300
1:4
140
1.0
141
4.0
290
     0
  0
SCALE
  5
4B
102
{ACAD_REACTORS
330
47
102
}
330
47
100
AcDbScale
 70
     0
300
1:5
140
1.0
141
5.0
290
     0
  0
SCALE
  5
4C
102
{ACAD_REACTORS
330
47
102
}
330
47
100
AcDbScale
 70
     0
300
1:8
140
1.0
141
8.0
290
     0
  0
SCALE
  5
4D
102
{ACAD_REACTORS
330
47
102
}
330
47
100
AcDbScale
 70
     0
300
1:10
140
1.0
141
10.0
290
     0
  0
SCALE
  5
4E
102
{ACAD_REACTORS
330
47
102
}
330
47
100
AcDbScale
 70
     0
300
1:16
140
1.0
141
16.0
290
     0
  0
SCALE
  5
4F
102
{ACAD_REACTORS
330
47
102
}
330
47
100
AcDbScale
 70
     0
300
1:20
140
1.0
141
20.0
290
     0
  0
SCALE
  5
50
102
{ACAD_REACTORS
330
47
102
}
330
47
100
AcDbScale
 70
     0
300
1:30
140
1.0
141
30.0
290
     0
  0
SCALE
  5
51
102
{ACAD_REACTORS
330
47
102
}
330
47
100
AcDbScale
 70
     0
300
1:40
140
1.0
141
40.0
290
     0
  0
SCALE
  5
52
102
{ACAD_REACTORS
330
47
102
}
330
47
100
AcDbScale
 70
     0
300
1:50
140
1.0
141
50.0
290
     0
  0
SCALE
  5
53
102
{ACAD_REACTORS
330
47
102
}
330
47
100
AcDbScale
 70
     0
300
1:100
140
1.0
141
100.0
290
     0
  0
SCALE
  5
54
102
{ACAD_REACTORS
330
47
102
}
330
47
100
AcDbScale
 70
     0
300
2:1
140
2.0
141
1.0
290
     0
  0
SCALE
  5
55
102
{ACAD_REACTORS
330
47
102
}
330
47
100
AcDbScale
 70
     0
300
4:1
140
4.0
141
1.0
290
     0
  0
SCALE
  5
56
102
{ACAD_REACTORS
330
47
102
}
330
47
100
AcDbScale
 70
     0
300
8:1
140
8.0
141
1.0
290
     0
  0
SCALE
  5
57
102
{ACAD_REACTORS
330
47
102
}
330
47
100
AcDbScale
 70
     0
300
10:1
140
10.0
141
1.0
290
     0
  0
SCALE
  5
58
102
{ACAD_REACTORS
330
47
102
}
330
47
100
AcDbScale
 70
     0
300
100:1
140
100.0
141
1.0
290
     0
  0
SCALE
  5
59
102
{ACAD_REACTORS
330
47
102
}
330
47
100
AcDbScale
 70
     0
300
1/128" = 1'-0"
140
0.0078125
141
12.0
290
     0
  0
SCALE
  5
5A
102
{ACAD_REACTORS
330
47
102
}
330
47
100
AcDbScale
 70
     0
300
1/64" = 1'-0"
140
0.015625
141
12.0
290
     0
  0
SCALE
  5
5B
102
{ACAD_REACTORS
330
47
102
}
330
47
100
AcDbScale
 70
     0
300
1/32" = 1'-0"
140
0.03125
141
12.0
290
     0
  0
SCALE
  5
5C
102
{ACAD_REACTORS
330
47
102
}
330
47
100
AcDbScale
 70
     0
300
1/16" = 1'-0"
140
0.0625
141
12.0
290
     0
  0
SCALE
  5
5D
102
{ACAD_REACTORS
330
47
102
}
330
47
100
AcDbScale
 70
     0
300
3/32" = 1'-0"
140
0.09375
141
12.0
290
     0
  0
SCALE
  5
5E
102
{ACAD_REACTORS
330
47
102
}
330
47
100
AcDbScale
 70
     0
300
1/8" = 1'-0"
140
0.125
141
12.0
290
     0
  0
SCALE
  5
5F
102
{ACAD_REACTORS
330
47
102
}
330
47
100
AcDbScale
 70
     0
300
3/16" = 1'-0"
140
0.1875
141
12.0
290
     0
  0
SCALE
  5
60
102
{ACAD_REACTORS
330
47
102
}
330
47
100
AcDbScale
 70
     0
300
1/4" = 1'-0"
140
0.25
141
12.0
290
     0
  0
SCALE
  5
61
102
{ACAD_REACTORS
330
47
102
}
330
47
100
AcDbScale
 70
     0
300
3/8" = 1'-0"
140
0.375
141
12.0
290
     0
  0
SCALE
  5
62
102
{ACAD_REACTORS
330
47
102
}
330
47
100
AcDbScale
 70
     0
300
1/2" = 1'-0"
140
0.5
141
12.0
290
     0
  0
SCALE
  5
63
102
{ACAD_REACTORS
330
47
102
}
330
47
100
AcDbScale
 70
     0
300
3/4" = 1'-0"
140
0.75
141
12.0
290
     0
  0
SCALE
  5
64
102
{ACAD_REACTORS
330
47
102
}
330
47
100
AcDbScale
 70
     0
300
1" = 1'-0"
140
1.0
141
12.0
290
     0
  0
SCALE
  5
65
102
{ACAD_REACTORS
330
47
102
}
330
47
100
AcDbScale
 70
     0
300
1-1/2" = 1'-0"
140
1.5
141
12.0
290
     0
  0
SCALE
  5
66
102
{ACAD_REACTORS
330
47
102
}
330
47
100
AcDbScale
 70
     0
300
3" = 1'-0"
140
3.0
141
12.0
290
     0
  0
SCALE
  5
67
102
{ACAD_REACTORS
330
47
102
}
330
47
100
AcDbScale
 70
     0
300
6" = 1'-0"
140
6.0
141
12.0
290
     0
  0
SCALE
  5
68
102
{ACAD_REACTORS
330
47
102
}
330
47
100
AcDbScale
 70
     0
300
1'-0" = 1'-0"
140
12.0
141
12.0
290
     0
  0
ACDBSECTIONVIEWSTYLE
  5
2CA
102
{ACAD_REACTORS
330
2C7
102
}
330
2C7
100
AcDbModelDocViewStyle
 70
     0
  3
Metric50
290
     1
300
Metric50
 90
        0
100
AcDbSectionViewStyle
 70
     0
 71
     0
 90
      102
 71
     1
340
11
 62
   256
 40
5.0
340
0
340
0
 62
   256
 40
5.0
300
I, O, Q, S, X, Z
 40
10.0
 90
        0
 40
2.5
 90
        0
 71
     2
340
16
 90
       25
 62
   256
340
16
 90
       50
 62
   256
 40
5.0
 40
2.5
 40
5.0
 71
     3
340
11
 62
   256
 40
5.0
 90
        0
 40
15.0
 90
        1
300
%<\AcVar ViewSectionStartId>%-%<\AcVar ViewSectionEndId>% (%<\AcVar ViewScale \f "%sn">%)
 71
     4
 62
   256
 62
   257
300
ANSI31
 40
1.0
 90
        0
290
     0
290
     0
 90
        6
 40
0.0
 40
1.570796326794896
 40
0.2617993877991494
 40
1.308996938995747
 40
-0.2617993877991494
 40
1.832595714594046
  0
TABLESTYLE
  5
6A
102
{ACAD_XDICTIONARY
360
53F
102
}
102
{ACAD_REACTORS
330
69
102
}
330
69
100
AcDbTableStyle
280
     0
  3
Standard
 70
     0
 71
     0
 40
0.06
 41
0.06
280
     0
281
     0
  7
Standard
140
0.18
170
     2
 62
     0
 63
     7
283
     0
 90
        4
 91
        0
  1

274
    -2
284
     1
 64
     0
275
    -2
285
     1
 65
     0
276
    -2
286
     1
 66
     0
277
    -2
287
     1
 67
     0
278
    -2
288
     1
 68
     0
279
    -2
289
     1
 69
     0
  7
Standard
140
0.25
170
     5
 62
     0
 63
     7
283
     0
 90
        4
 91
        0
  1

274
    -2
284
     1
 64
     0
275
    -2
285
     1
 65
     0
276
    -2
286
     1
 66
     0
277
    -2
287
     1
 67
     0
278
    -2
288
     1
 68
     0
279
    -2
289
     1
 69
     0
  7
Standard
140
0.18
170
     5
 62
     0
 63
     7
283
     0
 90
        4
 91
        0
  1

274
    -2
284
     1
 64
     0
275
    -2
285
     1
 65
     0
276
    -2
286
     1
 66
     0
277
    -2
287
     1
 67
     0
278
    -2
288
     1
 68
     0
279
    -2
289
     1
 69
     0
  0
VISUALSTYLE
  5
2F
102
{ACAD_REACTORS
330
2A
102
}
330
2A
100
AcDbVisualStyle
  2
2dWireframe
 70
     4
177
     3
291
     0
 70
    58
 90
        0
176
     1
 90
        2
176
     1
 90
        0
176
     1
 90
        0
176
     1
 40
0.6
176
     1
 40
30.0
176
     1
 62
     7
420
 16777215
176
     1
 90
        1
176
     1
 90
        4
176
     1
 62
     7
176
     1
 62
   257
176
     1
 90
        1
176
     1
 90
        1
176
     1
 40
1.0
176
     1
 90
        0
176
     1
 62
   257
176
     1
 40
1.0
176
     1
 90
        1
176
     1
 90
        6
176
     1
 90
        2
176
     1
 62
     7
176
     1
 90
        5
176
     1
 90
        0
176
     1
 90
        0
176
     1
290
     0
176
     1
 90
        1
176
     1
 40
0.0
176
     1
 90
        0
176
     1
290
     1
176
     1
290
     1
176
     1
290
     0
176
     1
290
     0
176
     1
290
     0
176
     1
290
     0
176
     1
290
     0
176
     1
290
     0
176
     1
290
     0
176
     1
 90
       50
176
     1
 40
0.0
176
     1
 40
1.0
176
     1
 90
        0
176
     1
 62
    18
420
        0
176
     1
 90
       50
176
     1
 90
        3
176
     1
 62
     5
420
      255
176
     1
290
     0
176
     1
 90
       50
176
     1
 90
       50
176
     1
 90
       50
176
     1
290
     0
176
     1
 90
       50
176
     1
 62
   256
176
     0
 40
1.0
176
     0
 90
        2
176
     1
  1
strokes_ogs.tif
176
     1
290
     0
176
     1
 40
1.0
176
     1
 40
1.0
176
     1
  0
VISUALSTYLE
  5
32
102
{ACAD_REACTORS
330
2A
102
}
330
2A
100
AcDbVisualStyle
  2
Basic
 70
     7
177
     3
291
     1
 70
    58
 90
        1
176
     1
 90
        0
176
     1
 90
        1
176
     1
 90
        0
176
     1
 40
0.6
176
     1
 40
30.0
176
     1
 62
     7
420
 16777215
176
     1
 90
        0
176
     1
 90
        4
176
     1
 62
     7
176
     1
 62
   257
176
     1
 90
        1
176
     1
 90
        1
176
     1
 40
1.0
176
     1
 90
        8
176
     1
 62
     7
176
     1
 40
1.0
176
     1
 90
        1
176
     1
 90
        6
176
     1
 90
        2
176
     1
 62
     7
176
     1
 90
        5
176
     1
 90
        0
176
     1
 90
        0
176
     1
290
     0
176
     1
 90
        1
176
     1
 40
0.0
176
     1
 90
        0
176
     1
290
     0
176
     1
290
     1
176
     1
290
     1
176
     1
290
     0
176
     1
290
     0
176
     1
290
     0
176
     1
290
     0
176
     1
290
     0
176
     1
290
     0
176
     1
 90
       50
176
     1
 40
0.0
176
     1
 40
1.0
176
     1
 90
        0
176
     1
 62
    18
420
        0
176
     1
 90
       50
176
     1
 90
        3
176
     1
 62
     5
420
      255
176
     1
290
     0
176
     1
 90
       50
176
     1
 90
       50
176
     1
 90
       50
176
     1
290
     0
176
     1
 90
       50
176
     1
 62
   256
176
     0
 40
1.0
176
     0
 90
        2
176
     1
  1
strokes_ogs.tif
176
     1
290
     0
176
     1
 40
1.0
176
     1
 40
1.0
176
     1
  0
VISUALSTYLE
  5
36
102
{ACAD_REACTORS
330
2A
102
}
330
2A
100
AcDbVisualStyle
  2
Brighten
 70
    12
177
     3
291
     1
 70
    58
 90
        2
176
     1
 90
        2
176
     1
 90
        0
176
     1
 90
        0
176
     1
 40
0.6
176
     1
 40
30.0
176
     1
 62
     7
420
 16777215
176
     1
 90
        1
176
     1
 90
        4
176
     1
 62
     7
176
     1
 62
   257
176
     1
 90
        1
176
     1
 90
        1
176
     1
 40
1.0
176
     1
 90
        8
176
     1
 62
     7
176
     1
 40
1.0
176
     1
 90
        1
176
     1
 90
        6
176
     1
 90
        2
176
     1
 62
     7
176
     1
 90
        5
176
     1
 90
        0
176
     1
 90
        0
176
     1
290
     0
176
     1
 90
        1
176
     1
 40
50.0
176
     1
 90
        0
176
     1
290
     0
176
     1
290
     1
176
     1
290
     1
176
     1
290
     0
176
     1
290
     0
176
     1
290
     0
176
     1
290
     0
176
     1
290
     0
176
     1
290
     0
176
     1
 90
       50
176
     1
 40
0.0
176
     1
 40
1.0
176
     1
 90
        0
176
     1
 62
    18
420
        0
176
     1
 90
       50
176
     1
 90
        3
176
     1
 62
     5
420
      255
176
     1
290
     0
176
     1
 90
       50
176
     1
 90
       50
176
     1
 90
       50
176
     1
290
     0
176
     1
 90
       50
176
     1
 62
   256
176
     0
 40
1.0
176
     0
 90
        2
176
     1
  1
strokes_ogs.tif
176
     1
290
     0
176
     1
 40
1.0
176
     1
 40
1.0
176
     1
  0
VISUALSTYLE
  5
3A
102
{ACAD_REACTORS
330
2A
102
}
330
2A
100
AcDbVisualStyle
  2
ColorChange
 70
    16
177
     3
291
     1
 70
    58
 90
        2
176
     1
 90
        2
176
     1
 90
        3
176
     1
 90
        0
176
     1
 40
0.6
176
     1
 40
30.0
176
     1
 62
     8
420
  8421504
176
     1
 90
        1
176
     1
 90
        4
176
     1
 62
     7
176
     1
 62
   257
176
     1
 90
        1
176
     1
 90
        1
176
     1
 40
1.0
176
     1
 90
        8
176
     1
 62
     8
420
  8421504
176
     1
 40
1.0
176
     1
 90
        1
176
     1
 90
        6
176
     1
 90
        2
176
     1
 62
     7
176
     1
 90
        5
176
     1
 90
        0
176
     1
 90
        0
176
     1
290
     0
176
     1
 90
        1
176
     1
 40
0.0
176
     1
 90
        0
176
     1
290
     0
176
     1
290
     1
176
     1
290
     1
176
     1
290
     0
176
     1
290
     0
176
     1
290
     0
176
     1
290
     0
176
     1
290
     0
176
     1
290
     0
176
     1
 90
       50
176
     1
 40
0.0
176
     1
 40
1.0
176
     1
 90
        0
176
     1
 62
    18
420
        0
176
     1
 90
       50
176
     1
 90
        3
176
     1
 62
     5
420
      255
176
     1
290
     0
176
     1
 90
       50
176
     1
 90
       50
176
     1
 90
       50
176
     1
290
     0
176
     1
 90
       50
176
     1
 62
   256
176
     0
 40
1.0
176
     0
 90
        2
176
     1
  1
strokes_ogs.tif
176
     1
290
     0
176
     1
 40
1.0
176
     1
 40
1.0
176
     1
  0
VISUALSTYLE
  5
34
102
{ACAD_REACTORS
330
2A
102
}
330
2A
100
AcDbVisualStyle
  2
Conceptual
 70
     9
177
     3
291
     0
 70
    58
 90
        3
176
     1
 90
        2
176
     1
 90
        0
176
     1
 90
        0
176
     1
 40
0.6
176
     1
 40
30.0
176
     1
 62
     7
420
 16777215
176
     1
 90
        2
176
     1
 90
        2
176
     1
 62
     7
176
     1
 62
   257
176
     1
 90
        1
176
     1
 90
        1
176
     1
 40
179.0
176
     1
 90
        8
176
     1
 62
     7
176
     1
 40
1.0
176
     1
 90
        1
176
     1
 90
        6
176
     1
 90
        2
176
     1
 62
     7
176
     1
 90
        3
176
     1
 90
        0
176
     1
 90
        0
176
     1
290
     0
176
     1
 90
        1
176
     1
 40
0.0
176
     1
 90
        0
176
     1
290
     0
176
     1
290
     1
176
     1
290
     1
176
     1
290
     0
176
     1
290
     0
176
     1
290
     0
176
     1
290
     0
176
     1
290
     0
176
     1
290
     0
176
     1
 90
       50
176
     1
 40
0.0
176
     1
 40
1.0
176
     1
 90
        0
176
     1
 62
    18
420
        0
176
     1
 90
       50
176
     1
 90
        3
176
     1
 62
     5
420
      255
176
     1
290
     0
176
     1
 90
       50
176
     1
 90
       50
176
     1
 90
       50
176
     1
290
     0
176
     1
 90
       50
176
     1
 62
   256
176
     0
 40
1.0
176
     0
 90
        2
176
     1
  1
strokes_ogs.tif
176
     1
290
     0
176
     1
 40
1.0
176
     1
 40
1.0
176
     1
  0
VISUALSTYLE
  5
35
102
{ACAD_REACTORS
330
2A
102
}
330
2A
100
AcDbVisualStyle
  2
Dim
 70
    11
177
     3
291
     1
 70
    58
 90
        2
176
     1
 90
        2
176
     1
 90
        0
176
     1
 90
        0
176
     1
 40
0.6
176
     1
 40
30.0
176
     1
 62
     7
420
 16777215
176
     1
 90
        1
176
     1
 90
        4
176
     1
 62
     7
176
     1
 62
   257
176
     1
 90
        1
176
     1
 90
        1
176
     1
 40
1.0
176
     1
 90
        8
176
     1
 62
     7
176
     1
 40
1.0
176
     1
 90
        1
176
     1
 90
        6
176
     1
 90
        2
176
     1
 62
     7
176
     1
 90
        5
176
     1
 90
        0
176
     1
 90
        0
176
     1
290
     0
176
     1
 90
        1
176
     1
 40
-50.0
176
     1
 90
        0
176
     1
290
     0
176
     1
290
     1
176
     1
290
     1
176
     1
290
     0
176
     1
290
     0
176
     1
290
     0
176
     1
290
     0
176
     1
290
     0
176
     1
290
     0
176
     1
 90
       50
176
     1
 40
0.0
176
     1
 40
1.0
176
     1
 90
        0
176
     1
 62
    18
420
        0
176
     1
 90
       50
176
     1
 90
        3
176
     1
 62
     5
420
      255
176
     1
290
     0
176
     1
 90
       50
176
     1
 90
       50
176
     1
 90
       50
176
     1
290
     0
176
     1
 90
       50
176
     1
 62
   256
176
     0
 40
1.0
176
     0
 90
        2
176
     1
  1
strokes_ogs.tif
176
     1
290
     0
176
     1
 40
1.0
176
     1
 40
1.0
176
     1
  0
VISUALSTYLE
  5
3D
102
{ACAD_REACTORS
330
2A
102
}
330
2A
100
AcDbVisualStyle
  2
EdgeColorOff
 70
    22
177
     3
291
     1
 70
    58
 90
        2
176
     0
 90
        2
176
     0
 90
        0
176
     0
 90
        0
176
     0
 40
0.6
176
     0
 40
30.0
176
     0
 62
     7
420
 16777215
176
     0
 90
        1
176
     0
 90
        4
176
     0
 62
     7
176
     0
 62
   257
176
     0
 90
        1
176
     0
 90
        1
176
     0
 40
1.0
176
     0
 90
        8
176
     2
 62
     7
176
     0
 40
1.0
176
     0
 90
        1
176
     0
 90
        6
176
     0
 90
        2
176
     0
 62
     7
176
     0
 90
        5
176
     0
 90
        0
176
     0
 90
        0
176
     0
290
     0
176
     0
 90
        1
176
     0
 40
0.0
176
     0
 90
        0
176
     0
290
     0
176
     0
290
     1
176
     0
290
     1
176
     0
290
     0
176
     0
290
     0
176
     0
290
     0
176
     0
290
     0
176
     0
290
     0
176
     0
290
     0
176
     0
 90
       50
176
     0
 40
0.0
176
     0
 40
1.0
176
     0
 90
        0
176
     0
 62
    18
420
        0
176
     0
 90
       50
176
     0
 90
        3
176
     0
 62
     5
420
      255
176
     0
290
     0
176
     0
 90
       50
176
     0
 90
       50
176
     0
 90
       50
176
     0
290
     0
176
     0
 90
       50
176
     0
 62
   256
176
     0
 40
1.0
176
     0
 90
        2
176
     0
  1
strokes_ogs.tif
176
     0
290
     0
176
     0
 40
1.0
176
     0
 40
1.0
176
     0
  0
VISUALSTYLE
  5
39
102
{ACAD_REACTORS
330
2A
102
}
330
2A
100
AcDbVisualStyle
  2
Facepattern
 70
    15
177
     3
291
     1
 70
    58
 90
        2
176
     1
 90
        2
176
     1
 90
        0
176
     1
 90
        0
176
     1
 40
0.6
176
     1
 40
30.0
176
     1
 62
     7
420
 16777215
176
     1
 90
        1
176
     1
 90
        4
176
     1
 62
     7
176
     1
 62
   257
176
     1
 90
        1
176
     1
 90
        1
176
     1
 40
1.0
176
     1
 90
        8
176
     1
 62
     7
176
     1
 40
1.0
176
     1
 90
        1
176
     1
 90
        6
176
     1
 90
        2
176
     1
 62
     7
176
     1
 90
        5
176
     1
 90
        0
176
     1
 90
        0
176
     1
290
     0
176
     1
 90
        1
176
     1
 40
0.0
176
     1
 90
        0
176
     1
290
     0
176
     1
290
     1
176
     1
290
     1
176
     1
290
     0
176
     1
290
     0
176
     1
290
     0
176
     1
290
     0
176
     1
290
     0
176
     1
290
     0
176
     1
 90
       50
176
     1
 40
0.0
176
     1
 40
1.0
176
     1
 90
        0
176
     1
 62
    18
420
        0
176
     1
 90
       50
176
     1
 90
        3
176
     1
 62
     5
420
      255
176
     1
290
     0
176
     1
 90
       50
176
     1
 90
       50
176
     1
 90
       50
176
     1
290
     0
176
     1
 90
       50
176
     1
 62
   256
176
     0
 40
1.0
176
     0
 90
        2
176
     1
  1
strokes_ogs.tif
176
     1
290
     0
176
     1
 40
1.0
176
     1
 40
1.0
176
     1
  0
VISUALSTYLE
  5
2B
102
{ACAD_REACTORS
330
2A
102
}
330
2A
100
AcDbVisualStyle
  2
Flat
 70
     0
177
     3
291
     1
 70
    58
 90
        2
176
     1
 90
        1
176
     1
 90
        1
176
     1
 90
        2
176
     1
 40
0.6
176
     1
 40
30.0
176
     1
 62
     7
420
 16777215
176
     1
 90
        0
176
     1
 90
        0
176
     1
 62
     7
176
     1
 62
   257
176
     1
 90
        1
176
     1
 90
        1
176
     1
 40
1.0
176
     1
 90
        8
176
     1
 62
     7
176
     1
 40
1.0
176
     1
 90
        1
176
     1
 90
        6
176
     1
 90
        2
176
     1
 62
     7
176
     1
 90
        5
176
     1
 90
        0
176
     1
 90
        0
176
     1
290
     0
176
     1
 90
       13
176
     1
 40
0.0
176
     1
 90
        0
176
     1
290
     0
176
     1
290
     1
176
     1
290
     1
176
     1
290
     0
176
     1
290
     0
176
     1
290
     0
176
     1
290
     0
176
     1
290
     0
176
     1
290
     0
176
     1
 90
       50
176
     1
 40
0.0
176
     1
 40
1.0
176
     1
 90
        0
176
     1
 62
    18
420
        0
176
     1
 90
       50
176
     1
 90
        3
176
     1
 62
     5
420
      255
176
     1
290
     0
176
     1
 90
       50
176
     1
 90
       50
176
     1
 90
       50
176
     1
290
     0
176
     1
 90
       50
176
     1
 62
   256
176
     0
 40
1.0
176
     0
 90
        2
176
     1
  1
strokes_ogs.tif
176
     1
290
     0
176
     1
 40
1.0
176
     1
 40
1.0
176
     1
  0
VISUALSTYLE
  5
2C
102
{ACAD_REACTORS
330
2A
102
}
330
2A
100
AcDbVisualStyle
  2
FlatWithEdges
 70
     1
177
     3
291
     1
 70
    58
 90
        2
176
     1
 90
        1
176
     1
 90
        1
176
     1
 90
        2
176
     1
 40
0.6
176
     1
 40
30.0
176
     1
 62
     7
420
 16777215
176
     1
 90
        1
176
     1
 90
        0
176
     1
 62
     7
176
     1
 62
   257
176
     1
 90
        1
176
     1
 90
        1
176
     1
 40
1.0
176
     1
 90
        0
176
     1
 62
   257
176
     1
 40
1.0
176
     1
 90
        1
176
     1
 90
        6
176
     1
 90
        2
176
     1
 62
     7
176
     1
 90
        5
176
     1
 90
        0
176
     1
 90
        0
176
     1
290
     0
176
     1
 90
       13
176
     1
 40
0.0
176
     1
 90
        0
176
     1
290
     0
176
     1
290
     1
176
     1
290
     1
176
     1
290
     0
176
     1
290
     0
176
     1
290
     0
176
     1
290
     0
176
     1
290
     0
176
     1
290
     0
176
     1
 90
       50
176
     1
 40
0.0
176
     1
 40
1.0
176
     1
 90
        0
176
     1
 62
    18
420
        0
176
     1
 90
       50
176
     1
 90
        3
176
     1
 62
     5
420
      255
176
     1
290
     0
176
     1
 90
       50
176
     1
 90
       50
176
     1
 90
       50
176
     1
290
     0
176
     1
 90
       50
176
     1
 62
   256
176
     0
 40
1.0
176
     0
 90
        2
176
     1
  1
strokes_ogs.tif
176
     1
290
     0
176
     1
 40
1.0
176
     1
 40
1.0
176
     1
  0
VISUALSTYLE
  5
2D
102
{ACAD_REACTORS
330
2A
102
}
330
2A
100
AcDbVisualStyle
  2
Gouraud
 70
     2
177
     3
291
     1
 70
    58
 90
        2
176
     1
 90
        2
176
     1
 90
        1
176
     1
 90
        2
176
     1
 40
0.6
176
     1
 40
30.0
176
     1
 62
     7
420
 16777215
176
     1
 90
        0
176
     1
 90
        0
176
     1
 62
     7
176
     1
 62
   257
176
     1
 90
        1
176
     1
 90
        1
176
     1
 40
1.0
176
     1
 90
        0
176
     1
 62
     7
176
     1
 40
1.0
176
     1
 90
        1
176
     1
 90
        6
176
     1
 90
        2
176
     1
 62
     7
176
     1
 90
        5
176
     1
 90
        0
176
     1
 90
        0
176
     1
290
     0
176
     1
 90
       13
176
     1
 40
0.0
176
     1
 90
        0
176
     1
290
     0
176
     1
290
     1
176
     1
290
     1
176
     1
290
     0
176
     1
290
     0
176
     1
290
     0
176
     1
290
     0
176
     1
290
     0
176
     1
290
     0
176
     1
 90
       50
176
     1
 40
0.0
176
     1
 40
1.0
176
     1
 90
        0
176
     1
 62
    18
420
        0
176
     1
 90
       50
176
     1
 90
        3
176
     1
 62
     5
420
      255
176
     1
290
     0
176
     1
 90
       50
176
     1
 90
       50
176
     1
 90
       50
176
     1
290
     0
176
     1
 90
       50
176
     1
 62
   256
176
     0
 40
1.0
176
     0
 90
        2
176
     1
  1
strokes_ogs.tif
176
     1
290
     0
176
     1
 40
1.0
176
     1
 40
1.0
176
     1
  0
VISUALSTYLE
  5
2E
102
{ACAD_REACTORS
330
2A
102
}
330
2A
100
AcDbVisualStyle
  2
GouraudWithEdges
 70
     3
177
     3
291
     1
 70
    58
 90
        2
176
     1
 90
        2
176
     1
 90
        1
176
     1
 90
        2
176
     1
 40
0.6
176
     1
 40
30.0
176
     1
 62
     7
420
 16777215
176
     1
 90
        1
176
     1
 90
        0
176
     1
 62
     7
176
     1
 62
   257
176
     1
 90
        1
176
     1
 90
        1
176
     1
 40
1.0
176
     1
 90
        0
176
     1
 62
   257
176
     1
 40
1.0
176
     1
 90
        1
176
     1
 90
        6
176
     1
 90
        2
176
     1
 62
     7
176
     1
 90
        5
176
     1
 90
        0
176
     1
 90
        0
176
     1
290
     0
176
     1
 90
       13
176
     1
 40
0.0
176
     1
 90
        0
176
     1
290
     0
176
     1
290
     1
176
     1
290
     1
176
     1
290
     0
176
     1
290
     0
176
     1
290
     0
176
     1
290
     0
176
     1
290
     0
176
     1
290
     0
176
     1
 90
       50
176
     1
 40
0.0
176
     1
 40
1.0
176
     1
 90
        0
176
     1
 62
    18
420
        0
176
     1
 90
       50
176
     1
 90
        3
176
     1
 62
     5
420
      255
176
     1
290
     0
176
     1
 90
       50
176
     1
 90
       50
176
     1
 90
       50
176
     1
290
     0
176
     1
 90
       50
176
     1
 62
   256
176
     0
 40
1.0
176
     0
 90
        2
176
     1
  1
strokes_ogs.tif
176
     1
290
     0
176
     1
 40
1.0
176
     1
 40
1.0
176
     1
  0
VISUALSTYLE
  5
31
102
{ACAD_REACTORS
330
2A
102
}
330
2A
100
AcDbVisualStyle
  2
Hidden
 70
     6
177
     3
291
     0
 70
    58
 90
        1
176
     1
 90
        2
176
     1
 90
        2
176
     1
 90
        0
176
     1
 40
0.6
176
     1
 40
30.0
176
     1
 62
     7
420
 16777215
176
     1
 90
        2
176
     1
 90
        2
176
     1
 62
     7
176
     1
 62
   257
176
     1
 90
        2
176
     1
 90
        1
176
     1
 40
40.0
176
     1
 90
        0
176
     1
 62
   257
176
     1
 40
1.0
176
     1
 90
        1
176
     1
 90
        6
176
     1
 90
        2
176
     1
 62
     7
176
     1
 90
        3
176
     1
 90
        0
176
     1
 90
        0
176
     1
290
     0
176
     1
 90
        1
176
     1
 40
0.0
176
     1
 90
        0
176
     1
290
     0
176
     1
290
     1
176
     1
290
     1
176
     1
290
     0
176
     1
290
     0
176
     1
290
     0
176
     1
290
     0
176
     1
290
     0
176
     1
290
     0
176
     1
 90
       50
176
     1
 40
0.0
176
     1
 40
1.0
176
     1
 90
        0
176
     1
 62
    18
420
        0
176
     1
 90
       50
176
     1
 90
        3
176
     1
 62
     5
420
      255
176
     1
290
     0
176
     1
 90
       50
176
     1
 90
       50
176
     1
 90
       50
176
     1
290
     0
176
     1
 90
       50
176
     1
 62
   256
176
     0
 40
1.0
176
     0
 90
        2
176
     1
  1
strokes_ogs.tif
176
     1
290
     0
176
     1
 40
1.0
176
     1
 40
1.0
176
     1
  0
VISUALSTYLE
  5
3B
102
{ACAD_REACTORS
330
2A
102
}
330
2A
100
AcDbVisualStyle
  2
JitterOff
 70
    20
177
     3
291
     1
 70
    58
 90
        2
176
     0
 90
        2
176
     0
 90
        0
176
     0
 90
        0
176
     0
 40
0.6
176
     0
 40
30.0
176
     0
 62
     7
420
 16777215
176
     0
 90
        1
176
     0
 90
        4
176
     0
 62
     7
176
     0
 62
   257
176
     0
 90
        1
176
     0
 90
        1
176
     0
 40
1.0
176
     0
 90
       10
176
     2
 62
     7
176
     0
 40
1.0
176
     0
 90
        1
176
     0
 90
        6
176
     0
 90
        2
176
     0
 62
     7
176
     0
 90
        5
176
     0
 90
        0
176
     0
 90
        0
176
     0
290
     0
176
     0
 90
        1
176
     0
 40
0.0
176
     0
 90
        0
176
     0
290
     0
176
     0
290
     1
176
     0
290
     1
176
     0
290
     0
176
     0
290
     0
176
     0
290
     0
176
     0
290
     0
176
     0
290
     0
176
     0
290
     0
176
     0
 90
       50
176
     0
 40
0.0
176
     0
 40
1.0
176
     0
 90
        0
176
     0
 62
    18
420
        0
176
     0
 90
       50
176
     0
 90
        3
176
     0
 62
     5
420
      255
176
     0
290
     0
176
     0
 90
       50
176
     0
 90
       50
176
     0
 90
       50
176
     0
290
     0
176
     0
 90
       50
176
     0
 62
   256
176
     0
 40
1.0
176
     0
 90
        2
176
     0
  1
strokes_ogs.tif
176
     0
290
     0
176
     0
 40
1.0
176
     0
 40
1.0
176
     0
  0
VISUALSTYLE
  5
38
102
{ACAD_REACTORS
330
2A
102
}
330
2A
100
AcDbVisualStyle
  2
Linepattern
 70
    14
177
     3
291
     1
 70
    58
 90
        2
176
     1
 90
        2
176
     1
 90
        0
176
     1
 90
        0
176
     1
 40
0.6
176
     1
 40
30.0
176
     1
 62
     7
420
 16777215
176
     1
 90
        1
176
     1
 90
        4
176
     1
 62
     7
176
     1
 62
   257
176
     1
 90
        7
176
     1
 90
        7
176
     1
 40
1.0
176
     1
 90
        8
176
     1
 62
     7
176
     1
 40
1.0
176
     1
 90
        1
176
     1
 90
        6
176
     1
 90
        2
176
     1
 62
     7
176
     1
 90
        5
176
     1
 90
        0
176
     1
 90
        0
176
     1
290
     0
176
     1
 90
        1
176
     1
 40
0.0
176
     1
 90
        0
176
     1
290
     0
176
     1
290
     1
176
     1
290
     1
176
     1
290
     0
176
     1
290
     0
176
     1
290
     0
176
     1
290
     0
176
     1
290
     0
176
     1
290
     0
176
     1
 90
       50
176
     1
 40
0.0
176
     1
 40
1.0
176
     1
 90
        0
176
     1
 62
    18
420
        0
176
     1
 90
       50
176
     1
 90
        3
176
     1
 62
     5
420
      255
176
     1
290
     0
176
     1
 90
       50
176
     1
 90
       50
176
     1
 90
       50
176
     1
290
     0
176
     1
 90
       50
176
     1
 62
   256
176
     0
 40
1.0
176
     0
 90
        2
176
     1
  1
strokes_ogs.tif
176
     1
290
     0
176
     1
 40
1.0
176
     1
 40
1.0
176
     1
  0
VISUALSTYLE
  5
3C
102
{ACAD_REACTORS
330
2A
102
}
330
2A
100
AcDbVisualStyle
  2
OverhangOff
 70
    21
177
     3
291
     1
 70
    58
 90
        2
176
     0
 90
        2
176
     0
 90
        0
176
     0
 90
        0
176
     0
 40
0.6
176
     0
 40
30.0
176
     0
 62
     7
420
 16777215
176
     0
 90
        1
176
     0
 90
        4
176
     0
 62
     7
176
     0
 62
   257
176
     0
 90
        1
176
     0
 90
        1
176
     0
 40
1.0
176
     0
 90
        9
176
     2
 62
     7
176
     0
 40
1.0
176
     0
 90
        1
176
     0
 90
        6
176
     0
 90
        2
176
     0
 62
     7
176
     0
 90
        5
176
     0
 90
        0
176
     0
 90
        0
176
     0
290
     0
176
     0
 90
        1
176
     0
 40
0.0
176
     0
 90
        0
176
     0
290
     0
176
     0
290
     1
176
     0
290
     1
176
     0
290
     0
176
     0
290
     0
176
     0
290
     0
176
     0
290
     0
176
     0
290
     0
176
     0
290
     0
176
     0
 90
       50
176
     0
 40
0.0
176
     0
 40
1.0
176
     0
 90
        0
176
     0
 62
    18
420
        0
176
     0
 90
       50
176
     0
 90
        3
176
     0
 62
     5
420
      255
176
     0
290
     0
176
     0
 90
       50
176
     0
 90
       50
176
     0
 90
       50
176
     0
290
     0
176
     0
 90
       50
176
     0
 62
   256
176
     0
 40
1.0
176
     0
 90
        2
176
     0
  1
strokes_ogs.tif
176
     0
290
     0
176
     0
 40
1.0
176
     0
 40
1.0
176
     0
  0
VISUALSTYLE
  5
33
102
{ACAD_REACTORS
330
2A
102
}
330
2A
100
AcDbVisualStyle
  2
Realistic
 70
     8
177
     3
291
     0
 70
    58
 90
        2
176
     1
 90
        3
176
     1
 90
        0
176
     1
 90
        2
176
     1
 40
0.6
176
     1
 40
30.0
176
     1
 62
     7
420
 16777215
176
     1
 90
        0
176
     1
 90
        0
176
     1
 62
     7
176
     1
 62
   257
176
     1
 90
        1
176
     1
 90
        1
176
     1
 40
1.0
176
     1
 90
        8
176
     1
 62
   257
176
     1
 40
1.0
176
     1
 90
        1
176
     1
 90
        6
176
     1
 90
        2
176
     1
 62
     7
176
     1
 90
        3
176
     1
 90
        0
176
     1
 90
        0
176
     1
290
     0
176
     1
 90
       13
176
     1
 40
0.0
176
     1
 90
        0
176
     1
290
     0
176
     1
290
     1
176
     1
290
     1
176
     1
290
     0
176
     1
290
     0
176
     1
290
     0
176
     1
290
     0
176
     1
290
     0
176
     1
290
     0
176
     1
 90
       50
176
     1
 40
0.0
176
     1
 40
1.0
176
     1
 90
        0
176
     1
 62
    18
420
        0
176
     1
 90
       50
176
     1
 90
        3
176
     1
 62
     5
420
      255
176
     1
290
     0
176
     1
 90
       50
176
     1
 90
       50
176
     1
 90
       50
176
     1
290
     0
176
     1
 90
       50
176
     1
 62
   256
176
     0
 40
1.0
176
     0
 90
        2
176
     1
  1
strokes_ogs.tif
176
     1
290
     0
176
     1
 40
1.0
176
     1
 40
1.0
176
     1
  0
VISUALSTYLE
  5
42
102
{ACAD_REACTORS
330
2A
102
}
330
2A
100
AcDbVisualStyle
  2
Shaded
 70
    27
177
     3
291
     0
 70
    58
 90
        2
176
     1
 90
        2
176
     1
 90
        1
176
     1
 90
        2
176
     1
 40
0.6
176
     1
 40
30.0
176
     1
 62
     7
420
 16777215
176
     1
 90
        0
176
     1
 90
        4
176
     1
 62
     7
176
     1
 62
   257
176
     1
 90
        1
176
     1
 90
        1
176
     1
 40
1.0
176
     1
 90
        8
176
     1
 62
   257
176
     1
 40
1.0
176
     1
 90
        1
176
     1
 90
        6
176
     1
 90
        2
176
     1
 62
     8
420
  7895160
176
     1
 90
        3
176
     1
 90
        0
176
     1
 90
        0
176
     1
290
     0
176
     1
 90
        5
176
     1
 40
0.0
176
     1
 90
        0
176
     1
290
     0
176
     1
290
     1
176
     1
290
     1
176
     1
290
     0
176
     1
290
     0
176
     1
290
     0
176
     1
290
     0
176
     1
290
     0
176
     1
290
     0
176
     1
 90
       50
176
     1
 40
0.0
176
     1
 40
1.0
176
     1
 90
        0
176
     1
 62
    18
420
        0
176
     1
 90
       50
176
     1
 90
        3
176
     1
 62
     5
420
      255
176
     1
290
     0
176
     1
 90
       50
176
     1
 90
       50
176
     1
 90
       50
176
     1
290
     0
176
     1
 90
       50
176
     1
 62
   256
176
     0
 40
1.0
176
     0
 90
        2
176
     1
  1
strokes_ogs.tif
176
     1
290
     0
176
     1
 40
1.0
176
     1
 40
1.0
176
     1
  0
VISUALSTYLE
  5
41
102
{ACAD_REACTORS
330
2A
102
}
330
2A
100
AcDbVisualStyle
  2
Shaded with edges
 70
    26
177
     3
291
     0
 70
    58
 90
        2
176
     1
 90
        2
176
     1
 90
        1
176
     1
 90
        2
176
     1
 40
0.6
176
     1
 40
30.0
176
     1
 62
     7
420
 16777215
176
     1
 90
        1
176
     1
 90
        2
176
     1
 62
     7
176
     1
 62
   257
176
     1
 90
        2
176
     1
 90
        1
176
     1
 40
1.0
176
     1
 90
        8
176
     1
 62
   257
176
     1
 40
1.0
176
     1
 90
        1
176
     1
 90
        6
176
     1
 90
        2
176
     1
 62
     7
176
     1
 90
        3
176
     1
 90
        0
176
     1
 90
        0
176
     1
290
     0
176
     1
 90
        5
176
     1
 40
0.0
176
     1
 90
        0
176
     1
290
     0
176
     1
290
     1
176
     1
290
     1
176
     1
290
     0
176
     1
290
     0
176
     1
290
     0
176
     1
290
     0
176
     1
290
     0
176
     1
290
     0
176
     1
 90
       50
176
     1
 40
0.0
176
     1
 40
1.0
176
     1
 90
        0
176
     1
 62
    18
420
        0
176
     1
 90
       50
176
     1
 90
        3
176
     1
 62
     5
420
      255
176
     1
290
     0
176
     1
 90
       50
176
     1
 90
       50
176
     1
 90
       50
176
     1
290
     0
176
     1
 90
       50
176
     1
 62
   256
176
     0
 40
1.0
176
     0
 90
        2
176
     1
  1
strokes_ogs.tif
176
     1
290
     0
176
     1
 40
1.0
176
     1
 40
1.0
176
     1
  0
VISUALSTYLE
  5
3E
102
{ACAD_REACTORS
330
2A
102
}
330
2A
100
AcDbVisualStyle
  2
Shades of Gray
 70
    23
177
     3
291
     0
 70
    58
 90
        2
176
     1
 90
        2
176
     1
 90
        3
176
     1
 90
        0
176
     1
 40
0.6
176
     1
 40
30.0
176
     1
 62
     7
420
 16777215
176
     1
 90
        2
176
     1
 90
        2
176
     1
 62
     7
176
     1
 62
     7
176
     1
 90
        1
176
     1
 90
        1
176
     1
 40
40.0
176
     1
 90
        8
176
     1
 62
     7
176
     1
 40
1.0
176
     1
 90
        1
176
     1
 90
        6
176
     1
 90
        2
176
     1
 62
     7
176
     1
 90
        3
176
     1
 90
        0
176
     1
 90
        0
176
     1
290
     0
176
     1
 90
        1
176
     1
 40
0.0
176
     1
 90
        0
176
     1
290
     0
176
     1
290
     1
176
     1
290
     1
176
     1
290
     0
176
     1
290
     0
176
     1
290
     0
176
     1
290
     0
176
     1
290
     0
176
     1
290
     0
176
     1
 90
       50
176
     1
 40
0.0
176
     1
 40
1.0
176
     1
 90
        0
176
     1
 62
    18
420
        0
176
     1
 90
       50
176
     1
 90
        3
176
     1
 62
     5
420
      255
176
     1
290
     0
176
     1
 90
       50
176
     1
 90
       50
176
     1
 90
       50
176
     1
290
     0
176
     1
 90
       50
176
     1
 62
   256
176
     0
 40
1.0
176
     0
 90
        2
176
     1
  1
strokes_ogs.tif
176
     1
290
     0
176
     1
 40
1.0
176
     1
 40
1.0
176
     1
  0
VISUALSTYLE
  5
3F
102
{ACAD_REACTORS
330
2A
102
}
330
2A
100
AcDbVisualStyle
  2
Sketchy
 70
    24
177
     3
291
     0
 70
    58
 90
        1
176
     1
 90
        2
176
     1
 90
        2
176
     1
 90
        0
176
     1
 40
0.6
176
     1
 40
30.0
176
     1
 62
     7
420
 16777215
176
     1
 90
        2
176
     1
 90
        2
176
     1
 62
     7
176
     1
 62
     7
176
     1
 90
        1
176
     1
 90
        1
176
     1
 40
40.0
176
     1
 90
       11
176
     1
 62
     7
176
     1
 40
1.0
176
     1
 90
        1
176
     1
 90
        6
176
     1
 90
        2
176
     1
 62
     7
176
     1
 90
        6
176
     1
 90
        0
176
     1
 90
        0
176
     1
290
     0
176
     1
 90
        1
176
     1
 40
0.0
176
     1
 90
        0
176
     1
290
     0
176
     1
290
     1
176
     1
290
     1
176
     1
290
     0
176
     1
290
     0
176
     1
290
     0
176
     1
290
     0
176
     1
290
     0
176
     1
290
     0
176
     1
 90
       50
176
     1
 40
0.0
176
     1
 40
1.0
176
     1
 90
        0
176
     1
 62
    18
420
        0
176
     1
 90
       50
176
     1
 90
        3
176
     1
 62
     5
420
      255
176
     1
290
     0
176
     1
 90
       50
176
     1
 90
       50
176
     1
 90
       50
176
     1
290
     0
176
     1
 90
       50
176
     1
 62
   256
176
     0
 40
1.0
176
     0
 90
        2
176
     1
  1
strokes_ogs.tif
176
     1
290
     0
176
     1
 40
1.0
176
     1
 40
1.0
176
     1
  0
VISUALSTYLE
  5
37
102
{ACAD_REACTORS
330
2A
102
}
330
2A
100
AcDbVisualStyle
  2
Thicken
 70
    13
177
     3
291
     1
 70
    58
 90
        2
176
     1
 90
        2
176
     1
 90
        0
176
     1
 90
        0
176
     1
 40
0.6
176
     1
 40
30.0
176
     1
 62
     7
420
 16777215
176
     1
 90
        1
176
     1
 90
        4
176
     1
 62
     7
176
     1
 62
   257
176
     1
 90
        1
176
     1
 90
        1
176
     1
 40
1.0
176
     1
 90
       12
176
     1
 62
     7
176
     1
 40
1.0
176
     1
 90
        1
176
     1
 90
        6
176
     1
 90
        2
176
     1
 62
     7
176
     1
 90
        5
176
     1
 90
        0
176
     1
 90
        0
176
     1
290
     0
176
     1
 90
        1
176
     1
 40
0.0
176
     1
 90
        0
176
     1
290
     0
176
     1
290
     1
176
     1
290
     1
176
     1
290
     0
176
     1
290
     0
176
     1
290
     0
176
     1
290
     0
176
     1
290
     0
176
     1
290
     0
176
     1
 90
       50
176
     1
 40
0.0
176
     1
 40
1.0
176
     1
 90
        0
176
     1
 62
    18
420
        0
176
     1
 90
       50
176
     1
 90
        3
176
     1
 62
     5
420
      255
176
     1
290
     0
176
     1
 90
       50
176
     1
 90
       50
176
     1
 90
       50
176
     1
290
     0
176
     1
 90
       50
176
     1
 62
   256
176
     0
 40
1.0
176
     0
 90
        2
176
     1
  1
strokes_ogs.tif
176
     1
290
     0
176
     1
 40
1.0
176
     1
 40
1.0
176
     1
  0
VISUALSTYLE
  5
30
102
{ACAD_REACTORS
330
2A
102
}
330
2A
100
AcDbVisualStyle
  2
Wireframe
 70
     5
177
     3
291
     0
 70
    58
 90
        0
176
     1
 90
        2
176
     1
 90
        0
176
     1
 90
        0
176
     1
 40
0.6
176
     1
 40
30.0
176
     1
 62
     7
420
 16777215
176
     1
 90
        1
176
     1
 90
        4
176
     1
 62
     7
176
     1
 62
   257
176
     1
 90
        1
176
     1
 90
        1
176
     1
 40
1.0
176
     1
 90
        0
176
     1
 62
   257
176
     1
 40
1.0
176
     1
 90
        1
176
     1
 90
        6
176
     1
 90
        2
176
     1
 62
     7
176
     1
 90
        3
176
     1
 90
        0
176
     1
 90
        0
176
     1
290
     0
176
     1
 90
        1
176
     1
 40
0.0
176
     1
 90
        0
176
     1
290
     0
176
     1
290
     1
176
     1
290
     1
176
     1
290
     0
176
     1
290
     0
176
     1
290
     0
176
     1
290
     0
176
     1
290
     0
176
     1
290
     0
176
     1
 90
       50
176
     1
 40
0.0
176
     1
 40
1.0
176
     1
 90
        0
176
     1
 62
    18
420
        0
176
     1
 90
       50
176
     1
 90
        3
176
     1
 62
     5
420
      255
176
     1
290
     0
176
     1
 90
       50
176
     1
 90
       50
176
     1
 90
       50
176
     1
290
     0
176
     1
 90
       50
176
     1
 62
   256
176
     0
 40
1.0
176
     0
 90
        2
176
     1
  1
strokes_ogs.tif
176
     1
290
     0
176
     1
 40
1.0
176
     1
 40
1.0
176
     1
  0
VISUALSTYLE
  5
40
102
{ACAD_REACTORS
330
2A
102
}
330
2A
100
AcDbVisualStyle
  2
X-Ray
 70
    25
177
     3
291
     0
 70
    58
 90
        2
176
     1
 90
        2
176
     1
 90
        1
176
     1
 90
        1
176
     1
 40
0.5
176
     1
 40
30.0
176
     1
 62
     7
420
 16777215
176
     1
 90
        1
176
     1
 90
        0
176
     1
 62
     7
176
     1
 62
   257
176
     1
 90
        1
176
     1
 90
        1
176
     1
 40
1.0
176
     1
 90
        8
176
     1
 62
     7
176
     1
 40
1.0
176
     1
 90
        1
176
     1
 90
        6
176
     1
 90
        2
176
     1
 62
     7
176
     1
 90
        3
176
     1
 90
        0
176
     1
 90
        0
176
     1
290
     0
176
     1
 90
       13
176
     1
 40
0.0
176
     1
 90
        0
176
     1
290
     0
176
     1
290
     1
176
     1
290
     1
176
     1
290
     0
176
     1
290
     0
176
     1
290
     0
176
     1
290
     0
176
     1
290
     0
176
     1
290
     0
176
     1
 90
       50
176
     1
 40
0.0
176
     1
 40
1.0
176
     1
 90
        0
176
     1
 62
    18
420
        0
176
     1
 90
       50
176
     1
 90
        3
176
     1
 62
     5
420
      255
176
     1
290
     0
176
     1
 90
       50
176
     1
 90
       50
176
     1
 90
       50
176
     1
290
     0
176
     1
 90
       50
176
     1
 62
   256
176
     0
 40
1.0
176
     0
 90
        2
176
     1
  1
strokes_ogs.tif
176
     1
290
     0
176
     1
 40
1.0
176
     1
 40
1.0
176
     1
  0
DICTIONARYVAR
  5
2C3
102
{ACAD_REACTORS
330
2C2
102
}
330
2C2
100
DictionaryVariables
280
     0
  1
1:1
  0
DICTIONARYVAR
  5
2C5
102
{ACAD_REACTORS
330
2C2
102
}
330
2C2
100
DictionaryVariables
280
     0
  1
STANDARD
  0
DICTIONARYVAR
  5
2C4
102
{ACAD_REACTORS
330
2C2
102
}
330
2C2
100
DictionaryVariables
280
     0
  1
STANDARD
  0
DICTIONARYVAR
  5
527
102
{ACAD_REACTORS
330
2C2
102
}
330
2C2
100
DictionaryVariables
280
     0
  1
Metric50
  0
DICTIONARYVAR
  5
528
102
{ACAD_REACTORS
330
2C2
102
}
330
2C2
100
DictionaryVariables
280
     0
  1
Metric50
  0
XRECORD
  5
53A
102
{ACAD_REACTORS
330
539
102
}
330
539
100
AcDbXrecord
280
     1
330
537
  0
DICTIONARY
  5
53F
330
6A
100
AcDbDictionary
280
     1
281
     1
  3
ACAD_ROUNDTRIP_2008_TABLESTYLE_CELLSTYLEMAP
360
540
  0
CELLSTYLEMAP
  5
540
102
{ACAD_REACTORS
330
53F
102
}
330
53F
100
AcDbCellStyleMap
 90
        3
300
CELLSTYLE
  1
TABLEFORMAT_BEGIN
 90
        5
170
     1
 91
        0
 92
    32768
 62
   257
 93
        1
300
CONTENTFORMAT
  1
CONTENTFORMAT_BEGIN
 90
        0
 91
        0
 92
        4
 93
        0
300

 40
0.0
140
1.0
 94
        5
 62
     0
340
11
144
0.25
309
CONTENTFORMAT_END
171
     1
301
MARGIN
  1
CELLMARGIN_BEGIN
 40
0.06
 40
0.06
 40
0.06
 40
0.06
 40
0.06
 40
0.06
309
CELLMARGIN_END
 94
        6
 95
        1
302
GRIDFORMAT
  1
GRIDFORMAT_BEGIN
 90
        0
 91
        1
 62
     0
 92
       -2
340
14
 93
        0
 40
0.045
309
GRIDFORMAT_END
 95
        2
302
GRIDFORMAT
  1
GRIDFORMAT_BEGIN
 90
        0
 91
        1
 62
     0
 92
       -2
340
14
 93
        0
 40
0.045
309
GRIDFORMAT_END
 95
        4
302
GRIDFORMAT
  1
GRIDFORMAT_BEGIN
 90
        0
 91
        1
 62
     0
 92
       -2
340
14
 93
        0
 40
0.045
309
GRIDFORMAT_END
 95
        8
302
GRIDFORMAT
  1
GRIDFORMAT_BEGIN
 90
        0
 91
        1
 62
     0
 92
       -2
340
14
 93
        0
 40
0.045
309
GRIDFORMAT_END
 95
       16
302
GRIDFORMAT
  1
GRIDFORMAT_BEGIN
 90
        0
 91
        1
 62
     0
 92
       -2
340
14
 93
        0
 40
0.045
309
GRIDFORMAT_END
 95
       32
302
GRIDFORMAT
  1
GRIDFORMAT_BEGIN
 90
        0
 91
        1
 62
     0
 92
       -2
340
14
 93
        0
 40
0.045
309
GRIDFORMAT_END
309
TABLEFORMAT_END
  1
CELLSTYLE_BEGIN
 90
        1
 91
        1
300
_TITLE
309
CELLSTYLE_END
300
CELLSTYLE
  1
TABLEFORMAT_BEGIN
 90
        5
170
     1
 91
        0
 92
        0
 62
   257
 93
        1
300
CONTENTFORMAT
  1
CONTENTFORMAT_BEGIN
 90
        0
 91
        0
 92
        4
 93
        0
300

 40
0.0
140
1.0
 94
        5
 62
     0
340
11
144
0.18
309
CONTENTFORMAT_END
171
     1
301
MARGIN
  1
CELLMARGIN_BEGIN
 40
0.06
 40
0.06
 40
0.06
 40
0.06
 40
0.06
 40
0.06
309
CELLMARGIN_END
 94
        6
 95
        1
302
GRIDFORMAT
  1
GRIDFORMAT_BEGIN
 90
        0
 91
        1
 62
     0
 92
       -2
340
14
 93
        0
 40
0.045
309
GRIDFORMAT_END
 95
        2
302
GRIDFORMAT
  1
GRIDFORMAT_BEGIN
 90
        0
 91
        1
 62
     0
 92
       -2
340
14
 93
        0
 40
0.045
309
GRIDFORMAT_END
 95
        4
302
GRIDFORMAT
  1
GRIDFORMAT_BEGIN
 90
        0
 91
        1
 62
     0
 92
       -2
340
14
 93
        0
 40
0.045
309
GRIDFORMAT_END
 95
        8
302
GRIDFORMAT
  1
GRIDFORMAT_BEGIN
 90
        0
 91
        1
 62
     0
 92
       -2
340
14
 93
        0
 40
0.045
309
GRIDFORMAT_END
 95
       16
302
GRIDFORMAT
  1
GRIDFORMAT_BEGIN
 90
        0
 91
        1
 62
     0
 92
       -2
340
14
 93
        0
 40
0.045
309
GRIDFORMAT_END
 95
       32
302
GRIDFORMAT
  1
GRIDFORMAT_BEGIN
 90
        0
 91
        1
 62
     0
 92
       -2
340
14
 93
        0
 40
0.045
309
GRIDFORMAT_END
309
TABLEFORMAT_END
  1
CELLSTYLE_BEGIN
 90
        2
 91
        1
300
_HEADER
309
CELLSTYLE_END
300
CELLSTYLE
  1
TABLEFORMAT_BEGIN
 90
        5
170
     1
 91
        0
 92
        0
 62
   257
 93
        1
300
CONTENTFORMAT
  1
CONTENTFORMAT_BEGIN
 90
        0
 91
        0
 92
        4
 93
        0
300

 40
0.0
140
1.0
 94
        2
 62
     0
340
11
144
0.18
309
CONTENTFORMAT_END
171
     1
301
MARGIN
  1
CELLMARGIN_BEGIN
 40
0.06
 40
0.06
 40
0.06
 40
0.06
 40
0.06
 40
0.06
309
CELLMARGIN_END
 94
        6
 95
        1
302
GRIDFORMAT
  1
GRIDFORMAT_BEGIN
 90
        0
 91
        1
 62
     0
 92
       -2
340
14
 93
        0
 40
0.045
309
GRIDFORMAT_END
 95
        2
302
GRIDFORMAT
  1
GRIDFORMAT_BEGIN
 90
        0
 91
        1
 62
     0
 92
       -2
340
14
 93
        0
 40
0.045
309
GRIDFORMAT_END
 95
        4
302
GRIDFORMAT
  1
GRIDFORMAT_BEGIN
 90
        0
 91
        1
 62
     0
 92
       -2
340
14
 93
        0
 40
0.045
309
GRIDFORMAT_END
 95
        8
302
GRIDFORMAT
  1
GRIDFORMAT_BEGIN
 90
        0
 91
        1
 62
     0
 92
       -2
340
14
 93
        0
 40
0.045
309
GRIDFORMAT_END
 95
       16
302
GRIDFORMAT
  1
GRIDFORMAT_BEGIN
 90
        0
 91
        1
 62
     0
 92
       -2
340
14
 93
        0
 40
0.045
309
GRIDFORMAT_END
 95
       32
302
GRIDFORMAT
  1
GRIDFORMAT_BEGIN
 90
        0
 91
        1
 62
     0
 92
       -2
340
14
 93
        0
 40
0.045
309
GRIDFORMAT_END
309
TABLEFORMAT_END
  1
CELLSTYLE_BEGIN
 90
        3
 91
        2
300
_DATA
309
CELLSTYLE_END
  0
ENDSEC
  0
EOF
